%TF.GenerationSoftware,KiCad,Pcbnew,9.0.5*%
%TF.CreationDate,2026-04-03T10:43:28-05:00*%
%TF.ProjectId,Brine,4272696e-652e-46b6-9963-61645f706362,Dev Board 01*%
%TF.SameCoordinates,Original*%
%TF.FileFunction,Paste,Top*%
%TF.FilePolarity,Positive*%
%FSLAX46Y46*%
G04 Gerber Fmt 4.6, Leading zero omitted, Abs format (unit mm)*
G04 Created by KiCad (PCBNEW 9.0.5) date 2026-04-03 10:43:28*
%MOMM*%
%LPD*%
G01*
G04 APERTURE LIST*
G04 Aperture macros list*
%AMRoundRect*
0 Rectangle with rounded corners*
0 $1 Rounding radius*
0 $2 $3 $4 $5 $6 $7 $8 $9 X,Y pos of 4 corners*
0 Add a 4 corners polygon primitive as box body*
4,1,4,$2,$3,$4,$5,$6,$7,$8,$9,$2,$3,0*
0 Add four circle primitives for the rounded corners*
1,1,$1+$1,$2,$3*
1,1,$1+$1,$4,$5*
1,1,$1+$1,$6,$7*
1,1,$1+$1,$8,$9*
0 Add four rect primitives between the rounded corners*
20,1,$1+$1,$2,$3,$4,$5,0*
20,1,$1+$1,$4,$5,$6,$7,0*
20,1,$1+$1,$6,$7,$8,$9,0*
20,1,$1+$1,$8,$9,$2,$3,0*%
G04 Aperture macros list end*
%ADD10R,1.700000X1.000000*%
%ADD11RoundRect,0.250000X0.450000X-0.262500X0.450000X0.262500X-0.450000X0.262500X-0.450000X-0.262500X0*%
%ADD12RoundRect,0.090000X-0.660000X-0.360000X0.660000X-0.360000X0.660000X0.360000X-0.660000X0.360000X0*%
%ADD13RoundRect,0.250000X0.475000X-0.250000X0.475000X0.250000X-0.475000X0.250000X-0.475000X-0.250000X0*%
%ADD14RoundRect,0.250000X-0.262500X-0.450000X0.262500X-0.450000X0.262500X0.450000X-0.262500X0.450000X0*%
%ADD15RoundRect,0.250000X-0.250000X-0.475000X0.250000X-0.475000X0.250000X0.475000X-0.250000X0.475000X0*%
%ADD16RoundRect,0.062500X-0.127500X-0.062500X0.127500X-0.062500X0.127500X0.062500X-0.127500X0.062500X0*%
%ADD17RoundRect,0.125000X-0.125000X-0.125000X0.125000X-0.125000X0.125000X0.125000X-0.125000X0.125000X0*%
G04 APERTURE END LIST*
D10*
%TO.C,S1*%
X155550000Y-105796000D03*
X149250000Y-105796000D03*
X155550000Y-109596000D03*
X149250000Y-109596000D03*
%TD*%
D11*
%TO.C,R4*%
X162560000Y-95250000D03*
X162560000Y-93425000D03*
%TD*%
D12*
%TO.C,D1*%
X160110000Y-106046000D03*
X160110000Y-109346000D03*
X165010000Y-109346000D03*
X165010000Y-106046000D03*
%TD*%
D13*
%TO.C,C1*%
X162560000Y-98430000D03*
X162560000Y-100330000D03*
%TD*%
D14*
%TO.C,R3*%
X148590000Y-101600000D03*
X150415000Y-101600000D03*
%TD*%
D15*
%TO.C,C3*%
X146050000Y-95250000D03*
X147950000Y-95250000D03*
%TD*%
D16*
%TO.C,U2*%
X150539000Y-96776600D03*
D17*
X150679000Y-96651600D03*
X151479000Y-96651600D03*
X152279000Y-96651600D03*
X153079000Y-96651600D03*
X153879000Y-96651600D03*
X153879000Y-97451600D03*
X153879000Y-98251600D03*
X153079000Y-98251600D03*
X152279000Y-98251600D03*
X151479000Y-98251600D03*
X150679000Y-98251600D03*
X150679000Y-97451600D03*
%TD*%
D14*
%TO.C,R5*%
X154940000Y-101600000D03*
X156765000Y-101600000D03*
%TD*%
D15*
%TO.C,C2*%
X156210000Y-95250000D03*
X158110000Y-95250000D03*
%TD*%
D11*
%TO.C,R1*%
X139700000Y-88345000D03*
X139700000Y-90170000D03*
%TD*%
%TO.C,R2*%
X139700000Y-74930000D03*
X139700000Y-73105000D03*
%TD*%
%TO.C,SDA1*%
X165100000Y-85090000D03*
X165100000Y-83265000D03*
%TD*%
%TO.C,SCL1*%
X165100000Y-77470000D03*
X165100000Y-75645000D03*
%TD*%
M02*
