%TF.GenerationSoftware,KiCad,Pcbnew,9.0.5*%
%TF.CreationDate,2026-04-03T10:43:28-05:00*%
%TF.ProjectId,Brine,4272696e-652e-46b6-9963-61645f706362,Dev Board 01*%
%TF.SameCoordinates,Original*%
%TF.FileFunction,Legend,Top*%
%TF.FilePolarity,Positive*%
%FSLAX46Y46*%
G04 Gerber Fmt 4.6, Leading zero omitted, Abs format (unit mm)*
G04 Created by KiCad (PCBNEW 9.0.5) date 2026-04-03 10:43:28*
%MOMM*%
%LPD*%
G01*
G04 APERTURE LIST*
%ADD10C,0.050000*%
%ADD11C,0.150000*%
%ADD12C,0.127000*%
%ADD13C,0.120000*%
%ADD14C,0.100000*%
%ADD15C,0.504000*%
G04 APERTURE END LIST*
D10*
X151900985Y-94877411D02*
X152641481Y-94877411D01*
X152641481Y-95602946D01*
X151900985Y-95602946D01*
X151900985Y-94877411D01*
X148807054Y-96361604D02*
X150077054Y-95091604D01*
X152666295Y-99614058D02*
G75*
G02*
X151899995Y-99614058I-383150J0D01*
G01*
X151899995Y-99614058D02*
G75*
G02*
X152666295Y-99614058I383150J0D01*
G01*
D11*
X151739992Y-112035256D02*
X151882869Y-112082881D01*
X151882869Y-112082881D02*
X152120996Y-112082881D01*
X152120996Y-112082881D02*
X152216247Y-112035256D01*
X152216247Y-112035256D02*
X152263872Y-111987630D01*
X152263872Y-111987630D02*
X152311497Y-111892379D01*
X152311497Y-111892379D02*
X152311497Y-111797128D01*
X152311497Y-111797128D02*
X152263872Y-111701878D01*
X152263872Y-111701878D02*
X152216247Y-111654252D01*
X152216247Y-111654252D02*
X152120996Y-111606627D01*
X152120996Y-111606627D02*
X151930494Y-111559001D01*
X151930494Y-111559001D02*
X151835243Y-111511376D01*
X151835243Y-111511376D02*
X151787618Y-111463750D01*
X151787618Y-111463750D02*
X151739992Y-111368500D01*
X151739992Y-111368500D02*
X151739992Y-111273249D01*
X151739992Y-111273249D02*
X151787618Y-111177998D01*
X151787618Y-111177998D02*
X151835243Y-111130372D01*
X151835243Y-111130372D02*
X151930494Y-111082747D01*
X151930494Y-111082747D02*
X152168621Y-111082747D01*
X152168621Y-111082747D02*
X152311497Y-111130372D01*
X153264006Y-112082881D02*
X152692501Y-112082881D01*
X152978254Y-112082881D02*
X152978254Y-111082747D01*
X152978254Y-111082747D02*
X152883003Y-111225623D01*
X152883003Y-111225623D02*
X152787752Y-111320874D01*
X152787752Y-111320874D02*
X152692501Y-111368500D01*
X161490819Y-94504166D02*
X161014628Y-94837499D01*
X161490819Y-95075594D02*
X160490819Y-95075594D01*
X160490819Y-95075594D02*
X160490819Y-94694642D01*
X160490819Y-94694642D02*
X160538438Y-94599404D01*
X160538438Y-94599404D02*
X160586057Y-94551785D01*
X160586057Y-94551785D02*
X160681295Y-94504166D01*
X160681295Y-94504166D02*
X160824152Y-94504166D01*
X160824152Y-94504166D02*
X160919390Y-94551785D01*
X160919390Y-94551785D02*
X160967009Y-94599404D01*
X160967009Y-94599404D02*
X161014628Y-94694642D01*
X161014628Y-94694642D02*
X161014628Y-95075594D01*
X160824152Y-93647023D02*
X161490819Y-93647023D01*
X160443200Y-93885118D02*
X161157485Y-94123213D01*
X161157485Y-94123213D02*
X161157485Y-93504166D01*
X163664819Y-95623213D02*
X163664819Y-95004166D01*
X163664819Y-95004166D02*
X164045771Y-95337499D01*
X164045771Y-95337499D02*
X164045771Y-95194642D01*
X164045771Y-95194642D02*
X164093390Y-95099404D01*
X164093390Y-95099404D02*
X164141009Y-95051785D01*
X164141009Y-95051785D02*
X164236247Y-95004166D01*
X164236247Y-95004166D02*
X164474342Y-95004166D01*
X164474342Y-95004166D02*
X164569580Y-95051785D01*
X164569580Y-95051785D02*
X164617200Y-95099404D01*
X164617200Y-95099404D02*
X164664819Y-95194642D01*
X164664819Y-95194642D02*
X164664819Y-95480356D01*
X164664819Y-95480356D02*
X164617200Y-95575594D01*
X164617200Y-95575594D02*
X164569580Y-95623213D01*
X163664819Y-94670832D02*
X163664819Y-94051785D01*
X163664819Y-94051785D02*
X164045771Y-94385118D01*
X164045771Y-94385118D02*
X164045771Y-94242261D01*
X164045771Y-94242261D02*
X164093390Y-94147023D01*
X164093390Y-94147023D02*
X164141009Y-94099404D01*
X164141009Y-94099404D02*
X164236247Y-94051785D01*
X164236247Y-94051785D02*
X164474342Y-94051785D01*
X164474342Y-94051785D02*
X164569580Y-94099404D01*
X164569580Y-94099404D02*
X164617200Y-94147023D01*
X164617200Y-94147023D02*
X164664819Y-94242261D01*
X164664819Y-94242261D02*
X164664819Y-94527975D01*
X164664819Y-94527975D02*
X164617200Y-94623213D01*
X164617200Y-94623213D02*
X164569580Y-94670832D01*
X163664819Y-93432737D02*
X163664819Y-93337499D01*
X163664819Y-93337499D02*
X163712438Y-93242261D01*
X163712438Y-93242261D02*
X163760057Y-93194642D01*
X163760057Y-93194642D02*
X163855295Y-93147023D01*
X163855295Y-93147023D02*
X164045771Y-93099404D01*
X164045771Y-93099404D02*
X164283866Y-93099404D01*
X164283866Y-93099404D02*
X164474342Y-93147023D01*
X164474342Y-93147023D02*
X164569580Y-93194642D01*
X164569580Y-93194642D02*
X164617200Y-93242261D01*
X164617200Y-93242261D02*
X164664819Y-93337499D01*
X164664819Y-93337499D02*
X164664819Y-93432737D01*
X164664819Y-93432737D02*
X164617200Y-93527975D01*
X164617200Y-93527975D02*
X164569580Y-93575594D01*
X164569580Y-93575594D02*
X164474342Y-93623213D01*
X164474342Y-93623213D02*
X164283866Y-93670832D01*
X164283866Y-93670832D02*
X164045771Y-93670832D01*
X164045771Y-93670832D02*
X163855295Y-93623213D01*
X163855295Y-93623213D02*
X163760057Y-93575594D01*
X163760057Y-93575594D02*
X163712438Y-93527975D01*
X163712438Y-93527975D02*
X163664819Y-93432737D01*
X161821905Y-104650819D02*
X161821905Y-103650819D01*
X161821905Y-103650819D02*
X162060000Y-103650819D01*
X162060000Y-103650819D02*
X162202857Y-103698438D01*
X162202857Y-103698438D02*
X162298095Y-103793676D01*
X162298095Y-103793676D02*
X162345714Y-103888914D01*
X162345714Y-103888914D02*
X162393333Y-104079390D01*
X162393333Y-104079390D02*
X162393333Y-104222247D01*
X162393333Y-104222247D02*
X162345714Y-104412723D01*
X162345714Y-104412723D02*
X162298095Y-104507961D01*
X162298095Y-104507961D02*
X162202857Y-104603200D01*
X162202857Y-104603200D02*
X162060000Y-104650819D01*
X162060000Y-104650819D02*
X161821905Y-104650819D01*
X163345714Y-104650819D02*
X162774286Y-104650819D01*
X163060000Y-104650819D02*
X163060000Y-103650819D01*
X163060000Y-103650819D02*
X162964762Y-103793676D01*
X162964762Y-103793676D02*
X162869524Y-103888914D01*
X162869524Y-103888914D02*
X162774286Y-103936533D01*
X161239580Y-99546666D02*
X161287200Y-99594285D01*
X161287200Y-99594285D02*
X161334819Y-99737142D01*
X161334819Y-99737142D02*
X161334819Y-99832380D01*
X161334819Y-99832380D02*
X161287200Y-99975237D01*
X161287200Y-99975237D02*
X161191961Y-100070475D01*
X161191961Y-100070475D02*
X161096723Y-100118094D01*
X161096723Y-100118094D02*
X160906247Y-100165713D01*
X160906247Y-100165713D02*
X160763390Y-100165713D01*
X160763390Y-100165713D02*
X160572914Y-100118094D01*
X160572914Y-100118094D02*
X160477676Y-100070475D01*
X160477676Y-100070475D02*
X160382438Y-99975237D01*
X160382438Y-99975237D02*
X160334819Y-99832380D01*
X160334819Y-99832380D02*
X160334819Y-99737142D01*
X160334819Y-99737142D02*
X160382438Y-99594285D01*
X160382438Y-99594285D02*
X160430057Y-99546666D01*
X161334819Y-98594285D02*
X161334819Y-99165713D01*
X161334819Y-98879999D02*
X160334819Y-98879999D01*
X160334819Y-98879999D02*
X160477676Y-98975237D01*
X160477676Y-98975237D02*
X160572914Y-99070475D01*
X160572914Y-99070475D02*
X160620533Y-99165713D01*
X164694819Y-100927619D02*
X164694819Y-101499047D01*
X164694819Y-101213333D02*
X163694819Y-101213333D01*
X163694819Y-101213333D02*
X163837676Y-101308571D01*
X163837676Y-101308571D02*
X163932914Y-101403809D01*
X163932914Y-101403809D02*
X163980533Y-101499047D01*
X163694819Y-100308571D02*
X163694819Y-100213333D01*
X163694819Y-100213333D02*
X163742438Y-100118095D01*
X163742438Y-100118095D02*
X163790057Y-100070476D01*
X163790057Y-100070476D02*
X163885295Y-100022857D01*
X163885295Y-100022857D02*
X164075771Y-99975238D01*
X164075771Y-99975238D02*
X164313866Y-99975238D01*
X164313866Y-99975238D02*
X164504342Y-100022857D01*
X164504342Y-100022857D02*
X164599580Y-100070476D01*
X164599580Y-100070476D02*
X164647200Y-100118095D01*
X164647200Y-100118095D02*
X164694819Y-100213333D01*
X164694819Y-100213333D02*
X164694819Y-100308571D01*
X164694819Y-100308571D02*
X164647200Y-100403809D01*
X164647200Y-100403809D02*
X164599580Y-100451428D01*
X164599580Y-100451428D02*
X164504342Y-100499047D01*
X164504342Y-100499047D02*
X164313866Y-100546666D01*
X164313866Y-100546666D02*
X164075771Y-100546666D01*
X164075771Y-100546666D02*
X163885295Y-100499047D01*
X163885295Y-100499047D02*
X163790057Y-100451428D01*
X163790057Y-100451428D02*
X163742438Y-100403809D01*
X163742438Y-100403809D02*
X163694819Y-100308571D01*
X163694819Y-99356190D02*
X163694819Y-99260952D01*
X163694819Y-99260952D02*
X163742438Y-99165714D01*
X163742438Y-99165714D02*
X163790057Y-99118095D01*
X163790057Y-99118095D02*
X163885295Y-99070476D01*
X163885295Y-99070476D02*
X164075771Y-99022857D01*
X164075771Y-99022857D02*
X164313866Y-99022857D01*
X164313866Y-99022857D02*
X164504342Y-99070476D01*
X164504342Y-99070476D02*
X164599580Y-99118095D01*
X164599580Y-99118095D02*
X164647200Y-99165714D01*
X164647200Y-99165714D02*
X164694819Y-99260952D01*
X164694819Y-99260952D02*
X164694819Y-99356190D01*
X164694819Y-99356190D02*
X164647200Y-99451428D01*
X164647200Y-99451428D02*
X164599580Y-99499047D01*
X164599580Y-99499047D02*
X164504342Y-99546666D01*
X164504342Y-99546666D02*
X164313866Y-99594285D01*
X164313866Y-99594285D02*
X164075771Y-99594285D01*
X164075771Y-99594285D02*
X163885295Y-99546666D01*
X163885295Y-99546666D02*
X163790057Y-99499047D01*
X163790057Y-99499047D02*
X163742438Y-99451428D01*
X163742438Y-99451428D02*
X163694819Y-99356190D01*
X164028152Y-98165714D02*
X164694819Y-98165714D01*
X164028152Y-98594285D02*
X164551961Y-98594285D01*
X164551961Y-98594285D02*
X164647200Y-98546666D01*
X164647200Y-98546666D02*
X164694819Y-98451428D01*
X164694819Y-98451428D02*
X164694819Y-98308571D01*
X164694819Y-98308571D02*
X164647200Y-98213333D01*
X164647200Y-98213333D02*
X164599580Y-98165714D01*
X164171009Y-97356190D02*
X164171009Y-97689523D01*
X164694819Y-97689523D02*
X163694819Y-97689523D01*
X163694819Y-97689523D02*
X163694819Y-97213333D01*
X149335833Y-100404819D02*
X149002500Y-99928628D01*
X148764405Y-100404819D02*
X148764405Y-99404819D01*
X148764405Y-99404819D02*
X149145357Y-99404819D01*
X149145357Y-99404819D02*
X149240595Y-99452438D01*
X149240595Y-99452438D02*
X149288214Y-99500057D01*
X149288214Y-99500057D02*
X149335833Y-99595295D01*
X149335833Y-99595295D02*
X149335833Y-99738152D01*
X149335833Y-99738152D02*
X149288214Y-99833390D01*
X149288214Y-99833390D02*
X149240595Y-99881009D01*
X149240595Y-99881009D02*
X149145357Y-99928628D01*
X149145357Y-99928628D02*
X148764405Y-99928628D01*
X149669167Y-99404819D02*
X150288214Y-99404819D01*
X150288214Y-99404819D02*
X149954881Y-99785771D01*
X149954881Y-99785771D02*
X150097738Y-99785771D01*
X150097738Y-99785771D02*
X150192976Y-99833390D01*
X150192976Y-99833390D02*
X150240595Y-99881009D01*
X150240595Y-99881009D02*
X150288214Y-99976247D01*
X150288214Y-99976247D02*
X150288214Y-100214342D01*
X150288214Y-100214342D02*
X150240595Y-100309580D01*
X150240595Y-100309580D02*
X150192976Y-100357200D01*
X150192976Y-100357200D02*
X150097738Y-100404819D01*
X150097738Y-100404819D02*
X149812024Y-100404819D01*
X149812024Y-100404819D02*
X149716786Y-100357200D01*
X149716786Y-100357200D02*
X149669167Y-100309580D01*
X146833333Y-93929580D02*
X146785714Y-93977200D01*
X146785714Y-93977200D02*
X146642857Y-94024819D01*
X146642857Y-94024819D02*
X146547619Y-94024819D01*
X146547619Y-94024819D02*
X146404762Y-93977200D01*
X146404762Y-93977200D02*
X146309524Y-93881961D01*
X146309524Y-93881961D02*
X146261905Y-93786723D01*
X146261905Y-93786723D02*
X146214286Y-93596247D01*
X146214286Y-93596247D02*
X146214286Y-93453390D01*
X146214286Y-93453390D02*
X146261905Y-93262914D01*
X146261905Y-93262914D02*
X146309524Y-93167676D01*
X146309524Y-93167676D02*
X146404762Y-93072438D01*
X146404762Y-93072438D02*
X146547619Y-93024819D01*
X146547619Y-93024819D02*
X146642857Y-93024819D01*
X146642857Y-93024819D02*
X146785714Y-93072438D01*
X146785714Y-93072438D02*
X146833333Y-93120057D01*
X147166667Y-93024819D02*
X147785714Y-93024819D01*
X147785714Y-93024819D02*
X147452381Y-93405771D01*
X147452381Y-93405771D02*
X147595238Y-93405771D01*
X147595238Y-93405771D02*
X147690476Y-93453390D01*
X147690476Y-93453390D02*
X147738095Y-93501009D01*
X147738095Y-93501009D02*
X147785714Y-93596247D01*
X147785714Y-93596247D02*
X147785714Y-93834342D01*
X147785714Y-93834342D02*
X147738095Y-93929580D01*
X147738095Y-93929580D02*
X147690476Y-93977200D01*
X147690476Y-93977200D02*
X147595238Y-94024819D01*
X147595238Y-94024819D02*
X147309524Y-94024819D01*
X147309524Y-94024819D02*
X147214286Y-93977200D01*
X147214286Y-93977200D02*
X147166667Y-93929580D01*
X153403318Y-94767440D02*
X153403318Y-95576963D01*
X153403318Y-95576963D02*
X153450937Y-95672201D01*
X153450937Y-95672201D02*
X153498556Y-95719821D01*
X153498556Y-95719821D02*
X153593794Y-95767440D01*
X153593794Y-95767440D02*
X153784270Y-95767440D01*
X153784270Y-95767440D02*
X153879508Y-95719821D01*
X153879508Y-95719821D02*
X153927127Y-95672201D01*
X153927127Y-95672201D02*
X153974746Y-95576963D01*
X153974746Y-95576963D02*
X153974746Y-94767440D01*
X154403318Y-94862678D02*
X154450937Y-94815059D01*
X154450937Y-94815059D02*
X154546175Y-94767440D01*
X154546175Y-94767440D02*
X154784270Y-94767440D01*
X154784270Y-94767440D02*
X154879508Y-94815059D01*
X154879508Y-94815059D02*
X154927127Y-94862678D01*
X154927127Y-94862678D02*
X154974746Y-94957916D01*
X154974746Y-94957916D02*
X154974746Y-95053154D01*
X154974746Y-95053154D02*
X154927127Y-95196011D01*
X154927127Y-95196011D02*
X154355699Y-95767440D01*
X154355699Y-95767440D02*
X154974746Y-95767440D01*
X155685833Y-100404819D02*
X155352500Y-99928628D01*
X155114405Y-100404819D02*
X155114405Y-99404819D01*
X155114405Y-99404819D02*
X155495357Y-99404819D01*
X155495357Y-99404819D02*
X155590595Y-99452438D01*
X155590595Y-99452438D02*
X155638214Y-99500057D01*
X155638214Y-99500057D02*
X155685833Y-99595295D01*
X155685833Y-99595295D02*
X155685833Y-99738152D01*
X155685833Y-99738152D02*
X155638214Y-99833390D01*
X155638214Y-99833390D02*
X155590595Y-99881009D01*
X155590595Y-99881009D02*
X155495357Y-99928628D01*
X155495357Y-99928628D02*
X155114405Y-99928628D01*
X156590595Y-99404819D02*
X156114405Y-99404819D01*
X156114405Y-99404819D02*
X156066786Y-99881009D01*
X156066786Y-99881009D02*
X156114405Y-99833390D01*
X156114405Y-99833390D02*
X156209643Y-99785771D01*
X156209643Y-99785771D02*
X156447738Y-99785771D01*
X156447738Y-99785771D02*
X156542976Y-99833390D01*
X156542976Y-99833390D02*
X156590595Y-99881009D01*
X156590595Y-99881009D02*
X156638214Y-99976247D01*
X156638214Y-99976247D02*
X156638214Y-100214342D01*
X156638214Y-100214342D02*
X156590595Y-100309580D01*
X156590595Y-100309580D02*
X156542976Y-100357200D01*
X156542976Y-100357200D02*
X156447738Y-100404819D01*
X156447738Y-100404819D02*
X156209643Y-100404819D01*
X156209643Y-100404819D02*
X156114405Y-100357200D01*
X156114405Y-100357200D02*
X156066786Y-100309580D01*
X156993333Y-93929580D02*
X156945714Y-93977200D01*
X156945714Y-93977200D02*
X156802857Y-94024819D01*
X156802857Y-94024819D02*
X156707619Y-94024819D01*
X156707619Y-94024819D02*
X156564762Y-93977200D01*
X156564762Y-93977200D02*
X156469524Y-93881961D01*
X156469524Y-93881961D02*
X156421905Y-93786723D01*
X156421905Y-93786723D02*
X156374286Y-93596247D01*
X156374286Y-93596247D02*
X156374286Y-93453390D01*
X156374286Y-93453390D02*
X156421905Y-93262914D01*
X156421905Y-93262914D02*
X156469524Y-93167676D01*
X156469524Y-93167676D02*
X156564762Y-93072438D01*
X156564762Y-93072438D02*
X156707619Y-93024819D01*
X156707619Y-93024819D02*
X156802857Y-93024819D01*
X156802857Y-93024819D02*
X156945714Y-93072438D01*
X156945714Y-93072438D02*
X156993333Y-93120057D01*
X157374286Y-93120057D02*
X157421905Y-93072438D01*
X157421905Y-93072438D02*
X157517143Y-93024819D01*
X157517143Y-93024819D02*
X157755238Y-93024819D01*
X157755238Y-93024819D02*
X157850476Y-93072438D01*
X157850476Y-93072438D02*
X157898095Y-93120057D01*
X157898095Y-93120057D02*
X157945714Y-93215295D01*
X157945714Y-93215295D02*
X157945714Y-93310533D01*
X157945714Y-93310533D02*
X157898095Y-93453390D01*
X157898095Y-93453390D02*
X157326667Y-94024819D01*
X157326667Y-94024819D02*
X157945714Y-94024819D01*
X138504819Y-89424166D02*
X138028628Y-89757499D01*
X138504819Y-89995594D02*
X137504819Y-89995594D01*
X137504819Y-89995594D02*
X137504819Y-89614642D01*
X137504819Y-89614642D02*
X137552438Y-89519404D01*
X137552438Y-89519404D02*
X137600057Y-89471785D01*
X137600057Y-89471785D02*
X137695295Y-89424166D01*
X137695295Y-89424166D02*
X137838152Y-89424166D01*
X137838152Y-89424166D02*
X137933390Y-89471785D01*
X137933390Y-89471785D02*
X137981009Y-89519404D01*
X137981009Y-89519404D02*
X138028628Y-89614642D01*
X138028628Y-89614642D02*
X138028628Y-89995594D01*
X138504819Y-88471785D02*
X138504819Y-89043213D01*
X138504819Y-88757499D02*
X137504819Y-88757499D01*
X137504819Y-88757499D02*
X137647676Y-88852737D01*
X137647676Y-88852737D02*
X137742914Y-88947975D01*
X137742914Y-88947975D02*
X137790533Y-89043213D01*
X140900057Y-90900356D02*
X140852438Y-90852737D01*
X140852438Y-90852737D02*
X140804819Y-90757499D01*
X140804819Y-90757499D02*
X140804819Y-90519404D01*
X140804819Y-90519404D02*
X140852438Y-90424166D01*
X140852438Y-90424166D02*
X140900057Y-90376547D01*
X140900057Y-90376547D02*
X140995295Y-90328928D01*
X140995295Y-90328928D02*
X141090533Y-90328928D01*
X141090533Y-90328928D02*
X141233390Y-90376547D01*
X141233390Y-90376547D02*
X141804819Y-90947975D01*
X141804819Y-90947975D02*
X141804819Y-90328928D01*
X140900057Y-89947975D02*
X140852438Y-89900356D01*
X140852438Y-89900356D02*
X140804819Y-89805118D01*
X140804819Y-89805118D02*
X140804819Y-89567023D01*
X140804819Y-89567023D02*
X140852438Y-89471785D01*
X140852438Y-89471785D02*
X140900057Y-89424166D01*
X140900057Y-89424166D02*
X140995295Y-89376547D01*
X140995295Y-89376547D02*
X141090533Y-89376547D01*
X141090533Y-89376547D02*
X141233390Y-89424166D01*
X141233390Y-89424166D02*
X141804819Y-89995594D01*
X141804819Y-89995594D02*
X141804819Y-89376547D01*
X140804819Y-88757499D02*
X140804819Y-88662261D01*
X140804819Y-88662261D02*
X140852438Y-88567023D01*
X140852438Y-88567023D02*
X140900057Y-88519404D01*
X140900057Y-88519404D02*
X140995295Y-88471785D01*
X140995295Y-88471785D02*
X141185771Y-88424166D01*
X141185771Y-88424166D02*
X141423866Y-88424166D01*
X141423866Y-88424166D02*
X141614342Y-88471785D01*
X141614342Y-88471785D02*
X141709580Y-88519404D01*
X141709580Y-88519404D02*
X141757200Y-88567023D01*
X141757200Y-88567023D02*
X141804819Y-88662261D01*
X141804819Y-88662261D02*
X141804819Y-88757499D01*
X141804819Y-88757499D02*
X141757200Y-88852737D01*
X141757200Y-88852737D02*
X141709580Y-88900356D01*
X141709580Y-88900356D02*
X141614342Y-88947975D01*
X141614342Y-88947975D02*
X141423866Y-88995594D01*
X141423866Y-88995594D02*
X141185771Y-88995594D01*
X141185771Y-88995594D02*
X140995295Y-88947975D01*
X140995295Y-88947975D02*
X140900057Y-88900356D01*
X140900057Y-88900356D02*
X140852438Y-88852737D01*
X140852438Y-88852737D02*
X140804819Y-88757499D01*
X141804819Y-87995594D02*
X140804819Y-87995594D01*
X141423866Y-87900356D02*
X141804819Y-87614642D01*
X141138152Y-87614642D02*
X141519104Y-87995594D01*
X138504819Y-74184166D02*
X138028628Y-74517499D01*
X138504819Y-74755594D02*
X137504819Y-74755594D01*
X137504819Y-74755594D02*
X137504819Y-74374642D01*
X137504819Y-74374642D02*
X137552438Y-74279404D01*
X137552438Y-74279404D02*
X137600057Y-74231785D01*
X137600057Y-74231785D02*
X137695295Y-74184166D01*
X137695295Y-74184166D02*
X137838152Y-74184166D01*
X137838152Y-74184166D02*
X137933390Y-74231785D01*
X137933390Y-74231785D02*
X137981009Y-74279404D01*
X137981009Y-74279404D02*
X138028628Y-74374642D01*
X138028628Y-74374642D02*
X138028628Y-74755594D01*
X137600057Y-73803213D02*
X137552438Y-73755594D01*
X137552438Y-73755594D02*
X137504819Y-73660356D01*
X137504819Y-73660356D02*
X137504819Y-73422261D01*
X137504819Y-73422261D02*
X137552438Y-73327023D01*
X137552438Y-73327023D02*
X137600057Y-73279404D01*
X137600057Y-73279404D02*
X137695295Y-73231785D01*
X137695295Y-73231785D02*
X137790533Y-73231785D01*
X137790533Y-73231785D02*
X137933390Y-73279404D01*
X137933390Y-73279404D02*
X138504819Y-73850832D01*
X138504819Y-73850832D02*
X138504819Y-73231785D01*
X141804819Y-75088928D02*
X141804819Y-75660356D01*
X141804819Y-75374642D02*
X140804819Y-75374642D01*
X140804819Y-75374642D02*
X140947676Y-75469880D01*
X140947676Y-75469880D02*
X141042914Y-75565118D01*
X141042914Y-75565118D02*
X141090533Y-75660356D01*
X140804819Y-74469880D02*
X140804819Y-74374642D01*
X140804819Y-74374642D02*
X140852438Y-74279404D01*
X140852438Y-74279404D02*
X140900057Y-74231785D01*
X140900057Y-74231785D02*
X140995295Y-74184166D01*
X140995295Y-74184166D02*
X141185771Y-74136547D01*
X141185771Y-74136547D02*
X141423866Y-74136547D01*
X141423866Y-74136547D02*
X141614342Y-74184166D01*
X141614342Y-74184166D02*
X141709580Y-74231785D01*
X141709580Y-74231785D02*
X141757200Y-74279404D01*
X141757200Y-74279404D02*
X141804819Y-74374642D01*
X141804819Y-74374642D02*
X141804819Y-74469880D01*
X141804819Y-74469880D02*
X141757200Y-74565118D01*
X141757200Y-74565118D02*
X141709580Y-74612737D01*
X141709580Y-74612737D02*
X141614342Y-74660356D01*
X141614342Y-74660356D02*
X141423866Y-74707975D01*
X141423866Y-74707975D02*
X141185771Y-74707975D01*
X141185771Y-74707975D02*
X140995295Y-74660356D01*
X140995295Y-74660356D02*
X140900057Y-74612737D01*
X140900057Y-74612737D02*
X140852438Y-74565118D01*
X140852438Y-74565118D02*
X140804819Y-74469880D01*
X140804819Y-73517499D02*
X140804819Y-73422261D01*
X140804819Y-73422261D02*
X140852438Y-73327023D01*
X140852438Y-73327023D02*
X140900057Y-73279404D01*
X140900057Y-73279404D02*
X140995295Y-73231785D01*
X140995295Y-73231785D02*
X141185771Y-73184166D01*
X141185771Y-73184166D02*
X141423866Y-73184166D01*
X141423866Y-73184166D02*
X141614342Y-73231785D01*
X141614342Y-73231785D02*
X141709580Y-73279404D01*
X141709580Y-73279404D02*
X141757200Y-73327023D01*
X141757200Y-73327023D02*
X141804819Y-73422261D01*
X141804819Y-73422261D02*
X141804819Y-73517499D01*
X141804819Y-73517499D02*
X141757200Y-73612737D01*
X141757200Y-73612737D02*
X141709580Y-73660356D01*
X141709580Y-73660356D02*
X141614342Y-73707975D01*
X141614342Y-73707975D02*
X141423866Y-73755594D01*
X141423866Y-73755594D02*
X141185771Y-73755594D01*
X141185771Y-73755594D02*
X140995295Y-73707975D01*
X140995295Y-73707975D02*
X140900057Y-73660356D01*
X140900057Y-73660356D02*
X140852438Y-73612737D01*
X140852438Y-73612737D02*
X140804819Y-73517499D01*
X141804819Y-72755594D02*
X140804819Y-72755594D01*
X141423866Y-72660356D02*
X141804819Y-72374642D01*
X141138152Y-72374642D02*
X141519104Y-72755594D01*
X163857200Y-85867975D02*
X163904819Y-85725118D01*
X163904819Y-85725118D02*
X163904819Y-85487023D01*
X163904819Y-85487023D02*
X163857200Y-85391785D01*
X163857200Y-85391785D02*
X163809580Y-85344166D01*
X163809580Y-85344166D02*
X163714342Y-85296547D01*
X163714342Y-85296547D02*
X163619104Y-85296547D01*
X163619104Y-85296547D02*
X163523866Y-85344166D01*
X163523866Y-85344166D02*
X163476247Y-85391785D01*
X163476247Y-85391785D02*
X163428628Y-85487023D01*
X163428628Y-85487023D02*
X163381009Y-85677499D01*
X163381009Y-85677499D02*
X163333390Y-85772737D01*
X163333390Y-85772737D02*
X163285771Y-85820356D01*
X163285771Y-85820356D02*
X163190533Y-85867975D01*
X163190533Y-85867975D02*
X163095295Y-85867975D01*
X163095295Y-85867975D02*
X163000057Y-85820356D01*
X163000057Y-85820356D02*
X162952438Y-85772737D01*
X162952438Y-85772737D02*
X162904819Y-85677499D01*
X162904819Y-85677499D02*
X162904819Y-85439404D01*
X162904819Y-85439404D02*
X162952438Y-85296547D01*
X163904819Y-84867975D02*
X162904819Y-84867975D01*
X162904819Y-84867975D02*
X162904819Y-84629880D01*
X162904819Y-84629880D02*
X162952438Y-84487023D01*
X162952438Y-84487023D02*
X163047676Y-84391785D01*
X163047676Y-84391785D02*
X163142914Y-84344166D01*
X163142914Y-84344166D02*
X163333390Y-84296547D01*
X163333390Y-84296547D02*
X163476247Y-84296547D01*
X163476247Y-84296547D02*
X163666723Y-84344166D01*
X163666723Y-84344166D02*
X163761961Y-84391785D01*
X163761961Y-84391785D02*
X163857200Y-84487023D01*
X163857200Y-84487023D02*
X163904819Y-84629880D01*
X163904819Y-84629880D02*
X163904819Y-84867975D01*
X163619104Y-83915594D02*
X163619104Y-83439404D01*
X163904819Y-84010832D02*
X162904819Y-83677499D01*
X162904819Y-83677499D02*
X163904819Y-83344166D01*
X163904819Y-82487023D02*
X163904819Y-83058451D01*
X163904819Y-82772737D02*
X162904819Y-82772737D01*
X162904819Y-82772737D02*
X163047676Y-82867975D01*
X163047676Y-82867975D02*
X163142914Y-82963213D01*
X163142914Y-82963213D02*
X163190533Y-83058451D01*
X166300057Y-85582261D02*
X166252438Y-85534642D01*
X166252438Y-85534642D02*
X166204819Y-85439404D01*
X166204819Y-85439404D02*
X166204819Y-85201309D01*
X166204819Y-85201309D02*
X166252438Y-85106071D01*
X166252438Y-85106071D02*
X166300057Y-85058452D01*
X166300057Y-85058452D02*
X166395295Y-85010833D01*
X166395295Y-85010833D02*
X166490533Y-85010833D01*
X166490533Y-85010833D02*
X166633390Y-85058452D01*
X166633390Y-85058452D02*
X167204819Y-85629880D01*
X167204819Y-85629880D02*
X167204819Y-85010833D01*
X167109580Y-84582261D02*
X167157200Y-84534642D01*
X167157200Y-84534642D02*
X167204819Y-84582261D01*
X167204819Y-84582261D02*
X167157200Y-84629880D01*
X167157200Y-84629880D02*
X167109580Y-84582261D01*
X167109580Y-84582261D02*
X167204819Y-84582261D01*
X166300057Y-84153690D02*
X166252438Y-84106071D01*
X166252438Y-84106071D02*
X166204819Y-84010833D01*
X166204819Y-84010833D02*
X166204819Y-83772738D01*
X166204819Y-83772738D02*
X166252438Y-83677500D01*
X166252438Y-83677500D02*
X166300057Y-83629881D01*
X166300057Y-83629881D02*
X166395295Y-83582262D01*
X166395295Y-83582262D02*
X166490533Y-83582262D01*
X166490533Y-83582262D02*
X166633390Y-83629881D01*
X166633390Y-83629881D02*
X167204819Y-84201309D01*
X167204819Y-84201309D02*
X167204819Y-83582262D01*
X167204819Y-83153690D02*
X166204819Y-83153690D01*
X166823866Y-83058452D02*
X167204819Y-82772738D01*
X166538152Y-82772738D02*
X166919104Y-83153690D01*
X163857200Y-78224166D02*
X163904819Y-78081309D01*
X163904819Y-78081309D02*
X163904819Y-77843214D01*
X163904819Y-77843214D02*
X163857200Y-77747976D01*
X163857200Y-77747976D02*
X163809580Y-77700357D01*
X163809580Y-77700357D02*
X163714342Y-77652738D01*
X163714342Y-77652738D02*
X163619104Y-77652738D01*
X163619104Y-77652738D02*
X163523866Y-77700357D01*
X163523866Y-77700357D02*
X163476247Y-77747976D01*
X163476247Y-77747976D02*
X163428628Y-77843214D01*
X163428628Y-77843214D02*
X163381009Y-78033690D01*
X163381009Y-78033690D02*
X163333390Y-78128928D01*
X163333390Y-78128928D02*
X163285771Y-78176547D01*
X163285771Y-78176547D02*
X163190533Y-78224166D01*
X163190533Y-78224166D02*
X163095295Y-78224166D01*
X163095295Y-78224166D02*
X163000057Y-78176547D01*
X163000057Y-78176547D02*
X162952438Y-78128928D01*
X162952438Y-78128928D02*
X162904819Y-78033690D01*
X162904819Y-78033690D02*
X162904819Y-77795595D01*
X162904819Y-77795595D02*
X162952438Y-77652738D01*
X163809580Y-76652738D02*
X163857200Y-76700357D01*
X163857200Y-76700357D02*
X163904819Y-76843214D01*
X163904819Y-76843214D02*
X163904819Y-76938452D01*
X163904819Y-76938452D02*
X163857200Y-77081309D01*
X163857200Y-77081309D02*
X163761961Y-77176547D01*
X163761961Y-77176547D02*
X163666723Y-77224166D01*
X163666723Y-77224166D02*
X163476247Y-77271785D01*
X163476247Y-77271785D02*
X163333390Y-77271785D01*
X163333390Y-77271785D02*
X163142914Y-77224166D01*
X163142914Y-77224166D02*
X163047676Y-77176547D01*
X163047676Y-77176547D02*
X162952438Y-77081309D01*
X162952438Y-77081309D02*
X162904819Y-76938452D01*
X162904819Y-76938452D02*
X162904819Y-76843214D01*
X162904819Y-76843214D02*
X162952438Y-76700357D01*
X162952438Y-76700357D02*
X163000057Y-76652738D01*
X163904819Y-75747976D02*
X163904819Y-76224166D01*
X163904819Y-76224166D02*
X162904819Y-76224166D01*
X163904819Y-74890833D02*
X163904819Y-75462261D01*
X163904819Y-75176547D02*
X162904819Y-75176547D01*
X162904819Y-75176547D02*
X163047676Y-75271785D01*
X163047676Y-75271785D02*
X163142914Y-75367023D01*
X163142914Y-75367023D02*
X163190533Y-75462261D01*
X166300057Y-77962261D02*
X166252438Y-77914642D01*
X166252438Y-77914642D02*
X166204819Y-77819404D01*
X166204819Y-77819404D02*
X166204819Y-77581309D01*
X166204819Y-77581309D02*
X166252438Y-77486071D01*
X166252438Y-77486071D02*
X166300057Y-77438452D01*
X166300057Y-77438452D02*
X166395295Y-77390833D01*
X166395295Y-77390833D02*
X166490533Y-77390833D01*
X166490533Y-77390833D02*
X166633390Y-77438452D01*
X166633390Y-77438452D02*
X167204819Y-78009880D01*
X167204819Y-78009880D02*
X167204819Y-77390833D01*
X167109580Y-76962261D02*
X167157200Y-76914642D01*
X167157200Y-76914642D02*
X167204819Y-76962261D01*
X167204819Y-76962261D02*
X167157200Y-77009880D01*
X167157200Y-77009880D02*
X167109580Y-76962261D01*
X167109580Y-76962261D02*
X167204819Y-76962261D01*
X166300057Y-76533690D02*
X166252438Y-76486071D01*
X166252438Y-76486071D02*
X166204819Y-76390833D01*
X166204819Y-76390833D02*
X166204819Y-76152738D01*
X166204819Y-76152738D02*
X166252438Y-76057500D01*
X166252438Y-76057500D02*
X166300057Y-76009881D01*
X166300057Y-76009881D02*
X166395295Y-75962262D01*
X166395295Y-75962262D02*
X166490533Y-75962262D01*
X166490533Y-75962262D02*
X166633390Y-76009881D01*
X166633390Y-76009881D02*
X167204819Y-76581309D01*
X167204819Y-76581309D02*
X167204819Y-75962262D01*
X167204819Y-75533690D02*
X166204819Y-75533690D01*
X166823866Y-75438452D02*
X167204819Y-75152738D01*
X166538152Y-75152738D02*
X166919104Y-75533690D01*
D12*
%TO.C,S1*%
X153400000Y-107696000D02*
G75*
G02*
X151400000Y-107696000I-1000000J0D01*
G01*
X151400000Y-107696000D02*
G75*
G02*
X153400000Y-107696000I1000000J0D01*
G01*
X148213500Y-110446000D02*
G75*
G02*
X148086500Y-110446000I-63500J0D01*
G01*
X148086500Y-110446000D02*
G75*
G02*
X148213500Y-110446000I63500J0D01*
G01*
X153500000Y-110196000D02*
X153500000Y-110296000D01*
X153500000Y-105196000D02*
X153500000Y-105096000D01*
X151300000Y-110296000D02*
X153500000Y-110296000D01*
X151300000Y-110196000D02*
X151300000Y-110296000D01*
X151300000Y-105096000D02*
X153500000Y-105096000D01*
X151300000Y-105096000D02*
X151300000Y-105196000D01*
D13*
%TO.C,R4*%
X161825000Y-94564564D02*
X161825000Y-94110436D01*
X163295000Y-94564564D02*
X163295000Y-94110436D01*
%TO.C,D1*%
X159060000Y-104946000D02*
X159060000Y-110446000D01*
X159060000Y-104946000D02*
X166060000Y-104946000D01*
X159060000Y-110446000D02*
X165610000Y-110446000D01*
X159860000Y-108596000D02*
X159860000Y-106796000D01*
X165260000Y-108596000D02*
X165260000Y-106796000D01*
X165610000Y-110446000D02*
X166060000Y-109996000D01*
X166060000Y-109996000D02*
X166060000Y-104946000D01*
%TO.C,C1*%
X163295000Y-99641252D02*
X163295000Y-99118748D01*
X161825000Y-99641252D02*
X161825000Y-99118748D01*
%TO.C,R3*%
X149275436Y-100865000D02*
X149729564Y-100865000D01*
X149275436Y-102335000D02*
X149729564Y-102335000D01*
%TO.C,C3*%
X146738748Y-94515000D02*
X147261252Y-94515000D01*
X146738748Y-95985000D02*
X147261252Y-95985000D01*
%TO.C,U2*%
X149729000Y-96401600D02*
X149729000Y-98801600D01*
X149729000Y-98801600D02*
X154829000Y-98801600D01*
X154829000Y-96101600D02*
X150029000Y-96101600D01*
X154829000Y-98801600D02*
X154829000Y-96101600D01*
X149729000Y-96101600D02*
X149449000Y-96101600D01*
X149729000Y-95821600D01*
X149729000Y-96101600D01*
G36*
X149729000Y-96101600D02*
G01*
X149449000Y-96101600D01*
X149729000Y-95821600D01*
X149729000Y-96101600D01*
G37*
%TO.C,R5*%
X155625436Y-100865000D02*
X156079564Y-100865000D01*
X155625436Y-102335000D02*
X156079564Y-102335000D01*
%TO.C,C2*%
X156898748Y-94515000D02*
X157421252Y-94515000D01*
X156898748Y-95985000D02*
X157421252Y-95985000D01*
%TO.C,R1*%
X140435000Y-89484564D02*
X140435000Y-89030436D01*
X138965000Y-89484564D02*
X138965000Y-89030436D01*
%TO.C,R2*%
X138965000Y-74244564D02*
X138965000Y-73790436D01*
X140435000Y-74244564D02*
X140435000Y-73790436D01*
%TO.C,SDA1*%
X164365000Y-84404564D02*
X164365000Y-83950436D01*
X165835000Y-84404564D02*
X165835000Y-83950436D01*
%TO.C,SCL1*%
X164365000Y-76784564D02*
X164365000Y-76330436D01*
X165835000Y-76784564D02*
X165835000Y-76330436D01*
D12*
%TO.C,U1*%
X143510000Y-89281000D02*
X143510000Y-72136000D01*
X145415000Y-91186000D02*
X159385000Y-91186000D01*
X147905000Y-70231000D02*
X147908728Y-69220728D01*
X148408728Y-68721000D02*
X156404000Y-68721000D01*
X156904000Y-69221000D02*
X156904000Y-70231000D01*
D14*
X159385000Y-70231000D02*
X145415000Y-70231000D01*
D12*
X159385000Y-70231000D02*
X145415000Y-70231000D01*
X161290000Y-89281000D02*
X161290000Y-72136000D01*
X143510000Y-72136000D02*
G75*
G02*
X145415000Y-70231000I1905001J-1D01*
G01*
X145415000Y-91186000D02*
G75*
G02*
X143510000Y-89281000I1J1905001D01*
G01*
X147908728Y-69220728D02*
G75*
G02*
X148408728Y-68721001I500018J-291D01*
G01*
X156404000Y-68721000D02*
G75*
G02*
X156904000Y-69221000I0J-500000D01*
G01*
X159385000Y-70231000D02*
G75*
G02*
X161290000Y-72136000I0J-1905000D01*
G01*
X161290000Y-89281000D02*
G75*
G02*
X159385000Y-91186000I-1905000J0D01*
G01*
D15*
X143748000Y-70372000D02*
G75*
G02*
X143244000Y-70372000I-252000J0D01*
G01*
X143244000Y-70372000D02*
G75*
G02*
X143748000Y-70372000I252000J0D01*
G01*
X144891000Y-71252000D02*
G75*
G02*
X144387000Y-71252000I-252000J0D01*
G01*
X144387000Y-71252000D02*
G75*
G02*
X144891000Y-71252000I252000J0D01*
G01*
D13*
%TO.C,BATT1*%
X138320000Y-81280000D02*
X138320000Y-78630000D01*
X141080000Y-78630000D02*
X138320000Y-78630000D01*
X141080000Y-81280000D02*
X138320000Y-81280000D01*
X141080000Y-81280000D02*
X141080000Y-78630000D01*
X141080000Y-82550000D02*
X141080000Y-83930000D01*
X141080000Y-83930000D02*
X139700000Y-83930000D01*
%TD*%
M02*
