%TF.GenerationSoftware,KiCad,Pcbnew,9.0.5*%
%TF.CreationDate,2026-04-03T10:43:28-05:00*%
%TF.ProjectId,Brine,4272696e-652e-46b6-9963-61645f706362,Dev Board 01*%
%TF.SameCoordinates,Original*%
%TF.FileFunction,Copper,L2,Bot*%
%TF.FilePolarity,Positive*%
%FSLAX46Y46*%
G04 Gerber Fmt 4.6, Leading zero omitted, Abs format (unit mm)*
G04 Created by KiCad (PCBNEW 9.0.5) date 2026-04-03 10:43:28*
%MOMM*%
%LPD*%
G01*
G04 APERTURE LIST*
G04 Aperture macros list*
%AMRoundRect*
0 Rectangle with rounded corners*
0 $1 Rounding radius*
0 $2 $3 $4 $5 $6 $7 $8 $9 X,Y pos of 4 corners*
0 Add a 4 corners polygon primitive as box body*
4,1,4,$2,$3,$4,$5,$6,$7,$8,$9,$2,$3,0*
0 Add four circle primitives for the rounded corners*
1,1,$1+$1,$2,$3*
1,1,$1+$1,$4,$5*
1,1,$1+$1,$6,$7*
1,1,$1+$1,$8,$9*
0 Add four rect primitives between the rounded corners*
20,1,$1+$1,$2,$3,$4,$5,0*
20,1,$1+$1,$4,$5,$6,$7,0*
20,1,$1+$1,$6,$7,$8,$9,0*
20,1,$1+$1,$8,$9,$2,$3,0*%
G04 Aperture macros list end*
%TA.AperFunction,ComponentPad*%
%ADD10O,1.750000X1.200000*%
%TD*%
%TA.AperFunction,ComponentPad*%
%ADD11RoundRect,0.250000X-0.625000X0.350000X-0.625000X-0.350000X0.625000X-0.350000X0.625000X0.350000X0*%
%TD*%
%TA.AperFunction,ComponentPad*%
%ADD12C,1.524000*%
%TD*%
%TA.AperFunction,ComponentPad*%
%ADD13R,1.700000X1.700000*%
%TD*%
%TA.AperFunction,ComponentPad*%
%ADD14C,1.700000*%
%TD*%
%TA.AperFunction,ViaPad*%
%ADD15C,0.600000*%
%TD*%
%TA.AperFunction,Conductor*%
%ADD16C,0.200000*%
%TD*%
G04 APERTURE END LIST*
D10*
%TO.P,J1,2,Pin_2*%
%TO.N,/Battery/BATT*%
X141224000Y-108680000D03*
D11*
%TO.P,J1,1,Pin_1*%
%TO.N,GND*%
X141224000Y-106680000D03*
%TD*%
D12*
%TO.P,U1,1,GPIO1_A0_D0*%
%TO.N,unconnected-(U1-GPIO1_A0_D0-Pad1)*%
X144780000Y-73152000D03*
%TO.P,U1,2,GPIO2_A1_D1*%
%TO.N,/Battery Monitor/LIFE*%
X144780000Y-75692000D03*
%TO.P,U1,3,GPIO3_A2_D2*%
%TO.N,/Distance Sensor/GPIO1*%
X144780000Y-78232000D03*
%TO.P,U1,4,GPIO4_A3_D3*%
%TO.N,/Distance Sensor/XSHUT*%
X144780000Y-80772000D03*
%TO.P,U1,5,GPIO5_A4_D4_SDA*%
%TO.N,/Distance Sensor/SDA*%
X144780000Y-83312000D03*
%TO.P,U1,6,GPIO6_A5_D5_SCL*%
%TO.N,/Distance Sensor/SCL*%
X144780000Y-85852000D03*
%TO.P,U1,7,GPIO43_A6_D6_TX*%
%TO.N,unconnected-(U1-GPIO43_A6_D6_TX-Pad7)*%
X144780000Y-88392000D03*
%TO.P,U1,8,GPIO44_D7_RX*%
%TO.N,unconnected-(U1-GPIO44_D7_RX-Pad8)*%
X160020000Y-88392000D03*
%TO.P,U1,9,GPIO7_A8_D8_SCK*%
%TO.N,unconnected-(U1-GPIO7_A8_D8_SCK-Pad9)*%
X160020000Y-85852000D03*
%TO.P,U1,10,GPIO8_A9_D9_MISO*%
%TO.N,/Button/BUTTON*%
X160020000Y-83312000D03*
%TO.P,U1,11,GPIO9_A10_D10_MOSI*%
%TO.N,/RGB LED/LED*%
X160020000Y-80772000D03*
%TO.P,U1,12,3V3*%
%TO.N,+3.3V*%
X160020000Y-78232000D03*
%TO.P,U1,13,GND*%
%TO.N,GND*%
X160020000Y-75692000D03*
%TO.P,U1,14,5V*%
%TO.N,+5V*%
X160020000Y-73152000D03*
%TD*%
D13*
%TO.P,BATT1,1,Pin_1*%
%TO.N,/Battery/BATT*%
X139700000Y-82550000D03*
D14*
%TO.P,BATT1,2,Pin_2*%
%TO.N,GND*%
X139700000Y-80010000D03*
%TD*%
D15*
%TO.N,/Distance Sensor/XSHUT*%
X149222400Y-99861100D03*
X155301800Y-97225700D03*
%TO.N,/Distance Sensor/SDA*%
X151953700Y-99173000D03*
X164184600Y-87940700D03*
%TO.N,/Distance Sensor/SCL*%
X151915100Y-97450000D03*
X165496400Y-81721900D03*
%TO.N,/Button/BUTTON*%
X156331600Y-100224800D03*
X149640700Y-103331000D03*
%TO.N,/RGB LED/LED*%
X166919900Y-80006700D03*
%TD*%
D16*
%TO.N,/Distance Sensor/XSHUT*%
X152666400Y-99861100D02*
X155301800Y-97225700D01*
X149222400Y-99861100D02*
X152666400Y-99861100D01*
%TO.N,/Distance Sensor/SDA*%
X143223900Y-90443200D02*
X151953700Y-99173000D01*
X143223900Y-84868100D02*
X143223900Y-90443200D01*
X144780000Y-83312000D02*
X143223900Y-84868100D01*
X163186000Y-87940700D02*
X164184600Y-87940700D01*
X151953700Y-99173000D02*
X163186000Y-87940700D01*
%TO.N,/Distance Sensor/SCL*%
X148994300Y-94529100D02*
X151915100Y-97450000D01*
X143658900Y-89193700D02*
X148994300Y-94529100D01*
X143658900Y-86973100D02*
X143658900Y-89193700D01*
X144780000Y-85852000D02*
X143658900Y-86973100D01*
X155427600Y-94529100D02*
X148994300Y-94529100D01*
X165494800Y-84461900D02*
X155427600Y-94529100D01*
X165494800Y-81721900D02*
X165494800Y-84461900D01*
X165494800Y-81721900D02*
X165496400Y-81721900D01*
%TO.N,/Button/BUTTON*%
X153225400Y-103331000D02*
X156331600Y-100224800D01*
X149640700Y-103331000D02*
X153225400Y-103331000D01*
X162247700Y-81084300D02*
X160020000Y-83312000D01*
X165750000Y-81084300D02*
X162247700Y-81084300D01*
X166102900Y-81437200D02*
X165750000Y-81084300D01*
X166102900Y-90453500D02*
X166102900Y-81437200D01*
X156331600Y-100224800D02*
X166102900Y-90453500D01*
%TO.N,/RGB LED/LED*%
X160785300Y-80006700D02*
X160020000Y-80772000D01*
X166919900Y-80006700D02*
X160785300Y-80006700D01*
%TD*%
%TA.AperFunction,Conductor*%
%TO.N,GND*%
G36*
X144786922Y-70605280D02*
G01*
X144795353Y-70606230D01*
X144880831Y-70615861D01*
X144907892Y-70622037D01*
X144990481Y-70650937D01*
X145015491Y-70662980D01*
X145026082Y-70669635D01*
X145089581Y-70709534D01*
X145111290Y-70726847D01*
X145173152Y-70788709D01*
X145190465Y-70810418D01*
X145237017Y-70884505D01*
X145249064Y-70909522D01*
X145277960Y-70992101D01*
X145284139Y-71019172D01*
X145294716Y-71113046D01*
X145295496Y-71126992D01*
X145295150Y-71821301D01*
X145275432Y-71888330D01*
X145222605Y-71934059D01*
X145153442Y-71943968D01*
X145132833Y-71939170D01*
X145075639Y-71920587D01*
X144928429Y-71897271D01*
X144879361Y-71889500D01*
X144680639Y-71889500D01*
X144615214Y-71899862D01*
X144484362Y-71920587D01*
X144295370Y-71981993D01*
X144295367Y-71981994D01*
X144118305Y-72072213D01*
X143957533Y-72189021D01*
X143817021Y-72329533D01*
X143700213Y-72490305D01*
X143609994Y-72667367D01*
X143609993Y-72667370D01*
X143548587Y-72856362D01*
X143517500Y-73052639D01*
X143517500Y-73251360D01*
X143548587Y-73447637D01*
X143609993Y-73636629D01*
X143609994Y-73636632D01*
X143700213Y-73813694D01*
X143817019Y-73974464D01*
X143957536Y-74114981D01*
X144118306Y-74231787D01*
X144236832Y-74292179D01*
X144274780Y-74311515D01*
X144325576Y-74359490D01*
X144342371Y-74427311D01*
X144319833Y-74493446D01*
X144274780Y-74532485D01*
X144118305Y-74612213D01*
X143957533Y-74729021D01*
X143817021Y-74869533D01*
X143700213Y-75030305D01*
X143609994Y-75207367D01*
X143609993Y-75207370D01*
X143548587Y-75396362D01*
X143517500Y-75592639D01*
X143517500Y-75791360D01*
X143548587Y-75987637D01*
X143609993Y-76176629D01*
X143609994Y-76176632D01*
X143700076Y-76353425D01*
X143700213Y-76353694D01*
X143817019Y-76514464D01*
X143957536Y-76654981D01*
X144118306Y-76771787D01*
X144236832Y-76832179D01*
X144274780Y-76851515D01*
X144325576Y-76899490D01*
X144342371Y-76967311D01*
X144319833Y-77033446D01*
X144274780Y-77072485D01*
X144118305Y-77152213D01*
X143957533Y-77269021D01*
X143817021Y-77409533D01*
X143700213Y-77570305D01*
X143609994Y-77747367D01*
X143609993Y-77747370D01*
X143548587Y-77936362D01*
X143517500Y-78132639D01*
X143517500Y-78331360D01*
X143548587Y-78527637D01*
X143609993Y-78716629D01*
X143609994Y-78716632D01*
X143680688Y-78855375D01*
X143700213Y-78893694D01*
X143817019Y-79054464D01*
X143957536Y-79194981D01*
X144118306Y-79311787D01*
X144236832Y-79372179D01*
X144274780Y-79391515D01*
X144325576Y-79439490D01*
X144342371Y-79507311D01*
X144319833Y-79573446D01*
X144274780Y-79612485D01*
X144118305Y-79692213D01*
X143957533Y-79809021D01*
X143817021Y-79949533D01*
X143700213Y-80110305D01*
X143609994Y-80287367D01*
X143609993Y-80287370D01*
X143548587Y-80476362D01*
X143517500Y-80672639D01*
X143517500Y-80871360D01*
X143548587Y-81067637D01*
X143609993Y-81256629D01*
X143609994Y-81256632D01*
X143700213Y-81433694D01*
X143817019Y-81594464D01*
X143957536Y-81734981D01*
X144118306Y-81851787D01*
X144221708Y-81904473D01*
X144274780Y-81931515D01*
X144325576Y-81979490D01*
X144342371Y-82047311D01*
X144319833Y-82113446D01*
X144274780Y-82152485D01*
X144118305Y-82232213D01*
X143957533Y-82349021D01*
X143817021Y-82489533D01*
X143700213Y-82650305D01*
X143609994Y-82827367D01*
X143609993Y-82827370D01*
X143548587Y-83016362D01*
X143517500Y-83212639D01*
X143517500Y-83411360D01*
X143548586Y-83607636D01*
X143549131Y-83609903D01*
X143549086Y-83610790D01*
X143549349Y-83612448D01*
X143549000Y-83612503D01*
X143545638Y-83679685D01*
X143516237Y-83726526D01*
X142855186Y-84387578D01*
X142743381Y-84499382D01*
X142743379Y-84499385D01*
X142721696Y-84536942D01*
X142700012Y-84574500D01*
X142664323Y-84636315D01*
X142623399Y-84789043D01*
X142623399Y-84789045D01*
X142623399Y-84957146D01*
X142623400Y-84957159D01*
X142623400Y-90356530D01*
X142623399Y-90356548D01*
X142623399Y-90522254D01*
X142623398Y-90522254D01*
X142664323Y-90674985D01*
X142670270Y-90685285D01*
X142670271Y-90685287D01*
X142743377Y-90811912D01*
X142743381Y-90811917D01*
X142862249Y-90930785D01*
X142862255Y-90930790D01*
X150980384Y-99048919D01*
X151013869Y-99110242D01*
X151008885Y-99179934D01*
X150967013Y-99235867D01*
X150901549Y-99260284D01*
X150892703Y-99260600D01*
X149802166Y-99260600D01*
X149735127Y-99240915D01*
X149733275Y-99239702D01*
X149601585Y-99151709D01*
X149601572Y-99151702D01*
X149455901Y-99091364D01*
X149455889Y-99091361D01*
X149301245Y-99060600D01*
X149301242Y-99060600D01*
X149143558Y-99060600D01*
X149143555Y-99060600D01*
X148988910Y-99091361D01*
X148988898Y-99091364D01*
X148843227Y-99151702D01*
X148843214Y-99151709D01*
X148712111Y-99239310D01*
X148712107Y-99239313D01*
X148600613Y-99350807D01*
X148600610Y-99350811D01*
X148513009Y-99481914D01*
X148513002Y-99481927D01*
X148452664Y-99627598D01*
X148452661Y-99627610D01*
X148421900Y-99782253D01*
X148421900Y-99939946D01*
X148452661Y-100094589D01*
X148452664Y-100094601D01*
X148513002Y-100240272D01*
X148513009Y-100240285D01*
X148600610Y-100371388D01*
X148600613Y-100371392D01*
X148712107Y-100482886D01*
X148712111Y-100482889D01*
X148843214Y-100570490D01*
X148843227Y-100570497D01*
X148988898Y-100630835D01*
X148988903Y-100630837D01*
X149143553Y-100661599D01*
X149143556Y-100661600D01*
X149143558Y-100661600D01*
X149301244Y-100661600D01*
X149301245Y-100661599D01*
X149455897Y-100630837D01*
X149601579Y-100570494D01*
X149601585Y-100570490D01*
X149733275Y-100482498D01*
X149799953Y-100461620D01*
X149802166Y-100461600D01*
X152579731Y-100461600D01*
X152579747Y-100461601D01*
X152587343Y-100461601D01*
X152745454Y-100461601D01*
X152745457Y-100461601D01*
X152898185Y-100420677D01*
X152948304Y-100391739D01*
X153035116Y-100341620D01*
X153146920Y-100229816D01*
X153146920Y-100229814D01*
X153157128Y-100219607D01*
X153157129Y-100219604D01*
X155316462Y-98060272D01*
X155377783Y-98026789D01*
X155379950Y-98026338D01*
X155437885Y-98014813D01*
X155535297Y-97995437D01*
X155680979Y-97935094D01*
X155812089Y-97847489D01*
X155923589Y-97735989D01*
X156011194Y-97604879D01*
X156071537Y-97459197D01*
X156102300Y-97304542D01*
X156102300Y-97146858D01*
X156102300Y-97146855D01*
X156102299Y-97146853D01*
X156071538Y-96992210D01*
X156071537Y-96992203D01*
X156062255Y-96969794D01*
X156011197Y-96846527D01*
X156011190Y-96846514D01*
X155923589Y-96715411D01*
X155923586Y-96715407D01*
X155812092Y-96603913D01*
X155812088Y-96603910D01*
X155675914Y-96512921D01*
X155677131Y-96511098D01*
X155634325Y-96469030D01*
X155618880Y-96400889D01*
X155642727Y-96335214D01*
X155654948Y-96320985D01*
X163398416Y-88577519D01*
X163425343Y-88562815D01*
X163451162Y-88546223D01*
X163457362Y-88545331D01*
X163459739Y-88544034D01*
X163486097Y-88541200D01*
X163604834Y-88541200D01*
X163671873Y-88560885D01*
X163673725Y-88562098D01*
X163805414Y-88650090D01*
X163805427Y-88650097D01*
X163951098Y-88710435D01*
X163951103Y-88710437D01*
X164105753Y-88741199D01*
X164105756Y-88741200D01*
X164105758Y-88741200D01*
X164263444Y-88741200D01*
X164263445Y-88741199D01*
X164418097Y-88710437D01*
X164563779Y-88650094D01*
X164694889Y-88562489D01*
X164806389Y-88450989D01*
X164893994Y-88319879D01*
X164954337Y-88174197D01*
X164985100Y-88019542D01*
X164985100Y-87861858D01*
X164985100Y-87861855D01*
X164985099Y-87861853D01*
X164977146Y-87821870D01*
X164954337Y-87707203D01*
X164897313Y-87569533D01*
X164893997Y-87561527D01*
X164893990Y-87561514D01*
X164806389Y-87430411D01*
X164806386Y-87430407D01*
X164694892Y-87318913D01*
X164694888Y-87318910D01*
X164563785Y-87231309D01*
X164563772Y-87231302D01*
X164418101Y-87170964D01*
X164418089Y-87170961D01*
X164263445Y-87140200D01*
X164263442Y-87140200D01*
X164105758Y-87140200D01*
X164105753Y-87140200D01*
X163957394Y-87169710D01*
X163887802Y-87163483D01*
X163832625Y-87120619D01*
X163809381Y-87054729D01*
X163825449Y-86986733D01*
X163845516Y-86960419D01*
X165290719Y-85515215D01*
X165352042Y-85481731D01*
X165421734Y-85486715D01*
X165477667Y-85528587D01*
X165502084Y-85594051D01*
X165502400Y-85602897D01*
X165502400Y-90153403D01*
X165482715Y-90220442D01*
X165466081Y-90241084D01*
X156316939Y-99390225D01*
X156255616Y-99423710D01*
X156253450Y-99424161D01*
X156098108Y-99455061D01*
X156098098Y-99455064D01*
X155952427Y-99515402D01*
X155952414Y-99515409D01*
X155821311Y-99603010D01*
X155821307Y-99603013D01*
X155709813Y-99714507D01*
X155709810Y-99714511D01*
X155622209Y-99845614D01*
X155622202Y-99845627D01*
X155561864Y-99991298D01*
X155561861Y-99991308D01*
X155530961Y-100146650D01*
X155498576Y-100208561D01*
X155497025Y-100210139D01*
X153012984Y-102694181D01*
X152951661Y-102727666D01*
X152925303Y-102730500D01*
X150220466Y-102730500D01*
X150153427Y-102710815D01*
X150151575Y-102709602D01*
X150019885Y-102621609D01*
X150019872Y-102621602D01*
X149874201Y-102561264D01*
X149874189Y-102561261D01*
X149719545Y-102530500D01*
X149719542Y-102530500D01*
X149561858Y-102530500D01*
X149561855Y-102530500D01*
X149407210Y-102561261D01*
X149407198Y-102561264D01*
X149261527Y-102621602D01*
X149261514Y-102621609D01*
X149130411Y-102709210D01*
X149130407Y-102709213D01*
X149018913Y-102820707D01*
X149018910Y-102820711D01*
X148931309Y-102951814D01*
X148931302Y-102951827D01*
X148870964Y-103097498D01*
X148870961Y-103097510D01*
X148840200Y-103252153D01*
X148840200Y-103409846D01*
X148870961Y-103564489D01*
X148870964Y-103564501D01*
X148931302Y-103710172D01*
X148931309Y-103710185D01*
X149018910Y-103841288D01*
X149018913Y-103841292D01*
X149130407Y-103952786D01*
X149130411Y-103952789D01*
X149261514Y-104040390D01*
X149261527Y-104040397D01*
X149407198Y-104100735D01*
X149407203Y-104100737D01*
X149561853Y-104131499D01*
X149561856Y-104131500D01*
X149561858Y-104131500D01*
X149719544Y-104131500D01*
X149719545Y-104131499D01*
X149874197Y-104100737D01*
X150019879Y-104040394D01*
X150019885Y-104040390D01*
X150151575Y-103952398D01*
X150218253Y-103931520D01*
X150220466Y-103931500D01*
X153138731Y-103931500D01*
X153138747Y-103931501D01*
X153146343Y-103931501D01*
X153304454Y-103931501D01*
X153304457Y-103931501D01*
X153457185Y-103890577D01*
X153507304Y-103861639D01*
X153594116Y-103811520D01*
X153705920Y-103699716D01*
X153705920Y-103699714D01*
X153716128Y-103689507D01*
X153716129Y-103689504D01*
X156346262Y-101059372D01*
X156407583Y-101025889D01*
X156409750Y-101025438D01*
X156467685Y-101013913D01*
X156565097Y-100994537D01*
X156710779Y-100934194D01*
X156841889Y-100846589D01*
X156953389Y-100735089D01*
X157040994Y-100603979D01*
X157101337Y-100458297D01*
X157132100Y-100303642D01*
X157132238Y-100302950D01*
X157164623Y-100241039D01*
X157166118Y-100239516D01*
X166471613Y-90934021D01*
X166471616Y-90934020D01*
X166583420Y-90822216D01*
X166633539Y-90735404D01*
X166662477Y-90685285D01*
X166703401Y-90532557D01*
X166703401Y-90374443D01*
X166703401Y-90366848D01*
X166703400Y-90366830D01*
X166703400Y-81526259D01*
X166703401Y-81526246D01*
X166703401Y-81358145D01*
X166703401Y-81358143D01*
X166662477Y-81205415D01*
X166625123Y-81140716D01*
X166625123Y-81140715D01*
X166583424Y-81068490D01*
X166583421Y-81068486D01*
X166583420Y-81068484D01*
X166471616Y-80956680D01*
X166471615Y-80956679D01*
X166467285Y-80952349D01*
X166467274Y-80952339D01*
X166452846Y-80937911D01*
X166419361Y-80876588D01*
X166424345Y-80806896D01*
X166466217Y-80750963D01*
X166531681Y-80726546D01*
X166587979Y-80735669D01*
X166675005Y-80771716D01*
X166686403Y-80776437D01*
X166838781Y-80806747D01*
X166841053Y-80807199D01*
X166841056Y-80807200D01*
X166841058Y-80807200D01*
X166998743Y-80807200D01*
X167003340Y-80806747D01*
X167071987Y-80819762D01*
X167122699Y-80867825D01*
X167139500Y-80930149D01*
X167139500Y-110739572D01*
X167139184Y-110748418D01*
X167124544Y-110953108D01*
X167122026Y-110970620D01*
X167079348Y-111166806D01*
X167074364Y-111183782D01*
X167004200Y-111371899D01*
X166996850Y-111387992D01*
X166900631Y-111564205D01*
X166891066Y-111579089D01*
X166770742Y-111739822D01*
X166759156Y-111753192D01*
X166617192Y-111895156D01*
X166603822Y-111906742D01*
X166443089Y-112027066D01*
X166428205Y-112036631D01*
X166251992Y-112132850D01*
X166235899Y-112140200D01*
X166047782Y-112210364D01*
X166030806Y-112215348D01*
X165834620Y-112258026D01*
X165817108Y-112260544D01*
X165612418Y-112275184D01*
X165603572Y-112275500D01*
X139196428Y-112275500D01*
X139187582Y-112275184D01*
X138982891Y-112260544D01*
X138965379Y-112258026D01*
X138769193Y-112215348D01*
X138752222Y-112210365D01*
X138564096Y-112140198D01*
X138548007Y-112132850D01*
X138371794Y-112036631D01*
X138356910Y-112027066D01*
X138196177Y-111906742D01*
X138182807Y-111895156D01*
X138040843Y-111753192D01*
X138029257Y-111739822D01*
X137908929Y-111579084D01*
X137899371Y-111564210D01*
X137803147Y-111387987D01*
X137795803Y-111371909D01*
X137725630Y-111183768D01*
X137720653Y-111166813D01*
X137677973Y-110970620D01*
X137675455Y-110953108D01*
X137660816Y-110748418D01*
X137660500Y-110739572D01*
X137660500Y-108593389D01*
X139848500Y-108593389D01*
X139848500Y-108766611D01*
X139875598Y-108937701D01*
X139929127Y-109102445D01*
X140007768Y-109256788D01*
X140109586Y-109396928D01*
X140232072Y-109519414D01*
X140372212Y-109621232D01*
X140526555Y-109699873D01*
X140691299Y-109753402D01*
X140862389Y-109780500D01*
X140862390Y-109780500D01*
X141585610Y-109780500D01*
X141585611Y-109780500D01*
X141756701Y-109753402D01*
X141921445Y-109699873D01*
X142075788Y-109621232D01*
X142215928Y-109519414D01*
X142338414Y-109396928D01*
X142440232Y-109256788D01*
X142518873Y-109102445D01*
X142572402Y-108937701D01*
X142599500Y-108766611D01*
X142599500Y-108593389D01*
X142572402Y-108422299D01*
X142518873Y-108257555D01*
X142440232Y-108103212D01*
X142338414Y-107963072D01*
X142230508Y-107855166D01*
X142197023Y-107793843D01*
X142202007Y-107724151D01*
X142243879Y-107668218D01*
X142253094Y-107661945D01*
X142317345Y-107622315D01*
X142441315Y-107498345D01*
X142533356Y-107349124D01*
X142533358Y-107349119D01*
X142588505Y-107182697D01*
X142588506Y-107182690D01*
X142598999Y-107079986D01*
X142599000Y-107079973D01*
X142599000Y-106930000D01*
X141504330Y-106930000D01*
X141524075Y-106910255D01*
X141573444Y-106824745D01*
X141599000Y-106729370D01*
X141599000Y-106630630D01*
X141573444Y-106535255D01*
X141524075Y-106449745D01*
X141504330Y-106430000D01*
X142598999Y-106430000D01*
X142598999Y-106280028D01*
X142598998Y-106280013D01*
X142588505Y-106177302D01*
X142533358Y-106010880D01*
X142533356Y-106010875D01*
X142441315Y-105861654D01*
X142317345Y-105737684D01*
X142168124Y-105645643D01*
X142168119Y-105645641D01*
X142001697Y-105590494D01*
X142001690Y-105590493D01*
X141898986Y-105580000D01*
X141474000Y-105580000D01*
X141474000Y-106399670D01*
X141454255Y-106379925D01*
X141368745Y-106330556D01*
X141273370Y-106305000D01*
X141174630Y-106305000D01*
X141079255Y-106330556D01*
X140993745Y-106379925D01*
X140974000Y-106399670D01*
X140974000Y-105580000D01*
X140549028Y-105580000D01*
X140549012Y-105580001D01*
X140446302Y-105590494D01*
X140279880Y-105645641D01*
X140279875Y-105645643D01*
X140130654Y-105737684D01*
X140006684Y-105861654D01*
X139914643Y-106010875D01*
X139914641Y-106010880D01*
X139859494Y-106177302D01*
X139859493Y-106177309D01*
X139849000Y-106280013D01*
X139849000Y-106430000D01*
X140943670Y-106430000D01*
X140923925Y-106449745D01*
X140874556Y-106535255D01*
X140849000Y-106630630D01*
X140849000Y-106729370D01*
X140874556Y-106824745D01*
X140923925Y-106910255D01*
X140943670Y-106930000D01*
X139849001Y-106930000D01*
X139849001Y-107079986D01*
X139859494Y-107182697D01*
X139914641Y-107349119D01*
X139914643Y-107349124D01*
X140006684Y-107498345D01*
X140130656Y-107622317D01*
X140194906Y-107661946D01*
X140241631Y-107713893D01*
X140252854Y-107782856D01*
X140225011Y-107846938D01*
X140217492Y-107855166D01*
X140109585Y-107963073D01*
X140007768Y-108103211D01*
X139929128Y-108257552D01*
X139875597Y-108422302D01*
X139848500Y-108593389D01*
X137660500Y-108593389D01*
X137660500Y-97668711D01*
X139119500Y-97668711D01*
X139119500Y-97911288D01*
X139151161Y-98151785D01*
X139213947Y-98386104D01*
X139306773Y-98610205D01*
X139306776Y-98610212D01*
X139428064Y-98820289D01*
X139428066Y-98820292D01*
X139428067Y-98820293D01*
X139575733Y-99012736D01*
X139575739Y-99012743D01*
X139747256Y-99184260D01*
X139747262Y-99184265D01*
X139939711Y-99331936D01*
X140149788Y-99453224D01*
X140373900Y-99546054D01*
X140608211Y-99608838D01*
X140788586Y-99632584D01*
X140848711Y-99640500D01*
X140848712Y-99640500D01*
X141091289Y-99640500D01*
X141139388Y-99634167D01*
X141331789Y-99608838D01*
X141566100Y-99546054D01*
X141790212Y-99453224D01*
X142000289Y-99331936D01*
X142192738Y-99184265D01*
X142364265Y-99012738D01*
X142511936Y-98820289D01*
X142633224Y-98610212D01*
X142726054Y-98386100D01*
X142788838Y-98151789D01*
X142820500Y-97911288D01*
X142820500Y-97668712D01*
X142788838Y-97428211D01*
X142726054Y-97193900D01*
X142633224Y-96969788D01*
X142511936Y-96759711D01*
X142364265Y-96567262D01*
X142364260Y-96567256D01*
X142192743Y-96395739D01*
X142192736Y-96395733D01*
X142000293Y-96248067D01*
X142000292Y-96248066D01*
X142000289Y-96248064D01*
X141790212Y-96126776D01*
X141790205Y-96126773D01*
X141566104Y-96033947D01*
X141331785Y-95971161D01*
X141091289Y-95939500D01*
X141091288Y-95939500D01*
X140848712Y-95939500D01*
X140848711Y-95939500D01*
X140608214Y-95971161D01*
X140373895Y-96033947D01*
X140149794Y-96126773D01*
X140149785Y-96126777D01*
X139939706Y-96248067D01*
X139747263Y-96395733D01*
X139747256Y-96395739D01*
X139575739Y-96567256D01*
X139575733Y-96567263D01*
X139428067Y-96759706D01*
X139306777Y-96969785D01*
X139306773Y-96969794D01*
X139213947Y-97193895D01*
X139151161Y-97428214D01*
X139119500Y-97668711D01*
X137660500Y-97668711D01*
X137660500Y-81652135D01*
X138349500Y-81652135D01*
X138349500Y-83447870D01*
X138349501Y-83447876D01*
X138355908Y-83507483D01*
X138406202Y-83642328D01*
X138406206Y-83642335D01*
X138492452Y-83757544D01*
X138492455Y-83757547D01*
X138607664Y-83843793D01*
X138607671Y-83843797D01*
X138742517Y-83894091D01*
X138742516Y-83894091D01*
X138749444Y-83894835D01*
X138802127Y-83900500D01*
X140597872Y-83900499D01*
X140657483Y-83894091D01*
X140792331Y-83843796D01*
X140907546Y-83757546D01*
X140993796Y-83642331D01*
X141044091Y-83507483D01*
X141050500Y-83447873D01*
X141050499Y-81652128D01*
X141044091Y-81592517D01*
X141019378Y-81526259D01*
X140993797Y-81457671D01*
X140993793Y-81457664D01*
X140907547Y-81342455D01*
X140907544Y-81342452D01*
X140792335Y-81256206D01*
X140792328Y-81256202D01*
X140657482Y-81205908D01*
X140657483Y-81205908D01*
X140597883Y-81199501D01*
X140597881Y-81199500D01*
X140597873Y-81199500D01*
X140597865Y-81199500D01*
X140587309Y-81199500D01*
X140520270Y-81179815D01*
X140499628Y-81163181D01*
X139829408Y-80492962D01*
X139892993Y-80475925D01*
X140007007Y-80410099D01*
X140100099Y-80317007D01*
X140165925Y-80202993D01*
X140182962Y-80139409D01*
X140815270Y-80771717D01*
X140815270Y-80771716D01*
X140854622Y-80717554D01*
X140951095Y-80528217D01*
X141016757Y-80326130D01*
X141016757Y-80326127D01*
X141050000Y-80116246D01*
X141050000Y-79903753D01*
X141016757Y-79693872D01*
X141016757Y-79693869D01*
X140951095Y-79491782D01*
X140854624Y-79302449D01*
X140815270Y-79248282D01*
X140815269Y-79248282D01*
X140182962Y-79880590D01*
X140165925Y-79817007D01*
X140100099Y-79702993D01*
X140007007Y-79609901D01*
X139892993Y-79544075D01*
X139829409Y-79527037D01*
X140461716Y-78894728D01*
X140407550Y-78855375D01*
X140218217Y-78758904D01*
X140016129Y-78693242D01*
X139806246Y-78660000D01*
X139593754Y-78660000D01*
X139383872Y-78693242D01*
X139383869Y-78693242D01*
X139181782Y-78758904D01*
X138992439Y-78855380D01*
X138938282Y-78894727D01*
X138938282Y-78894728D01*
X139570591Y-79527037D01*
X139507007Y-79544075D01*
X139392993Y-79609901D01*
X139299901Y-79702993D01*
X139234075Y-79817007D01*
X139217037Y-79880591D01*
X138584728Y-79248282D01*
X138584727Y-79248282D01*
X138545380Y-79302439D01*
X138448904Y-79491782D01*
X138383242Y-79693869D01*
X138383242Y-79693872D01*
X138350000Y-79903753D01*
X138350000Y-80116246D01*
X138383242Y-80326127D01*
X138383242Y-80326130D01*
X138448904Y-80528217D01*
X138545375Y-80717550D01*
X138584728Y-80771716D01*
X139217037Y-80139408D01*
X139234075Y-80202993D01*
X139299901Y-80317007D01*
X139392993Y-80410099D01*
X139507007Y-80475925D01*
X139570590Y-80492962D01*
X138900370Y-81163181D01*
X138839047Y-81196666D01*
X138812698Y-81199500D01*
X138802134Y-81199500D01*
X138802123Y-81199501D01*
X138742516Y-81205908D01*
X138607671Y-81256202D01*
X138607664Y-81256206D01*
X138492455Y-81342452D01*
X138492452Y-81342455D01*
X138406206Y-81457664D01*
X138406202Y-81457671D01*
X138355908Y-81592517D01*
X138349501Y-81652116D01*
X138349501Y-81652123D01*
X138349500Y-81652135D01*
X137660500Y-81652135D01*
X137660500Y-72140427D01*
X137660816Y-72131581D01*
X137665062Y-72072213D01*
X137675455Y-71926886D01*
X137677973Y-71909379D01*
X137720654Y-71713182D01*
X137725629Y-71696235D01*
X137795806Y-71508084D01*
X137803144Y-71492017D01*
X137899375Y-71315782D01*
X137908925Y-71300921D01*
X138029264Y-71140168D01*
X138040836Y-71126814D01*
X138182814Y-70984836D01*
X138196168Y-70973264D01*
X138356921Y-70852925D01*
X138371782Y-70843375D01*
X138548017Y-70747144D01*
X138564084Y-70739806D01*
X138752235Y-70669629D01*
X138769182Y-70664654D01*
X138965381Y-70621972D01*
X138982886Y-70619455D01*
X139181094Y-70605280D01*
X139187582Y-70604816D01*
X139196428Y-70604500D01*
X139257892Y-70604500D01*
X144714108Y-70604500D01*
X144773039Y-70604500D01*
X144786922Y-70605280D01*
G37*
%TD.AperFunction*%
%TA.AperFunction,Conductor*%
G36*
X165612418Y-70604816D02*
G01*
X165618906Y-70605280D01*
X165817111Y-70619455D01*
X165834620Y-70621973D01*
X166030813Y-70664653D01*
X166047768Y-70669630D01*
X166235909Y-70739803D01*
X166251987Y-70747147D01*
X166428210Y-70843371D01*
X166443084Y-70852929D01*
X166603822Y-70973257D01*
X166617192Y-70984843D01*
X166759156Y-71126807D01*
X166770742Y-71140177D01*
X166891066Y-71300910D01*
X166900631Y-71315794D01*
X166996850Y-71492007D01*
X167004200Y-71508100D01*
X167074364Y-71696217D01*
X167079348Y-71713193D01*
X167122026Y-71909379D01*
X167124544Y-71926891D01*
X167139184Y-72131581D01*
X167139500Y-72140427D01*
X167139500Y-79083250D01*
X167119815Y-79150289D01*
X167067011Y-79196044D01*
X167003352Y-79206653D01*
X166998750Y-79206200D01*
X166998742Y-79206200D01*
X166841058Y-79206200D01*
X166841055Y-79206200D01*
X166686410Y-79236961D01*
X166686398Y-79236964D01*
X166540727Y-79297302D01*
X166540714Y-79297309D01*
X166409025Y-79385302D01*
X166342347Y-79406180D01*
X166340134Y-79406200D01*
X160930607Y-79406200D01*
X160863568Y-79386515D01*
X160817813Y-79333711D01*
X160807869Y-79264553D01*
X160836894Y-79200997D01*
X160842926Y-79194519D01*
X160887156Y-79150289D01*
X160982981Y-79054464D01*
X161099787Y-78893694D01*
X161190005Y-78716632D01*
X161251413Y-78527636D01*
X161282500Y-78331361D01*
X161282500Y-78132639D01*
X161251413Y-77936364D01*
X161190005Y-77747368D01*
X161190005Y-77747367D01*
X161099786Y-77570305D01*
X160982981Y-77409536D01*
X160842464Y-77269019D01*
X160681694Y-77152213D01*
X160524667Y-77072203D01*
X160473872Y-77024229D01*
X160457077Y-76956408D01*
X160479614Y-76890273D01*
X160524669Y-76851234D01*
X160681422Y-76771364D01*
X160718715Y-76744268D01*
X160104094Y-76129647D01*
X160191571Y-76106208D01*
X160292930Y-76047689D01*
X160375689Y-75964930D01*
X160434208Y-75863571D01*
X160457647Y-75776094D01*
X161072268Y-76390715D01*
X161099362Y-76353425D01*
X161189542Y-76176437D01*
X161250924Y-75987523D01*
X161250924Y-75987520D01*
X161282000Y-75791321D01*
X161282000Y-75592678D01*
X161250924Y-75396479D01*
X161250924Y-75396476D01*
X161189542Y-75207562D01*
X161099358Y-75030567D01*
X161072268Y-74993283D01*
X160457647Y-75607904D01*
X160434208Y-75520429D01*
X160375689Y-75419070D01*
X160292930Y-75336311D01*
X160191571Y-75277792D01*
X160104093Y-75254352D01*
X160718715Y-74639730D01*
X160681432Y-74612641D01*
X160524668Y-74532765D01*
X160473872Y-74484790D01*
X160457077Y-74416969D01*
X160479615Y-74350834D01*
X160524667Y-74311796D01*
X160681694Y-74231787D01*
X160842464Y-74114981D01*
X160982981Y-73974464D01*
X161099787Y-73813694D01*
X161190005Y-73636632D01*
X161251413Y-73447636D01*
X161282500Y-73251361D01*
X161282500Y-73052639D01*
X161251413Y-72856364D01*
X161190005Y-72667368D01*
X161190005Y-72667367D01*
X161099786Y-72490305D01*
X160982981Y-72329536D01*
X160842464Y-72189019D01*
X160681694Y-72072213D01*
X160677563Y-72070108D01*
X160504632Y-71981994D01*
X160504629Y-71981993D01*
X160315637Y-71920587D01*
X160217498Y-71905043D01*
X160119361Y-71889500D01*
X159920639Y-71889500D01*
X159893803Y-71893750D01*
X159724364Y-71920586D01*
X159662351Y-71940735D01*
X159592510Y-71942729D01*
X159532678Y-71906647D01*
X159501851Y-71843946D01*
X159500035Y-71822834D01*
X159499926Y-71381196D01*
X159499861Y-71115433D01*
X159500961Y-71098926D01*
X159513172Y-71007924D01*
X159519777Y-70981394D01*
X159550095Y-70899491D01*
X159562361Y-70875049D01*
X159609905Y-70801792D01*
X159627234Y-70780634D01*
X159689685Y-70719592D01*
X159711239Y-70702747D01*
X159785554Y-70656892D01*
X159810279Y-70645183D01*
X159892837Y-70616748D01*
X159919531Y-70610746D01*
X159947401Y-70607652D01*
X159968976Y-70605257D01*
X159982658Y-70604500D01*
X165542108Y-70604500D01*
X165603572Y-70604500D01*
X165612418Y-70604816D01*
G37*
%TD.AperFunction*%
%TD*%
M02*
