M48
; DRILL file {KiCad 9.0.5} date 2026-04-03T10:43:26-0500
; FORMAT={-:-/ absolute / metric / decimal}
; #@! TF.CreationDate,2026-04-03T10:43:26-05:00
; #@! TF.GenerationSoftware,Kicad,Pcbnew,9.0.5
; #@! TF.FileFunction,MixedPlating,1,2
FMAT,2
METRIC
; #@! TA.AperFunction,Plated,PTH,ViaDrill
T1C0.300
; #@! TA.AperFunction,Plated,PTH,ComponentDrill
T2C0.750
; #@! TA.AperFunction,Plated,PTH,ComponentDrill
T3C0.889
; #@! TA.AperFunction,Plated,PTH,ComponentDrill
T4C1.000
; #@! TA.AperFunction,NonPlated,NPTH,ComponentDrill
T5C3.200
%
G90
G05
T1
X149.222Y-99.861
X149.641Y-103.331
X151.915Y-97.45
X151.954Y-99.173
X155.302Y-97.226
X156.332Y-100.225
X164.185Y-87.941
X165.496Y-81.722
X166.92Y-80.007
T2
X141.224Y-106.68
X141.224Y-108.68
T3
X144.78Y-73.152
X144.78Y-75.692
X144.78Y-78.232
X144.78Y-80.772
X144.78Y-83.312
X144.78Y-85.852
X144.78Y-88.392
X160.02Y-73.152
X160.02Y-75.692
X160.02Y-78.232
X160.02Y-80.772
X160.02Y-83.312
X160.02Y-85.852
X160.02Y-88.392
T4
X139.7Y-80.01
X139.7Y-82.55
T5
X140.97Y-97.79
M30
