%TF.GenerationSoftware,KiCad,Pcbnew,9.0.5*%
%TF.CreationDate,2026-02-12T06:21:04-06:00*%
%TF.ProjectId,Brine,4272696e-652e-46b6-9963-61645f706362,Dev Board 01*%
%TF.SameCoordinates,Original*%
%TF.FileFunction,Copper,L1,Top*%
%TF.FilePolarity,Positive*%
%FSLAX46Y46*%
G04 Gerber Fmt 4.6, Leading zero omitted, Abs format (unit mm)*
G04 Created by KiCad (PCBNEW 9.0.5) date 2026-02-12 06:21:04*
%MOMM*%
%LPD*%
G01*
G04 APERTURE LIST*
G04 Aperture macros list*
%AMRoundRect*
0 Rectangle with rounded corners*
0 $1 Rounding radius*
0 $2 $3 $4 $5 $6 $7 $8 $9 X,Y pos of 4 corners*
0 Add a 4 corners polygon primitive as box body*
4,1,4,$2,$3,$4,$5,$6,$7,$8,$9,$2,$3,0*
0 Add four circle primitives for the rounded corners*
1,1,$1+$1,$2,$3*
1,1,$1+$1,$4,$5*
1,1,$1+$1,$6,$7*
1,1,$1+$1,$8,$9*
0 Add four rect primitives between the rounded corners*
20,1,$1+$1,$2,$3,$4,$5,0*
20,1,$1+$1,$4,$5,$6,$7,0*
20,1,$1+$1,$6,$7,$8,$9,0*
20,1,$1+$1,$8,$9,$2,$3,0*%
G04 Aperture macros list end*
%TA.AperFunction,SMDPad,CuDef*%
%ADD10RoundRect,0.250000X0.450000X-0.262500X0.450000X0.262500X-0.450000X0.262500X-0.450000X-0.262500X0*%
%TD*%
%TA.AperFunction,ComponentPad*%
%ADD11R,1.700000X1.700000*%
%TD*%
%TA.AperFunction,ComponentPad*%
%ADD12O,1.700000X1.700000*%
%TD*%
%TA.AperFunction,ComponentPad*%
%ADD13C,1.700000*%
%TD*%
%TA.AperFunction,SMDPad,CuDef*%
%ADD14RoundRect,0.250000X0.475000X-0.250000X0.475000X0.250000X-0.475000X0.250000X-0.475000X-0.250000X0*%
%TD*%
%TA.AperFunction,SMDPad,CuDef*%
%ADD15RoundRect,0.152400X1.063600X0.609600X-1.063600X0.609600X-1.063600X-0.609600X1.063600X-0.609600X0*%
%TD*%
%TA.AperFunction,ComponentPad*%
%ADD16C,1.524000*%
%TD*%
%TA.AperFunction,SMDPad,CuDef*%
%ADD17RoundRect,0.152400X-1.063600X-0.609600X1.063600X-0.609600X1.063600X0.609600X-1.063600X0.609600X0*%
%TD*%
%TA.AperFunction,SMDPad,CuDef*%
%ADD18RoundRect,0.090000X-0.660000X-0.360000X0.660000X-0.360000X0.660000X0.360000X-0.660000X0.360000X0*%
%TD*%
%TA.AperFunction,SMDPad,CuDef*%
%ADD19R,1.700000X1.000000*%
%TD*%
%TA.AperFunction,ComponentPad*%
%ADD20RoundRect,0.250000X-0.625000X0.350000X-0.625000X-0.350000X0.625000X-0.350000X0.625000X0.350000X0*%
%TD*%
%TA.AperFunction,ComponentPad*%
%ADD21O,1.750000X1.200000*%
%TD*%
%TA.AperFunction,ViaPad*%
%ADD22C,0.600000*%
%TD*%
%TA.AperFunction,Conductor*%
%ADD23C,0.800000*%
%TD*%
%TA.AperFunction,Conductor*%
%ADD24C,0.200000*%
%TD*%
G04 APERTURE END LIST*
D10*
%TO.P,R2,1*%
%TO.N,GND*%
X140208000Y-74064500D03*
%TO.P,R2,2*%
%TO.N,LIFE*%
X140208000Y-72239500D03*
%TD*%
%TO.P,SDA1,1*%
%TO.N,SDA*%
X164592000Y-79549000D03*
%TO.P,SDA1,2*%
%TO.N,+3.3V*%
X164592000Y-77724000D03*
%TD*%
D11*
%TO.P,J2,1,Pin_1*%
%TO.N,+3.3V*%
X146220000Y-101698000D03*
D12*
%TO.P,J2,2,Pin_2*%
%TO.N,GND*%
X148760000Y-101698000D03*
%TO.P,J2,3,Pin_3*%
%TO.N,SCL*%
X151300000Y-101698000D03*
%TO.P,J2,4,Pin_4*%
%TO.N,SDA*%
X153840000Y-101698000D03*
%TO.P,J2,5,Pin_5*%
%TO.N,GPIO1*%
X156380000Y-101698000D03*
%TO.P,J2,6,Pin_6*%
%TO.N,XSHUT*%
X158920000Y-101698000D03*
%TD*%
D11*
%TO.P,BATT1,1,Pin_1*%
%TO.N,BATT*%
X140208000Y-81031000D03*
D13*
%TO.P,BATT1,2,Pin_2*%
%TO.N,GND*%
X140208000Y-78491000D03*
%TD*%
D10*
%TO.P,SCL1,1*%
%TO.N,SCL*%
X164592000Y-74977000D03*
%TO.P,SCL1,2*%
%TO.N,+3.3V*%
X164592000Y-73152000D03*
%TD*%
D14*
%TO.P,C1,1*%
%TO.N,+5V*%
X164592000Y-89784000D03*
%TO.P,C1,2*%
%TO.N,GND*%
X164592000Y-87884000D03*
%TD*%
D15*
%TO.P,U1,1,GPIO1_A0_D0*%
%TO.N,unconnected-(U1-GPIO1_A0_D0-Pad1)*%
X143945000Y-73152000D03*
D16*
X144780000Y-73152000D03*
D15*
%TO.P,U1,2,GPIO2_A1_D1*%
%TO.N,LIFE*%
X143945000Y-75692000D03*
D16*
X144780000Y-75692000D03*
D15*
%TO.P,U1,3,GPIO3_A2_D2*%
%TO.N,GPIO1*%
X143945000Y-78232000D03*
D16*
X144780000Y-78232000D03*
D15*
%TO.P,U1,4,GPIO4_A3_D3*%
%TO.N,XSHUT*%
X143945000Y-80772000D03*
D16*
X144780000Y-80772000D03*
D15*
%TO.P,U1,5,GPIO5_A4_D4_SDA*%
%TO.N,SDA*%
X143945000Y-83312000D03*
D16*
X144780000Y-83312000D03*
D15*
%TO.P,U1,6,GPIO6_A5_D5_SCL*%
%TO.N,SCL*%
X143945000Y-85852000D03*
D16*
X144780000Y-85852000D03*
D15*
%TO.P,U1,7,GPIO43_A6_D6_TX*%
%TO.N,unconnected-(U1-GPIO43_A6_D6_TX-Pad7)*%
X143945000Y-88392000D03*
D16*
X144780000Y-88392000D03*
%TO.P,U1,8,GPIO44_D7_RX*%
%TO.N,unconnected-(U1-GPIO44_D7_RX-Pad8)*%
X160020000Y-88392000D03*
D17*
X160855000Y-88392000D03*
D16*
%TO.P,U1,9,GPIO7_A8_D8_SCK*%
%TO.N,unconnected-(U1-GPIO7_A8_D8_SCK-Pad9)*%
X160020000Y-85852000D03*
D17*
X160855000Y-85852000D03*
D16*
%TO.P,U1,10,GPIO8_A9_D9_MISO*%
%TO.N,BUTTON*%
X160020000Y-83312000D03*
D17*
X160855000Y-83312000D03*
D16*
%TO.P,U1,11,GPIO9_A10_D10_MOSI*%
%TO.N,LED*%
X160020000Y-80772000D03*
D17*
X160855000Y-80772000D03*
D16*
%TO.P,U1,12,3V3*%
%TO.N,+3.3V*%
X160020000Y-78232000D03*
D17*
X160855000Y-78232000D03*
D16*
%TO.P,U1,13,GND*%
%TO.N,GND*%
X160020000Y-75692000D03*
D17*
X160855000Y-75692000D03*
D16*
%TO.P,U1,14,5V*%
%TO.N,+5V*%
X160020000Y-73152000D03*
D17*
X160855000Y-73152000D03*
%TD*%
D18*
%TO.P,D1,1,VDD*%
%TO.N,+5V*%
X160110000Y-106046000D03*
%TO.P,D1,2,DOUT*%
%TO.N,unconnected-(D1-DOUT-Pad2)*%
X160110000Y-109346000D03*
%TO.P,D1,3,VSS*%
%TO.N,GND*%
X165010000Y-109346000D03*
%TO.P,D1,4,DIN*%
%TO.N,Net-(D1-DIN)*%
X165010000Y-106046000D03*
%TD*%
D10*
%TO.P,R1,1*%
%TO.N,LIFE*%
X140208000Y-86868000D03*
%TO.P,R1,2*%
%TO.N,BATT*%
X140208000Y-85043000D03*
%TD*%
%TO.P,R4,1*%
%TO.N,Net-(D1-DIN)*%
X164592000Y-84629000D03*
%TO.P,R4,2*%
%TO.N,LED*%
X164592000Y-82804000D03*
%TD*%
D19*
%TO.P,S1,1,1*%
%TO.N,GND*%
X149758000Y-109596000D03*
%TO.P,S1,2,2*%
X156058000Y-109596000D03*
%TO.P,S1,3,3*%
%TO.N,BUTTON*%
X149758000Y-105796000D03*
%TO.P,S1,4,4*%
X156058000Y-105796000D03*
%TD*%
D20*
%TO.P,J1,1,Pin_1*%
%TO.N,GND*%
X141224000Y-106680000D03*
D21*
%TO.P,J1,2,Pin_2*%
%TO.N,BATT*%
X141224000Y-108680000D03*
%TD*%
D22*
%TO.N,GND*%
X166690200Y-77356500D03*
X138126000Y-105337200D03*
%TO.N,+5V*%
X164592000Y-91167800D03*
X162496400Y-76708000D03*
%TO.N,Net-(D1-DIN)*%
X163201800Y-86841000D03*
X164821500Y-92168200D03*
%TO.N,XSHUT*%
X154053000Y-93127000D03*
%TO.N,SCL*%
X164484300Y-80749100D03*
%TO.N,SDA*%
X163187400Y-92350600D03*
%TO.N,GPIO1*%
X144032800Y-108588700D03*
%TD*%
D23*
%TO.N,GND*%
X158842500Y-108263200D02*
X163927200Y-108263200D01*
X156058000Y-109596000D02*
X149758000Y-109596000D01*
X165128200Y-87884000D02*
X166690200Y-86322000D01*
X166372600Y-107983400D02*
X166372600Y-89128400D01*
X156058000Y-109596000D02*
X157509700Y-109596000D01*
X138126000Y-80488900D02*
X140123900Y-78491000D01*
X166372600Y-89128400D02*
X165128200Y-87884000D01*
X148306300Y-103603400D02*
X148760000Y-103149700D01*
X164592000Y-87884000D02*
X165128200Y-87884000D01*
X163927200Y-108263200D02*
X165010000Y-109346000D01*
X140208000Y-78491000D02*
X140208000Y-74064500D01*
X138126000Y-105337200D02*
X138126000Y-80488900D01*
X149758000Y-109596000D02*
X148306300Y-109596000D01*
X165010000Y-109346000D02*
X166372600Y-107983400D01*
X166690200Y-86322000D02*
X166690200Y-77356500D01*
X140123900Y-78491000D02*
X140208000Y-78491000D01*
X148306300Y-109596000D02*
X148306300Y-103603400D01*
X157509700Y-109596000D02*
X158842500Y-108263200D01*
X148760000Y-101698000D02*
X148760000Y-103149700D01*
X160020000Y-75692000D02*
X160855000Y-75692000D01*
D24*
%TO.N,+5V*%
X164218600Y-91541200D02*
X164218600Y-92418500D01*
X164592000Y-91167800D02*
X164218600Y-91541200D01*
X164119200Y-91167800D02*
X164592000Y-91167800D01*
X160855000Y-73152000D02*
X160020000Y-73152000D01*
X164592000Y-89784000D02*
X164592000Y-91167800D01*
X164592000Y-91167800D02*
X164119200Y-91167800D01*
X164428600Y-101727400D02*
X160110000Y-106046000D01*
X162496400Y-76708000D02*
X162496400Y-74793400D01*
X164428600Y-92628500D02*
X164428600Y-101727400D01*
X164218600Y-92418500D02*
X164428600Y-92628500D01*
X162496400Y-74793400D02*
X160855000Y-73152000D01*
%TO.N,unconnected-(U1-GPIO43_A6_D6_TX-Pad7)*%
X144780000Y-88392000D02*
X143945000Y-88392000D01*
%TO.N,unconnected-(U1-GPIO7_A8_D8_SCK-Pad9)*%
X160855000Y-85852000D02*
X160020000Y-85852000D01*
%TO.N,unconnected-(U1-GPIO44_D7_RX-Pad8)*%
X160855000Y-88392000D02*
X160020000Y-88392000D01*
D23*
%TO.N,+3.3V*%
X160855000Y-78232000D02*
X160020000Y-78232000D01*
X163398100Y-77724000D02*
X161363000Y-77724000D01*
X163230800Y-74414500D02*
X164493200Y-73152100D01*
X163398100Y-76334500D02*
X163230800Y-76167200D01*
X163398100Y-77724000D02*
X163398100Y-76334500D01*
X164592000Y-73152100D02*
X164592000Y-73152000D01*
X161363000Y-77724000D02*
X160855000Y-78232000D01*
X164592000Y-77724000D02*
X163398100Y-77724000D01*
X164493200Y-73152100D02*
X164592000Y-73152100D01*
X163230800Y-76167200D02*
X163230800Y-74414500D01*
D24*
%TO.N,Net-(D1-DIN)*%
X163201800Y-86841000D02*
X163296400Y-86746400D01*
X164592000Y-85450800D02*
X164592000Y-84629000D01*
X165010000Y-92168200D02*
X164821500Y-92168200D01*
X165010000Y-92356700D02*
X164821500Y-92168200D01*
X164820300Y-92169400D02*
X164821500Y-92168200D01*
X164821500Y-92168200D02*
X164820300Y-92169400D01*
X165010000Y-106046000D02*
X165010000Y-92356700D01*
X163201800Y-86841000D02*
X164592000Y-85450800D01*
X164821500Y-92168200D02*
X165010000Y-92168200D01*
X163296400Y-86746400D02*
X163201800Y-86841000D01*
%TO.N,XSHUT*%
X154053000Y-93127000D02*
X158920000Y-97994000D01*
X158920000Y-97994000D02*
X158920000Y-101698000D01*
X144780000Y-80772000D02*
X143945000Y-80772000D01*
%TO.N,SCL*%
X163589300Y-79046000D02*
X163589300Y-80084300D01*
X142359400Y-87439700D02*
X143945000Y-85854100D01*
X164484300Y-81764100D02*
X164484300Y-80749100D01*
X164254100Y-80749100D02*
X164484300Y-80749100D01*
X164484300Y-80749100D02*
X164484300Y-81764100D01*
X151300000Y-100546300D02*
X142359400Y-91605700D01*
X143945000Y-85852000D02*
X144780000Y-85852000D01*
X164592000Y-74977000D02*
X165615200Y-76000200D01*
X163589300Y-80084300D02*
X164254100Y-80749100D01*
X143945000Y-85854100D02*
X143945000Y-85852000D01*
X165615200Y-76000200D02*
X165615200Y-78197500D01*
X151300000Y-101698000D02*
X151300000Y-100546300D01*
X164096100Y-78539200D02*
X163589300Y-79046000D01*
X142359400Y-91605700D02*
X142359400Y-87439700D01*
X165273500Y-78539200D02*
X164096100Y-78539200D01*
X165615200Y-78197500D02*
X165273500Y-78539200D01*
%TO.N,SDA*%
X142157100Y-87038000D02*
X142193100Y-87038000D01*
X142392800Y-84864200D02*
X143945000Y-83312000D01*
X152688300Y-101985900D02*
X151801100Y-102873100D01*
X163187400Y-92350600D02*
X163187400Y-87706300D01*
X141957100Y-92332400D02*
X141957100Y-87238000D01*
X152688300Y-101698000D02*
X152688300Y-101985900D01*
X142392800Y-86838300D02*
X142392800Y-84864200D01*
X163187400Y-87706300D02*
X165640300Y-85253400D01*
X165640300Y-85253400D02*
X165640300Y-80597300D01*
X153840000Y-101698000D02*
X152688300Y-101698000D01*
X165640300Y-80597300D02*
X164592000Y-79549000D01*
X144780000Y-83312000D02*
X143945000Y-83312000D01*
X151801100Y-102873100D02*
X150840100Y-102873100D01*
X150030000Y-100405300D02*
X141957100Y-92332400D01*
X150840100Y-102873100D02*
X150030000Y-102063000D01*
X150030000Y-102063000D02*
X150030000Y-100405300D01*
X142193100Y-87038000D02*
X142392800Y-86838300D01*
X141957100Y-87238000D02*
X142157100Y-87038000D01*
%TO.N,GPIO1*%
X141957100Y-86670000D02*
X140111500Y-88515600D01*
X141957100Y-80219900D02*
X141957100Y-86670000D01*
X144780000Y-78232000D02*
X143945000Y-78232000D01*
X140111500Y-101740100D02*
X144032800Y-105661400D01*
X143945000Y-78232000D02*
X141957100Y-80219900D01*
X144032800Y-105661400D02*
X144032800Y-108588700D01*
X140111500Y-88515600D02*
X140111500Y-101740100D01*
%TO.N,LIFE*%
X144780000Y-75692000D02*
X143945000Y-75692000D01*
X141524700Y-78112300D02*
X141524700Y-85551300D01*
X140492500Y-72239500D02*
X143945000Y-75692000D01*
X140208000Y-72239500D02*
X140492500Y-72239500D01*
X143945000Y-75692000D02*
X141524700Y-78112300D01*
X141524700Y-85551300D02*
X140208000Y-86868000D01*
%TO.N,BATT*%
X141224000Y-107778300D02*
X140545700Y-107778300D01*
X141224000Y-108680000D02*
X141224000Y-107778300D01*
X139181900Y-86069100D02*
X140208000Y-85043000D01*
X139181900Y-106414500D02*
X139181900Y-86069100D01*
X140545700Y-107778300D02*
X139181900Y-106414500D01*
X140208000Y-85043000D02*
X140208000Y-81031000D01*
%TO.N,BUTTON*%
X160071700Y-93126500D02*
X162408800Y-90789400D01*
X162408800Y-84865800D02*
X160855000Y-83312000D01*
X149758000Y-105796000D02*
X156058000Y-105796000D01*
X156058000Y-105796000D02*
X157209700Y-105796000D01*
X160855000Y-83312000D02*
X160020000Y-83312000D01*
X157209700Y-105796000D02*
X160071700Y-102934000D01*
X160071700Y-102934000D02*
X160071700Y-93126500D01*
X162408800Y-90789400D02*
X162408800Y-84865800D01*
%TO.N,LED*%
X162887000Y-82804000D02*
X160855000Y-80772000D01*
X160855000Y-80772000D02*
X160020000Y-80772000D01*
X164592000Y-82804000D02*
X162887000Y-82804000D01*
%TO.N,unconnected-(U1-GPIO1_A0_D0-Pad1)*%
X144780000Y-73152000D02*
X143945000Y-73152000D01*
%TD*%
M02*
