%TF.GenerationSoftware,KiCad,Pcbnew,9.0.5*%
%TF.CreationDate,2026-02-12T06:21:04-06:00*%
%TF.ProjectId,Brine,4272696e-652e-46b6-9963-61645f706362,Dev Board 01*%
%TF.SameCoordinates,Original*%
%TF.FileFunction,Legend,Bot*%
%TF.FilePolarity,Positive*%
%FSLAX46Y46*%
G04 Gerber Fmt 4.6, Leading zero omitted, Abs format (unit mm)*
G04 Created by KiCad (PCBNEW 9.0.5) date 2026-02-12 06:21:04*
%MOMM*%
%LPD*%
G01*
G04 APERTURE LIST*
%ADD10C,0.100000*%
%ADD11C,0.625000*%
%ADD12C,0.150000*%
%ADD13C,0.000000*%
%ADD14C,0.120000*%
G04 APERTURE END LIST*
D10*
X138859580Y-92644306D02*
X138859580Y-93215734D01*
X138859580Y-92930020D02*
X139859580Y-92930020D01*
X139859580Y-92930020D02*
X139716723Y-93025258D01*
X139716723Y-93025258D02*
X139621485Y-93120496D01*
X139621485Y-93120496D02*
X139573866Y-93215734D01*
X138859580Y-91691925D02*
X138859580Y-92263353D01*
X138859580Y-91977639D02*
X139859580Y-91977639D01*
X139859580Y-91977639D02*
X139716723Y-92072877D01*
X139716723Y-92072877D02*
X139621485Y-92168115D01*
X139621485Y-92168115D02*
X139573866Y-92263353D01*
X139907200Y-90549068D02*
X138621485Y-91406210D01*
X139764342Y-90263353D02*
X139811961Y-90215734D01*
X139811961Y-90215734D02*
X139859580Y-90120496D01*
X139859580Y-90120496D02*
X139859580Y-89882401D01*
X139859580Y-89882401D02*
X139811961Y-89787163D01*
X139811961Y-89787163D02*
X139764342Y-89739544D01*
X139764342Y-89739544D02*
X139669104Y-89691925D01*
X139669104Y-89691925D02*
X139573866Y-89691925D01*
X139573866Y-89691925D02*
X139431009Y-89739544D01*
X139431009Y-89739544D02*
X138859580Y-90310972D01*
X138859580Y-90310972D02*
X138859580Y-89691925D01*
X139431009Y-89120496D02*
X139478628Y-89215734D01*
X139478628Y-89215734D02*
X139526247Y-89263353D01*
X139526247Y-89263353D02*
X139621485Y-89310972D01*
X139621485Y-89310972D02*
X139669104Y-89310972D01*
X139669104Y-89310972D02*
X139764342Y-89263353D01*
X139764342Y-89263353D02*
X139811961Y-89215734D01*
X139811961Y-89215734D02*
X139859580Y-89120496D01*
X139859580Y-89120496D02*
X139859580Y-88930020D01*
X139859580Y-88930020D02*
X139811961Y-88834782D01*
X139811961Y-88834782D02*
X139764342Y-88787163D01*
X139764342Y-88787163D02*
X139669104Y-88739544D01*
X139669104Y-88739544D02*
X139621485Y-88739544D01*
X139621485Y-88739544D02*
X139526247Y-88787163D01*
X139526247Y-88787163D02*
X139478628Y-88834782D01*
X139478628Y-88834782D02*
X139431009Y-88930020D01*
X139431009Y-88930020D02*
X139431009Y-89120496D01*
X139431009Y-89120496D02*
X139383390Y-89215734D01*
X139383390Y-89215734D02*
X139335771Y-89263353D01*
X139335771Y-89263353D02*
X139240533Y-89310972D01*
X139240533Y-89310972D02*
X139050057Y-89310972D01*
X139050057Y-89310972D02*
X138954819Y-89263353D01*
X138954819Y-89263353D02*
X138907200Y-89215734D01*
X138907200Y-89215734D02*
X138859580Y-89120496D01*
X138859580Y-89120496D02*
X138859580Y-88930020D01*
X138859580Y-88930020D02*
X138907200Y-88834782D01*
X138907200Y-88834782D02*
X138954819Y-88787163D01*
X138954819Y-88787163D02*
X139050057Y-88739544D01*
X139050057Y-88739544D02*
X139240533Y-88739544D01*
X139240533Y-88739544D02*
X139335771Y-88787163D01*
X139335771Y-88787163D02*
X139383390Y-88834782D01*
X139383390Y-88834782D02*
X139431009Y-88930020D01*
X139907200Y-87596687D02*
X138621485Y-88453829D01*
X139764342Y-87310972D02*
X139811961Y-87263353D01*
X139811961Y-87263353D02*
X139859580Y-87168115D01*
X139859580Y-87168115D02*
X139859580Y-86930020D01*
X139859580Y-86930020D02*
X139811961Y-86834782D01*
X139811961Y-86834782D02*
X139764342Y-86787163D01*
X139764342Y-86787163D02*
X139669104Y-86739544D01*
X139669104Y-86739544D02*
X139573866Y-86739544D01*
X139573866Y-86739544D02*
X139431009Y-86787163D01*
X139431009Y-86787163D02*
X138859580Y-87358591D01*
X138859580Y-87358591D02*
X138859580Y-86739544D01*
X139859580Y-85834782D02*
X139859580Y-86310972D01*
X139859580Y-86310972D02*
X139383390Y-86358591D01*
X139383390Y-86358591D02*
X139431009Y-86310972D01*
X139431009Y-86310972D02*
X139478628Y-86215734D01*
X139478628Y-86215734D02*
X139478628Y-85977639D01*
X139478628Y-85977639D02*
X139431009Y-85882401D01*
X139431009Y-85882401D02*
X139383390Y-85834782D01*
X139383390Y-85834782D02*
X139288152Y-85787163D01*
X139288152Y-85787163D02*
X139050057Y-85787163D01*
X139050057Y-85787163D02*
X138954819Y-85834782D01*
X138954819Y-85834782D02*
X138907200Y-85882401D01*
X138907200Y-85882401D02*
X138859580Y-85977639D01*
X138859580Y-85977639D02*
X138859580Y-86215734D01*
X138859580Y-86215734D02*
X138907200Y-86310972D01*
X138907200Y-86310972D02*
X138954819Y-86358591D01*
D11*
G36*
X164292766Y-100048882D02*
G01*
X164323794Y-100079909D01*
X164403476Y-100318955D01*
X164403476Y-100789077D01*
X163718952Y-100789077D01*
X163718952Y-100222967D01*
X163782328Y-100096215D01*
X163829660Y-100048882D01*
X163956413Y-99985506D01*
X164166014Y-99985506D01*
X164292766Y-100048882D01*
G37*
G36*
X165483243Y-100167930D02*
G01*
X165530574Y-100215261D01*
X165593952Y-100342015D01*
X165593952Y-100789077D01*
X165028476Y-100789077D01*
X165028476Y-100342015D01*
X165091853Y-100215260D01*
X165139182Y-100167931D01*
X165265938Y-100104554D01*
X165356491Y-100104554D01*
X165483243Y-100167930D01*
G37*
G36*
X165483243Y-97548882D02*
G01*
X165530575Y-97596214D01*
X165593952Y-97722967D01*
X165593952Y-98289077D01*
X164909428Y-98289077D01*
X164909428Y-97722967D01*
X164972804Y-97596215D01*
X165020136Y-97548882D01*
X165146890Y-97485506D01*
X165356491Y-97485506D01*
X165483243Y-97548882D01*
G37*
G36*
X165389543Y-84121848D02*
G01*
X165530575Y-84262880D01*
X165593952Y-84389633D01*
X165593952Y-84718281D01*
X165530575Y-84845034D01*
X165389543Y-84986066D01*
X165034650Y-85074791D01*
X164278254Y-85074791D01*
X163923361Y-84986067D01*
X163782328Y-84845034D01*
X163718952Y-84718282D01*
X163718952Y-84389633D01*
X163782328Y-84262881D01*
X163923361Y-84121847D01*
X164278254Y-84033124D01*
X165034650Y-84033124D01*
X165389543Y-84121848D01*
G37*
G36*
X165389543Y-75788514D02*
G01*
X165530575Y-75929546D01*
X165593952Y-76056299D01*
X165593952Y-76384947D01*
X165530575Y-76511700D01*
X165389543Y-76652732D01*
X165034650Y-76741457D01*
X164278254Y-76741457D01*
X163923361Y-76652733D01*
X163782328Y-76511700D01*
X163718952Y-76384948D01*
X163718952Y-76056299D01*
X163782328Y-75929547D01*
X163923361Y-75788513D01*
X164278254Y-75699790D01*
X165034650Y-75699790D01*
X165389543Y-75788514D01*
G37*
G36*
X165483243Y-73263166D02*
G01*
X165530575Y-73310498D01*
X165593952Y-73437251D01*
X165593952Y-74003361D01*
X164909428Y-74003361D01*
X164909428Y-73437251D01*
X164972804Y-73310499D01*
X165020136Y-73263166D01*
X165146890Y-73199790D01*
X165356491Y-73199790D01*
X165483243Y-73263166D01*
G37*
G36*
X166531452Y-101726577D02*
G01*
X162781452Y-101726577D01*
X162781452Y-100149196D01*
X163093952Y-100149196D01*
X163093952Y-101101577D01*
X163096625Y-101142366D01*
X163117740Y-101221166D01*
X163158529Y-101291815D01*
X163216214Y-101349500D01*
X163286863Y-101390289D01*
X163365663Y-101411404D01*
X163406452Y-101414077D01*
X165906452Y-101414077D01*
X165947241Y-101411404D01*
X166026041Y-101390289D01*
X166096690Y-101349500D01*
X166154375Y-101291815D01*
X166195164Y-101221166D01*
X166216279Y-101142366D01*
X166218952Y-101101577D01*
X166218952Y-100268244D01*
X166217847Y-100251393D01*
X166218166Y-100246092D01*
X166217186Y-100241306D01*
X166216279Y-100227455D01*
X166208126Y-100197029D01*
X166201811Y-100166168D01*
X166196428Y-100153373D01*
X166195164Y-100148655D01*
X166192507Y-100144054D01*
X166185960Y-100128490D01*
X166066912Y-99890394D01*
X166046280Y-99855107D01*
X166040034Y-99848063D01*
X166035328Y-99839912D01*
X166008376Y-99809179D01*
X165889329Y-99690131D01*
X165858597Y-99663179D01*
X165850443Y-99658471D01*
X165843398Y-99652224D01*
X165808110Y-99631592D01*
X165570014Y-99512545D01*
X165554449Y-99505997D01*
X165549850Y-99503342D01*
X165545131Y-99502077D01*
X165532336Y-99496695D01*
X165501479Y-99490380D01*
X165471050Y-99482227D01*
X165457197Y-99481319D01*
X165452412Y-99480340D01*
X165447110Y-99480658D01*
X165430261Y-99479554D01*
X165192166Y-99479554D01*
X165175315Y-99480658D01*
X165170014Y-99480340D01*
X165165228Y-99481319D01*
X165151377Y-99482227D01*
X165120951Y-99490379D01*
X165090090Y-99496695D01*
X165077292Y-99502078D01*
X165072577Y-99503342D01*
X165067980Y-99505995D01*
X165052412Y-99512545D01*
X164814317Y-99631592D01*
X164779637Y-99651868D01*
X164698850Y-99571082D01*
X164668118Y-99544130D01*
X164659963Y-99539422D01*
X164652922Y-99533178D01*
X164617635Y-99512546D01*
X164379540Y-99393498D01*
X164363971Y-99386948D01*
X164359374Y-99384294D01*
X164354658Y-99383030D01*
X164341862Y-99377647D01*
X164310996Y-99371330D01*
X164280574Y-99363179D01*
X164266724Y-99362271D01*
X164261938Y-99361292D01*
X164256635Y-99361610D01*
X164239785Y-99360506D01*
X163882642Y-99360506D01*
X163865791Y-99361610D01*
X163860490Y-99361292D01*
X163855704Y-99362271D01*
X163841853Y-99363179D01*
X163811427Y-99371331D01*
X163780566Y-99377647D01*
X163767771Y-99383029D01*
X163763053Y-99384294D01*
X163758452Y-99386950D01*
X163742888Y-99393498D01*
X163504792Y-99512546D01*
X163469505Y-99533178D01*
X163462461Y-99539423D01*
X163454308Y-99544131D01*
X163423576Y-99571083D01*
X163304529Y-99690130D01*
X163277577Y-99720862D01*
X163272869Y-99729016D01*
X163266624Y-99736059D01*
X163245992Y-99771346D01*
X163126944Y-100009441D01*
X163120394Y-100025009D01*
X163117740Y-100029607D01*
X163116476Y-100034322D01*
X163111093Y-100047119D01*
X163104776Y-100077984D01*
X163096625Y-100108407D01*
X163095717Y-100122256D01*
X163094738Y-100127043D01*
X163095056Y-100132345D01*
X163093952Y-100149196D01*
X162781452Y-100149196D01*
X162781452Y-97186681D01*
X163094251Y-97186681D01*
X163108428Y-97267018D01*
X163142915Y-97340948D01*
X163195362Y-97403435D01*
X163227245Y-97429016D01*
X164284428Y-98169043D01*
X164284428Y-98289077D01*
X163406452Y-98289077D01*
X163365663Y-98291750D01*
X163286863Y-98312865D01*
X163216214Y-98353654D01*
X163158529Y-98411339D01*
X163117740Y-98481988D01*
X163096625Y-98560788D01*
X163096625Y-98642366D01*
X163117740Y-98721166D01*
X163158529Y-98791815D01*
X163216214Y-98849500D01*
X163286863Y-98890289D01*
X163365663Y-98911404D01*
X163406452Y-98914077D01*
X165906452Y-98914077D01*
X165947241Y-98911404D01*
X166026041Y-98890289D01*
X166096690Y-98849500D01*
X166154375Y-98791815D01*
X166195164Y-98721166D01*
X166216279Y-98642366D01*
X166218952Y-98601577D01*
X166218952Y-97649196D01*
X166217847Y-97632345D01*
X166218166Y-97627044D01*
X166217186Y-97622258D01*
X166216279Y-97608407D01*
X166208126Y-97577981D01*
X166201811Y-97547120D01*
X166196428Y-97534325D01*
X166195164Y-97529607D01*
X166192507Y-97525006D01*
X166185960Y-97509442D01*
X166066912Y-97271346D01*
X166046280Y-97236059D01*
X166040034Y-97229015D01*
X166035327Y-97220862D01*
X166008375Y-97190130D01*
X165889328Y-97071083D01*
X165858596Y-97044131D01*
X165850439Y-97039421D01*
X165843398Y-97033178D01*
X165808111Y-97012545D01*
X165570015Y-96893498D01*
X165554450Y-96886950D01*
X165549850Y-96884294D01*
X165545131Y-96883029D01*
X165532337Y-96877647D01*
X165501475Y-96871331D01*
X165471050Y-96863179D01*
X165457198Y-96862271D01*
X165452413Y-96861292D01*
X165447111Y-96861610D01*
X165430261Y-96860506D01*
X165073119Y-96860506D01*
X165056268Y-96861610D01*
X165050966Y-96861292D01*
X165046180Y-96862271D01*
X165032330Y-96863179D01*
X165001905Y-96871331D01*
X164971043Y-96877647D01*
X164958247Y-96883029D01*
X164953530Y-96884294D01*
X164948931Y-96886949D01*
X164933364Y-96893498D01*
X164695269Y-97012546D01*
X164659981Y-97033178D01*
X164652937Y-97039423D01*
X164644784Y-97044131D01*
X164614052Y-97071083D01*
X164495005Y-97190130D01*
X164468053Y-97220862D01*
X164463345Y-97229016D01*
X164457100Y-97236059D01*
X164436468Y-97271346D01*
X164347128Y-97450024D01*
X163585659Y-96916996D01*
X163550710Y-96895795D01*
X163474046Y-96867904D01*
X163392777Y-96860805D01*
X163312440Y-96874982D01*
X163238510Y-96909469D01*
X163176023Y-96961916D01*
X163129241Y-97028748D01*
X163101350Y-97105412D01*
X163094251Y-97186681D01*
X162781452Y-97186681D01*
X162781452Y-96060788D01*
X163096625Y-96060788D01*
X163096625Y-96142366D01*
X163117740Y-96221166D01*
X163158529Y-96291815D01*
X163216214Y-96349500D01*
X163286863Y-96390289D01*
X163365663Y-96411404D01*
X163406452Y-96414077D01*
X165906452Y-96414077D01*
X165947241Y-96411404D01*
X166026041Y-96390289D01*
X166096690Y-96349500D01*
X166154375Y-96291815D01*
X166195164Y-96221166D01*
X166216279Y-96142366D01*
X166216279Y-96060788D01*
X166195164Y-95981988D01*
X166154375Y-95911339D01*
X166096690Y-95853654D01*
X166026041Y-95812865D01*
X165947241Y-95791750D01*
X165906452Y-95789077D01*
X163406452Y-95789077D01*
X163365663Y-95791750D01*
X163286863Y-95812865D01*
X163216214Y-95853654D01*
X163158529Y-95911339D01*
X163117740Y-95981988D01*
X163096625Y-96060788D01*
X162781452Y-96060788D01*
X162781452Y-93443121D01*
X163096447Y-93443121D01*
X163096625Y-93483123D01*
X163096625Y-93523319D01*
X163096806Y-93523997D01*
X163096810Y-93524699D01*
X163107366Y-93563405D01*
X163117740Y-93602119D01*
X163118090Y-93602725D01*
X163118275Y-93603403D01*
X163138482Y-93638046D01*
X163158529Y-93672768D01*
X163159025Y-93673264D01*
X163159378Y-93673869D01*
X163187840Y-93702079D01*
X163216214Y-93730453D01*
X163216821Y-93730803D01*
X163217320Y-93731298D01*
X163251409Y-93753856D01*
X164729713Y-94598601D01*
X163406452Y-94598601D01*
X163365663Y-94601274D01*
X163286863Y-94622389D01*
X163216214Y-94663178D01*
X163158529Y-94720863D01*
X163117740Y-94791512D01*
X163096625Y-94870312D01*
X163096625Y-94951890D01*
X163117740Y-95030690D01*
X163158529Y-95101339D01*
X163216214Y-95159024D01*
X163286863Y-95199813D01*
X163365663Y-95220928D01*
X163406452Y-95223601D01*
X165906452Y-95223601D01*
X165947241Y-95220928D01*
X165947919Y-95220746D01*
X165948621Y-95220743D01*
X165987327Y-95210186D01*
X166026041Y-95199813D01*
X166026647Y-95199462D01*
X166027325Y-95199278D01*
X166062016Y-95179042D01*
X166096690Y-95159024D01*
X166097184Y-95158529D01*
X166097792Y-95158175D01*
X166126114Y-95129599D01*
X166154375Y-95101339D01*
X166154724Y-95100734D01*
X166155221Y-95100233D01*
X166175264Y-95065157D01*
X166195164Y-95030690D01*
X166195344Y-95030018D01*
X166195695Y-95029404D01*
X166205928Y-94990517D01*
X166216279Y-94951890D01*
X166216279Y-94951186D01*
X166216457Y-94950510D01*
X166216279Y-94910508D01*
X166216279Y-94870312D01*
X166216097Y-94869633D01*
X166216094Y-94868933D01*
X166205545Y-94830254D01*
X166195164Y-94791512D01*
X166194813Y-94790905D01*
X166194629Y-94790228D01*
X166174421Y-94755584D01*
X166154375Y-94720863D01*
X166153878Y-94720366D01*
X166153526Y-94719762D01*
X166125063Y-94691551D01*
X166096690Y-94663178D01*
X166096082Y-94662827D01*
X166095584Y-94662333D01*
X166061496Y-94639775D01*
X164583191Y-93795030D01*
X165906452Y-93795030D01*
X165947241Y-93792357D01*
X166026041Y-93771242D01*
X166096690Y-93730453D01*
X166154375Y-93672768D01*
X166195164Y-93602119D01*
X166216279Y-93523319D01*
X166216279Y-93441741D01*
X166195164Y-93362941D01*
X166154375Y-93292292D01*
X166096690Y-93234607D01*
X166026041Y-93193818D01*
X165947241Y-93172703D01*
X165906452Y-93170030D01*
X163406452Y-93170030D01*
X163365663Y-93172703D01*
X163364984Y-93172884D01*
X163364283Y-93172888D01*
X163325576Y-93183444D01*
X163286863Y-93193818D01*
X163286256Y-93194168D01*
X163285579Y-93194353D01*
X163250935Y-93214560D01*
X163216214Y-93234607D01*
X163215717Y-93235103D01*
X163215113Y-93235456D01*
X163186902Y-93263918D01*
X163158529Y-93292292D01*
X163158178Y-93292899D01*
X163157684Y-93293398D01*
X163137764Y-93328256D01*
X163117740Y-93362941D01*
X163117558Y-93363617D01*
X163117210Y-93364228D01*
X163107011Y-93402979D01*
X163096625Y-93441741D01*
X163096625Y-93442444D01*
X163096447Y-93443121D01*
X162781452Y-93443121D01*
X162781452Y-91101577D01*
X163093952Y-91101577D01*
X163093952Y-92292053D01*
X163096625Y-92332842D01*
X163117740Y-92411642D01*
X163158529Y-92482291D01*
X163216214Y-92539976D01*
X163286863Y-92580765D01*
X163365663Y-92601880D01*
X163406452Y-92604553D01*
X165906452Y-92604553D01*
X165947241Y-92601880D01*
X166026041Y-92580765D01*
X166096690Y-92539976D01*
X166154375Y-92482291D01*
X166195164Y-92411642D01*
X166216279Y-92332842D01*
X166218952Y-92292053D01*
X166218952Y-91101577D01*
X166216279Y-91060788D01*
X166195164Y-90981988D01*
X166154375Y-90911339D01*
X166096690Y-90853654D01*
X166026041Y-90812865D01*
X165947241Y-90791750D01*
X165865663Y-90791750D01*
X165786863Y-90812865D01*
X165716214Y-90853654D01*
X165658529Y-90911339D01*
X165617740Y-90981988D01*
X165596625Y-91060788D01*
X165593952Y-91101577D01*
X165593952Y-91979553D01*
X165028476Y-91979553D01*
X165028476Y-91458720D01*
X165025803Y-91417931D01*
X165004688Y-91339131D01*
X164963899Y-91268482D01*
X164906214Y-91210797D01*
X164835565Y-91170008D01*
X164756765Y-91148893D01*
X164675187Y-91148893D01*
X164596387Y-91170008D01*
X164525738Y-91210797D01*
X164468053Y-91268482D01*
X164427264Y-91339131D01*
X164406149Y-91417931D01*
X164403476Y-91458720D01*
X164403476Y-91979553D01*
X163718952Y-91979553D01*
X163718952Y-91101577D01*
X163716279Y-91060788D01*
X163695164Y-90981988D01*
X163654375Y-90911339D01*
X163596690Y-90853654D01*
X163526041Y-90812865D01*
X163447241Y-90791750D01*
X163365663Y-90791750D01*
X163286863Y-90812865D01*
X163216214Y-90853654D01*
X163158529Y-90911339D01*
X163117740Y-90981988D01*
X163096625Y-91060788D01*
X163093952Y-91101577D01*
X162781452Y-91101577D01*
X162781452Y-86417931D01*
X163096625Y-86417931D01*
X163096625Y-86499509D01*
X163117740Y-86578309D01*
X163158529Y-86648958D01*
X163216214Y-86706643D01*
X163286863Y-86747432D01*
X163365663Y-86768547D01*
X163406452Y-86771220D01*
X164497838Y-86771220D01*
X163988586Y-87008871D01*
X163980156Y-87013498D01*
X163976523Y-87014820D01*
X163972057Y-87017944D01*
X163952754Y-87028542D01*
X163931942Y-87046015D01*
X163909684Y-87061591D01*
X163900826Y-87072141D01*
X163890276Y-87080999D01*
X163874700Y-87103257D01*
X163857227Y-87124069D01*
X163851400Y-87136555D01*
X163843505Y-87147838D01*
X163834221Y-87173367D01*
X163822729Y-87197994D01*
X163820333Y-87211558D01*
X163815625Y-87224506D01*
X163813264Y-87251578D01*
X163808540Y-87278330D01*
X163809736Y-87292053D01*
X163808540Y-87305776D01*
X163813264Y-87332527D01*
X163815625Y-87359600D01*
X163820333Y-87372547D01*
X163822729Y-87386112D01*
X163834221Y-87410738D01*
X163843505Y-87436268D01*
X163851400Y-87447550D01*
X163857227Y-87460037D01*
X163874700Y-87480848D01*
X163890276Y-87503107D01*
X163900826Y-87511964D01*
X163909684Y-87522515D01*
X163931942Y-87538090D01*
X163952754Y-87555564D01*
X163972057Y-87566161D01*
X163976523Y-87569286D01*
X163980156Y-87570607D01*
X163988586Y-87575235D01*
X164497838Y-87812886D01*
X163406452Y-87812886D01*
X163365663Y-87815559D01*
X163286863Y-87836674D01*
X163216214Y-87877463D01*
X163158529Y-87935148D01*
X163117740Y-88005797D01*
X163096625Y-88084597D01*
X163096625Y-88166175D01*
X163117740Y-88244975D01*
X163158529Y-88315624D01*
X163216214Y-88373309D01*
X163286863Y-88414098D01*
X163365663Y-88435213D01*
X163406452Y-88437886D01*
X165906452Y-88437886D01*
X165947241Y-88435213D01*
X165960417Y-88431682D01*
X165973999Y-88430498D01*
X165999657Y-88421167D01*
X166026041Y-88414098D01*
X166037853Y-88407278D01*
X166050666Y-88402619D01*
X166073032Y-88386967D01*
X166096690Y-88373309D01*
X166106336Y-88363662D01*
X166117505Y-88355847D01*
X166135059Y-88334939D01*
X166154375Y-88315624D01*
X166161194Y-88303812D01*
X166169963Y-88293369D01*
X166181512Y-88268620D01*
X166195164Y-88244975D01*
X166198693Y-88231804D01*
X166204461Y-88219445D01*
X166209210Y-88192555D01*
X166216279Y-88166175D01*
X166216279Y-88152532D01*
X166218650Y-88139108D01*
X166216279Y-88111914D01*
X166216279Y-88084597D01*
X166212748Y-88071420D01*
X166211564Y-88057838D01*
X166202232Y-88032177D01*
X166195164Y-88005797D01*
X166188345Y-87993986D01*
X166183685Y-87981171D01*
X166168030Y-87958799D01*
X166154375Y-87935148D01*
X166144730Y-87925503D01*
X166136913Y-87914332D01*
X166116001Y-87896774D01*
X166096690Y-87877463D01*
X166084879Y-87870644D01*
X166074435Y-87861875D01*
X166038603Y-87842204D01*
X164859708Y-87292053D01*
X166038603Y-86741902D01*
X166074435Y-86722231D01*
X166084879Y-86713461D01*
X166096690Y-86706643D01*
X166116001Y-86687331D01*
X166136913Y-86669774D01*
X166144730Y-86658602D01*
X166154375Y-86648958D01*
X166168030Y-86625306D01*
X166183685Y-86602935D01*
X166188345Y-86590119D01*
X166195164Y-86578309D01*
X166202232Y-86551928D01*
X166211564Y-86526268D01*
X166212748Y-86512685D01*
X166216279Y-86499509D01*
X166216279Y-86472191D01*
X166218650Y-86444998D01*
X166216279Y-86431573D01*
X166216279Y-86417931D01*
X166209210Y-86391550D01*
X166204461Y-86364661D01*
X166198693Y-86352301D01*
X166195164Y-86339131D01*
X166181512Y-86315485D01*
X166169963Y-86290737D01*
X166161194Y-86280293D01*
X166154375Y-86268482D01*
X166135059Y-86249166D01*
X166117505Y-86228259D01*
X166106336Y-86220443D01*
X166096690Y-86210797D01*
X166073032Y-86197138D01*
X166050666Y-86181487D01*
X166037853Y-86176827D01*
X166026041Y-86170008D01*
X165999657Y-86162938D01*
X165973999Y-86153608D01*
X165960417Y-86152423D01*
X165947241Y-86148893D01*
X165906452Y-86146220D01*
X163406452Y-86146220D01*
X163365663Y-86148893D01*
X163286863Y-86170008D01*
X163216214Y-86210797D01*
X163158529Y-86268482D01*
X163117740Y-86339131D01*
X163096625Y-86417931D01*
X162781452Y-86417931D01*
X162781452Y-84315862D01*
X163093952Y-84315862D01*
X163093952Y-84792053D01*
X163095056Y-84808903D01*
X163094738Y-84814206D01*
X163095717Y-84818992D01*
X163096625Y-84832842D01*
X163104776Y-84863264D01*
X163111093Y-84894130D01*
X163116476Y-84906926D01*
X163117740Y-84911642D01*
X163120394Y-84916239D01*
X163126944Y-84931808D01*
X163245992Y-85169903D01*
X163266624Y-85205190D01*
X163272869Y-85212232D01*
X163277577Y-85220387D01*
X163304529Y-85251119D01*
X163542624Y-85489214D01*
X163573356Y-85516166D01*
X163575651Y-85517491D01*
X163577553Y-85519330D01*
X163610944Y-85537866D01*
X163644007Y-85556955D01*
X163646561Y-85557639D01*
X163648879Y-85558926D01*
X163687802Y-85571412D01*
X164163993Y-85690461D01*
X164195473Y-85696174D01*
X164198996Y-85697118D01*
X164201623Y-85697290D01*
X164204212Y-85697760D01*
X164207857Y-85697698D01*
X164239785Y-85699791D01*
X165073119Y-85699791D01*
X165105047Y-85697698D01*
X165108692Y-85697760D01*
X165111280Y-85697290D01*
X165113908Y-85697118D01*
X165117432Y-85696173D01*
X165148912Y-85690460D01*
X165625102Y-85571412D01*
X165664025Y-85558926D01*
X165666342Y-85557639D01*
X165668897Y-85556955D01*
X165701959Y-85537866D01*
X165735351Y-85519330D01*
X165737252Y-85517491D01*
X165739548Y-85516166D01*
X165770280Y-85489214D01*
X166008375Y-85251119D01*
X166035327Y-85220387D01*
X166040034Y-85212233D01*
X166046280Y-85205190D01*
X166066912Y-85169903D01*
X166185960Y-84931807D01*
X166192507Y-84916242D01*
X166195164Y-84911642D01*
X166196428Y-84906923D01*
X166201811Y-84894129D01*
X166208126Y-84863267D01*
X166216279Y-84832842D01*
X166217186Y-84818990D01*
X166218166Y-84814205D01*
X166217847Y-84808903D01*
X166218952Y-84792053D01*
X166218952Y-84315862D01*
X166217847Y-84299011D01*
X166218166Y-84293710D01*
X166217186Y-84288924D01*
X166216279Y-84275073D01*
X166208126Y-84244647D01*
X166201811Y-84213786D01*
X166196428Y-84200991D01*
X166195164Y-84196273D01*
X166192507Y-84191672D01*
X166185960Y-84176108D01*
X166066912Y-83938012D01*
X166046280Y-83902725D01*
X166040034Y-83895681D01*
X166035327Y-83887528D01*
X166008375Y-83856796D01*
X165770280Y-83618701D01*
X165739548Y-83591749D01*
X165737252Y-83590423D01*
X165735351Y-83588585D01*
X165701959Y-83570048D01*
X165668897Y-83550960D01*
X165666342Y-83550275D01*
X165664025Y-83548989D01*
X165625102Y-83536503D01*
X165148912Y-83417455D01*
X165117432Y-83411741D01*
X165113908Y-83410797D01*
X165111280Y-83410624D01*
X165108692Y-83410155D01*
X165105047Y-83410216D01*
X165073119Y-83408124D01*
X164239785Y-83408124D01*
X164207857Y-83410216D01*
X164204212Y-83410155D01*
X164201623Y-83410624D01*
X164198996Y-83410797D01*
X164195473Y-83411740D01*
X164163993Y-83417454D01*
X163687802Y-83536503D01*
X163648879Y-83548989D01*
X163646561Y-83550275D01*
X163644007Y-83550960D01*
X163610944Y-83570048D01*
X163577553Y-83588585D01*
X163575651Y-83590423D01*
X163573356Y-83591749D01*
X163542624Y-83618701D01*
X163304529Y-83856796D01*
X163277577Y-83887528D01*
X163272869Y-83895682D01*
X163266624Y-83902725D01*
X163245992Y-83938012D01*
X163126944Y-84176107D01*
X163120394Y-84191675D01*
X163117740Y-84196273D01*
X163116476Y-84200988D01*
X163111093Y-84213785D01*
X163104776Y-84244650D01*
X163096625Y-84275073D01*
X163095717Y-84288922D01*
X163094738Y-84293709D01*
X163095056Y-84299011D01*
X163093952Y-84315862D01*
X162781452Y-84315862D01*
X162781452Y-81181215D01*
X163096447Y-81181215D01*
X163096625Y-81221217D01*
X163096625Y-81261413D01*
X163096806Y-81262091D01*
X163096810Y-81262793D01*
X163107366Y-81301499D01*
X163117740Y-81340213D01*
X163118090Y-81340819D01*
X163118275Y-81341497D01*
X163138482Y-81376140D01*
X163158529Y-81410862D01*
X163159025Y-81411358D01*
X163159378Y-81411963D01*
X163187840Y-81440173D01*
X163216214Y-81468547D01*
X163216821Y-81468897D01*
X163217320Y-81469392D01*
X163251409Y-81491950D01*
X164729713Y-82336695D01*
X163406452Y-82336695D01*
X163365663Y-82339368D01*
X163286863Y-82360483D01*
X163216214Y-82401272D01*
X163158529Y-82458957D01*
X163117740Y-82529606D01*
X163096625Y-82608406D01*
X163096625Y-82689984D01*
X163117740Y-82768784D01*
X163158529Y-82839433D01*
X163216214Y-82897118D01*
X163286863Y-82937907D01*
X163365663Y-82959022D01*
X163406452Y-82961695D01*
X165906452Y-82961695D01*
X165947241Y-82959022D01*
X165947919Y-82958840D01*
X165948621Y-82958837D01*
X165987327Y-82948280D01*
X166026041Y-82937907D01*
X166026647Y-82937556D01*
X166027325Y-82937372D01*
X166062016Y-82917136D01*
X166096690Y-82897118D01*
X166097184Y-82896623D01*
X166097792Y-82896269D01*
X166126114Y-82867693D01*
X166154375Y-82839433D01*
X166154724Y-82838828D01*
X166155221Y-82838327D01*
X166175264Y-82803251D01*
X166195164Y-82768784D01*
X166195344Y-82768112D01*
X166195695Y-82767498D01*
X166205928Y-82728611D01*
X166216279Y-82689984D01*
X166216279Y-82689280D01*
X166216457Y-82688604D01*
X166216279Y-82648602D01*
X166216279Y-82608406D01*
X166216097Y-82607727D01*
X166216094Y-82607027D01*
X166205545Y-82568348D01*
X166195164Y-82529606D01*
X166194813Y-82528999D01*
X166194629Y-82528322D01*
X166174421Y-82493678D01*
X166154375Y-82458957D01*
X166153878Y-82458460D01*
X166153526Y-82457856D01*
X166125063Y-82429645D01*
X166096690Y-82401272D01*
X166096082Y-82400921D01*
X166095584Y-82400427D01*
X166061496Y-82377869D01*
X164583191Y-81533124D01*
X165906452Y-81533124D01*
X165947241Y-81530451D01*
X166026041Y-81509336D01*
X166096690Y-81468547D01*
X166154375Y-81410862D01*
X166195164Y-81340213D01*
X166216279Y-81261413D01*
X166216279Y-81179835D01*
X166195164Y-81101035D01*
X166154375Y-81030386D01*
X166096690Y-80972701D01*
X166026041Y-80931912D01*
X165947241Y-80910797D01*
X165906452Y-80908124D01*
X163406452Y-80908124D01*
X163365663Y-80910797D01*
X163364984Y-80910978D01*
X163364283Y-80910982D01*
X163325576Y-80921538D01*
X163286863Y-80931912D01*
X163286256Y-80932262D01*
X163285579Y-80932447D01*
X163250935Y-80952654D01*
X163216214Y-80972701D01*
X163215717Y-80973197D01*
X163215113Y-80973550D01*
X163186902Y-81002012D01*
X163158529Y-81030386D01*
X163158178Y-81030993D01*
X163157684Y-81031492D01*
X163137764Y-81066350D01*
X163117740Y-81101035D01*
X163117558Y-81101711D01*
X163117210Y-81102322D01*
X163107011Y-81141073D01*
X163096625Y-81179835D01*
X163096625Y-81180538D01*
X163096447Y-81181215D01*
X162781452Y-81181215D01*
X162781452Y-79989358D01*
X163096625Y-79989358D01*
X163096625Y-80070936D01*
X163117740Y-80149736D01*
X163158529Y-80220385D01*
X163216214Y-80278070D01*
X163286863Y-80318859D01*
X163365663Y-80339974D01*
X163406452Y-80342647D01*
X165906452Y-80342647D01*
X165947241Y-80339974D01*
X166026041Y-80318859D01*
X166096690Y-80278070D01*
X166154375Y-80220385D01*
X166195164Y-80149736D01*
X166216279Y-80070936D01*
X166216279Y-79989358D01*
X166195164Y-79910558D01*
X166154375Y-79839909D01*
X166096690Y-79782224D01*
X166026041Y-79741435D01*
X165947241Y-79720320D01*
X165906452Y-79717647D01*
X163406452Y-79717647D01*
X163365663Y-79720320D01*
X163286863Y-79741435D01*
X163216214Y-79782224D01*
X163158529Y-79839909D01*
X163117740Y-79910558D01*
X163096625Y-79989358D01*
X162781452Y-79989358D01*
X162781452Y-78441740D01*
X163096625Y-78441740D01*
X163096625Y-78523318D01*
X163117740Y-78602118D01*
X163158529Y-78672767D01*
X163216214Y-78730452D01*
X163286863Y-78771241D01*
X163365663Y-78792356D01*
X163406452Y-78795029D01*
X165593952Y-78795029D01*
X165593952Y-79196814D01*
X165596625Y-79237603D01*
X165617740Y-79316403D01*
X165658529Y-79387052D01*
X165716214Y-79444737D01*
X165786863Y-79485526D01*
X165865663Y-79506641D01*
X165947241Y-79506641D01*
X166026041Y-79485526D01*
X166096690Y-79444737D01*
X166154375Y-79387052D01*
X166195164Y-79316403D01*
X166216279Y-79237603D01*
X166218952Y-79196814D01*
X166218952Y-77768243D01*
X166216279Y-77727454D01*
X166195164Y-77648654D01*
X166154375Y-77578005D01*
X166096690Y-77520320D01*
X166026041Y-77479531D01*
X165947241Y-77458416D01*
X165865663Y-77458416D01*
X165786863Y-77479531D01*
X165716214Y-77520320D01*
X165658529Y-77578005D01*
X165617740Y-77648654D01*
X165596625Y-77727454D01*
X165593952Y-77768243D01*
X165593952Y-78170029D01*
X163406452Y-78170029D01*
X163365663Y-78172702D01*
X163286863Y-78193817D01*
X163216214Y-78234606D01*
X163158529Y-78292291D01*
X163117740Y-78362940D01*
X163096625Y-78441740D01*
X162781452Y-78441740D01*
X162781452Y-75982528D01*
X163093952Y-75982528D01*
X163093952Y-76458719D01*
X163095056Y-76475569D01*
X163094738Y-76480872D01*
X163095717Y-76485658D01*
X163096625Y-76499508D01*
X163104776Y-76529930D01*
X163111093Y-76560796D01*
X163116476Y-76573592D01*
X163117740Y-76578308D01*
X163120394Y-76582905D01*
X163126944Y-76598474D01*
X163245992Y-76836569D01*
X163266624Y-76871856D01*
X163272869Y-76878898D01*
X163277577Y-76887053D01*
X163304529Y-76917785D01*
X163542624Y-77155880D01*
X163573356Y-77182832D01*
X163575651Y-77184157D01*
X163577553Y-77185996D01*
X163610944Y-77204532D01*
X163644007Y-77223621D01*
X163646561Y-77224305D01*
X163648879Y-77225592D01*
X163687802Y-77238078D01*
X164163993Y-77357127D01*
X164195473Y-77362840D01*
X164198996Y-77363784D01*
X164201623Y-77363956D01*
X164204212Y-77364426D01*
X164207857Y-77364364D01*
X164239785Y-77366457D01*
X165073119Y-77366457D01*
X165105047Y-77364364D01*
X165108692Y-77364426D01*
X165111280Y-77363956D01*
X165113908Y-77363784D01*
X165117432Y-77362839D01*
X165148912Y-77357126D01*
X165625102Y-77238078D01*
X165664025Y-77225592D01*
X165666342Y-77224305D01*
X165668897Y-77223621D01*
X165701959Y-77204532D01*
X165735351Y-77185996D01*
X165737252Y-77184157D01*
X165739548Y-77182832D01*
X165770280Y-77155880D01*
X166008375Y-76917785D01*
X166035327Y-76887053D01*
X166040034Y-76878899D01*
X166046280Y-76871856D01*
X166066912Y-76836569D01*
X166185960Y-76598473D01*
X166192507Y-76582908D01*
X166195164Y-76578308D01*
X166196428Y-76573589D01*
X166201811Y-76560795D01*
X166208126Y-76529933D01*
X166216279Y-76499508D01*
X166217186Y-76485656D01*
X166218166Y-76480871D01*
X166217847Y-76475569D01*
X166218952Y-76458719D01*
X166218952Y-75982528D01*
X166217847Y-75965677D01*
X166218166Y-75960376D01*
X166217186Y-75955590D01*
X166216279Y-75941739D01*
X166208126Y-75911313D01*
X166201811Y-75880452D01*
X166196428Y-75867657D01*
X166195164Y-75862939D01*
X166192507Y-75858338D01*
X166185960Y-75842774D01*
X166066912Y-75604678D01*
X166046280Y-75569391D01*
X166040034Y-75562347D01*
X166035327Y-75554194D01*
X166008375Y-75523462D01*
X165770280Y-75285367D01*
X165739548Y-75258415D01*
X165737252Y-75257089D01*
X165735351Y-75255251D01*
X165701959Y-75236714D01*
X165668897Y-75217626D01*
X165666342Y-75216941D01*
X165664025Y-75215655D01*
X165625102Y-75203169D01*
X165148912Y-75084121D01*
X165117432Y-75078407D01*
X165113908Y-75077463D01*
X165111280Y-75077290D01*
X165108692Y-75076821D01*
X165105047Y-75076882D01*
X165073119Y-75074790D01*
X164239785Y-75074790D01*
X164207857Y-75076882D01*
X164204212Y-75076821D01*
X164201623Y-75077290D01*
X164198996Y-75077463D01*
X164195473Y-75078406D01*
X164163993Y-75084120D01*
X163687802Y-75203169D01*
X163648879Y-75215655D01*
X163646561Y-75216941D01*
X163644007Y-75217626D01*
X163610944Y-75236714D01*
X163577553Y-75255251D01*
X163575651Y-75257089D01*
X163573356Y-75258415D01*
X163542624Y-75285367D01*
X163304529Y-75523462D01*
X163277577Y-75554194D01*
X163272869Y-75562348D01*
X163266624Y-75569391D01*
X163245992Y-75604678D01*
X163126944Y-75842773D01*
X163120394Y-75858341D01*
X163117740Y-75862939D01*
X163116476Y-75867654D01*
X163111093Y-75880451D01*
X163104776Y-75911316D01*
X163096625Y-75941739D01*
X163095717Y-75955588D01*
X163094738Y-75960375D01*
X163095056Y-75965677D01*
X163093952Y-75982528D01*
X162781452Y-75982528D01*
X162781452Y-72900965D01*
X163094251Y-72900965D01*
X163108428Y-72981302D01*
X163142915Y-73055232D01*
X163195362Y-73117719D01*
X163227245Y-73143300D01*
X164284428Y-73883327D01*
X164284428Y-74003361D01*
X163406452Y-74003361D01*
X163365663Y-74006034D01*
X163286863Y-74027149D01*
X163216214Y-74067938D01*
X163158529Y-74125623D01*
X163117740Y-74196272D01*
X163096625Y-74275072D01*
X163096625Y-74356650D01*
X163117740Y-74435450D01*
X163158529Y-74506099D01*
X163216214Y-74563784D01*
X163286863Y-74604573D01*
X163365663Y-74625688D01*
X163406452Y-74628361D01*
X165906452Y-74628361D01*
X165947241Y-74625688D01*
X166026041Y-74604573D01*
X166096690Y-74563784D01*
X166154375Y-74506099D01*
X166195164Y-74435450D01*
X166216279Y-74356650D01*
X166218952Y-74315861D01*
X166218952Y-73363480D01*
X166217847Y-73346629D01*
X166218166Y-73341328D01*
X166217186Y-73336542D01*
X166216279Y-73322691D01*
X166208126Y-73292265D01*
X166201811Y-73261404D01*
X166196428Y-73248609D01*
X166195164Y-73243891D01*
X166192507Y-73239290D01*
X166185960Y-73223726D01*
X166066912Y-72985630D01*
X166046280Y-72950343D01*
X166040034Y-72943299D01*
X166035327Y-72935146D01*
X166008375Y-72904414D01*
X165889328Y-72785367D01*
X165858596Y-72758415D01*
X165850439Y-72753705D01*
X165843398Y-72747462D01*
X165808111Y-72726829D01*
X165570015Y-72607782D01*
X165554450Y-72601234D01*
X165549850Y-72598578D01*
X165545131Y-72597313D01*
X165532337Y-72591931D01*
X165501475Y-72585615D01*
X165471050Y-72577463D01*
X165457198Y-72576555D01*
X165452413Y-72575576D01*
X165447111Y-72575894D01*
X165430261Y-72574790D01*
X165073119Y-72574790D01*
X165056268Y-72575894D01*
X165050966Y-72575576D01*
X165046180Y-72576555D01*
X165032330Y-72577463D01*
X165001905Y-72585615D01*
X164971043Y-72591931D01*
X164958247Y-72597313D01*
X164953530Y-72598578D01*
X164948931Y-72601233D01*
X164933364Y-72607782D01*
X164695269Y-72726830D01*
X164659981Y-72747462D01*
X164652937Y-72753707D01*
X164644784Y-72758415D01*
X164614052Y-72785367D01*
X164495005Y-72904414D01*
X164468053Y-72935146D01*
X164463345Y-72943300D01*
X164457100Y-72950343D01*
X164436468Y-72985630D01*
X164347128Y-73164308D01*
X163585659Y-72631280D01*
X163550710Y-72610079D01*
X163474046Y-72582188D01*
X163392777Y-72575089D01*
X163312440Y-72589266D01*
X163238510Y-72623753D01*
X163176023Y-72676200D01*
X163129241Y-72743032D01*
X163101350Y-72819696D01*
X163094251Y-72900965D01*
X162781452Y-72900965D01*
X162781452Y-72262290D01*
X166531452Y-72262290D01*
X166531452Y-101726577D01*
G37*
D10*
X141359580Y-93310972D02*
X140359580Y-92977639D01*
X140359580Y-92977639D02*
X141359580Y-92644306D01*
X140407200Y-91930020D02*
X140359580Y-92025258D01*
X140359580Y-92025258D02*
X140359580Y-92215734D01*
X140359580Y-92215734D02*
X140407200Y-92310972D01*
X140407200Y-92310972D02*
X140502438Y-92358591D01*
X140502438Y-92358591D02*
X140883390Y-92358591D01*
X140883390Y-92358591D02*
X140978628Y-92310972D01*
X140978628Y-92310972D02*
X141026247Y-92215734D01*
X141026247Y-92215734D02*
X141026247Y-92025258D01*
X141026247Y-92025258D02*
X140978628Y-91930020D01*
X140978628Y-91930020D02*
X140883390Y-91882401D01*
X140883390Y-91882401D02*
X140788152Y-91882401D01*
X140788152Y-91882401D02*
X140692914Y-92358591D01*
X140359580Y-91453829D02*
X141026247Y-91453829D01*
X140835771Y-91453829D02*
X140931009Y-91406210D01*
X140931009Y-91406210D02*
X140978628Y-91358591D01*
X140978628Y-91358591D02*
X141026247Y-91263353D01*
X141026247Y-91263353D02*
X141026247Y-91168115D01*
X140407200Y-90882400D02*
X140359580Y-90787162D01*
X140359580Y-90787162D02*
X140359580Y-90596686D01*
X140359580Y-90596686D02*
X140407200Y-90501448D01*
X140407200Y-90501448D02*
X140502438Y-90453829D01*
X140502438Y-90453829D02*
X140550057Y-90453829D01*
X140550057Y-90453829D02*
X140645295Y-90501448D01*
X140645295Y-90501448D02*
X140692914Y-90596686D01*
X140692914Y-90596686D02*
X140692914Y-90739543D01*
X140692914Y-90739543D02*
X140740533Y-90834781D01*
X140740533Y-90834781D02*
X140835771Y-90882400D01*
X140835771Y-90882400D02*
X140883390Y-90882400D01*
X140883390Y-90882400D02*
X140978628Y-90834781D01*
X140978628Y-90834781D02*
X141026247Y-90739543D01*
X141026247Y-90739543D02*
X141026247Y-90596686D01*
X141026247Y-90596686D02*
X140978628Y-90501448D01*
X140359580Y-90025257D02*
X141026247Y-90025257D01*
X141359580Y-90025257D02*
X141311961Y-90072876D01*
X141311961Y-90072876D02*
X141264342Y-90025257D01*
X141264342Y-90025257D02*
X141311961Y-89977638D01*
X141311961Y-89977638D02*
X141359580Y-90025257D01*
X141359580Y-90025257D02*
X141264342Y-90025257D01*
X140359580Y-89406210D02*
X140407200Y-89501448D01*
X140407200Y-89501448D02*
X140454819Y-89549067D01*
X140454819Y-89549067D02*
X140550057Y-89596686D01*
X140550057Y-89596686D02*
X140835771Y-89596686D01*
X140835771Y-89596686D02*
X140931009Y-89549067D01*
X140931009Y-89549067D02*
X140978628Y-89501448D01*
X140978628Y-89501448D02*
X141026247Y-89406210D01*
X141026247Y-89406210D02*
X141026247Y-89263353D01*
X141026247Y-89263353D02*
X140978628Y-89168115D01*
X140978628Y-89168115D02*
X140931009Y-89120496D01*
X140931009Y-89120496D02*
X140835771Y-89072877D01*
X140835771Y-89072877D02*
X140550057Y-89072877D01*
X140550057Y-89072877D02*
X140454819Y-89120496D01*
X140454819Y-89120496D02*
X140407200Y-89168115D01*
X140407200Y-89168115D02*
X140359580Y-89263353D01*
X140359580Y-89263353D02*
X140359580Y-89406210D01*
X141026247Y-88644305D02*
X140359580Y-88644305D01*
X140931009Y-88644305D02*
X140978628Y-88596686D01*
X140978628Y-88596686D02*
X141026247Y-88501448D01*
X141026247Y-88501448D02*
X141026247Y-88358591D01*
X141026247Y-88358591D02*
X140978628Y-88263353D01*
X140978628Y-88263353D02*
X140883390Y-88215734D01*
X140883390Y-88215734D02*
X140359580Y-88215734D01*
X141359580Y-86787162D02*
X141359580Y-86691924D01*
X141359580Y-86691924D02*
X141311961Y-86596686D01*
X141311961Y-86596686D02*
X141264342Y-86549067D01*
X141264342Y-86549067D02*
X141169104Y-86501448D01*
X141169104Y-86501448D02*
X140978628Y-86453829D01*
X140978628Y-86453829D02*
X140740533Y-86453829D01*
X140740533Y-86453829D02*
X140550057Y-86501448D01*
X140550057Y-86501448D02*
X140454819Y-86549067D01*
X140454819Y-86549067D02*
X140407200Y-86596686D01*
X140407200Y-86596686D02*
X140359580Y-86691924D01*
X140359580Y-86691924D02*
X140359580Y-86787162D01*
X140359580Y-86787162D02*
X140407200Y-86882400D01*
X140407200Y-86882400D02*
X140454819Y-86930019D01*
X140454819Y-86930019D02*
X140550057Y-86977638D01*
X140550057Y-86977638D02*
X140740533Y-87025257D01*
X140740533Y-87025257D02*
X140978628Y-87025257D01*
X140978628Y-87025257D02*
X141169104Y-86977638D01*
X141169104Y-86977638D02*
X141264342Y-86930019D01*
X141264342Y-86930019D02*
X141311961Y-86882400D01*
X141311961Y-86882400D02*
X141359580Y-86787162D01*
X141359580Y-85549067D02*
X141359580Y-86025257D01*
X141359580Y-86025257D02*
X140883390Y-86072876D01*
X140883390Y-86072876D02*
X140931009Y-86025257D01*
X140931009Y-86025257D02*
X140978628Y-85930019D01*
X140978628Y-85930019D02*
X140978628Y-85691924D01*
X140978628Y-85691924D02*
X140931009Y-85596686D01*
X140931009Y-85596686D02*
X140883390Y-85549067D01*
X140883390Y-85549067D02*
X140788152Y-85501448D01*
X140788152Y-85501448D02*
X140550057Y-85501448D01*
X140550057Y-85501448D02*
X140454819Y-85549067D01*
X140454819Y-85549067D02*
X140407200Y-85596686D01*
X140407200Y-85596686D02*
X140359580Y-85691924D01*
X140359580Y-85691924D02*
X140359580Y-85930019D01*
X140359580Y-85930019D02*
X140407200Y-86025257D01*
X140407200Y-86025257D02*
X140454819Y-86072876D01*
X141859580Y-93168115D02*
X142859580Y-93168115D01*
X142859580Y-93168115D02*
X142859580Y-92930020D01*
X142859580Y-92930020D02*
X142811961Y-92787163D01*
X142811961Y-92787163D02*
X142716723Y-92691925D01*
X142716723Y-92691925D02*
X142621485Y-92644306D01*
X142621485Y-92644306D02*
X142431009Y-92596687D01*
X142431009Y-92596687D02*
X142288152Y-92596687D01*
X142288152Y-92596687D02*
X142097676Y-92644306D01*
X142097676Y-92644306D02*
X142002438Y-92691925D01*
X142002438Y-92691925D02*
X141907200Y-92787163D01*
X141907200Y-92787163D02*
X141859580Y-92930020D01*
X141859580Y-92930020D02*
X141859580Y-93168115D01*
X141907200Y-91787163D02*
X141859580Y-91882401D01*
X141859580Y-91882401D02*
X141859580Y-92072877D01*
X141859580Y-92072877D02*
X141907200Y-92168115D01*
X141907200Y-92168115D02*
X142002438Y-92215734D01*
X142002438Y-92215734D02*
X142383390Y-92215734D01*
X142383390Y-92215734D02*
X142478628Y-92168115D01*
X142478628Y-92168115D02*
X142526247Y-92072877D01*
X142526247Y-92072877D02*
X142526247Y-91882401D01*
X142526247Y-91882401D02*
X142478628Y-91787163D01*
X142478628Y-91787163D02*
X142383390Y-91739544D01*
X142383390Y-91739544D02*
X142288152Y-91739544D01*
X142288152Y-91739544D02*
X142192914Y-92215734D01*
X142526247Y-91406210D02*
X141859580Y-91168115D01*
X141859580Y-91168115D02*
X142526247Y-90930020D01*
X142383390Y-89453829D02*
X142335771Y-89310972D01*
X142335771Y-89310972D02*
X142288152Y-89263353D01*
X142288152Y-89263353D02*
X142192914Y-89215734D01*
X142192914Y-89215734D02*
X142050057Y-89215734D01*
X142050057Y-89215734D02*
X141954819Y-89263353D01*
X141954819Y-89263353D02*
X141907200Y-89310972D01*
X141907200Y-89310972D02*
X141859580Y-89406210D01*
X141859580Y-89406210D02*
X141859580Y-89787162D01*
X141859580Y-89787162D02*
X142859580Y-89787162D01*
X142859580Y-89787162D02*
X142859580Y-89453829D01*
X142859580Y-89453829D02*
X142811961Y-89358591D01*
X142811961Y-89358591D02*
X142764342Y-89310972D01*
X142764342Y-89310972D02*
X142669104Y-89263353D01*
X142669104Y-89263353D02*
X142573866Y-89263353D01*
X142573866Y-89263353D02*
X142478628Y-89310972D01*
X142478628Y-89310972D02*
X142431009Y-89358591D01*
X142431009Y-89358591D02*
X142383390Y-89453829D01*
X142383390Y-89453829D02*
X142383390Y-89787162D01*
X141859580Y-88644305D02*
X141907200Y-88739543D01*
X141907200Y-88739543D02*
X141954819Y-88787162D01*
X141954819Y-88787162D02*
X142050057Y-88834781D01*
X142050057Y-88834781D02*
X142335771Y-88834781D01*
X142335771Y-88834781D02*
X142431009Y-88787162D01*
X142431009Y-88787162D02*
X142478628Y-88739543D01*
X142478628Y-88739543D02*
X142526247Y-88644305D01*
X142526247Y-88644305D02*
X142526247Y-88501448D01*
X142526247Y-88501448D02*
X142478628Y-88406210D01*
X142478628Y-88406210D02*
X142431009Y-88358591D01*
X142431009Y-88358591D02*
X142335771Y-88310972D01*
X142335771Y-88310972D02*
X142050057Y-88310972D01*
X142050057Y-88310972D02*
X141954819Y-88358591D01*
X141954819Y-88358591D02*
X141907200Y-88406210D01*
X141907200Y-88406210D02*
X141859580Y-88501448D01*
X141859580Y-88501448D02*
X141859580Y-88644305D01*
X141859580Y-87453829D02*
X142383390Y-87453829D01*
X142383390Y-87453829D02*
X142478628Y-87501448D01*
X142478628Y-87501448D02*
X142526247Y-87596686D01*
X142526247Y-87596686D02*
X142526247Y-87787162D01*
X142526247Y-87787162D02*
X142478628Y-87882400D01*
X141907200Y-87453829D02*
X141859580Y-87549067D01*
X141859580Y-87549067D02*
X141859580Y-87787162D01*
X141859580Y-87787162D02*
X141907200Y-87882400D01*
X141907200Y-87882400D02*
X142002438Y-87930019D01*
X142002438Y-87930019D02*
X142097676Y-87930019D01*
X142097676Y-87930019D02*
X142192914Y-87882400D01*
X142192914Y-87882400D02*
X142240533Y-87787162D01*
X142240533Y-87787162D02*
X142240533Y-87549067D01*
X142240533Y-87549067D02*
X142288152Y-87453829D01*
X141859580Y-86977638D02*
X142526247Y-86977638D01*
X142335771Y-86977638D02*
X142431009Y-86930019D01*
X142431009Y-86930019D02*
X142478628Y-86882400D01*
X142478628Y-86882400D02*
X142526247Y-86787162D01*
X142526247Y-86787162D02*
X142526247Y-86691924D01*
X141859580Y-85930019D02*
X142859580Y-85930019D01*
X141907200Y-85930019D02*
X141859580Y-86025257D01*
X141859580Y-86025257D02*
X141859580Y-86215733D01*
X141859580Y-86215733D02*
X141907200Y-86310971D01*
X141907200Y-86310971D02*
X141954819Y-86358590D01*
X141954819Y-86358590D02*
X142050057Y-86406209D01*
X142050057Y-86406209D02*
X142335771Y-86406209D01*
X142335771Y-86406209D02*
X142431009Y-86358590D01*
X142431009Y-86358590D02*
X142478628Y-86310971D01*
X142478628Y-86310971D02*
X142526247Y-86215733D01*
X142526247Y-86215733D02*
X142526247Y-86025257D01*
X142526247Y-86025257D02*
X142478628Y-85930019D01*
D12*
X141798561Y-105508588D02*
X141846180Y-105413350D01*
X141846180Y-105413350D02*
X141846180Y-105270493D01*
X141846180Y-105270493D02*
X141798561Y-105127636D01*
X141798561Y-105127636D02*
X141703323Y-105032398D01*
X141703323Y-105032398D02*
X141608085Y-104984779D01*
X141608085Y-104984779D02*
X141417609Y-104937160D01*
X141417609Y-104937160D02*
X141274752Y-104937160D01*
X141274752Y-104937160D02*
X141084276Y-104984779D01*
X141084276Y-104984779D02*
X140989038Y-105032398D01*
X140989038Y-105032398D02*
X140893800Y-105127636D01*
X140893800Y-105127636D02*
X140846180Y-105270493D01*
X140846180Y-105270493D02*
X140846180Y-105365731D01*
X140846180Y-105365731D02*
X140893800Y-105508588D01*
X140893800Y-105508588D02*
X140941419Y-105556207D01*
X140941419Y-105556207D02*
X141274752Y-105556207D01*
X141274752Y-105556207D02*
X141274752Y-105365731D01*
D13*
%TO.C,G\u002A\u002A\u002A*%
G36*
X148846815Y-95855800D02*
G01*
X148844276Y-95874424D01*
X148823361Y-95879254D01*
X148819151Y-95874097D01*
X148823361Y-95832347D01*
X148833943Y-95826843D01*
X148846815Y-95855800D01*
G37*
G36*
X149419268Y-95899135D02*
G01*
X149444876Y-95943750D01*
X149435629Y-95976102D01*
X149383311Y-95989823D01*
X149335913Y-95967331D01*
X149331328Y-95927088D01*
X149385812Y-95897196D01*
X149419268Y-95899135D01*
G37*
G36*
X149064581Y-95894949D02*
G01*
X149093075Y-95926160D01*
X149087122Y-95942344D01*
X149040305Y-95961340D01*
X149016029Y-95957371D01*
X148987535Y-95926160D01*
X148993489Y-95909976D01*
X149040305Y-95890980D01*
X149064581Y-95894949D01*
G37*
G36*
X149207024Y-95716102D02*
G01*
X149233795Y-95750260D01*
X149232773Y-95758669D01*
X149198615Y-95785440D01*
X149190206Y-95784418D01*
X149163435Y-95750260D01*
X149164458Y-95741851D01*
X149198615Y-95715080D01*
X149207024Y-95716102D01*
G37*
G36*
X150929458Y-95474949D02*
G01*
X150957618Y-95521590D01*
X150951489Y-95546199D01*
X150904848Y-95574360D01*
X150880238Y-95568230D01*
X150852078Y-95521590D01*
X150858207Y-95496980D01*
X150904848Y-95468820D01*
X150929458Y-95474949D01*
G37*
G36*
X151246078Y-95334229D02*
G01*
X151274239Y-95380869D01*
X151268109Y-95405479D01*
X151221469Y-95433639D01*
X151196859Y-95427510D01*
X151168698Y-95380869D01*
X151174828Y-95356260D01*
X151221469Y-95328099D01*
X151246078Y-95334229D01*
G37*
G36*
X151423368Y-95786462D02*
G01*
X151450139Y-95820620D01*
X151449117Y-95829029D01*
X151414959Y-95855800D01*
X151406550Y-95854778D01*
X151379779Y-95820620D01*
X151380801Y-95812211D01*
X151414959Y-95785440D01*
X151423368Y-95786462D01*
G37*
G36*
X151528908Y-94977321D02*
G01*
X151555679Y-95011479D01*
X151554657Y-95019888D01*
X151520499Y-95046659D01*
X151512090Y-95045637D01*
X151485319Y-95011479D01*
X151486341Y-95003070D01*
X151520499Y-94976299D01*
X151528908Y-94977321D01*
G37*
G36*
X151874491Y-95143875D02*
G01*
X151900782Y-95196174D01*
X151899068Y-95232449D01*
X151854710Y-95257739D01*
X151822358Y-95248493D01*
X151808637Y-95196174D01*
X151820023Y-95163793D01*
X151854710Y-95134609D01*
X151874491Y-95143875D01*
G37*
G36*
X154735763Y-95263585D02*
G01*
X154776016Y-95297737D01*
X154767834Y-95340782D01*
X154733231Y-95360897D01*
X154677759Y-95354761D01*
X154651524Y-95310509D01*
X154657389Y-95285945D01*
X154702218Y-95257739D01*
X154735763Y-95263585D01*
G37*
G36*
X155038505Y-95871314D02*
G01*
X155034199Y-95897525D01*
X155003325Y-95926160D01*
X154994978Y-95925213D01*
X154968144Y-95893056D01*
X154969486Y-95883186D01*
X155003325Y-95838210D01*
X155021450Y-95834901D01*
X155038505Y-95871314D01*
G37*
G36*
X155102658Y-95319737D02*
G01*
X155137347Y-95372074D01*
X155131424Y-95415834D01*
X155073685Y-95433639D01*
X155022259Y-95421941D01*
X155010022Y-95372074D01*
X155024011Y-95339755D01*
X155073685Y-95310509D01*
X155102658Y-95319737D01*
G37*
G36*
X155578428Y-95179569D02*
G01*
X155581938Y-95225564D01*
X155574016Y-95234782D01*
X155528021Y-95238292D01*
X155518803Y-95230370D01*
X155515292Y-95184374D01*
X155523215Y-95175157D01*
X155569210Y-95171646D01*
X155578428Y-95179569D01*
G37*
G36*
X155788497Y-95509523D02*
G01*
X155834694Y-95551003D01*
X155828908Y-95611397D01*
X155795652Y-95636370D01*
X155745689Y-95621289D01*
X155713141Y-95562649D01*
X155714743Y-95530849D01*
X155755040Y-95504000D01*
X155788497Y-95509523D01*
G37*
G36*
X151145376Y-95893105D02*
G01*
X151162274Y-95948241D01*
X151133040Y-95996816D01*
X151072287Y-96013072D01*
X151016080Y-95988596D01*
X151000270Y-95930933D01*
X151014245Y-95900637D01*
X151072464Y-95862399D01*
X151096063Y-95861844D01*
X151145376Y-95893105D01*
G37*
G36*
X154663231Y-95700100D02*
G01*
X154701659Y-95732138D01*
X154722067Y-95802956D01*
X154697215Y-95868743D01*
X154651098Y-95887367D01*
X154589044Y-95865672D01*
X154551884Y-95807684D01*
X154551861Y-95751856D01*
X154590899Y-95699498D01*
X154663231Y-95700100D01*
G37*
G36*
X151633075Y-95461784D02*
G01*
X151648812Y-95488261D01*
X151648407Y-95557005D01*
X151639686Y-95573469D01*
X151587842Y-95602320D01*
X151528226Y-95585992D01*
X151491918Y-95529874D01*
X151490634Y-95518288D01*
X151515469Y-95462986D01*
X151573199Y-95439207D01*
X151633075Y-95461784D01*
G37*
G36*
X155398713Y-95639056D02*
G01*
X155413765Y-95664810D01*
X155412724Y-95732773D01*
X155383206Y-95768789D01*
X155319926Y-95781622D01*
X155259159Y-95756020D01*
X155231995Y-95697972D01*
X155232690Y-95687386D01*
X155267752Y-95631408D01*
X155333454Y-95611637D01*
X155398713Y-95639056D01*
G37*
G36*
X152246149Y-95437340D02*
G01*
X152276509Y-95477141D01*
X152294033Y-95556106D01*
X152271007Y-95621266D01*
X152232551Y-95641049D01*
X152153955Y-95637280D01*
X152087081Y-95596409D01*
X152069629Y-95567568D01*
X152068375Y-95496679D01*
X152109817Y-95438904D01*
X152175295Y-95412905D01*
X152246149Y-95437340D01*
G37*
G36*
X155925893Y-95965561D02*
G01*
X155934727Y-95971203D01*
X155976626Y-96034583D01*
X155988945Y-96118205D01*
X155964913Y-96184147D01*
X155933350Y-96201849D01*
X155855286Y-96202220D01*
X155784322Y-96165385D01*
X155758246Y-96130530D01*
X155745188Y-96052859D01*
X155778079Y-95986344D01*
X155842965Y-95950679D01*
X155925893Y-95965561D01*
G37*
G36*
X156903047Y-95504000D02*
G01*
X156903047Y-95516424D01*
X156903047Y-99054546D01*
X156826966Y-99257891D01*
X156819558Y-99276898D01*
X156708455Y-99476809D01*
X156549392Y-99665081D01*
X156361493Y-99822351D01*
X156163882Y-99929258D01*
X156154312Y-99932916D01*
X156122147Y-99944551D01*
X156087768Y-99954833D01*
X156046914Y-99963847D01*
X155995328Y-99971680D01*
X155928749Y-99978417D01*
X155842919Y-99984146D01*
X155733579Y-99988952D01*
X155596469Y-99992921D01*
X155427331Y-99996139D01*
X155221906Y-99998694D01*
X154975934Y-100000670D01*
X154685156Y-100002154D01*
X154345313Y-100003233D01*
X153952147Y-100003992D01*
X153501398Y-100004518D01*
X152988807Y-100004896D01*
X152410115Y-100005214D01*
X148849454Y-100007047D01*
X148646109Y-99930965D01*
X148645328Y-99930673D01*
X148437805Y-99820625D01*
X148244046Y-99659276D01*
X148082855Y-99465431D01*
X147973035Y-99257891D01*
X147896953Y-99054546D01*
X147896953Y-95766450D01*
X148211048Y-95766450D01*
X148221106Y-97455793D01*
X148231164Y-99145135D01*
X148337509Y-99302641D01*
X148372351Y-99349453D01*
X148483675Y-99469293D01*
X148601359Y-99566491D01*
X148758865Y-99672836D01*
X152347230Y-99677164D01*
X152701855Y-99677518D01*
X153186510Y-99677757D01*
X153648668Y-99677704D01*
X154083541Y-99677374D01*
X154486344Y-99676780D01*
X154852291Y-99675937D01*
X155176595Y-99674859D01*
X155454470Y-99673559D01*
X155681129Y-99672051D01*
X155851788Y-99670350D01*
X155961659Y-99668470D01*
X156005956Y-99666425D01*
X156106027Y-99625879D01*
X156234658Y-99539392D01*
X156360719Y-99425774D01*
X156462922Y-99302001D01*
X156568837Y-99145135D01*
X156578539Y-97330780D01*
X156588241Y-95516424D01*
X156261918Y-95287848D01*
X156061638Y-95149353D01*
X155776614Y-94959050D01*
X155520329Y-94796314D01*
X155298134Y-94664284D01*
X155115382Y-94566093D01*
X154977424Y-94504879D01*
X154889613Y-94483778D01*
X154878608Y-94486434D01*
X154813356Y-94528408D01*
X154702373Y-94620379D01*
X154547133Y-94761026D01*
X154349110Y-94949027D01*
X154109779Y-95183061D01*
X154087164Y-95205405D01*
X153901635Y-95387275D01*
X153729795Y-95553287D01*
X153578852Y-95696657D01*
X153456012Y-95810602D01*
X153368484Y-95888337D01*
X153323477Y-95923080D01*
X153307926Y-95930760D01*
X153273375Y-95943095D01*
X153237232Y-95944406D01*
X153195076Y-95930454D01*
X153142483Y-95897003D01*
X153075031Y-95839814D01*
X152988299Y-95754651D01*
X152877864Y-95637275D01*
X152739303Y-95483448D01*
X152568196Y-95288935D01*
X152360118Y-95049496D01*
X152110649Y-94760894D01*
X152080404Y-94725914D01*
X151910755Y-94531457D01*
X151754845Y-94355609D01*
X151619055Y-94205358D01*
X151509762Y-94087694D01*
X151433347Y-94009605D01*
X151396187Y-93978082D01*
X151361856Y-93971288D01*
X151283388Y-93986836D01*
X151281888Y-93987844D01*
X151247210Y-94030409D01*
X151182845Y-94124985D01*
X151093925Y-94263449D01*
X150985582Y-94437676D01*
X150862949Y-94639543D01*
X150731160Y-94860925D01*
X150610010Y-95066536D01*
X150470253Y-95303507D01*
X150359334Y-95490271D01*
X150273092Y-95632780D01*
X150207367Y-95736983D01*
X150157996Y-95808830D01*
X150120820Y-95854271D01*
X150091678Y-95879256D01*
X150066408Y-95889736D01*
X150040850Y-95891661D01*
X150010843Y-95890980D01*
X149970332Y-95888996D01*
X149922278Y-95876826D01*
X149870613Y-95847066D01*
X149807071Y-95792405D01*
X149723390Y-95705533D01*
X149611305Y-95579137D01*
X149462552Y-95405907D01*
X149438251Y-95377554D01*
X149320067Y-95243326D01*
X149214769Y-95129374D01*
X149133037Y-95046986D01*
X149085555Y-95007454D01*
X149056352Y-94999289D01*
X149016876Y-95009396D01*
X148961060Y-95045154D01*
X148880766Y-95112799D01*
X148767857Y-95218568D01*
X148614193Y-95368698D01*
X148211048Y-95766450D01*
X147896953Y-95766450D01*
X147896953Y-95504000D01*
X147896953Y-95304851D01*
X148211602Y-95304851D01*
X148521912Y-95005712D01*
X148612005Y-94920404D01*
X148752787Y-94798327D01*
X148867167Y-94720920D01*
X148967617Y-94682324D01*
X149066610Y-94676681D01*
X149176617Y-94698130D01*
X149223374Y-94715982D01*
X149293088Y-94760803D01*
X149377954Y-94836866D01*
X149487004Y-94952509D01*
X149629271Y-95116075D01*
X149675232Y-95169917D01*
X149787478Y-95299727D01*
X149880172Y-95404542D01*
X149944732Y-95474746D01*
X149972577Y-95500725D01*
X149973942Y-95499878D01*
X150001287Y-95461327D01*
X150058549Y-95370941D01*
X150141081Y-95236359D01*
X150244234Y-95065222D01*
X150363362Y-94865171D01*
X150493816Y-94643846D01*
X150510526Y-94615402D01*
X150643435Y-94392283D01*
X150767884Y-94188598D01*
X150878560Y-94012663D01*
X150970148Y-93872797D01*
X151037333Y-93777316D01*
X151074802Y-93734538D01*
X151159290Y-93692822D01*
X151265838Y-93658892D01*
X151279130Y-93656043D01*
X151345899Y-93645584D01*
X151408494Y-93646774D01*
X151472438Y-93664280D01*
X151543252Y-93702768D01*
X151626459Y-93766904D01*
X151727581Y-93861355D01*
X151852138Y-93990788D01*
X152005655Y-94159869D01*
X152193651Y-94373265D01*
X152421650Y-94635642D01*
X152577296Y-94815019D01*
X152753233Y-95017000D01*
X152910261Y-95196422D01*
X153042969Y-95347141D01*
X153145945Y-95463018D01*
X153213777Y-95537908D01*
X153241055Y-95565671D01*
X153248540Y-95562139D01*
X153297764Y-95521158D01*
X153385671Y-95440114D01*
X153504865Y-95326041D01*
X153647948Y-95185975D01*
X153807522Y-95026951D01*
X153900457Y-94933927D01*
X154133522Y-94705024D01*
X154327105Y-94522986D01*
X154486551Y-94383566D01*
X154617204Y-94282519D01*
X154724409Y-94215599D01*
X154813509Y-94178560D01*
X154889851Y-94167157D01*
X154948085Y-94172774D01*
X155080013Y-94211054D01*
X155251729Y-94287119D01*
X155466786Y-94402797D01*
X155728738Y-94559919D01*
X156041136Y-94760317D01*
X156568837Y-95107094D01*
X156579232Y-93572929D01*
X156580670Y-93311314D01*
X156581296Y-92924850D01*
X156579785Y-92596445D01*
X156576175Y-92328555D01*
X156570504Y-92123633D01*
X156562811Y-91984135D01*
X156553136Y-91912516D01*
X156552825Y-91911446D01*
X156459500Y-91710210D01*
X156311002Y-91537181D01*
X156121482Y-91408868D01*
X155932854Y-91316581D01*
X152360679Y-91325872D01*
X148788504Y-91335163D01*
X148616304Y-91441633D01*
X148473623Y-91553972D01*
X148337634Y-91720272D01*
X148231164Y-91892440D01*
X148221383Y-93598646D01*
X148211602Y-95304851D01*
X147896953Y-95304851D01*
X147896953Y-91953453D01*
X147973035Y-91750108D01*
X147973327Y-91749327D01*
X148083375Y-91541804D01*
X148244724Y-91348045D01*
X148438569Y-91186854D01*
X148646109Y-91077034D01*
X148849454Y-91000953D01*
X152400000Y-91000953D01*
X155950547Y-91000953D01*
X156153892Y-91077034D01*
X156154673Y-91077326D01*
X156362196Y-91187374D01*
X156555955Y-91348723D01*
X156717146Y-91542568D01*
X156826966Y-91750108D01*
X156903047Y-91953453D01*
X156903047Y-92924850D01*
X156903047Y-95504000D01*
G37*
D14*
%TO.C,J1*%
X139114000Y-104320000D02*
X140364000Y-104320000D01*
X139114000Y-105570000D02*
X139114000Y-104320000D01*
X139214000Y-106080000D02*
X139414000Y-106080000D01*
X139214000Y-106380000D02*
X139214000Y-106080000D01*
X139314000Y-106380000D02*
X139314000Y-106080000D01*
X139414000Y-104620000D02*
X144134000Y-104620000D01*
X139414000Y-106380000D02*
X139214000Y-106380000D01*
X139414000Y-107180000D02*
X140024000Y-107180000D01*
X139414000Y-110740000D02*
X139414000Y-104620000D01*
X140024000Y-105230000D02*
X143524000Y-105230000D01*
X140024000Y-107180000D02*
X140024000Y-105230000D01*
X140024000Y-108180000D02*
X139414000Y-108180000D01*
X140024000Y-110130000D02*
X140024000Y-108180000D01*
X140724000Y-104620000D02*
X140724000Y-105230000D01*
X140724000Y-110740000D02*
X140724000Y-110130000D01*
X142024000Y-104620000D02*
X142024000Y-105230000D01*
X142024000Y-110740000D02*
X142024000Y-110130000D01*
X143024000Y-107580000D02*
X143024000Y-107780000D01*
X143024000Y-107780000D02*
X143524000Y-107780000D01*
X143524000Y-105230000D02*
X143524000Y-110130000D01*
X143524000Y-107580000D02*
X143024000Y-107580000D01*
X143524000Y-107680000D02*
X143024000Y-107680000D01*
X143524000Y-110130000D02*
X140024000Y-110130000D01*
X144134000Y-104620000D02*
X144134000Y-110740000D01*
X144134000Y-110740000D02*
X139414000Y-110740000D01*
%TD*%
M02*
