M48
; DRILL file {KiCad 9.0.5} date 2026-02-12T06:22:46-0600
; FORMAT={-:-/ absolute / metric / decimal}
; #@! TF.CreationDate,2026-02-12T06:22:46-06:00
; #@! TF.GenerationSoftware,Kicad,Pcbnew,9.0.5
; #@! TF.FileFunction,MixedPlating,1,2
FMAT,2
METRIC
; #@! TA.AperFunction,Plated,PTH,ViaDrill
T1C0.300
; #@! TA.AperFunction,Plated,PTH,ComponentDrill
T2C0.750
; #@! TA.AperFunction,Plated,PTH,ComponentDrill
T3C0.889
; #@! TA.AperFunction,Plated,PTH,ComponentDrill
T4C1.000
; #@! TA.AperFunction,NonPlated,NPTH,ComponentDrill
T5C3.200
%
G90
G05
T1
X138.126Y-105.337
X144.033Y-108.589
X154.053Y-93.127
X162.496Y-76.708
X163.187Y-92.351
X163.202Y-86.841
X164.484Y-80.749
X164.592Y-91.168
X164.821Y-92.168
X166.69Y-77.356
T2
X141.224Y-106.68
X141.224Y-108.68
T3
X144.78Y-73.152
X144.78Y-75.692
X144.78Y-78.232
X144.78Y-80.772
X144.78Y-83.312
X144.78Y-85.852
X144.78Y-88.392
X160.02Y-73.152
X160.02Y-75.692
X160.02Y-78.232
X160.02Y-80.772
X160.02Y-83.312
X160.02Y-85.852
X160.02Y-88.392
T4
X140.208Y-78.491
X140.208Y-81.031
X146.22Y-101.698
X148.76Y-101.698
X151.3Y-101.698
X153.84Y-101.698
X156.38Y-101.698
X158.92Y-101.698
T5
X142.272Y-97.536
X162.272Y-97.536
M30
