%TF.GenerationSoftware,KiCad,Pcbnew,9.0.5*%
%TF.CreationDate,2026-02-12T06:21:04-06:00*%
%TF.ProjectId,Brine,4272696e-652e-46b6-9963-61645f706362,Dev Board 01*%
%TF.SameCoordinates,Original*%
%TF.FileFunction,Soldermask,Top*%
%TF.FilePolarity,Negative*%
%FSLAX46Y46*%
G04 Gerber Fmt 4.6, Leading zero omitted, Abs format (unit mm)*
G04 Created by KiCad (PCBNEW 9.0.5) date 2026-02-12 06:21:04*
%MOMM*%
%LPD*%
G01*
G04 APERTURE LIST*
G04 Aperture macros list*
%AMRoundRect*
0 Rectangle with rounded corners*
0 $1 Rounding radius*
0 $2 $3 $4 $5 $6 $7 $8 $9 X,Y pos of 4 corners*
0 Add a 4 corners polygon primitive as box body*
4,1,4,$2,$3,$4,$5,$6,$7,$8,$9,$2,$3,0*
0 Add four circle primitives for the rounded corners*
1,1,$1+$1,$2,$3*
1,1,$1+$1,$4,$5*
1,1,$1+$1,$6,$7*
1,1,$1+$1,$8,$9*
0 Add four rect primitives between the rounded corners*
20,1,$1+$1,$2,$3,$4,$5,0*
20,1,$1+$1,$4,$5,$6,$7,0*
20,1,$1+$1,$6,$7,$8,$9,0*
20,1,$1+$1,$8,$9,$2,$3,0*%
G04 Aperture macros list end*
%ADD10RoundRect,0.250000X0.450000X-0.262500X0.450000X0.262500X-0.450000X0.262500X-0.450000X-0.262500X0*%
%ADD11C,3.200000*%
%ADD12R,1.700000X1.700000*%
%ADD13O,1.700000X1.700000*%
%ADD14C,1.700000*%
%ADD15RoundRect,0.250000X0.475000X-0.250000X0.475000X0.250000X-0.475000X0.250000X-0.475000X-0.250000X0*%
%ADD16RoundRect,0.152400X1.063600X0.609600X-1.063600X0.609600X-1.063600X-0.609600X1.063600X-0.609600X0*%
%ADD17C,1.524000*%
%ADD18RoundRect,0.152400X-1.063600X-0.609600X1.063600X-0.609600X1.063600X0.609600X-1.063600X0.609600X0*%
%ADD19RoundRect,0.090000X-0.660000X-0.360000X0.660000X-0.360000X0.660000X0.360000X-0.660000X0.360000X0*%
%ADD20RoundRect,0.102000X-0.850000X-0.500000X0.850000X-0.500000X0.850000X0.500000X-0.850000X0.500000X0*%
%ADD21RoundRect,0.250000X-0.625000X0.350000X-0.625000X-0.350000X0.625000X-0.350000X0.625000X0.350000X0*%
%ADD22O,1.750000X1.200000*%
G04 APERTURE END LIST*
D10*
%TO.C,R2*%
X140208000Y-74064500D03*
X140208000Y-72239500D03*
%TD*%
D11*
%TO.C,H1*%
X162272000Y-97536000D03*
%TD*%
D10*
%TO.C,SDA1*%
X164592000Y-79549000D03*
X164592000Y-77724000D03*
%TD*%
D12*
%TO.C,J2*%
X146220000Y-101698000D03*
D13*
X148760000Y-101698000D03*
X151300000Y-101698000D03*
X153840000Y-101698000D03*
X156380000Y-101698000D03*
X158920000Y-101698000D03*
%TD*%
D12*
%TO.C,BATT1*%
X140208000Y-81031000D03*
D14*
X140208000Y-78491000D03*
%TD*%
D10*
%TO.C,SCL1*%
X164592000Y-74977000D03*
X164592000Y-73152000D03*
%TD*%
D15*
%TO.C,C1*%
X164592000Y-89784000D03*
X164592000Y-87884000D03*
%TD*%
D16*
%TO.C,U1*%
X143945000Y-73152000D03*
D17*
X144780000Y-73152000D03*
D16*
X143945000Y-75692000D03*
D17*
X144780000Y-75692000D03*
D16*
X143945000Y-78232000D03*
D17*
X144780000Y-78232000D03*
D16*
X143945000Y-80772000D03*
D17*
X144780000Y-80772000D03*
D16*
X143945000Y-83312000D03*
D17*
X144780000Y-83312000D03*
D16*
X143945000Y-85852000D03*
D17*
X144780000Y-85852000D03*
D16*
X143945000Y-88392000D03*
D17*
X144780000Y-88392000D03*
X160020000Y-88392000D03*
D18*
X160855000Y-88392000D03*
D17*
X160020000Y-85852000D03*
D18*
X160855000Y-85852000D03*
D17*
X160020000Y-83312000D03*
D18*
X160855000Y-83312000D03*
D17*
X160020000Y-80772000D03*
D18*
X160855000Y-80772000D03*
D17*
X160020000Y-78232000D03*
D18*
X160855000Y-78232000D03*
D17*
X160020000Y-75692000D03*
D18*
X160855000Y-75692000D03*
D17*
X160020000Y-73152000D03*
D18*
X160855000Y-73152000D03*
%TD*%
D19*
%TO.C,D1*%
X160110000Y-106046000D03*
X160110000Y-109346000D03*
X165010000Y-109346000D03*
X165010000Y-106046000D03*
%TD*%
D11*
%TO.C,H2*%
X142272000Y-97536000D03*
%TD*%
D10*
%TO.C,R1*%
X140208000Y-86868000D03*
X140208000Y-85043000D03*
%TD*%
%TO.C,R4*%
X164592000Y-84629000D03*
X164592000Y-82804000D03*
%TD*%
D20*
%TO.C,S1*%
X149758000Y-109596000D03*
X156058000Y-109596000D03*
X149758000Y-105796000D03*
X156058000Y-105796000D03*
%TD*%
D21*
%TO.C,J1*%
X141224000Y-106680000D03*
D22*
X141224000Y-108680000D03*
%TD*%
M02*
