%TF.GenerationSoftware,KiCad,Pcbnew,9.0.5*%
%TF.CreationDate,2026-02-12T06:21:04-06:00*%
%TF.ProjectId,Brine,4272696e-652e-46b6-9963-61645f706362,Dev Board 01*%
%TF.SameCoordinates,Original*%
%TF.FileFunction,Legend,Top*%
%TF.FilePolarity,Positive*%
%FSLAX46Y46*%
G04 Gerber Fmt 4.6, Leading zero omitted, Abs format (unit mm)*
G04 Created by KiCad (PCBNEW 9.0.5) date 2026-02-12 06:21:04*
%MOMM*%
%LPD*%
G01*
G04 APERTURE LIST*
%ADD10C,0.100000*%
%ADD11C,0.150000*%
%ADD12C,0.101600*%
%ADD13C,0.120000*%
%ADD14C,0.127000*%
%ADD15C,0.504000*%
G04 APERTURE END LIST*
D10*
X144272000Y-102886000D02*
X160272000Y-102886000D01*
X144272000Y-92186000D02*
X144272000Y-102886000D01*
X160272000Y-92186000D02*
X160272000Y-102886000D01*
X144272000Y-92186000D02*
X160272000Y-92186000D01*
D11*
X140649438Y-105508588D02*
X140601819Y-105413350D01*
X140601819Y-105413350D02*
X140601819Y-105270493D01*
X140601819Y-105270493D02*
X140649438Y-105127636D01*
X140649438Y-105127636D02*
X140744676Y-105032398D01*
X140744676Y-105032398D02*
X140839914Y-104984779D01*
X140839914Y-104984779D02*
X141030390Y-104937160D01*
X141030390Y-104937160D02*
X141173247Y-104937160D01*
X141173247Y-104937160D02*
X141363723Y-104984779D01*
X141363723Y-104984779D02*
X141458961Y-105032398D01*
X141458961Y-105032398D02*
X141554200Y-105127636D01*
X141554200Y-105127636D02*
X141601819Y-105270493D01*
X141601819Y-105270493D02*
X141601819Y-105365731D01*
X141601819Y-105365731D02*
X141554200Y-105508588D01*
X141554200Y-105508588D02*
X141506580Y-105556207D01*
X141506580Y-105556207D02*
X141173247Y-105556207D01*
X141173247Y-105556207D02*
X141173247Y-105365731D01*
X139633438Y-75598411D02*
X139585819Y-75693649D01*
X139585819Y-75693649D02*
X139585819Y-75836506D01*
X139585819Y-75836506D02*
X139633438Y-75979363D01*
X139633438Y-75979363D02*
X139728676Y-76074601D01*
X139728676Y-76074601D02*
X139823914Y-76122220D01*
X139823914Y-76122220D02*
X140014390Y-76169839D01*
X140014390Y-76169839D02*
X140157247Y-76169839D01*
X140157247Y-76169839D02*
X140347723Y-76122220D01*
X140347723Y-76122220D02*
X140442961Y-76074601D01*
X140442961Y-76074601D02*
X140538200Y-75979363D01*
X140538200Y-75979363D02*
X140585819Y-75836506D01*
X140585819Y-75836506D02*
X140585819Y-75741268D01*
X140585819Y-75741268D02*
X140538200Y-75598411D01*
X140538200Y-75598411D02*
X140490580Y-75550792D01*
X140490580Y-75550792D02*
X140157247Y-75550792D01*
X140157247Y-75550792D02*
X140157247Y-75741268D01*
X139633438Y-76303588D02*
X139585819Y-76208350D01*
X139585819Y-76208350D02*
X139585819Y-76065493D01*
X139585819Y-76065493D02*
X139633438Y-75922636D01*
X139633438Y-75922636D02*
X139728676Y-75827398D01*
X139728676Y-75827398D02*
X139823914Y-75779779D01*
X139823914Y-75779779D02*
X140014390Y-75732160D01*
X140014390Y-75732160D02*
X140157247Y-75732160D01*
X140157247Y-75732160D02*
X140347723Y-75779779D01*
X140347723Y-75779779D02*
X140442961Y-75827398D01*
X140442961Y-75827398D02*
X140538200Y-75922636D01*
X140538200Y-75922636D02*
X140585819Y-76065493D01*
X140585819Y-76065493D02*
X140585819Y-76160731D01*
X140585819Y-76160731D02*
X140538200Y-76303588D01*
X140538200Y-76303588D02*
X140490580Y-76351207D01*
X140490580Y-76351207D02*
X140157247Y-76351207D01*
X140157247Y-76351207D02*
X140157247Y-76160731D01*
X139012819Y-73318666D02*
X138536628Y-73651999D01*
X139012819Y-73890094D02*
X138012819Y-73890094D01*
X138012819Y-73890094D02*
X138012819Y-73509142D01*
X138012819Y-73509142D02*
X138060438Y-73413904D01*
X138060438Y-73413904D02*
X138108057Y-73366285D01*
X138108057Y-73366285D02*
X138203295Y-73318666D01*
X138203295Y-73318666D02*
X138346152Y-73318666D01*
X138346152Y-73318666D02*
X138441390Y-73366285D01*
X138441390Y-73366285D02*
X138489009Y-73413904D01*
X138489009Y-73413904D02*
X138536628Y-73509142D01*
X138536628Y-73509142D02*
X138536628Y-73890094D01*
X138108057Y-72937713D02*
X138060438Y-72890094D01*
X138060438Y-72890094D02*
X138012819Y-72794856D01*
X138012819Y-72794856D02*
X138012819Y-72556761D01*
X138012819Y-72556761D02*
X138060438Y-72461523D01*
X138060438Y-72461523D02*
X138108057Y-72413904D01*
X138108057Y-72413904D02*
X138203295Y-72366285D01*
X138203295Y-72366285D02*
X138298533Y-72366285D01*
X138298533Y-72366285D02*
X138441390Y-72413904D01*
X138441390Y-72413904D02*
X139012819Y-72985332D01*
X139012819Y-72985332D02*
X139012819Y-72366285D01*
X142312819Y-74223428D02*
X142312819Y-74794856D01*
X142312819Y-74509142D02*
X141312819Y-74509142D01*
X141312819Y-74509142D02*
X141455676Y-74604380D01*
X141455676Y-74604380D02*
X141550914Y-74699618D01*
X141550914Y-74699618D02*
X141598533Y-74794856D01*
X141312819Y-73604380D02*
X141312819Y-73509142D01*
X141312819Y-73509142D02*
X141360438Y-73413904D01*
X141360438Y-73413904D02*
X141408057Y-73366285D01*
X141408057Y-73366285D02*
X141503295Y-73318666D01*
X141503295Y-73318666D02*
X141693771Y-73271047D01*
X141693771Y-73271047D02*
X141931866Y-73271047D01*
X141931866Y-73271047D02*
X142122342Y-73318666D01*
X142122342Y-73318666D02*
X142217580Y-73366285D01*
X142217580Y-73366285D02*
X142265200Y-73413904D01*
X142265200Y-73413904D02*
X142312819Y-73509142D01*
X142312819Y-73509142D02*
X142312819Y-73604380D01*
X142312819Y-73604380D02*
X142265200Y-73699618D01*
X142265200Y-73699618D02*
X142217580Y-73747237D01*
X142217580Y-73747237D02*
X142122342Y-73794856D01*
X142122342Y-73794856D02*
X141931866Y-73842475D01*
X141931866Y-73842475D02*
X141693771Y-73842475D01*
X141693771Y-73842475D02*
X141503295Y-73794856D01*
X141503295Y-73794856D02*
X141408057Y-73747237D01*
X141408057Y-73747237D02*
X141360438Y-73699618D01*
X141360438Y-73699618D02*
X141312819Y-73604380D01*
X141312819Y-72651999D02*
X141312819Y-72556761D01*
X141312819Y-72556761D02*
X141360438Y-72461523D01*
X141360438Y-72461523D02*
X141408057Y-72413904D01*
X141408057Y-72413904D02*
X141503295Y-72366285D01*
X141503295Y-72366285D02*
X141693771Y-72318666D01*
X141693771Y-72318666D02*
X141931866Y-72318666D01*
X141931866Y-72318666D02*
X142122342Y-72366285D01*
X142122342Y-72366285D02*
X142217580Y-72413904D01*
X142217580Y-72413904D02*
X142265200Y-72461523D01*
X142265200Y-72461523D02*
X142312819Y-72556761D01*
X142312819Y-72556761D02*
X142312819Y-72651999D01*
X142312819Y-72651999D02*
X142265200Y-72747237D01*
X142265200Y-72747237D02*
X142217580Y-72794856D01*
X142217580Y-72794856D02*
X142122342Y-72842475D01*
X142122342Y-72842475D02*
X141931866Y-72890094D01*
X141931866Y-72890094D02*
X141693771Y-72890094D01*
X141693771Y-72890094D02*
X141503295Y-72842475D01*
X141503295Y-72842475D02*
X141408057Y-72794856D01*
X141408057Y-72794856D02*
X141360438Y-72747237D01*
X141360438Y-72747237D02*
X141312819Y-72651999D01*
X142312819Y-71890094D02*
X141312819Y-71890094D01*
X141931866Y-71794856D02*
X142312819Y-71509142D01*
X141646152Y-71509142D02*
X142027104Y-71890094D01*
X163349200Y-80326975D02*
X163396819Y-80184118D01*
X163396819Y-80184118D02*
X163396819Y-79946023D01*
X163396819Y-79946023D02*
X163349200Y-79850785D01*
X163349200Y-79850785D02*
X163301580Y-79803166D01*
X163301580Y-79803166D02*
X163206342Y-79755547D01*
X163206342Y-79755547D02*
X163111104Y-79755547D01*
X163111104Y-79755547D02*
X163015866Y-79803166D01*
X163015866Y-79803166D02*
X162968247Y-79850785D01*
X162968247Y-79850785D02*
X162920628Y-79946023D01*
X162920628Y-79946023D02*
X162873009Y-80136499D01*
X162873009Y-80136499D02*
X162825390Y-80231737D01*
X162825390Y-80231737D02*
X162777771Y-80279356D01*
X162777771Y-80279356D02*
X162682533Y-80326975D01*
X162682533Y-80326975D02*
X162587295Y-80326975D01*
X162587295Y-80326975D02*
X162492057Y-80279356D01*
X162492057Y-80279356D02*
X162444438Y-80231737D01*
X162444438Y-80231737D02*
X162396819Y-80136499D01*
X162396819Y-80136499D02*
X162396819Y-79898404D01*
X162396819Y-79898404D02*
X162444438Y-79755547D01*
X163396819Y-79326975D02*
X162396819Y-79326975D01*
X162396819Y-79326975D02*
X162396819Y-79088880D01*
X162396819Y-79088880D02*
X162444438Y-78946023D01*
X162444438Y-78946023D02*
X162539676Y-78850785D01*
X162539676Y-78850785D02*
X162634914Y-78803166D01*
X162634914Y-78803166D02*
X162825390Y-78755547D01*
X162825390Y-78755547D02*
X162968247Y-78755547D01*
X162968247Y-78755547D02*
X163158723Y-78803166D01*
X163158723Y-78803166D02*
X163253961Y-78850785D01*
X163253961Y-78850785D02*
X163349200Y-78946023D01*
X163349200Y-78946023D02*
X163396819Y-79088880D01*
X163396819Y-79088880D02*
X163396819Y-79326975D01*
X163111104Y-78374594D02*
X163111104Y-77898404D01*
X163396819Y-78469832D02*
X162396819Y-78136499D01*
X162396819Y-78136499D02*
X163396819Y-77803166D01*
X163396819Y-76946023D02*
X163396819Y-77517451D01*
X163396819Y-77231737D02*
X162396819Y-77231737D01*
X162396819Y-77231737D02*
X162539676Y-77326975D01*
X162539676Y-77326975D02*
X162634914Y-77422213D01*
X162634914Y-77422213D02*
X162682533Y-77517451D01*
X165792057Y-80041261D02*
X165744438Y-79993642D01*
X165744438Y-79993642D02*
X165696819Y-79898404D01*
X165696819Y-79898404D02*
X165696819Y-79660309D01*
X165696819Y-79660309D02*
X165744438Y-79565071D01*
X165744438Y-79565071D02*
X165792057Y-79517452D01*
X165792057Y-79517452D02*
X165887295Y-79469833D01*
X165887295Y-79469833D02*
X165982533Y-79469833D01*
X165982533Y-79469833D02*
X166125390Y-79517452D01*
X166125390Y-79517452D02*
X166696819Y-80088880D01*
X166696819Y-80088880D02*
X166696819Y-79469833D01*
X166601580Y-79041261D02*
X166649200Y-78993642D01*
X166649200Y-78993642D02*
X166696819Y-79041261D01*
X166696819Y-79041261D02*
X166649200Y-79088880D01*
X166649200Y-79088880D02*
X166601580Y-79041261D01*
X166601580Y-79041261D02*
X166696819Y-79041261D01*
X165792057Y-78612690D02*
X165744438Y-78565071D01*
X165744438Y-78565071D02*
X165696819Y-78469833D01*
X165696819Y-78469833D02*
X165696819Y-78231738D01*
X165696819Y-78231738D02*
X165744438Y-78136500D01*
X165744438Y-78136500D02*
X165792057Y-78088881D01*
X165792057Y-78088881D02*
X165887295Y-78041262D01*
X165887295Y-78041262D02*
X165982533Y-78041262D01*
X165982533Y-78041262D02*
X166125390Y-78088881D01*
X166125390Y-78088881D02*
X166696819Y-78660309D01*
X166696819Y-78660309D02*
X166696819Y-78041262D01*
X166696819Y-77612690D02*
X165696819Y-77612690D01*
X166315866Y-77517452D02*
X166696819Y-77231738D01*
X166030152Y-77231738D02*
X166411104Y-77612690D01*
X163349200Y-75731166D02*
X163396819Y-75588309D01*
X163396819Y-75588309D02*
X163396819Y-75350214D01*
X163396819Y-75350214D02*
X163349200Y-75254976D01*
X163349200Y-75254976D02*
X163301580Y-75207357D01*
X163301580Y-75207357D02*
X163206342Y-75159738D01*
X163206342Y-75159738D02*
X163111104Y-75159738D01*
X163111104Y-75159738D02*
X163015866Y-75207357D01*
X163015866Y-75207357D02*
X162968247Y-75254976D01*
X162968247Y-75254976D02*
X162920628Y-75350214D01*
X162920628Y-75350214D02*
X162873009Y-75540690D01*
X162873009Y-75540690D02*
X162825390Y-75635928D01*
X162825390Y-75635928D02*
X162777771Y-75683547D01*
X162777771Y-75683547D02*
X162682533Y-75731166D01*
X162682533Y-75731166D02*
X162587295Y-75731166D01*
X162587295Y-75731166D02*
X162492057Y-75683547D01*
X162492057Y-75683547D02*
X162444438Y-75635928D01*
X162444438Y-75635928D02*
X162396819Y-75540690D01*
X162396819Y-75540690D02*
X162396819Y-75302595D01*
X162396819Y-75302595D02*
X162444438Y-75159738D01*
X163301580Y-74159738D02*
X163349200Y-74207357D01*
X163349200Y-74207357D02*
X163396819Y-74350214D01*
X163396819Y-74350214D02*
X163396819Y-74445452D01*
X163396819Y-74445452D02*
X163349200Y-74588309D01*
X163349200Y-74588309D02*
X163253961Y-74683547D01*
X163253961Y-74683547D02*
X163158723Y-74731166D01*
X163158723Y-74731166D02*
X162968247Y-74778785D01*
X162968247Y-74778785D02*
X162825390Y-74778785D01*
X162825390Y-74778785D02*
X162634914Y-74731166D01*
X162634914Y-74731166D02*
X162539676Y-74683547D01*
X162539676Y-74683547D02*
X162444438Y-74588309D01*
X162444438Y-74588309D02*
X162396819Y-74445452D01*
X162396819Y-74445452D02*
X162396819Y-74350214D01*
X162396819Y-74350214D02*
X162444438Y-74207357D01*
X162444438Y-74207357D02*
X162492057Y-74159738D01*
X163396819Y-73254976D02*
X163396819Y-73731166D01*
X163396819Y-73731166D02*
X162396819Y-73731166D01*
X163396819Y-72397833D02*
X163396819Y-72969261D01*
X163396819Y-72683547D02*
X162396819Y-72683547D01*
X162396819Y-72683547D02*
X162539676Y-72778785D01*
X162539676Y-72778785D02*
X162634914Y-72874023D01*
X162634914Y-72874023D02*
X162682533Y-72969261D01*
X165792057Y-75469261D02*
X165744438Y-75421642D01*
X165744438Y-75421642D02*
X165696819Y-75326404D01*
X165696819Y-75326404D02*
X165696819Y-75088309D01*
X165696819Y-75088309D02*
X165744438Y-74993071D01*
X165744438Y-74993071D02*
X165792057Y-74945452D01*
X165792057Y-74945452D02*
X165887295Y-74897833D01*
X165887295Y-74897833D02*
X165982533Y-74897833D01*
X165982533Y-74897833D02*
X166125390Y-74945452D01*
X166125390Y-74945452D02*
X166696819Y-75516880D01*
X166696819Y-75516880D02*
X166696819Y-74897833D01*
X166601580Y-74469261D02*
X166649200Y-74421642D01*
X166649200Y-74421642D02*
X166696819Y-74469261D01*
X166696819Y-74469261D02*
X166649200Y-74516880D01*
X166649200Y-74516880D02*
X166601580Y-74469261D01*
X166601580Y-74469261D02*
X166696819Y-74469261D01*
X165792057Y-74040690D02*
X165744438Y-73993071D01*
X165744438Y-73993071D02*
X165696819Y-73897833D01*
X165696819Y-73897833D02*
X165696819Y-73659738D01*
X165696819Y-73659738D02*
X165744438Y-73564500D01*
X165744438Y-73564500D02*
X165792057Y-73516881D01*
X165792057Y-73516881D02*
X165887295Y-73469262D01*
X165887295Y-73469262D02*
X165982533Y-73469262D01*
X165982533Y-73469262D02*
X166125390Y-73516881D01*
X166125390Y-73516881D02*
X166696819Y-74088309D01*
X166696819Y-74088309D02*
X166696819Y-73469262D01*
X166696819Y-73040690D02*
X165696819Y-73040690D01*
X166315866Y-72945452D02*
X166696819Y-72659738D01*
X166030152Y-72659738D02*
X166411104Y-73040690D01*
X163271580Y-89000666D02*
X163319200Y-89048285D01*
X163319200Y-89048285D02*
X163366819Y-89191142D01*
X163366819Y-89191142D02*
X163366819Y-89286380D01*
X163366819Y-89286380D02*
X163319200Y-89429237D01*
X163319200Y-89429237D02*
X163223961Y-89524475D01*
X163223961Y-89524475D02*
X163128723Y-89572094D01*
X163128723Y-89572094D02*
X162938247Y-89619713D01*
X162938247Y-89619713D02*
X162795390Y-89619713D01*
X162795390Y-89619713D02*
X162604914Y-89572094D01*
X162604914Y-89572094D02*
X162509676Y-89524475D01*
X162509676Y-89524475D02*
X162414438Y-89429237D01*
X162414438Y-89429237D02*
X162366819Y-89286380D01*
X162366819Y-89286380D02*
X162366819Y-89191142D01*
X162366819Y-89191142D02*
X162414438Y-89048285D01*
X162414438Y-89048285D02*
X162462057Y-89000666D01*
X163366819Y-88048285D02*
X163366819Y-88619713D01*
X163366819Y-88333999D02*
X162366819Y-88333999D01*
X162366819Y-88333999D02*
X162509676Y-88429237D01*
X162509676Y-88429237D02*
X162604914Y-88524475D01*
X162604914Y-88524475D02*
X162652533Y-88619713D01*
X166726819Y-90381619D02*
X166726819Y-90953047D01*
X166726819Y-90667333D02*
X165726819Y-90667333D01*
X165726819Y-90667333D02*
X165869676Y-90762571D01*
X165869676Y-90762571D02*
X165964914Y-90857809D01*
X165964914Y-90857809D02*
X166012533Y-90953047D01*
X165726819Y-89762571D02*
X165726819Y-89667333D01*
X165726819Y-89667333D02*
X165774438Y-89572095D01*
X165774438Y-89572095D02*
X165822057Y-89524476D01*
X165822057Y-89524476D02*
X165917295Y-89476857D01*
X165917295Y-89476857D02*
X166107771Y-89429238D01*
X166107771Y-89429238D02*
X166345866Y-89429238D01*
X166345866Y-89429238D02*
X166536342Y-89476857D01*
X166536342Y-89476857D02*
X166631580Y-89524476D01*
X166631580Y-89524476D02*
X166679200Y-89572095D01*
X166679200Y-89572095D02*
X166726819Y-89667333D01*
X166726819Y-89667333D02*
X166726819Y-89762571D01*
X166726819Y-89762571D02*
X166679200Y-89857809D01*
X166679200Y-89857809D02*
X166631580Y-89905428D01*
X166631580Y-89905428D02*
X166536342Y-89953047D01*
X166536342Y-89953047D02*
X166345866Y-90000666D01*
X166345866Y-90000666D02*
X166107771Y-90000666D01*
X166107771Y-90000666D02*
X165917295Y-89953047D01*
X165917295Y-89953047D02*
X165822057Y-89905428D01*
X165822057Y-89905428D02*
X165774438Y-89857809D01*
X165774438Y-89857809D02*
X165726819Y-89762571D01*
X165726819Y-88810190D02*
X165726819Y-88714952D01*
X165726819Y-88714952D02*
X165774438Y-88619714D01*
X165774438Y-88619714D02*
X165822057Y-88572095D01*
X165822057Y-88572095D02*
X165917295Y-88524476D01*
X165917295Y-88524476D02*
X166107771Y-88476857D01*
X166107771Y-88476857D02*
X166345866Y-88476857D01*
X166345866Y-88476857D02*
X166536342Y-88524476D01*
X166536342Y-88524476D02*
X166631580Y-88572095D01*
X166631580Y-88572095D02*
X166679200Y-88619714D01*
X166679200Y-88619714D02*
X166726819Y-88714952D01*
X166726819Y-88714952D02*
X166726819Y-88810190D01*
X166726819Y-88810190D02*
X166679200Y-88905428D01*
X166679200Y-88905428D02*
X166631580Y-88953047D01*
X166631580Y-88953047D02*
X166536342Y-89000666D01*
X166536342Y-89000666D02*
X166345866Y-89048285D01*
X166345866Y-89048285D02*
X166107771Y-89048285D01*
X166107771Y-89048285D02*
X165917295Y-89000666D01*
X165917295Y-89000666D02*
X165822057Y-88953047D01*
X165822057Y-88953047D02*
X165774438Y-88905428D01*
X165774438Y-88905428D02*
X165726819Y-88810190D01*
X166060152Y-87619714D02*
X166726819Y-87619714D01*
X166060152Y-88048285D02*
X166583961Y-88048285D01*
X166583961Y-88048285D02*
X166679200Y-88000666D01*
X166679200Y-88000666D02*
X166726819Y-87905428D01*
X166726819Y-87905428D02*
X166726819Y-87762571D01*
X166726819Y-87762571D02*
X166679200Y-87667333D01*
X166679200Y-87667333D02*
X166631580Y-87619714D01*
X166203009Y-86810190D02*
X166203009Y-87143523D01*
X166726819Y-87143523D02*
X165726819Y-87143523D01*
X165726819Y-87143523D02*
X165726819Y-86667333D01*
D12*
X144804190Y-90077479D02*
X144804190Y-90591526D01*
X144804190Y-90591526D02*
X144834428Y-90652002D01*
X144834428Y-90652002D02*
X144864666Y-90682241D01*
X144864666Y-90682241D02*
X144925142Y-90712479D01*
X144925142Y-90712479D02*
X145046095Y-90712479D01*
X145046095Y-90712479D02*
X145106571Y-90682241D01*
X145106571Y-90682241D02*
X145136809Y-90652002D01*
X145136809Y-90652002D02*
X145167047Y-90591526D01*
X145167047Y-90591526D02*
X145167047Y-90077479D01*
X145802047Y-90712479D02*
X145439190Y-90712479D01*
X145620618Y-90712479D02*
X145620618Y-90077479D01*
X145620618Y-90077479D02*
X145560142Y-90168193D01*
X145560142Y-90168193D02*
X145499666Y-90228669D01*
X145499666Y-90228669D02*
X145439190Y-90258907D01*
D11*
X161821905Y-104650819D02*
X161821905Y-103650819D01*
X161821905Y-103650819D02*
X162060000Y-103650819D01*
X162060000Y-103650819D02*
X162202857Y-103698438D01*
X162202857Y-103698438D02*
X162298095Y-103793676D01*
X162298095Y-103793676D02*
X162345714Y-103888914D01*
X162345714Y-103888914D02*
X162393333Y-104079390D01*
X162393333Y-104079390D02*
X162393333Y-104222247D01*
X162393333Y-104222247D02*
X162345714Y-104412723D01*
X162345714Y-104412723D02*
X162298095Y-104507961D01*
X162298095Y-104507961D02*
X162202857Y-104603200D01*
X162202857Y-104603200D02*
X162060000Y-104650819D01*
X162060000Y-104650819D02*
X161821905Y-104650819D01*
X163345714Y-104650819D02*
X162774286Y-104650819D01*
X163060000Y-104650819D02*
X163060000Y-103650819D01*
X163060000Y-103650819D02*
X162964762Y-103793676D01*
X162964762Y-103793676D02*
X162869524Y-103888914D01*
X162869524Y-103888914D02*
X162774286Y-103936533D01*
X139012819Y-86122166D02*
X138536628Y-86455499D01*
X139012819Y-86693594D02*
X138012819Y-86693594D01*
X138012819Y-86693594D02*
X138012819Y-86312642D01*
X138012819Y-86312642D02*
X138060438Y-86217404D01*
X138060438Y-86217404D02*
X138108057Y-86169785D01*
X138108057Y-86169785D02*
X138203295Y-86122166D01*
X138203295Y-86122166D02*
X138346152Y-86122166D01*
X138346152Y-86122166D02*
X138441390Y-86169785D01*
X138441390Y-86169785D02*
X138489009Y-86217404D01*
X138489009Y-86217404D02*
X138536628Y-86312642D01*
X138536628Y-86312642D02*
X138536628Y-86693594D01*
X139012819Y-85169785D02*
X139012819Y-85741213D01*
X139012819Y-85455499D02*
X138012819Y-85455499D01*
X138012819Y-85455499D02*
X138155676Y-85550737D01*
X138155676Y-85550737D02*
X138250914Y-85645975D01*
X138250914Y-85645975D02*
X138298533Y-85741213D01*
X141408057Y-87598356D02*
X141360438Y-87550737D01*
X141360438Y-87550737D02*
X141312819Y-87455499D01*
X141312819Y-87455499D02*
X141312819Y-87217404D01*
X141312819Y-87217404D02*
X141360438Y-87122166D01*
X141360438Y-87122166D02*
X141408057Y-87074547D01*
X141408057Y-87074547D02*
X141503295Y-87026928D01*
X141503295Y-87026928D02*
X141598533Y-87026928D01*
X141598533Y-87026928D02*
X141741390Y-87074547D01*
X141741390Y-87074547D02*
X142312819Y-87645975D01*
X142312819Y-87645975D02*
X142312819Y-87026928D01*
X141408057Y-86645975D02*
X141360438Y-86598356D01*
X141360438Y-86598356D02*
X141312819Y-86503118D01*
X141312819Y-86503118D02*
X141312819Y-86265023D01*
X141312819Y-86265023D02*
X141360438Y-86169785D01*
X141360438Y-86169785D02*
X141408057Y-86122166D01*
X141408057Y-86122166D02*
X141503295Y-86074547D01*
X141503295Y-86074547D02*
X141598533Y-86074547D01*
X141598533Y-86074547D02*
X141741390Y-86122166D01*
X141741390Y-86122166D02*
X142312819Y-86693594D01*
X142312819Y-86693594D02*
X142312819Y-86074547D01*
X141312819Y-85455499D02*
X141312819Y-85360261D01*
X141312819Y-85360261D02*
X141360438Y-85265023D01*
X141360438Y-85265023D02*
X141408057Y-85217404D01*
X141408057Y-85217404D02*
X141503295Y-85169785D01*
X141503295Y-85169785D02*
X141693771Y-85122166D01*
X141693771Y-85122166D02*
X141931866Y-85122166D01*
X141931866Y-85122166D02*
X142122342Y-85169785D01*
X142122342Y-85169785D02*
X142217580Y-85217404D01*
X142217580Y-85217404D02*
X142265200Y-85265023D01*
X142265200Y-85265023D02*
X142312819Y-85360261D01*
X142312819Y-85360261D02*
X142312819Y-85455499D01*
X142312819Y-85455499D02*
X142265200Y-85550737D01*
X142265200Y-85550737D02*
X142217580Y-85598356D01*
X142217580Y-85598356D02*
X142122342Y-85645975D01*
X142122342Y-85645975D02*
X141931866Y-85693594D01*
X141931866Y-85693594D02*
X141693771Y-85693594D01*
X141693771Y-85693594D02*
X141503295Y-85645975D01*
X141503295Y-85645975D02*
X141408057Y-85598356D01*
X141408057Y-85598356D02*
X141360438Y-85550737D01*
X141360438Y-85550737D02*
X141312819Y-85455499D01*
X142312819Y-84693594D02*
X141312819Y-84693594D01*
X141931866Y-84598356D02*
X142312819Y-84312642D01*
X141646152Y-84312642D02*
X142027104Y-84693594D01*
X163522819Y-83883166D02*
X163046628Y-84216499D01*
X163522819Y-84454594D02*
X162522819Y-84454594D01*
X162522819Y-84454594D02*
X162522819Y-84073642D01*
X162522819Y-84073642D02*
X162570438Y-83978404D01*
X162570438Y-83978404D02*
X162618057Y-83930785D01*
X162618057Y-83930785D02*
X162713295Y-83883166D01*
X162713295Y-83883166D02*
X162856152Y-83883166D01*
X162856152Y-83883166D02*
X162951390Y-83930785D01*
X162951390Y-83930785D02*
X162999009Y-83978404D01*
X162999009Y-83978404D02*
X163046628Y-84073642D01*
X163046628Y-84073642D02*
X163046628Y-84454594D01*
X162856152Y-83026023D02*
X163522819Y-83026023D01*
X162475200Y-83264118D02*
X163189485Y-83502213D01*
X163189485Y-83502213D02*
X163189485Y-82883166D01*
X165696819Y-85002213D02*
X165696819Y-84383166D01*
X165696819Y-84383166D02*
X166077771Y-84716499D01*
X166077771Y-84716499D02*
X166077771Y-84573642D01*
X166077771Y-84573642D02*
X166125390Y-84478404D01*
X166125390Y-84478404D02*
X166173009Y-84430785D01*
X166173009Y-84430785D02*
X166268247Y-84383166D01*
X166268247Y-84383166D02*
X166506342Y-84383166D01*
X166506342Y-84383166D02*
X166601580Y-84430785D01*
X166601580Y-84430785D02*
X166649200Y-84478404D01*
X166649200Y-84478404D02*
X166696819Y-84573642D01*
X166696819Y-84573642D02*
X166696819Y-84859356D01*
X166696819Y-84859356D02*
X166649200Y-84954594D01*
X166649200Y-84954594D02*
X166601580Y-85002213D01*
X165696819Y-84049832D02*
X165696819Y-83430785D01*
X165696819Y-83430785D02*
X166077771Y-83764118D01*
X166077771Y-83764118D02*
X166077771Y-83621261D01*
X166077771Y-83621261D02*
X166125390Y-83526023D01*
X166125390Y-83526023D02*
X166173009Y-83478404D01*
X166173009Y-83478404D02*
X166268247Y-83430785D01*
X166268247Y-83430785D02*
X166506342Y-83430785D01*
X166506342Y-83430785D02*
X166601580Y-83478404D01*
X166601580Y-83478404D02*
X166649200Y-83526023D01*
X166649200Y-83526023D02*
X166696819Y-83621261D01*
X166696819Y-83621261D02*
X166696819Y-83906975D01*
X166696819Y-83906975D02*
X166649200Y-84002213D01*
X166649200Y-84002213D02*
X166601580Y-84049832D01*
X165696819Y-82811737D02*
X165696819Y-82716499D01*
X165696819Y-82716499D02*
X165744438Y-82621261D01*
X165744438Y-82621261D02*
X165792057Y-82573642D01*
X165792057Y-82573642D02*
X165887295Y-82526023D01*
X165887295Y-82526023D02*
X166077771Y-82478404D01*
X166077771Y-82478404D02*
X166315866Y-82478404D01*
X166315866Y-82478404D02*
X166506342Y-82526023D01*
X166506342Y-82526023D02*
X166601580Y-82573642D01*
X166601580Y-82573642D02*
X166649200Y-82621261D01*
X166649200Y-82621261D02*
X166696819Y-82716499D01*
X166696819Y-82716499D02*
X166696819Y-82811737D01*
X166696819Y-82811737D02*
X166649200Y-82906975D01*
X166649200Y-82906975D02*
X166601580Y-82954594D01*
X166601580Y-82954594D02*
X166506342Y-83002213D01*
X166506342Y-83002213D02*
X166315866Y-83049832D01*
X166315866Y-83049832D02*
X166077771Y-83049832D01*
X166077771Y-83049832D02*
X165887295Y-83002213D01*
X165887295Y-83002213D02*
X165792057Y-82954594D01*
X165792057Y-82954594D02*
X165744438Y-82906975D01*
X165744438Y-82906975D02*
X165696819Y-82811737D01*
X152247992Y-112035256D02*
X152390869Y-112082881D01*
X152390869Y-112082881D02*
X152628996Y-112082881D01*
X152628996Y-112082881D02*
X152724247Y-112035256D01*
X152724247Y-112035256D02*
X152771872Y-111987630D01*
X152771872Y-111987630D02*
X152819497Y-111892379D01*
X152819497Y-111892379D02*
X152819497Y-111797128D01*
X152819497Y-111797128D02*
X152771872Y-111701878D01*
X152771872Y-111701878D02*
X152724247Y-111654252D01*
X152724247Y-111654252D02*
X152628996Y-111606627D01*
X152628996Y-111606627D02*
X152438494Y-111559001D01*
X152438494Y-111559001D02*
X152343243Y-111511376D01*
X152343243Y-111511376D02*
X152295618Y-111463750D01*
X152295618Y-111463750D02*
X152247992Y-111368500D01*
X152247992Y-111368500D02*
X152247992Y-111273249D01*
X152247992Y-111273249D02*
X152295618Y-111177998D01*
X152295618Y-111177998D02*
X152343243Y-111130372D01*
X152343243Y-111130372D02*
X152438494Y-111082747D01*
X152438494Y-111082747D02*
X152676621Y-111082747D01*
X152676621Y-111082747D02*
X152819497Y-111130372D01*
X153772006Y-112082881D02*
X153200501Y-112082881D01*
X153486254Y-112082881D02*
X153486254Y-111082747D01*
X153486254Y-111082747D02*
X153391003Y-111225623D01*
X153391003Y-111225623D02*
X153295752Y-111320874D01*
X153295752Y-111320874D02*
X153200501Y-111368500D01*
D13*
%TO.C,R2*%
X139473000Y-73379064D02*
X139473000Y-72924936D01*
X140943000Y-73379064D02*
X140943000Y-72924936D01*
%TO.C,SDA1*%
X163857000Y-78863564D02*
X163857000Y-78409436D01*
X165327000Y-78863564D02*
X165327000Y-78409436D01*
%TO.C,J2*%
X144890000Y-103028000D02*
X144890000Y-101698000D01*
X146220000Y-103028000D02*
X144890000Y-103028000D01*
X147490000Y-100368000D02*
X160250000Y-100368000D01*
X147490000Y-103028000D02*
X147490000Y-100368000D01*
X147490000Y-103028000D02*
X160250000Y-103028000D01*
X160250000Y-103028000D02*
X160250000Y-100368000D01*
%TO.C,BATT1*%
X138828000Y-79761000D02*
X138828000Y-77111000D01*
X141588000Y-77111000D02*
X138828000Y-77111000D01*
X141588000Y-79761000D02*
X138828000Y-79761000D01*
X141588000Y-79761000D02*
X141588000Y-77111000D01*
X141588000Y-81031000D02*
X141588000Y-82411000D01*
X141588000Y-82411000D02*
X140208000Y-82411000D01*
%TO.C,SCL1*%
X163857000Y-74291564D02*
X163857000Y-73837436D01*
X165327000Y-74291564D02*
X165327000Y-73837436D01*
%TO.C,C1*%
X163857000Y-89095252D02*
X163857000Y-88572748D01*
X165327000Y-89095252D02*
X165327000Y-88572748D01*
D14*
%TO.C,U1*%
X143510000Y-89281000D02*
X143510000Y-72136000D01*
X145415000Y-91186000D02*
X159385000Y-91186000D01*
X147905000Y-70231000D02*
X147908728Y-69220728D01*
X148408728Y-68721000D02*
X156404000Y-68721000D01*
X156904000Y-69221000D02*
X156904000Y-70231000D01*
D10*
X159385000Y-70231000D02*
X145415000Y-70231000D01*
D14*
X159385000Y-70231000D02*
X145415000Y-70231000D01*
X161290000Y-89281000D02*
X161290000Y-72136000D01*
X143510000Y-72136000D02*
G75*
G02*
X145415000Y-70231000I1905001J-1D01*
G01*
X145415000Y-91186000D02*
G75*
G02*
X143510000Y-89281000I1J1905001D01*
G01*
X147908728Y-69220728D02*
G75*
G02*
X148408728Y-68721001I500018J-291D01*
G01*
X156404000Y-68721000D02*
G75*
G02*
X156904000Y-69221000I0J-500000D01*
G01*
X159385000Y-70231000D02*
G75*
G02*
X161290000Y-72136000I0J-1905000D01*
G01*
X161290000Y-89281000D02*
G75*
G02*
X159385000Y-91186000I-1905000J0D01*
G01*
D15*
X143748000Y-70372000D02*
G75*
G02*
X143244000Y-70372000I-252000J0D01*
G01*
X143244000Y-70372000D02*
G75*
G02*
X143748000Y-70372000I252000J0D01*
G01*
X144891000Y-71252000D02*
G75*
G02*
X144387000Y-71252000I-252000J0D01*
G01*
X144387000Y-71252000D02*
G75*
G02*
X144891000Y-71252000I252000J0D01*
G01*
D13*
%TO.C,D1*%
X159060000Y-104946000D02*
X159060000Y-110446000D01*
X159060000Y-104946000D02*
X166060000Y-104946000D01*
X159060000Y-110446000D02*
X165610000Y-110446000D01*
X159860000Y-108596000D02*
X159860000Y-106796000D01*
X165260000Y-108596000D02*
X165260000Y-106796000D01*
X165610000Y-110446000D02*
X166060000Y-109996000D01*
X166060000Y-109996000D02*
X166060000Y-104946000D01*
%TO.C,R1*%
X139473000Y-86182564D02*
X139473000Y-85728436D01*
X140943000Y-86182564D02*
X140943000Y-85728436D01*
%TO.C,R4*%
X163857000Y-83943564D02*
X163857000Y-83489436D01*
X165327000Y-83943564D02*
X165327000Y-83489436D01*
D14*
%TO.C,S1*%
X151808000Y-105096000D02*
X151808000Y-105196000D01*
X151808000Y-105096000D02*
X154008000Y-105096000D01*
X151808000Y-110196000D02*
X151808000Y-110296000D01*
X151808000Y-110296000D02*
X154008000Y-110296000D01*
X154008000Y-105196000D02*
X154008000Y-105096000D01*
X154008000Y-110196000D02*
X154008000Y-110296000D01*
X148721500Y-110446000D02*
G75*
G02*
X148594500Y-110446000I-63500J0D01*
G01*
X148594500Y-110446000D02*
G75*
G02*
X148721500Y-110446000I63500J0D01*
G01*
X153908000Y-107696000D02*
G75*
G02*
X151908000Y-107696000I-1000000J0D01*
G01*
X151908000Y-107696000D02*
G75*
G02*
X153908000Y-107696000I1000000J0D01*
G01*
%TD*%
M02*
