0
SECTION
2
HEADER
9
$INSUNITS
70
4
9
$ACADVER
1
AC1014
9
$HANDSEED
5
FFFF
0
ENDSEC
0
SECTION
2
TABLES
0
TABLE
2
VPORT
5
8
100
AcDbSymbolTable
0
ENDTAB
0
TABLE
2
LTYPE
5
5
100
AcDbSymbolTable
0
LTYPE
5
14
100
AcDbSymbolTableRecord
100
AcDbLinetypeTableRecord
2
BYBLOCK
70
0
0
LTYPE
5
15
100
AcDbSymbolTableRecord
100
AcDbLinetypeTableRecord
2
BYLAYER
70
0
0
ENDTAB
0
TABLE
2
LAYER
5
2
100
AcDbSymbolTable
70
2
0
LAYER
5
50
100
AcDbSymbolTableRecord
100
AcDbLayerTableRecord
2
0
70
0
6
CONTINUOUS
0
ENDTAB
0
TABLE
2
STYLE
5
3
100
AcDbSymbolTable
70
1
0
STYLE
5
11
100
AcDbSymbolTableRecord
100
AcDbTextStyleTableRecord
2
STANDARD
70
0
0
ENDTAB
0
TABLE
2
VIEW
5
6
100
AcDbSymbolTable
70
0
0
ENDTAB
0
TABLE
2
UCS
5
7
100
AcDbSymbolTable
70
0
0
ENDTAB
0
TABLE
2
APPID
5
9
100
AcDbSymbolTable
70
2
0
APPID
5
12
100
AcDbSymbolTableRecord
100
AcDbRegAppTableRecord
2
ACAD
70
0
0
ENDTAB
0
TABLE
2
DIMSTYLE
5
A
100
AcDbSymbolTable
70
1
0
ENDTAB
0
TABLE
2
BLOCK_RECORD
5
1
100
AcDbSymbolTable
70
1
0
BLOCK_RECORD
5
1F
100
AcDbSymbolTableRecord
100
AcDbBlockTableRecord
2
*MODEL_SPACE
0
BLOCK_RECORD
5
1B
100
AcDbSymbolTableRecord
100
AcDbBlockTableRecord
2
*PAPER_SPACE
0
ENDTAB
0
ENDSEC
0
SECTION
2
BLOCKS
0
BLOCK
5
20
100
AcDbEntity
100
AcDbBlockBegin
2
*MODEL_SPACE
0
ENDBLK
5
21
100
AcDbEntity
100
AcDbBlockEnd
0
BLOCK
5
1C
100
AcDbEntity
100
AcDbBlockBegin
2
*PAPER_SPACE
0
ENDBLK
5
1D
100
AcDbEntity
100
AcDbBlockEnd
0
ENDSEC
0
SECTION
2
ENTITIES
0
SPLINE
5
100
100
AcDbEntity
8
0
100
AcDbSpline
70
4
71
3
72
8
73
4
74
0
42
0.000000001
43
0.0000000001
44
0.0000000001
40
0
40
0
40
0
40
0
40
1
40
1
40
1
40
1
41
1
41
1
41
1
41
1
10
13.775427303307485
20
-10.987534558025857
30
0
10
13.775427303307485
20
-12.524303720953181
30
0
10
12.524470815029694
20
-13.775427915759302
30
0
10
10.987533626588725
20
-13.775427915759302
30
0
0
LWPOLYLINE
5
101
100
AcDbEntity
8
0
100
AcDbPolyline
90
2
70
1
43
0.0
10
10.987533626588725
20
-13.775427915759302
10
-10.961067120555628
20
-13.775427915759302
0
SPLINE
5
102
100
AcDbEntity
8
0
100
AcDbSpline
70
4
71
3
72
8
73
4
74
0
42
0.000000001
43
0.0000000001
44
0.0000000001
40
0
40
0
40
0
40
0
40
1
40
1
40
1
40
1
41
1
41
1
41
1
41
1
10
-10.961067120555629
20
-13.775427915759302
30
0
10
-12.498004707728239
20
-13.775427915759302
30
0
10
-13.748960478289074
20
-12.524303720953181
30
0
10
-13.748960478289074
20
-10.987534558025857
30
0
0
LINE
5
103
100
AcDbEntity
8
0
100
AcDbLine
10
-13.748960478289074
20
-10.987534558025857
30
0
11
-13.748960478289074
21
10.961066508103809
31
0
0
SPLINE
5
104
100
AcDbEntity
8
0
100
AcDbSpline
70
4
71
3
72
8
73
4
74
0
42
0.000000001
43
0.0000000001
44
0.0000000001
40
0
40
0
40
0
40
0
40
1
40
1
40
1
40
1
41
1
41
1
41
1
41
1
10
-13.748960478289074
20
10.961066508103814
30
0
10
-13.748960478289074
20
12.498003616798453
30
0
10
-12.498004707728239
20
13.74896018482257
30
0
10
-10.961067120555629
20
13.74896018482257
30
0
0
LINE
5
105
100
AcDbEntity
8
0
100
AcDbLine
10
-10.961067120555629
20
13.74896018482257
30
0
11
10.987533626588723
21
13.74896018482257
31
0
0
SPLINE
5
106
100
AcDbEntity
8
0
100
AcDbSpline
70
4
71
3
72
8
73
4
74
0
42
0.000000001
43
0.0000000001
44
0.0000000001
40
0
40
0
40
0
40
0
40
1
40
1
40
1
40
1
41
1
41
1
41
1
41
1
10
10.987533626588725
20
13.74896018482257
30
0
10
12.524470815029694
20
13.74896018482257
30
0
10
13.775427303307485
20
12.498003616798453
30
0
10
13.775427303307485
20
10.961066508103814
30
0
0
LINE
5
107
100
AcDbEntity
8
0
100
AcDbLine
10
13.775427303307481
20
10.961066508103814
30
0
11
13.775427303307485
21
-10.987534558025857
31
0
0
LINE
5
108
100
AcDbEntity
8
0
100
AcDbLine
10
10.987533626588725
20
14.752401215641768
30
0
11
-10.961067120555628
21
14.752401215641768
31
0
0
SPLINE
5
109
100
AcDbEntity
8
0
100
AcDbSpline
70
4
71
3
72
8
73
4
74
0
42
0.000000001
43
0.0000000001
44
0.0000000001
40
0
40
0
40
0
40
0
40
1
40
1
40
1
40
1
41
1
41
1
41
1
41
1
10
-10.961067120555629
20
14.752401215641768
30
0
10
-13.05156926809563
20
14.752401215641768
30
0
10
-14.752401509108273
20
13.051568655643813
30
0
10
-14.752401509108273
20
10.961066508103814
30
0
0
LINE
5
110
100
AcDbEntity
8
0
100
AcDbLine
10
-14.752401509108273
20
10.961066508103814
30
0
11
-14.752401509108273
21
-10.987534558025853
31
0
0
SPLINE
5
111
100
AcDbEntity
8
0
100
AcDbSpline
70
4
71
3
72
8
73
4
74
0
42
0.000000001
43
0.0000000001
44
0.0000000001
40
0
40
0
40
0
40
0
40
1
40
1
40
1
40
1
41
1
41
1
41
1
41
1
10
-14.752401509108273
20
-10.987534558025857
30
0
10
-14.752401509108273
20
-13.078036705565857
30
0
10
-13.05156926809563
20
-14.778868946578502
30
0
10
-10.961067120555629
20
-14.778868946578502
30
0
0
LINE
5
112
100
AcDbEntity
8
0
100
AcDbLine
10
-10.961067120555629
20
-14.778868946578502
30
0
11
10.987533626588723
21
-14.778868946578502
31
0
0
SPLINE
5
113
100
AcDbEntity
8
0
100
AcDbSpline
70
4
71
3
72
8
73
4
74
0
42
0.000000001
43
0.0000000001
44
0.0000000001
40
0
40
0
40
0
40
0
40
1
40
1
40
1
40
1
41
1
41
1
41
1
41
1
10
10.987533626588725
20
-14.778868946578502
30
0
10
13.078035774128725
20
-14.778868946578502
30
0
10
14.778868334126681
20
-13.078036705565857
30
0
10
14.778868334126681
20
-10.987534558025857
30
0
0
LINE
5
114
100
AcDbEntity
8
0
100
AcDbLine
10
14.778868334126681
20
-10.987534558025857
30
0
11
14.778868334126681
21
10.961066508103809
31
0
0
SPLINE
5
115
100
AcDbEntity
8
0
100
AcDbSpline
70
4
71
3
72
8
73
4
74
0
42
0.000000001
43
0.0000000001
44
0.0000000001
40
0
40
0
40
0
40
0
40
1
40
1
40
1
40
1
41
1
41
1
41
1
41
1
10
14.778868334126681
20
10.961066508103814
30
0
10
14.778868334126681
20
13.051568655643813
30
0
10
13.078035774128725
20
14.752401215641768
30
0
10
10.987533626588725
20
14.752401215641768
30
0
0
LINE
5
116
100
AcDbEntity
8
0
100
AcDbLine
10
13.775427303307485
20
-0.91131349235595405
30
0
11
13.775427303307485
21
-10.987534558025857
31
0
0
SPLINE
5
117
100
AcDbEntity
8
0
100
AcDbSpline
70
4
71
3
72
8
73
4
74
0
42
0.000000001
43
0.0000000001
44
0.0000000001
40
0
40
0
40
0
40
0
40
1
40
1
40
1
40
1
41
1
41
1
41
1
41
1
10
13.775427303307485
20
-10.987534558025857
30
0
10
13.775427303307485
20
-12.524303644396703
30
0
10
12.524470815029694
20
-13.775427201232198
30
0
10
10.987533626588725
20
-13.775427915759302
30
0
0
SPLINE
5
118
100
AcDbEntity
8
0
100
AcDbSpline
70
4
71
3
72
8
73
4
74
0
42
0.000000001
43
0.0000000001
44
0.0000000001
40
0
40
0
40
0
40
0
40
1
40
1
40
1
40
1
41
1
41
1
41
1
41
1
10
-10.961067120555629
20
-13.775427915759302
30
0
10
-12.498004707728239
20
-13.775427201232198
30
0
10
-13.748960478289074
20
-12.524303644396703
30
0
10
-13.748960478289074
20
-10.987534558025857
30
0
0
LINE
5
119
100
AcDbEntity
8
0
100
AcDbLine
10
-13.748960478289074
20
-10.987534558025857
30
0
11
-13.748960478289074
21
-0.073439874358371959
31
0
0
SPLINE
5
120
100
AcDbEntity
8
0
100
AcDbSpline
70
4
71
3
72
8
73
4
74
0
42
0.000000001
43
0.0000000001
44
0.0000000001
40
0
40
0
40
0
40
0
40
1
40
1
40
1
40
1
41
1
41
1
41
1
41
1
10
-13.748960478289074
20
-0.073439874358371959
30
0
10
-11.233666865314742
20
1.7595122554917508
30
0
10
-8.7217213221860828
20
3.368363167577384
30
0
10
-8.1096216809345698
20
3.368363167577384
30
0
0
LINE
5
121
100
AcDbEntity
8
0
100
AcDbLine
10
-8.1096216809345716
20
3.3683631675773835
30
0
11
-8.1029331968907421
21
3.368363167577384
31
0
0
SPLINE
5
122
100
AcDbEntity
8
0
100
AcDbSpline
70
4
71
3
72
8
73
4
74
0
42
0.000000001
43
0.0000000001
44
0.0000000001
40
0
40
0
40
0
40
0
40
1
40
1
40
1
40
1
41
1
41
1
41
1
41
1
10
-8.1029331968907421
20
3.368363167577384
30
0
10
-7.5911774035328996
20
3.1626571948452975
30
0
10
-5.973963972480604
20
1.4854056241138358
30
0
10
-5.002298982605212
20
0.47845256499806199
30
0
0
SPLINE
5
123
100
AcDbEntity
8
0
100
AcDbSpline
70
4
71
3
72
8
73
4
74
0
42
0.000000001
43
0.0000000001
44
0.0000000001
40
0
40
0
40
0
40
0
40
1
40
1
40
1
40
1
41
1
41
1
41
1
41
1
10
-5.002298982605212
20
0.47845256499806199
30
0
10
-4.5122852281841874
20
-0.029790562092582018
30
0
10
-4.0490305137034728
20
-0.50993682484002489
30
0
10
-3.6961536491234215
20
-0.84943416944991856
30
0
0
SPLINE
5
124
100
AcDbEntity
8
0
100
AcDbSpline
70
4
71
3
72
8
73
4
74
0
42
0.000000001
43
0.0000000001
44
0.0000000001
40
0
40
0
40
0
40
0
40
1
40
1
40
1
40
1
41
1
41
1
41
1
41
1
10
-3.6961536491234215
20
-0.84943416944991856
30
0
10
-3.2379159356462051
20
-1.2909487589056923
30
0
10
-2.8415562691337692
20
-1.6722561464663888
30
0
10
-2.4234558396257699
20
-1.3929647278103197
30
0
0
SPLINE
5
125
100
AcDbEntity
8
0
100
AcDbSpline
70
4
71
3
72
8
73
4
74
0
42
0.000000001
43
0.0000000001
44
0.0000000001
40
0
40
0
40
0
40
0
40
1
40
1
40
1
40
1
41
1
41
1
41
1
41
1
10
-2.4234558396257699
20
-1.3929647278103197
30
0
10
-2.3197664737689339
20
-1.3243962828898326
30
0
10
-2.1274400210070032
20
-1.197294033026477
30
0
10
3.0586767879325261
20
4.8619851011216442
30
0
0
SPLINE
5
126
100
AcDbEntity
8
0
100
AcDbSpline
70
4
71
3
72
8
73
4
74
0
42
0.000000001
43
0.0000000001
44
0.0000000001
40
0
40
0
40
0
40
0
40
1
40
1
40
1
40
1
41
1
41
1
41
1
41
1
10
3.0586767879325261
20
4.8619851011216442
30
0
10
3.1640382748003182
20
4.9839025637068453
30
0
10
3.3194045373109105
20
5.0491261286347928
30
0
10
3.4784499764221088
20
5.0457818866128799
30
0
0
SPLINE
5
127
100
AcDbEntity
8
0
100
AcDbSpline
70
4
71
3
72
8
73
4
74
0
42
0.000000001
43
0.0000000001
44
0.0000000001
40
0
40
0
40
0
40
0
40
1
40
1
40
1
40
1
41
1
41
1
41
1
41
1
10
3.4784499764221088
20
5.0457818866128799
30
0
10
3.6338162389327011
20
5.0407648856093843
30
0
10
3.7761372780812041
20
4.9688515606963595
30
0
10
3.8731368839529612
20
4.8484384328474537
30
0
0
LINE
5
128
100
AcDbEntity
8
0
100
AcDbLine
10
3.8731368839529612
20
4.8484384328474537
30
0
11
7.3197891406175541
21
-1.0016227002720068
31
0
0
SPLINE
5
129
100
AcDbEntity
8
0
100
AcDbSpline
70
4
71
3
72
8
73
4
74
0
42
0.000000001
43
0.0000000001
44
0.0000000001
40
0
40
0
40
0
40
0
40
1
40
1
40
1
40
1
41
1
41
1
41
1
41
1
10
7.3197891406175541
20
-1.0016227002720068
30
0
10
7.4370245367779519
20
-1.2004717647149832
30
0
10
7.6460747515319527
20
-1.3259018935673827
30
0
10
7.8783713399590649
20
-1.3327588018564929
30
0
0
SPLINE
5
130
100
AcDbEntity
8
0
100
AcDbSpline
70
4
71
3
72
8
73
4
74
0
42
0.000000001
43
0.0000000001
44
0.0000000001
40
0
40
0
40
0
40
0
40
1
40
1
40
1
40
1
41
1
41
1
41
1
41
1
10
7.8783713399590649
20
-1.3327588018564929
30
0
10
8.0941113146981447
20
-1.3394479238709445
30
0
10
8.3050014367377614
20
-1.2422818076657816
30
0
10
8.4371210065899263
20
-1.0683518758775046
30
0
0
LINE
5
131
100
AcDbEntity
8
0
100
AcDbLine
10
8.4371210065899263
20
-1.0683518758775046
30
0
11
10.614588120024067
21
1.4584800738401142
31
0
0
LINE
5
132
100
AcDbEntity
8
0
100
AcDbLine
10
10.614588120024067
20
1.4584800738401142
30
0
11
10.639674081997484
21
1.4902554768132985
31
0
0
SPLINE
5
133
100
AcDbEntity
8
0
100
AcDbSpline
70
4
71
3
72
8
73
4
74
0
42
0.000000001
43
0.0000000001
44
0.0000000001
40
0
40
0
40
0
40
0
40
1
40
1
40
1
40
1
41
1
41
1
41
1
41
1
10
10.63967408199748
20
1.4902554768132981
30
0
10
10.748212981568468
20
1.6390991276428446
30
0
10
10.883844579717206
20
1.6758921695901496
30
0
10
10.979004278303343
20
1.6825819295752287
30
0
0
SPLINE
5
134
100
AcDbEntity
8
0
100
AcDbSpline
70
4
71
3
72
8
73
4
74
0
42
0.000000001
43
0.0000000001
44
0.0000000001
40
0
40
0
40
0
40
0
40
1
40
1
40
1
40
1
41
1
41
1
41
1
41
1
10
10.979004278303343
20
1.6825819295752287
30
0
10
11.139555009106781
20
1.6926159315822198
30
0
10
11.301945168717861
20
1.6190304856582372
30
0
10
11.437409778055221
20
1.4735317148212279
30
0
0
LINE
5
135
100
AcDbEntity
8
0
100
AcDbLine
10
11.437409778055221
20
1.4735317148212279
30
0
11
13.775427303307485
21
-0.91131349235595405
31
0
0
LINE
5
136
100
AcDbEntity
8
0
100
AcDbLine
10
13.775427303307485
20
10.961100134769948
30
0
11
13.775427303307485
21
0.52196843856213482
31
0
0
LINE
5
137
100
AcDbEntity
8
0
100
AcDbLine
10
13.775427303307485
20
0.52196843856213482
30
0
11
12.164904429703549
21
2.1642669145050726
31
0
0
SPLINE
5
138
100
AcDbEntity
8
0
100
AcDbSpline
70
4
71
3
72
8
73
4
74
0
42
0.000000001
43
0.0000000001
44
0.0000000001
40
0
40
0
40
0
40
0
40
1
40
1
40
1
40
1
41
1
41
1
41
1
41
1
10
12.164904429703549
20
2.164266914505073
30
0
10
11.837113686589568
20
2.5204884846325726
30
0
10
11.383892814623188
20
2.7094698729885791
30
0
10
10.922142594371431
20
2.6843838512054163
30
0
0
SPLINE
5
139
100
AcDbEntity
8
0
100
AcDbSpline
70
4
71
3
72
8
73
4
74
0
42
0.000000001
43
0.0000000001
44
0.0000000001
40
0
40
0
40
0
40
0
40
1
40
1
40
1
40
1
41
1
41
1
41
1
41
1
10
10.922142594371431
20
2.6843838512054163
30
0
10
10.495847432171427
20
2.6592978294222513
30
0
10
10.102833283622159
20
2.446902809749405
30
0
10
9.841771237635708
20
2.0990432698307981
30
0
0
LINE
5
140
100
AcDbEntity
8
0
100
AcDbLine
10
9.841771237635708
20
2.0990432698307986
30
0
11
7.9504518131761239
21
-0.095147725214902723
31
0
0
LINE
5
141
100
AcDbEntity
8
0
100
AcDbLine
10
7.9504518131761239
20
-0.095147725214902723
30
0
11
4.7208773556535002
21
5.3836403413361653
31
0
0
LINE
5
142
100
AcDbEntity
8
0
100
AcDbLine
10
4.7208773556535002
20
5.3836403413361653
30
0
11
4.6924461947022316
21
5.4287949452941922
31
0
0
SPLINE
5
143
100
AcDbEntity
8
0
100
AcDbSpline
70
4
71
3
72
8
73
4
74
0
42
0.000000001
43
0.0000000001
44
0.0000000001
40
0
40
0
40
0
40
0
40
1
40
1
40
1
40
1
41
1
41
1
41
1
41
1
10
4.6924461947022316
20
5.4287949452941922
30
0
10
4.4133225623208201
20
5.8050853318513918
30
0
10
3.9835153718242466
20
6.0325320675790444
30
0
10
3.5150752320947531
20
6.0492561485564265
30
0
0
SPLINE
5
144
100
AcDbEntity
8
0
100
AcDbSpline
70
4
71
3
72
8
73
4
74
0
42
0.000000001
43
0.0000000001
44
0.0000000001
40
0
40
0
40
0
40
0
40
1
40
1
40
1
40
1
41
1
41
1
41
1
41
1
10
3.5150752320947531
20
6.0492561485564265
30
0
10
3.0436257849220394
20
6.0643077895375397
30
0
10
2.6004390744553096
20
5.870309215764653
30
0
10
2.295894864507102
20
5.5140874711920613
30
0
0
SPLINE
5
145
100
AcDbEntity
8
0
100
AcDbSpline
70
4
71
3
72
8
73
4
74
0
42
0.000000001
43
0.0000000001
44
0.0000000001
40
0
40
0
40
0
40
0
40
1
40
1
40
1
40
1
41
1
41
1
41
1
41
1
10
2.295894864507102
20
5.5140874711920613
30
0
10
-0.67746803769916042
20
2.0405091857757784
30
0
10
-2.2160783838533527
20
0.27947022134602761
30
0
10
-2.7780054631874052
20
-0.33597366192740008
30
0
0
SPLINE
5
146
100
AcDbEntity
8
0
100
AcDbSpline
70
4
71
3
72
8
73
4
74
0
42
0.000000001
43
0.0000000001
44
0.0000000001
40
0
40
0
40
0
40
0
40
1
40
1
40
1
40
1
41
1
41
1
41
1
41
1
10
-2.7780054631874052
20
-0.33597366192740008
30
0
10
-3.1292095687858734
20
-0.019889679801994298
30
0
10
-3.75468745406629
20
0.62900220593353984
30
0
10
-4.2798214914530401
20
1.1742051245438812
30
0
0
SPLINE
5
147
100
AcDbEntity
8
0
100
AcDbSpline
70
4
71
3
72
8
73
4
74
0
42
0.000000001
43
0.0000000001
44
0.0000000001
40
0
40
0
40
0
40
0
40
1
40
1
40
1
40
1
41
1
41
1
41
1
41
1
10
-4.2798214914530401
20
1.1742051245438812
30
0
10
-5.9722924894402745
20
2.928554488481212
30
0
10
-7.1312669310740997
20
4.095890890857401
30
0
10
-7.7985548593053169
20
4.3250099070886661
30
0
0
SPLINE
5
148
100
AcDbEntity
8
0
100
AcDbSpline
70
4
71
3
72
8
73
4
74
0
42
0.000000001
43
0.0000000001
44
0.0000000001
40
0
40
0
40
0
40
0
40
1
40
1
40
1
40
1
41
1
41
1
41
1
41
1
10
-7.7985548593053169
20
4.3250099070886661
30
0
10
-8.1179841999012297
20
4.4353883949599542
30
0
10
-8.7133588032194211
20
4.6394214492177994
30
0
10
-12.566571238736849
20
1.9903371422094529
30
0
0
SPLINE
5
149
100
AcDbEntity
8
0
100
AcDbSpline
70
4
71
3
72
8
73
4
74
0
42
0.000000001
43
0.0000000001
44
0.0000000001
40
0
40
0
40
0
40
0
40
1
40
1
40
1
40
1
41
1
41
1
41
1
41
1
10
-12.566571238736849
20
1.9903371422094529
30
0
10
-12.972966183197524
20
1.7127184426618003
30
0
10
-13.372670091731873
20
1.4300825427448327
30
0
10
-13.748960478289074
20
1.1608259235590368
30
0
0
LINE
5
150
100
AcDbEntity
8
0
100
AcDbLine
10
-13.748960478289074
20
1.1608259235590368
30
0
11
-13.748960478289074
21
10.961100134769948
31
0
0
SPLINE
5
151
100
AcDbEntity
8
0
100
AcDbSpline
70
4
71
3
72
8
73
4
74
0
42
0.000000001
43
0.0000000001
44
0.0000000001
40
0
40
0
40
0
40
0
40
1
40
1
40
1
40
1
41
1
41
1
41
1
41
1
10
-13.748960478289074
20
10.961100134769948
30
0
10
-13.748960478289074
20
12.498037083971932
30
0
10
-12.498004707728239
20
13.748994130474017
30
0
10
-10.961067120555629
20
13.748994130474017
30
0
0
LINE
5
152
100
AcDbEntity
8
0
100
AcDbLine
10
-10.961067120555629
20
13.748994130474015
30
0
11
10.987533626588723
21
13.748994130474017
31
0
0
SPLINE
5
153
100
AcDbEntity
8
0
100
AcDbSpline
70
4
71
3
72
8
73
4
74
0
42
0.000000001
43
0.0000000001
44
0.0000000001
40
0
40
0
40
0
40
0
40
1
40
1
40
1
40
1
41
1
41
1
41
1
41
1
10
10.987533626588725
20
13.748994130474017
30
0
10
12.524470815029694
20
13.748994130474017
30
0
10
13.775427303307485
20
12.498037083971932
30
0
10
13.775427303307485
20
10.961100134769948
30
0
0
LINE
5
154
100
AcDbEntity
8
0
100
AcDbLine
10
13.775427303307485
20
0.52198530931256037
30
0
11
12.164904429703549
21
2.1642669145050726
31
0
0
SPLINE
5
155
100
AcDbEntity
8
0
100
AcDbSpline
70
4
71
3
72
8
73
4
74
0
42
0.000000001
43
0.0000000001
44
0.0000000001
40
0
40
0
40
0
40
0
40
1
40
1
40
1
40
1
41
1
41
1
41
1
41
1
10
12.164904429703549
20
2.164266914505073
30
0
10
11.837113686589568
20
2.5205051709696136
30
0
10
11.383892814623188
20
2.7094865842463478
30
0
10
10.922142594371431
20
2.6843838512054163
30
0
0
SPLINE
5
156
100
AcDbEntity
8
0
100
AcDbSpline
70
4
71
3
72
8
73
4
74
0
42
0.000000001
43
0.0000000001
44
0.0000000001
40
0
40
0
40
0
40
0
40
1
40
1
40
1
40
1
41
1
41
1
41
1
41
1
10
10.922142594371431
20
2.6843838512054163
30
0
10
10.495847432171427
20
2.6593145805531848
30
0
10
10.102833283622159
20
2.4469195655529741
30
0
10
9.841771237635708
20
2.0990600209617294
30
0
0
LINE
5
157
100
AcDbEntity
8
0
100
AcDbLine
10
9.841771237635708
20
2.0990600209617294
30
0
11
7.9504518131761239
21
-0.095147725214902723
31
0
0
LINE
5
158
100
AcDbEntity
8
0
100
AcDbLine
10
7.9504518131761239
20
-0.095147725214902723
30
0
11
4.7208773556535002
21
5.3836403413361653
31
0
0
LINE
5
159
100
AcDbEntity
8
0
100
AcDbLine
10
4.7208773556535002
20
5.3836403413361653
30
0
11
4.6924461947022316
21
5.4288118160446164
31
0
0
SPLINE
5
160
100
AcDbEntity
8
0
100
AcDbSpline
70
4
71
3
72
8
73
4
74
0
42
0.000000001
43
0.0000000001
44
0.0000000001
40
0
40
0
40
0
40
0
40
1
40
1
40
1
40
1
41
1
41
1
41
1
41
1
10
4.6924461947022316
20
5.4288118160446173
30
0
10
4.4133225623208201
20
5.8051022026018178
30
0
10
3.9835153718242466
20
6.0325487788368122
30
0
10
3.5150752320947531
20
6.0492561485564265
30
0
0
SPLINE
5
161
100
AcDbEntity
8
0
100
AcDbSpline
70
4
71
3
72
8
73
4
74
0
42
0.000000001
43
0.0000000001
44
0.0000000001
40
0
40
0
40
0
40
0
40
1
40
1
40
1
40
1
41
1
41
1
41
1
41
1
10
3.5150752320947531
20
6.0492561485564265
30
0
10
3.0436257849220394
20
6.0643245007953084
30
0
10
2.6004390744553096
20
5.8703259270224217
30
0
10
2.295894864507102
20
5.5141043419424873
30
0
0
SPLINE
5
162
100
AcDbEntity
8
0
100
AcDbSpline
70
4
71
3
72
8
73
4
74
0
42
0.000000001
43
0.0000000001
44
0.0000000001
40
0
40
0
40
0
40
0
40
1
40
1
40
1
40
1
41
1
41
1
41
1
41
1
10
2.295894864507102
20
5.5141043419424873
30
0
10
-0.67746803769916042
20
2.0405258970335471
30
0
10
-2.2160783838533527
20
0.27948693260379631
30
0
10
-2.7780054631874052
20
-0.33597366192740008
30
0
0
SPLINE
5
163
100
AcDbEntity
8
0
100
AcDbSpline
70
4
71
3
72
8
73
4
74
0
42
0.000000001
43
0.0000000001
44
0.0000000001
40
0
40
0
40
0
40
0
40
1
40
1
40
1
40
1
41
1
41
1
41
1
41
1
10
-2.7780054631874052
20
-0.33597366192740008
30
0
10
-3.1292095687858734
20
-0.019873128036882459
30
0
10
-3.75468745406629
20
0.62901891719130854
30
0
10
-4.2798214914530401
20
1.1742051245438812
30
0
0
SPLINE
5
164
100
AcDbEntity
8
0
100
AcDbSpline
70
4
71
3
72
8
73
4
74
0
42
0.000000001
43
0.0000000001
44
0.0000000001
40
0
40
0
40
0
40
0
40
1
40
1
40
1
40
1
41
1
41
1
41
1
41
1
10
-4.2798214914530401
20
1.1742051245438812
30
0
10
-5.9722924894402745
20
2.9285711997389807
30
0
10
-7.1312669310740997
20
4.0959076419883349
30
0
10
-7.7985548593053169
20
4.3250266980927616
30
0
0
SPLINE
5
165
100
AcDbEntity
8
0
100
AcDbSpline
70
4
71
3
72
8
73
4
74
0
42
0.000000001
43
0.0000000001
44
0.0000000001
40
0
40
0
40
0
40
0
40
1
40
1
40
1
40
1
41
1
41
1
41
1
41
1
10
-7.7985548593053169
20
4.3250266980927616
30
0
10
-8.1179841999012297
20
4.4354051859640498
30
0
10
-8.7133588032194211
20
4.639438160475569
30
0
10
-12.566571238736849
20
1.9903371422094529
30
0
0
SPLINE
5
166
100
AcDbEntity
8
0
100
AcDbSpline
70
4
71
3
72
8
73
4
74
0
42
0.000000001
43
0.0000000001
44
0.0000000001
40
0
40
0
40
0
40
0
40
1
40
1
40
1
40
1
41
1
41
1
41
1
41
1
10
-12.566571238736849
20
1.9903371422094529
30
0
10
-12.972966183197524
20
1.712735153919569
30
0
10
-13.372670091731873
20
1.4300993337489309
30
0
10
-13.748960478289074
20
1.1608259235590368
30
0
0
LINE
5
167
100
AcDbEntity
8
0
100
AcDbLine
10
-14.752401509108271
20
0.43167546342588248
30
0
11
-14.752401509108273
21
-0.81593606511303929
31
0
0
SPLINE
5
168
100
AcDbEntity
8
0
100
AcDbSpline
70
4
71
3
72
8
73
4
74
0
42
0.000000001
43
0.0000000001
44
0.0000000001
40
0
40
0
40
0
40
0
40
1
40
1
40
1
40
1
41
1
41
1
41
1
41
1
10
-13.748960478289074
20
-0.073389931976255429
30
0
10
-11.233666865314742
20
1.759562357366522
30
0
10
-8.7217213221860828
20
3.3684128707205141
30
0
10
-8.1096216809345698
20
3.3684128707205141
30
0
0
LINE
5
169
100
AcDbEntity
8
0
100
AcDbLine
10
-8.1096216809345716
20
3.3684128707205145
30
0
11
-8.1029331968907421
21
3.3684128707205141
31
0
0
SPLINE
5
170
100
AcDbEntity
8
0
100
AcDbSpline
70
4
71
3
72
8
73
4
74
0
42
0.000000001
43
0.0000000001
44
0.0000000001
40
0
40
0
40
0
40
0
40
1
40
1
40
1
40
1
41
1
41
1
41
1
41
1
10
-8.1029331968907421
20
3.3684128707205141
30
0
10
-7.5911774035328996
20
3.1627074562127255
30
0
10
-5.973963972480604
20
1.4852885776845737
30
0
10
-5.002298982605212
20
0.47850282636549224
30
0
0
SPLINE
5
171
100
AcDbEntity
8
0
100
AcDbSpline
70
4
71
3
72
8
73
4
74
0
42
0.000000001
43
0.0000000001
44
0.0000000001
40
0
40
0
40
0
40
0
40
1
40
1
40
1
40
1
41
1
41
1
41
1
41
1
10
-5.002298982605212
20
0.47850282636549224
30
0
10
-4.5122852281841874
20
-0.029907449029187294
30
0
10
-4.0490305137034728
20
-0.50988656347259464
30
0
10
-3.6961536491234215
20
-0.84938422706780425
30
0
0
SPLINE
5
172
100
AcDbEntity
8
0
100
AcDbSpline
70
4
71
3
72
8
73
4
74
0
42
0.000000001
43
0.0000000001
44
0.0000000001
40
0
40
0
40
0
40
0
40
1
40
1
40
1
40
1
41
1
41
1
41
1
41
1
10
-3.6961536491234215
20
-0.84938422706780425
30
0
10
-3.2379159356462051
20
-1.2908981785529527
30
0
10
-2.8415562691337692
20
-1.6722058850989607
30
0
10
-2.4234558396257699
20
-1.3929147854282031
30
0
0
SPLINE
5
173
100
AcDbEntity
8
0
100
AcDbSpline
70
4
71
3
72
8
73
4
74
0
42
0.000000001
43
0.0000000001
44
0.0000000001
40
0
40
0
40
0
40
0
40
1
40
1
40
1
40
1
41
1
41
1
41
1
41
1
10
-2.4234558396257699
20
-1.3929147854282031
30
0
10
-2.3197664737689339
20
-1.3243463405077183
30
0
10
-2.1274400210070032
20
-1.1972437716590467
30
0
10
3.0586767879325261
20
4.8618675762144123
30
0
0
SPLINE
5
174
100
AcDbEntity
8
0
100
AcDbSpline
70
4
71
3
72
8
73
4
74
0
42
0.000000001
43
0.0000000001
44
0.0000000001
40
0
40
0
40
0
40
0
40
1
40
1
40
1
40
1
41
1
41
1
41
1
41
1
10
3.0586767879325261
20
4.8618675762144123
30
0
10
3.1640382748003182
20
4.9839529845669306
30
0
10
3.3194045373109105
20
5.0491765494948782
30
0
10
3.4784499764221088
20
5.045831828994995
30
0
0
SPLINE
5
175
100
AcDbEntity
8
0
100
AcDbSpline
70
4
71
3
72
8
73
4
74
0
42
0.000000001
43
0.0000000001
44
0.0000000001
40
0
40
0
40
0
40
0
40
1
40
1
40
1
40
1
41
1
41
1
41
1
41
1
10
3.4784499764221088
20
5.045831828994995
30
0
10
3.6338162389327011
20
5.0408146684988431
30
0
10
3.7761372780812041
20
4.9689013435858174
30
0
10
3.8731368839529612
20
4.8484883752295698
30
0
0
LINE
5
176
100
AcDbEntity
8
0
100
AcDbLine
10
3.8731368839529612
20
4.8484883752295698
30
0
11
7.3197891406175541
21
-1.0015727578898914
31
0
0
SPLINE
5
177
100
AcDbEntity
8
0
100
AcDbSpline
70
4
71
3
72
8
73
4
74
0
42
0.000000001
43
0.0000000001
44
0.0000000001
40
0
40
0
40
0
40
0
40
1
40
1
40
1
40
1
41
1
41
1
41
1
41
1
10
7.3197891406175541
20
-1.0015727578898903
30
0
10
7.4370245367779519
20
-1.2005886516515862
30
0
10
7.6460747515319527
20
-1.3260187805039858
30
0
10
7.8783713399590649
20
-1.3327082215037511
30
0
0
SPLINE
5
178
100
AcDbEntity
8
0
100
AcDbSpline
70
4
71
3
72
8
73
4
74
0
42
0.000000001
43
0.0000000001
44
0.0000000001
40
0
40
0
40
0
40
0
40
1
40
1
40
1
40
1
41
1
41
1
41
1
41
1
10
7.8783713399590649
20
-1.3327082215037511
30
0
10
8.0941113146981447
20
-1.3393979814888302
30
0
10
8.3050014367377614
20
-1.2423986946023868
30
0
10
8.4371210065899263
20
-1.0684687628141076
30
0
0
LINE
5
179
100
AcDbEntity
8
0
100
AcDbLine
10
8.4371210065899263
20
-1.0684687628141076
30
0
11
10.614588120024067
21
1.4585301757148876
31
0
0
LINE
5
180
100
AcDbEntity
8
0
100
AcDbLine
10
10.614588120024067
20
1.4585301757148876
30
0
11
10.639674081997484
21
1.4903057381807263
31
0
0
SPLINE
5
181
100
AcDbEntity
8
0
100
AcDbSpline
70
4
71
3
72
8
73
4
74
0
42
0.000000001
43
0.0000000001
44
0.0000000001
40
0
40
0
40
0
40
0
40
1
40
1
40
1
40
1
41
1
41
1
41
1
41
1
10
10.63967408199748
20
1.4903057381807261
30
0
10
10.748212981568468
20
1.6391495485029295
30
0
10
10.883844579717206
20
1.6759422714649208
30
0
10
10.979004278303343
20
1.682631871957343
30
0
0
SPLINE
5
182
100
AcDbEntity
8
0
100
AcDbSpline
70
4
71
3
72
8
73
4
74
0
42
0.000000001
43
0.0000000001
44
0.0000000001
40
0
40
0
40
0
40
0
40
1
40
1
40
1
40
1
41
1
41
1
41
1
41
1
10
10.979004278303343
20
1.682631871957343
30
0
10
11.139555009106781
20
1.6926663524423047
30
0
10
11.301945168717861
20
1.6190807470256652
30
0
10
11.437409778055221
20
1.4735816572033444
30
0
0
LINE
5
183
100
AcDbEntity
8
0
100
AcDbLine
10
11.437409778055221
20
1.4735816572033444
30
0
11
13.775427303307481
21
-0.91126323098852491
31
0
0
LINE
5
184
100
AcDbEntity
8
0
100
AcDbLine
10
14.778868334126685
20
-1.9331004637960651
30
0
11
14.778868334126681
21
-0.50152468247656046
31
0
0
SPLINE
5
185
100
AcDbEntity
8
0
100
AcDbSpline
70
4
71
3
72
8
73
4
74
0
42
0.000000001
43
0.0000000001
44
0.0000000001
40
0
40
0
40
0
40
0
40
1
40
1
40
1
40
1
41
1
41
1
41
1
41
1
10
-2.111871429467238
20
3.7370347844765006
30
0
10
-1.9934801158585591
20
3.3073517734199975
30
0
10
-2.2456228463420436
20
2.8631783806025668
30
0
10
-2.6753058766188853
20
2.7447870616980752
30
0
0
SPLINE
5
186
100
AcDbEntity
8
0
100
AcDbSpline
70
4
71
3
72
8
73
4
74
0
42
0.000000001
43
0.0000000001
44
0.0000000001
40
0
40
0
40
0
40
0
40
1
40
1
40
1
40
1
41
1
41
1
41
1
41
1
10
-2.6753058766188853
20
2.7447870616980752
30
0
10
-3.1049888876753884
20
2.6263957480893985
30
0
10
-3.5492067210018607
20
2.8786996934924902
30
0
10
-3.6675980346105375
20
3.3083827045489933
30
0
0
SPLINE
5
187
100
AcDbEntity
8
0
100
AcDbSpline
70
4
71
3
72
8
73
4
74
0
42
0.000000001
43
0.0000000001
44
0.0000000001
40
0
40
0
40
0
40
0
40
1
40
1
40
1
40
1
41
1
41
1
41
1
41
1
10
-3.6675980346105375
20
3.3083827045489933
30
0
10
-3.7859449269305112
20
3.7379044953900697
30
0
10
-3.5336853875676422
20
4.1822835686430366
30
0
10
-3.1041635967265635
20
4.3006304609630135
30
0
0
SPLINE
5
188
100
AcDbEntity
8
0
100
AcDbSpline
70
4
71
3
72
8
73
4
74
0
42
0.000000001
43
0.0000000001
44
0.0000000001
40
0
40
0
40
0
40
0
40
1
40
1
40
1
40
1
41
1
41
1
41
1
41
1
10
-3.1041635967265635
20
4.3006304609630135
30
0
10
-2.674480566449724
20
4.4190217798675047
30
0
10
-2.2302627483717274
20
4.1667178147533424
30
0
10
-2.111871429467238
20
3.7370347844765006
30
0
0
SPLINE
5
189
100
AcDbEntity
8
0
100
AcDbSpline
70
4
71
3
72
8
73
4
74
0
42
0.000000001
43
0.0000000001
44
0.0000000001
40
0
40
0
40
0
40
0
40
1
40
1
40
1
40
1
41
1
41
1
41
1
41
1
10
-2.8223147061136133
20
5.6057204874406299
30
0
10
-2.7750017167007957
20
5.4340087005645676
30
0
10
-2.8758056103526619
20
5.2565266202855039
30
0
10
-3.0476342143723989
20
5.2090079834037359
30
0
0
SPLINE
5
190
100
AcDbEntity
8
0
100
AcDbSpline
70
4
71
3
72
8
73
4
74
0
42
0.000000001
43
0.0000000001
44
0.0000000001
40
0
40
0
40
0
40
0
40
1
40
1
40
1
40
1
41
1
41
1
41
1
41
1
10
-3.0476342143723989
20
5.2090079834037359
30
0
10
-3.2195072405169811
20
5.1616505665701613
30
0
10
-3.3970337342923917
20
5.2626157240067792
30
0
10
-3.4443467237052094
20
5.4343275108828424
30
0
0
SPLINE
5
191
100
AcDbEntity
8
0
100
AcDbSpline
70
4
71
3
72
8
73
4
74
0
42
0.000000001
43
0.0000000001
44
0.0000000001
40
0
40
0
40
0
40
0
40
1
40
1
40
1
40
1
41
1
41
1
41
1
41
1
10
-3.4443467237052094
20
5.4343275108828424
30
0
10
-3.4917041405387828
20
5.6062005370274228
30
0
10
-3.3907389923813325
20
5.7837270269536063
30
0
10
-3.2190271958951078
20
5.8310400190143818
30
0
0
SPLINE
5
192
100
AcDbEntity
8
0
100
AcDbSpline
70
4
71
3
72
8
73
4
74
0
42
0.000000001
43
0.0000000001
44
0.0000000001
40
0
40
0
40
0
40
0
40
1
40
1
40
1
40
1
41
1
41
1
41
1
41
1
10
-3.2190271958951078
20
5.8310400190143818
30
0
10
-3.0471541697505278
20
5.8783974358479547
30
0
10
-2.8696721229471867
20
5.7775935135852112
30
0
10
-2.8223147061136133
20
5.6057204874406299
30
0
0
SPLINE
5
193
100
AcDbEntity
8
0
100
AcDbSpline
70
4
71
3
72
8
73
4
74
0
42
0.000000001
43
0.0000000001
44
0.0000000001
40
0
40
0
40
0
40
0
40
1
40
1
40
1
40
1
41
1
41
1
41
1
41
1
10
-4.2003536626499338
20
6.1187348953142937
30
0
10
-4.1661619820568552
20
5.9945820655248214
30
0
10
-4.2389487288791772
20
5.8664669922566413
30
0
10
-4.3631015394476496
20
5.8322753169570234
30
0
0
SPLINE
5
194
100
AcDbEntity
8
0
100
AcDbSpline
70
4
71
3
72
8
73
4
74
0
42
0.000000001
43
0.0000000001
44
0.0000000001
40
0
40
0
40
0
40
0
40
1
40
1
40
1
40
1
41
1
41
1
41
1
41
1
10
-4.3631015394476496
20
5.8322753169570234
30
0
10
-4.487254354821375
20
5.7980836403340401
30
0
10
-4.6155306821667903
20
5.870825957116014
30
0
10
-4.6497223627598689
20
5.9949787869054871
30
0
0
SPLINE
5
195
100
AcDbEntity
8
0
100
AcDbSpline
70
4
71
3
72
8
73
4
74
0
42
0.000000001
43
0.0000000001
44
0.0000000001
40
0
40
0
40
0
40
0
40
1
40
1
40
1
40
1
41
1
41
1
41
1
41
1
10
-4.6497223627598689
20
5.9949787869054871
30
0
10
-4.6838696338569648
20
6.1189703621295122
30
0
10
-4.6111716954316373
20
6.2474079248289858
30
0
10
-4.4868132398492584
20
6.2814827679074181
30
0
0
SPLINE
5
196
100
AcDbEntity
8
0
100
AcDbSpline
70
4
71
3
72
8
73
4
74
0
42
0.000000001
43
0.0000000001
44
0.0000000001
40
0
40
0
40
0
40
0
40
1
40
1
40
1
40
1
41
1
41
1
41
1
41
1
10
-4.4868132398492584
20
6.2814827679074181
30
0
10
-4.3628660598789404
20
6.3157912793983186
30
0
10
-4.234706582904499
20
6.242843299033515
30
0
10
-4.2003536626499338
20
6.1187348953142937
30
0
0
SPLINE
5
197
100
AcDbEntity
8
0
100
AcDbSpline
70
4
71
3
72
8
73
4
74
0
42
0.000000001
43
0.0000000001
44
0.0000000001
40
0
40
0
40
0
40
0
40
1
40
1
40
1
40
1
41
1
41
1
41
1
41
1
10
-3.5055655549764286
20
7.1239304474651455
30
0
10
-3.4827218109276825
20
7.0403659980783999
30
0
10
-3.5316712647837645
20
6.9542000397220702
30
0
10
-3.6151468834449862
20
6.931033831310776
30
0
0
SPLINE
5
198
100
AcDbEntity
8
0
100
AcDbSpline
70
4
71
3
72
8
73
4
74
0
42
0.000000001
43
0.0000000001
44
0.0000000001
40
0
40
0
40
0
40
0
40
1
40
1
40
1
40
1
41
1
41
1
41
1
41
1
10
-3.6151468834449862
20
6.931033831310776
30
0
10
-3.6986669153108842
20
6.9080288660146998
30
0
10
-3.7848328832776046
20
6.9569783172236725
30
0
10
-3.8080435022464654
20
7.0406151693897261
30
0
0
SPLINE
5
199
100
AcDbEntity
8
0
100
AcDbSpline
70
4
71
3
72
8
73
4
74
0
42
0.000000001
43
0.0000000001
44
0.0000000001
40
0
40
0
40
0
40
0
40
1
40
1
40
1
40
1
41
1
41
1
41
1
41
1
10
-3.8080435022464654
20
7.0406151693897261
30
0
10
-3.831048466218987
20
7.1241351964504283
30
0
10
-3.7818209560689464
20
7.2105512287697584
30
0
10
-3.6984621625130742
20
7.2335117821847108
30
0
0
SPLINE
5
200
100
AcDbEntity
8
0
100
AcDbSpline
70
4
71
3
72
8
73
4
74
0
42
0.000000001
43
0.0000000001
44
0.0000000001
40
0
40
0
40
0
40
0
40
1
40
1
40
1
40
1
41
1
41
1
41
1
41
1
10
-3.6984621625130742
20
7.2335117821847108
30
0
10
-3.6148977194278298
20
7.256355511573358
30
0
10
-3.5286149308300696
20
7.2076117128358739
30
0
10
-3.5055655549764286
20
7.1239304474651455
30
0
0
SPLINE
5
201
100
AcDbEntity
8
0
100
AcDbSpline
70
4
71
3
72
8
73
4
74
0
42
0.000000001
43
0.0000000001
44
0.0000000001
40
0
40
0
40
0
40
0
40
1
40
1
40
1
40
1
41
1
41
1
41
1
41
1
10
-2.1131790028403663
20
4.9223136872532098
30
0
10
-2.0901740375442923
20
4.8387936553873097
30
0
10
-2.1392847196109854
20
4.7525832672526356
30
0
10
-2.2227603459690237
20
4.7294170774003419
30
0
0
SPLINE
5
202
100
AcDbEntity
8
0
100
AcDbSpline
70
4
71
3
72
8
73
4
74
0
42
0.000000001
43
0.0000000001
44
0.0000000001
40
0
40
0
40
0
40
0
40
1
40
1
40
1
40
1
41
1
41
1
41
1
41
1
10
-2.2227603459690237
20
4.7294170774003419
30
0
10
-2.3062803754323258
20
4.706412112766043
30
0
10
-2.3924463477152136
20
4.7553615421071278
30
0
10
-2.4156569597207977
20
4.8389984065306795
30
0
0
SPLINE
5
203
100
AcDbEntity
8
0
100
AcDbSpline
70
4
71
3
72
8
73
4
74
0
42
0.000000001
43
0.0000000001
44
0.0000000001
40
0
40
0
40
0
40
0
40
1
40
1
40
1
40
1
41
1
41
1
41
1
41
1
10
-2.4156569597207977
20
4.8389984065306795
30
0
10
-2.43850069151204
20
4.9225628489541462
30
0
10
-2.3895512412957354
20
5.0087288205247589
30
0
10
-2.3060756228863344
20
5.0318950204658357
30
0
0
SPLINE
5
204
100
AcDbEntity
8
0
100
AcDbSpline
70
4
71
3
72
8
73
4
74
0
42
0.000000001
43
0.0000000001
44
0.0000000001
40
0
40
0
40
0
40
0
40
1
40
1
40
1
40
1
41
1
41
1
41
1
41
1
10
-2.3060756228863344
20
5.0318950204658357
30
0
10
-2.2225111775639395
20
5.0547387511169095
30
0
10
-2.1362283786940095
20
5.0059949526239391
30
0
10
-2.1131790028403663
20
4.9223136872532098
30
0
0
SPLINE
5
205
100
AcDbEntity
8
0
100
AcDbSpline
70
4
71
3
72
8
73
4
74
0
42
0.000000001
43
0.0000000001
44
0.0000000001
40
0
40
0
40
0
40
0
40
1
40
1
40
1
40
1
41
1
41
1
41
1
41
1
10
1.1288253373120116
20
-0.19219095557425181
30
0
10
1.0865918819326037
20
-0.41840478979822127
30
0
10
0.86883793466197456
20
-0.56778581773511361
30
0
10
0.6426547764347057
20
-0.52538797192961839
30
0
0
SPLINE
5
206
100
AcDbEntity
8
0
100
AcDbSpline
70
4
71
3
72
8
73
4
74
0
42
0.000000001
43
0.0000000001
44
0.0000000001
40
0
40
0
40
0
40
0
40
1
40
1
40
1
40
1
41
1
41
1
41
1
41
1
10
0.6426547764347057
20
-0.52538797192961839
30
0
10
0.41624583933619119
20
-0.48328820896336611
30
0
10
0.26705986651955227
20
-0.26540058064505878
30
0
10
0.30929332189896241
20
-0.039186746421089325
30
0
0
SPLINE
5
207
100
AcDbEntity
8
0
100
AcDbSpline
70
4
71
3
72
8
73
4
74
0
42
0.000000001
43
0.0000000001
44
0.0000000001
40
0
40
0
40
0
40
0
40
1
40
1
40
1
40
1
41
1
41
1
41
1
41
1
10
0.30929332189896241
20
-0.039186746421089325
30
0
10
0.35155747529130199
20
0.18719151468072459
30
0
10
0.56908563217660468
20
0.33627445242127463
30
0
10
0.79549457646141075
20
0.29417470078902497
30
0
0
SPLINE
5
208
100
AcDbEntity
8
0
100
AcDbSpline
70
4
71
3
72
8
73
4
74
0
42
0.000000001
43
0.0000000001
44
0.0000000001
40
0
40
0
40
0
40
0
40
1
40
1
40
1
40
1
41
1
41
1
41
1
41
1
10
0.79549457646141075
20
0.29417470078902497
30
0
10
1.0218728277642453
20
0.25191054922612643
30
0
10
1.1711201813995231
20
0.034351693209488943
30
0
10
1.1288253373120116
20
-0.19219095557425181
30
0
0
SPLINE
5
209
100
AcDbEntity
8
0
100
AcDbSpline
70
4
71
3
72
8
73
4
74
0
42
0.000000001
43
0.0000000001
44
0.0000000001
40
0
40
0
40
0
40
0
40
1
40
1
40
1
40
1
41
1
41
1
41
1
41
1
10
3.0453247307986619
20
-0.11196731783751579
30
0
10
3.0126431851336655
20
-0.28705394763286707
30
0
10
2.8440875886879713
20
-0.40258260061460716
30
0
10
2.6688365457097274
20
-0.36987036570194531
30
0
0
SPLINE
5
210
100
AcDbEntity
8
0
100
AcDbSpline
70
4
71
3
72
8
73
4
74
0
42
0.000000001
43
0.0000000001
44
0.0000000001
40
0
40
0
40
0
40
0
40
1
40
1
40
1
40
1
41
1
41
1
41
1
41
1
10
2.6688365457097274
20
-0.36987036570194531
30
0
10
2.493749901215816
20
-0.33718881729332795
30
0
10
2.3782212714903173
20
-0.16863320490771994
30
0
10
2.4109028171553137
20
0.0064534248876335631
30
0
0
SPLINE
5
211
100
AcDbEntity
8
0
100
AcDbSpline
70
4
71
3
72
8
73
4
74
0
42
0.000000001
43
0.0000000001
44
0.0000000001
40
0
40
0
40
0
40
0
40
1
40
1
40
1
40
1
41
1
41
1
41
1
41
1
10
2.4109028171553137
20
0.0064534248876335631
30
0
10
2.443584362820308
20
0.18154005468298484
30
0
10
2.6121399573226034
20
0.29706869725324658
30
0
10
2.7872266018165148
20
0.26438714884462922
30
0
0
SPLINE
5
212
100
AcDbEntity
8
0
100
AcDbSpline
70
4
71
3
72
8
73
4
74
0
42
0.000000001
43
0.0000000001
44
0.0000000001
40
0
40
0
40
0
40
0
40
1
40
1
40
1
40
1
41
1
41
1
41
1
41
1
10
2.7872266018165148
20
0.26438714884462922
30
0
10
2.9624776447947609
20
0.23167491393196737
30
0
10
3.0778418877783631
20
0.063149996632798633
30
0
10
3.0453247307986619
20
-0.11196731783751579
30
0
0
SPLINE
5
213
100
AcDbEntity
8
0
100
AcDbSpline
70
4
71
3
72
8
73
4
74
0
42
0.000000001
43
0.0000000001
44
0.0000000001
40
0
40
0
40
0
40
0
40
1
40
1
40
1
40
1
41
1
41
1
41
1
41
1
10
4.652352507501698
20
-1.4697810037557768
30
0
10
4.6198435647208473
20
-1.6448999171877987
30
0
10
4.4511289048210489
20
-1.7604058367826259
30
0
10
4.275876257340574
20
-1.7277018026591384
30
0
0
SPLINE
5
214
100
AcDbEntity
8
0
100
AcDbSpline
70
4
71
3
72
8
73
4
74
0
42
0.000000001
43
0.0000000001
44
0.0000000001
40
0
40
0
40
0
40
0
40
1
40
1
40
1
40
1
41
1
41
1
41
1
41
1
10
4.275876257340574
20
-1.7277018026591384
30
0
10
4.1007573328671025
20
-1.6951928375370984
30
0
10
3.9852514328705357
20
-1.5264781812945416
30
0
10
4.0179247854399902
20
-1.3513899485022374
30
0
0
SPLINE
5
215
100
AcDbEntity
8
0
100
AcDbSpline
70
4
71
3
72
8
73
4
74
0
42
0.000000001
43
0.0000000001
44
0.0000000001
40
0
40
0
40
0
40
0
40
1
40
1
40
1
40
1
41
1
41
1
41
1
41
1
10
4.0179247854399902
20
-1.3513899485022374
30
0
10
4.0506288186491641
20
-1.1761373059213254
30
0
10
4.2191483861777312
20
-1.0607651258869644
30
0
10
4.3944010385577714
20
-1.0934691609247604
30
0
0
SPLINE
5
216
100
AcDbEntity
8
0
100
AcDbSpline
70
4
71
3
72
8
73
4
74
0
42
0.000000001
43
0.0000000001
44
0.0000000001
40
0
40
0
40
0
40
0
40
1
40
1
40
1
40
1
41
1
41
1
41
1
41
1
10
4.3944010385577714
20
-1.0934691609247604
30
0
10
4.5696843602926407
20
-1.1260087923071183
30
0
10
4.6850258600711552
20
-1.2946927709634726
30
0
10
4.652352507501698
20
-1.4697810037557768
30
0
0
SPLINE
5
217
100
AcDbEntity
8
0
100
AcDbSpline
70
4
71
3
72
8
73
4
74
0
42
0.000000001
43
0.0000000001
44
0.0000000001
40
0
40
0
40
0
40
0
40
1
40
1
40
1
40
1
41
1
41
1
41
1
41
1
10
2.0311098714565179
20
0.95288426419814387
30
0
10
2.0073281346768734
20
0.82632426912929269
30
0
10
1.8857962364938419
20
0.7430094988363134
30
0
10
1.7593393194455431
20
0.76643175785220619
30
0
0
SPLINE
5
218
100
AcDbEntity
8
0
100
AcDbSpline
70
4
71
3
72
8
73
4
74
0
42
0.000000001
43
0.0000000001
44
0.0000000001
40
0
40
0
40
0
40
0
40
1
40
1
40
1
40
1
41
1
41
1
41
1
41
1
10
1.7593393194455431
20
0.76643175785220619
30
0
10
1.632748670694304
20
0.79004907984889128
30
0
10
1.5493001374725712
20
0.91177603669806428
30
0
10
1.5729174631256249
20
1.0383667050477197
30
0
0
SPLINE
5
219
100
AcDbEntity
8
0
100
AcDbSpline
70
4
71
3
72
8
73
4
74
0
42
0.000000001
43
0.0000000001
44
0.0000000001
40
0
40
0
40
0
40
0
40
1
40
1
40
1
40
1
41
1
41
1
41
1
41
1
10
1.5729174631256249
20
1.0383667050477197
30
0
10
1.5963397221415176
20
1.1648236220960184
30
0
10
1.7182617796829147
20
1.2484058717460966
30
0
10
1.8448217565816205
20
1.2246241462784568
30
0
0
SPLINE
5
220
100
AcDbEntity
8
0
100
AcDbSpline
70
4
71
3
72
8
73
4
74
0
42
0.000000001
43
0.0000000001
44
0.0000000001
40
0
40
0
40
0
40
0
40
1
40
1
40
1
40
1
41
1
41
1
41
1
41
1
10
1.8448217565816205
20
1.2246241462784568
30
0
10
1.9714124053328619
20
1.2010068242817717
30
0
10
2.0546965220005831
20
1.0793105116220048
30
0
10
2.0311098714565179
20
0.95288426419814387
30
0
0
SPLINE
5
221
100
AcDbEntity
8
0
100
AcDbSpline
70
4
71
3
72
8
73
4
74
0
42
0.000000001
43
0.0000000001
44
0.0000000001
40
0
40
0
40
0
40
0
40
1
40
1
40
1
40
1
41
1
41
1
41
1
41
1
10
5.1447372180369548
20
-0.10225070372542611
30
0
10
5.1209554812573099
20
-0.22881069879427729
30
0
10
4.9994235830742788
20
-0.31212546908725436
30
0
10
4.8728022597989966
20
-0.28867253770465062
30
0
0
SPLINE
5
222
100
AcDbEntity
8
0
100
AcDbSpline
70
4
71
3
72
8
73
4
74
0
42
0.000000001
43
0.0000000001
44
0.0000000001
40
0
40
0
40
0
40
0
40
1
40
1
40
1
40
1
41
1
41
1
41
1
41
1
10
4.8728022597989966
20
-0.28867253770465062
30
0
10
4.7463760172747405
20
-0.2650858880746787
30
0
10
4.6629274840530073
20
-0.14335893122550569
30
0
10
4.6865448097060618
20
-0.016768262875848094
30
0
0
SPLINE
5
223
100
AcDbEntity
8
0
100
AcDbSpline
70
4
71
3
72
8
73
4
74
0
42
0.000000001
43
0.0000000001
44
0.0000000001
40
0
40
0
40
0
40
0
40
1
40
1
40
1
40
1
41
1
41
1
41
1
41
1
10
4.6865448097060618
20
-0.016768262875848094
30
0
10
4.7099670687219541
20
0.10968865417244844
30
0
10
4.8316940432842266
20
0.19313717363237615
30
0
10
4.9584491031620566
20
0.16948917835488686
30
0
0
SPLINE
5
224
100
AcDbEntity
8
0
100
AcDbSpline
70
4
71
3
72
8
73
4
74
0
42
0.000000001
43
0.0000000001
44
0.0000000001
40
0
40
0
40
0
40
0
40
1
40
1
40
1
40
1
41
1
41
1
41
1
41
1
10
4.9584491031620566
20
0.16948917835488686
30
0
10
5.0850397519132979
20
0.14587185635820177
30
0
10
5.1683238685810196
20
0.024175543698434776
30
0
10
5.1447372180369548
20
-0.10225070372542611
30
0
0
SPLINE
5
225
100
AcDbEntity
8
0
100
AcDbSpline
70
4
71
3
72
8
73
4
74
0
42
0.000000001
43
0.0000000001
44
0.0000000001
40
0
40
0
40
0
40
0
40
1
40
1
40
1
40
1
41
1
41
1
41
1
41
1
10
4.1123636374958021
20
0.32743946968853521
30
0
10
4.088581900716159
20
0.20087947461968625
30
0
10
3.9670500025331257
20
0.11756470432670696
30
0
10
3.8404286792578457
20
0.1410176357093107
30
0
0
SPLINE
5
226
100
AcDbEntity
8
0
100
AcDbSpline
70
4
71
3
72
8
73
4
74
0
42
0.000000001
43
0.0000000001
44
0.0000000001
40
0
40
0
40
0
40
0
40
1
40
1
40
1
40
1
41
1
41
1
41
1
41
1
10
3.8404286792578457
20
0.1410176357093107
30
0
10
3.7140024367335878
20
0.16460428533928262
30
0
10
3.630553903511855
20
0.28633124218845563
30
0
10
3.6541712291649109
20
0.41292191053811322
30
0
0
SPLINE
5
227
100
AcDbEntity
8
0
100
AcDbSpline
70
4
71
3
72
8
73
4
74
0
42
0.000000001
43
0.0000000001
44
0.0000000001
40
0
40
0
40
0
40
0
40
1
40
1
40
1
40
1
41
1
41
1
41
1
41
1
10
3.6541712291649109
20
0.41292191053811322
30
0
10
3.6775934881808037
20
0.53937882758640976
30
0
10
3.7993204627430766
20
0.62282734704633747
30
0
10
3.9260755226209065
20
0.5991793517688504
30
0
0
SPLINE
5
228
100
AcDbEntity
8
0
100
AcDbSpline
70
4
71
3
72
8
73
4
74
0
42
0.000000001
43
0.0000000001
44
0.0000000001
40
0
40
0
40
0
40
0
40
1
40
1
40
1
40
1
41
1
41
1
41
1
41
1
10
3.9260755226209065
20
0.5991793517688504
30
0
10
4.0526661713721452
20
0.57556202977216531
30
0
10
4.1359502880398669
20
0.45386571711239609
30
0
10
4.1123636374958021
20
0.32743946968853521
30
0
0
SPLINE
5
229
100
AcDbEntity
8
0
100
AcDbSpline
70
4
71
3
72
8
73
4
74
0
42
0.000000001
43
0.0000000001
44
0.0000000001
40
0
40
0
40
0
40
0
40
1
40
1
40
1
40
1
41
1
41
1
41
1
41
1
10
3.0959900407919427
20
1.5521419345201992
30
0
10
3.080103149773008
20
1.4669806895347581
30
0
10
2.9981722332162919
20
1.4108123018039276
30
0
10
2.9130109906806623
20
1.4266991923658501
30
0
0
SPLINE
5
230
100
AcDbEntity
8
0
100
AcDbSpline
70
4
71
3
72
8
73
4
74
0
42
0.000000001
43
0.0000000001
44
0.0000000001
40
0
40
0
40
0
40
0
40
1
40
1
40
1
40
1
41
1
41
1
41
1
41
1
10
2.9130109906806623
20
1.4266991923658501
30
0
10
2.8278497481450304
20
1.4425860829277704
30
0
10
2.7718457613292657
20
1.5244863253063401
30
0
10
2.7875682407198688
20
1.6096782413983646
30
0
0
SPLINE
5
231
100
AcDbEntity
8
0
100
AcDbSpline
70
4
71
3
72
8
73
4
74
0
42
0.000000001
43
0.0000000001
44
0.0000000001
40
0
40
0
40
0
40
0
40
1
40
1
40
1
40
1
41
1
41
1
41
1
41
1
10
2.7875682407198688
20
1.6096782413983646
30
0
10
2.8036195433671396
20
1.6948088152772223
30
0
10
2.8853553847735114
20
1.750843475964905
30
0
10
2.9705472969875579
20
1.7351209893756625
30
0
0
SPLINE
5
232
100
AcDbEntity
8
0
100
AcDbSpline
70
4
71
3
72
8
73
4
74
0
42
0.000000001
43
0.0000000001
44
0.0000000001
40
0
40
0
40
0
40
0
40
1
40
1
40
1
40
1
41
1
41
1
41
1
41
1
10
2.9705472969875579
20
1.7351209893756625
30
0
10
3.0558729462519052
20
1.7192034286211855
30
0
10
3.1118769318108774
20
1.6373031795056403
30
0
10
3.0959900407919427
20
1.5521419345201992
30
0
0
SPLINE
5
233
100
AcDbEntity
8
0
100
AcDbSpline
70
4
71
3
72
8
73
4
74
0
42
0.000000001
43
0.0000000001
44
0.0000000001
40
0
40
0
40
0
40
0
40
1
40
1
40
1
40
1
41
1
41
1
41
1
41
1
10
3.3831271645165328
20
-1.0369656255829218
30
0
10
3.3672626441406162
20
-1.1219609026031119
30
0
10
3.2854906439573095
20
-1.1781519878063507
30
0
10
3.2003002772646494
20
-1.1624211697450493
30
0
0
SPLINE
5
234
100
AcDbEntity
8
0
100
AcDbSpline
70
4
71
3
72
8
73
4
74
0
42
0.000000001
43
0.0000000001
44
0.0000000001
40
0
40
0
40
0
40
0
40
1
40
1
40
1
40
1
41
1
41
1
41
1
41
1
10
3.2003002772646494
20
-1.1624211697450493
30
0
10
3.1151405940763532
20
-1.1465259626639956
30
0
10
3.0591752988713039
20
-1.0644558489349398
30
0
10
3.0750398192472206
20
-0.97946057191474978
30
0
0
SPLINE
5
235
100
AcDbEntity
8
0
100
AcDbSpline
70
4
71
3
72
8
73
4
74
0
42
0.000000001
43
0.0000000001
44
0.0000000001
40
0
40
0
40
0
40
0
40
1
40
1
40
1
40
1
41
1
41
1
41
1
41
1
10
3.0750398192472206
20
-0.97946057191474978
30
0
10
3.0907706181676575
20
-0.89427019911429984
30
0
10
3.1728407327540631
20
-0.83830489931594032
30
0
10
3.2578667028570196
20
-0.85400502010126278
30
0
0
SPLINE
5
236
100
AcDbEntity
8
0
100
AcDbSpline
70
4
71
3
72
8
73
4
74
0
42
0.000000001
43
0.0000000001
44
0.0000000001
40
0
40
0
40
0
40
0
40
1
40
1
40
1
40
1
41
1
41
1
41
1
41
1
10
3.2578667028570196
20
-0.85400502010126278
30
0
10
3.343026386045318
20
-0.86990022718231641
30
0
10
3.3991867708736501
20
-0.95183662527823731
30
0
10
3.3831271645165328
20
-1.0369656255829218
30
0
0
SPLINE
5
237
100
AcDbEntity
8
0
100
AcDbSpline
70
4
71
3
72
8
73
4
74
0
42
0.000000001
43
0.0000000001
44
0.0000000001
40
0
40
0
40
0
40
0
40
1
40
1
40
1
40
1
41
1
41
1
41
1
41
1
10
10.143480781576617
20
-1.4827948699681781
30
0
10
10.119412417740801
20
-1.6116832430105332
30
0
10
9.9953608667147265
20
-1.6965513961222167
30
0
10
9.8666368997815201
20
-1.6725137331631212
30
0
0
SPLINE
5
238
100
AcDbEntity
8
0
100
AcDbSpline
70
4
71
3
72
8
73
4
74
0
42
0.000000001
43
0.0000000001
44
0.0000000001
40
0
40
0
40
0
40
0
40
1
40
1
40
1
40
1
41
1
41
1
41
1
41
1
10
9.8666368997815201
20
-1.6725137331631212
30
0
10
9.7377485267391606
20
-1.6484453693273027
30
0
10
9.6525208801302753
20
-1.524496826316597
30
0
10
9.6767536500752449
20
-1.3956391541509605
30
0
0
SPLINE
5
239
100
AcDbEntity
8
0
100
AcDbSpline
70
4
71
3
72
8
73
4
74
0
42
0.000000001
43
0.0000000001
44
0.0000000001
40
0
40
0
40
0
40
0
40
1
40
1
40
1
40
1
41
1
41
1
41
1
41
1
10
9.6767536500752449
20
-1.3956391541509605
30
0
10
9.7008220139110648
20
-1.2667507811086032
30
0
10
9.8249042447293
20
-1.1817182261897252
30
0
10
9.9536282165619649
20
-1.2057558900637355
30
0
0
SPLINE
5
240
100
AcDbEntity
8
0
100
AcDbSpline
70
4
71
3
72
8
73
4
74
0
42
0.000000001
43
0.0000000001
44
0.0000000001
40
0
40
0
40
0
40
0
40
1
40
1
40
1
40
1
41
1
41
1
41
1
41
1
10
9.9536282165619649
20
-1.2057558900637355
30
0
10
10.082516584704869
20
-1.2298242529846415
30
0
10
10.167549145412437
20
-1.3539064969258185
30
0
10
10.143480781576617
20
-1.4827948699681781
30
0
0
SPLINE
5
241
100
AcDbEntity
8
0
100
AcDbSpline
70
4
71
3
72
8
73
4
74
0
42
0.000000001
43
0.0000000001
44
0.0000000001
40
0
40
0
40
0
40
0
40
1
40
1
40
1
40
1
41
1
41
1
41
1
41
1
10
11.234756628968153
20
-1.4369644937890236
30
0
10
11.216151973057524
20
-1.5369300109761008
30
0
10
11.120069912973314
20
-1.6025730577943587
30
0
10
11.020433213283539
20
-1.5840295983499386
30
0
0
SPLINE
5
242
100
AcDbEntity
8
0
100
AcDbSpline
70
4
71
3
72
8
73
4
74
0
42
0.000000001
43
0.0000000001
44
0.0000000001
40
0
40
0
40
0
40
0
40
1
40
1
40
1
40
1
41
1
41
1
41
1
41
1
10
11.020433213283539
20
-1.5840295983499386
30
0
10
10.920467683846443
20
-1.56542494015945
30
0
10
10.854989049166015
20
-1.4693734941483028
30
0
10
10.873532506330573
20
-1.3697368067085436
30
0
0
SPLINE
5
243
100
AcDbEntity
8
0
100
AcDbSpline
70
4
71
3
72
8
73
4
74
0
42
0.000000001
43
0.0000000001
44
0.0000000001
40
0
40
0
40
0
40
0
40
1
40
1
40
1
40
1
41
1
41
1
41
1
41
1
10
10.873532506330573
20
-1.3697368067085436
30
0
10
10.892106566515945
20
-1.2699356847950938
30
0
10
10.987890383520718
20
-1.2040670109025076
30
0
10
11.087825315635808
20
-1.2228360865663834
30
0
0
SPLINE
5
244
100
AcDbEntity
8
0
100
AcDbSpline
70
4
71
3
72
8
73
4
74
0
42
0.000000001
43
0.0000000001
44
0.0000000001
40
0
40
0
40
0
40
0
40
1
40
1
40
1
40
1
41
1
41
1
41
1
41
1
10
11.087825315635808
20
-1.2228360865663834
30
0
10
11.187626427749242
20
-1.2414101449278658
30
0
10
11.253300088868547
20
-1.3373277916492432
30
0
10
11.234756628968153
20
-1.4369644937890236
30
0
0
SPLINE
5
245
100
AcDbEntity
8
0
100
AcDbSpline
70
4
71
3
72
8
73
4
74
0
42
0.000000001
43
0.0000000001
44
0.0000000001
40
0
40
0
40
0
40
0
40
1
40
1
40
1
40
1
41
1
41
1
41
1
41
1
10
10.657066447896044
20
-0.83085690797806588
30
0
10
10.643798409586198
20
-0.90289666362225462
30
0
10
10.574547873337409
20
-0.95037314535398876
30
0
10
10.502538797213958
20
-0.93694070716549005
30
0
0
SPLINE
5
246
100
AcDbEntity
8
0
100
AcDbSpline
70
4
71
3
72
8
73
4
74
0
42
0.000000001
43
0.0000000001
44
0.0000000001
40
0
40
0
40
0
40
0
40
1
40
1
40
1
40
1
41
1
41
1
41
1
41
1
10
10.502538797213958
20
-0.93694070716549005
30
0
10
10.430529721090513
20
-0.92350826897699134
30
0
10
10.382888814854789
20
-0.85422707649954299
30
0
10
10.396321255328203
20
-0.78221798812702525
30
0
0
SPLINE
5
247
100
AcDbEntity
8
0
100
AcDbSpline
70
4
71
3
72
8
73
4
74
0
42
0.000000001
43
0.0000000001
44
0.0000000001
40
0
40
0
40
0
40
0
40
1
40
1
40
1
40
1
41
1
41
1
41
1
41
1
10
10.396321255328203
20
-0.78221798812702525
30
0
10
10.409784360331393
20
-0.71004451228982246
30
0
10
10.47919930644241
20
-0.6625986837386133
30
0
10
10.551043977952471
20
-0.67600045419845767
30
0
0
SPLINE
5
248
100
AcDbEntity
8
0
100
AcDbSpline
70
4
71
3
72
8
73
4
74
0
42
0.000000001
43
0.0000000001
44
0.0000000001
40
0
40
0
40
0
40
0
40
1
40
1
40
1
40
1
41
1
41
1
41
1
41
1
10
10.551043977952471
20
-0.67600045419845767
30
0
10
10.623217458689304
20
-0.68946356011561072
30
0
10
10.670693955062802
20
-0.75871409941253631
30
0
10
10.657066447896044
20
-0.83085690797806588
30
0
0
SPLINE
5
249
100
AcDbEntity
8
0
100
AcDbSpline
70
4
71
3
72
8
73
4
74
0
42
0.000000001
43
0.0000000001
44
0.0000000001
40
0
40
0
40
0
40
0
40
1
40
1
40
1
40
1
41
1
41
1
41
1
41
1
10
11.842158134556957
20
-1.1868276709067205
30
0
10
11.828695026811872
20
-1.2590011614428098
30
0
10
11.75944449056308
20
-1.306477643174544
30
0
10
11.68743541443963
20
-1.2930452049860452
30
0
0
SPLINE
5
250
100
AcDbEntity
8
0
100
AcDbSpline
70
4
71
3
72
8
73
4
74
0
42
0.000000001
43
0.0000000001
44
0.0000000001
40
0
40
0
40
0
40
0
40
1
40
1
40
1
40
1
41
1
41
1
41
1
41
1
10
11.68743541443963
20
-1.2930452049860452
30
0
10
11.615590740479757
20
-1.2796434340692153
30
0
10
11.567949834244033
20
-1.210362241591767
30
0
10
11.581248539825548
20
-1.1381580837840088
30
0
0
SPLINE
5
251
100
AcDbEntity
8
0
100
AcDbSpline
70
4
71
3
72
8
73
4
74
0
42
0.000000001
43
0.0000000001
44
0.0000000001
40
0
40
0
40
0
40
0
40
1
40
1
40
1
40
1
41
1
41
1
41
1
41
1
10
11.581248539825548
20
-1.1381580837840088
30
0
10
11.594845379720638
20
-1.0661796773820487
30
0
10
11.664260325831656
20
-1.0187338488308373
30
0
10
11.736104999791532
20
-1.0321356197476672
30
0
0
SPLINE
5
252
100
AcDbEntity
8
0
100
AcDbSpline
70
4
71
3
72
8
73
4
74
0
42
0.000000001
43
0.0000000001
44
0.0000000001
40
0
40
0
40
0
40
0
40
1
40
1
40
1
40
1
41
1
41
1
41
1
41
1
10
11.736104999791532
20
-1.0321356197476672
30
0
10
11.808114075914977
20
-1.0455680579361659
30
0
10
11.855590572288474
20
-1.1148185972330915
30
0
10
11.842158134556957
20
-1.1868276709067205
30
0
0
SPLINE
5
253
100
AcDbEntity
8
0
100
AcDbSpline
70
4
71
3
72
8
73
4
74
0
42
0.000000001
43
0.0000000001
44
0.0000000001
40
0
40
0
40
0
40
0
40
1
40
1
40
1
40
1
41
1
41
1
41
1
41
1
10
11.263690777402857
20
-0.48954865440171691
30
0
10
11.254668483972821
20
-0.53788238676571565
30
0
10
11.207877933228003
20
-0.56980894771340385
30
0
10
11.15948283163898
20
-0.5611154520607764
30
0
0
SPLINE
5
254
100
AcDbEntity
8
0
100
AcDbSpline
70
4
71
3
72
8
73
4
74
0
42
0.000000001
43
0.0000000001
44
0.0000000001
40
0
40
0
40
0
40
0
40
1
40
1
40
1
40
1
41
1
41
1
41
1
41
1
10
11.15948283163898
20
-0.5611154520607764
30
0
10
11.111015388028328
20
-0.55189808266660645
30
0
10
11.079058130064187
20
-0.50527192595997805
30
0
10
11.088111111168931
20
-0.45677379527888418
30
0
0
SPLINE
5
255
100
AcDbEntity
8
0
100
AcDbSpline
70
4
71
3
72
8
73
4
74
0
42
0.000000001
43
0.0000000001
44
0.0000000001
40
0
40
0
40
0
40
0
40
1
40
1
40
1
40
1
41
1
41
1
41
1
41
1
10
11.088111111168931
20
-0.45677379527888418
30
0
10
11.097164090901819
20
-0.40827567194706482
30
0
10
11.143759558990581
20
-0.37648281735264355
30
0
10
11.192288376493051
20
-0.38537139792122366
30
0
0
SPLINE
5
256
100
AcDbEntity
8
0
100
AcDbSpline
70
4
71
3
72
8
73
4
74
0
42
0.000000001
43
0.0000000001
44
0.0000000001
40
0
40
0
40
0
40
0
40
1
40
1
40
1
40
1
41
1
41
1
41
1
41
1
10
11.192288376493051
20
-0.38537139792122366
30
0
10
11.240786503499507
20
-0.39442437834003918
30
0
10
11.272713069003743
20
-0.44121493183674865
30
0
10
11.263690777402857
20
-0.48954865440171691
30
0
0
SPLINE
5
257
100
AcDbEntity
8
0
100
AcDbSpline
70
4
71
3
72
8
73
4
74
0
42
0.000000001
43
0.0000000001
44
0.0000000001
40
0
40
0
40
0
40
0
40
1
40
1
40
1
40
1
41
1
41
1
41
1
41
1
10
-10.946253773505898
20
-1.7146375996539587
30
0
10
-10.852167764901196
20
-1.9462835509306742
30
0
10
-10.96392733055669
20
-2.2101255242761675
30
0
10
-11.195543955050214
20
-2.3038387514555647
30
0
0
SPLINE
5
258
100
AcDbEntity
8
0
100
AcDbSpline
70
4
71
3
72
8
73
4
74
0
42
0.000000001
43
0.0000000001
44
0.0000000001
40
0
40
0
40
0
40
0
40
1
40
1
40
1
40
1
41
1
41
1
41
1
41
1
10
-11.195543955050214
20
-2.3038387514555647
30
0
10
-11.427034937638245
20
-2.3978619382334498
30
0
10
-11.690969091052935
20
-2.2863201873114036
30
0
10
-11.784900121730876
20
-2.054611410462901
30
0
0
SPLINE
5
259
100
AcDbEntity
8
0
100
AcDbSpline
70
4
71
3
72
8
73
4
74
0
42
0.000000001
43
0.0000000001
44
0.0000000001
40
0
40
0
40
0
40
0
40
1
40
1
40
1
40
1
41
1
41
1
41
1
41
1
10
-11.784900121730876
20
-2.054611410462901
30
0
10
-11.878768326837035
20
-1.8230576115411612
30
0
10
-11.76722655831291
20
-1.5591234617470917
30
0
10
-11.535454928116231
20
-1.465347411181086
30
0
0
SPLINE
5
260
100
AcDbEntity
8
0
100
AcDbSpline
70
4
71
3
72
8
73
4
74
0
42
0.000000001
43
0.0000000001
44
0.0000000001
40
0
40
0
40
0
40
0
40
1
40
1
40
1
40
1
41
1
41
1
41
1
41
1
10
-11.535454928116231
20
-1.465347411181086
30
0
10
-11.303963959447483
20
-1.3713242166005757
30
0
10
-11.040121978612056
20
-1.4830838007322167
30
0
10
-10.946253773505898
20
-1.7146375996539587
30
0
0
SPLINE
5
261
100
AcDbEntity
8
0
100
AcDbSpline
70
4
71
3
72
8
73
4
74
0
42
0.000000001
43
0.0000000001
44
0.0000000001
40
0
40
0
40
0
40
0
40
1
40
1
40
1
40
1
41
1
41
1
41
1
41
1
10
-9.241579050308987
20
-0.51949490410651444
30
0
10
-9.1688962156316052
20
-0.69882217304490846
30
0
10
-9.2552625542295477
20
-0.9029133672061751
30
0
10
-9.4345270353448125
20
-0.97575119522412601
30
0
0
SPLINE
5
262
100
AcDbEntity
8
0
100
AcDbSpline
70
4
71
3
72
8
73
4
74
0
42
0.000000001
43
0.0000000001
44
0.0000000001
40
0
40
0
40
0
40
0
40
1
40
1
40
1
40
1
41
1
41
1
41
1
41
1
10
-9.4345270353448125
20
-0.97575119522412601
30
0
10
-9.613917147536279
20
-1.0482790590271551
30
0
10
-9.8180083416975421
20
-0.96191272042921216
30
0
10
-9.8906911763749239
20
-0.78258545149081371
30
0
0
SPLINE
5
263
100
AcDbEntity
8
0
100
AcDbSpline
70
4
71
3
72
8
73
4
74
0
42
0.000000001
43
0.0000000001
44
0.0000000001
40
0
40
0
40
0
40
0
40
1
40
1
40
1
40
1
41
1
41
1
41
1
41
1
10
-9.8906911763749239
20
-0.78258545149081371
30
0
10
-9.9633112067473135
20
-0.60341313694491028
30
0
10
-9.8768526886586177
20
-0.39910413721194971
30
0
10
-9.6977725590974195
20
-0.32670192539395071
30
0
0
SPLINE
5
264
100
AcDbEntity
8
0
100
AcDbSpline
70
4
71
3
72
8
73
4
74
0
42
0.000000001
43
0.0000000001
44
0.0000000001
40
0
40
0
40
0
40
0
40
1
40
1
40
1
40
1
41
1
41
1
41
1
41
1
10
-9.6977725590974195
20
-0.32670192539395071
30
0
10
-9.5185080919009408
20
-0.2538640895724642
30
0
10
-9.314354062788837
20
-0.34038540509871096
30
0
10
-9.241579050308987
20
-0.51949490410651444
30
0
0
SPLINE
5
265
100
AcDbEntity
8
0
100
AcDbSpline
70
4
71
3
72
8
73
4
74
0
42
0.000000001
43
0.0000000001
44
0.0000000001
40
0
40
0
40
0
40
0
40
1
40
1
40
1
40
1
41
1
41
1
41
1
41
1
10
-6.9778915273330524
20
-0.819942258173183
30
0
10
-6.9051793416244109
20
-0.99889674735855527
30
0
10
-6.9915750497302582
20
-1.2033607287615822
30
0
10
-7.1709023371453
20
-1.2760435709277007
30
0
0
SPLINE
5
266
100
AcDbEntity
8
0
100
AcDbSpline
70
4
71
3
72
8
73
4
74
0
42
0.000000001
43
0.0000000001
44
0.0000000001
40
0
40
0
40
0
40
0
40
1
40
1
40
1
40
1
41
1
41
1
41
1
41
1
10
-7.1709023371453
20
-1.2760435709277007
30
0
10
-7.3500746424528813
20
-1.3486635975557215
30
0
10
-7.5543208037441314
20
-1.2623601114491723
30
0
10
-7.6268486712915271
20
-1.0829699900193823
30
0
0
SPLINE
5
267
100
AcDbEntity
8
0
100
AcDbSpline
70
4
71
3
72
8
73
4
74
0
42
0.000000001
43
0.0000000001
44
0.0000000001
40
0
40
0
40
0
40
0
40
1
40
1
40
1
40
1
41
1
41
1
41
1
41
1
10
-7.6268486712915271
20
-1.0829699900193823
30
0
10
-7.6996236762826387
20
-0.90386050948822572
30
0
10
-7.613227995078268
20
-0.69939651478770903
30
0
10
-7.4340556897706875
20
-0.62677648815969045
30
0
0
SPLINE
5
268
100
AcDbEntity
8
0
100
AcDbSpline
70
4
71
3
72
8
73
4
74
0
42
0.000000001
43
0.0000000001
44
0.0000000001
40
0
40
0
40
0
40
0
40
1
40
1
40
1
40
1
41
1
41
1
41
1
41
1
10
-7.4340556897706875
20
-0.62677648815969045
30
0
10
-7.2547284023556458
20
-0.55409364599357191
30
0
10
-7.0505743732435411
20
-0.64061496151981645
30
0
10
-6.9778915273330524
20
-0.819942258173183
30
0
0
SPLINE
5
269
100
AcDbEntity
8
0
100
AcDbSpline
70
4
71
3
72
8
73
4
74
0
42
0.000000001
43
0.0000000001
44
0.0000000001
40
0
40
0
40
0
40
0
40
1
40
1
40
1
40
1
41
1
41
1
41
1
41
1
10
-10.791931930871501
20
-0.14010387909471733
30
0
10
-10.739480364125583
20
-0.2695245817711478
30
0
10
-10.801885281691773
20
-0.41698270045294805
30
0
10
-10.931243172676348
20
-0.46958925081137748
30
0
0
SPLINE
5
270
100
AcDbEntity
8
0
100
AcDbSpline
70
4
71
3
72
8
73
4
74
0
42
0.000000001
43
0.0000000001
44
0.0000000001
40
0
40
0
40
0
40
0
40
1
40
1
40
1
40
1
41
1
41
1
41
1
41
1
10
-10.931243172676348
20
-0.46958925081137748
30
0
10
-11.060663870733574
20
-0.5220408156852252
30
0
10
-11.208121984796165
20
-0.45963589624696821
30
0
10
-11.260636363233939
20
-0.33006020995802299
30
0
0
SPLINE
5
271
100
AcDbEntity
8
0
100
AcDbSpline
70
4
71
3
72
8
73
4
74
0
42
0.000000001
43
0.0000000001
44
0.0000000001
40
0
40
0
40
0
40
0
40
1
40
1
40
1
40
1
41
1
41
1
41
1
41
1
10
-11.260636363233939
20
-0.33006020995802299
30
0
10
-11.313150741671711
20
-0.20048452366907554
30
0
10
-11.250745824980587
20
-0.053026416097761153
30
0
10
-11.121262310551332
20
-0.00072984638444406613
30
0
0
SPLINE
5
272
100
AcDbEntity
8
0
100
AcDbSpline
70
4
71
3
72
8
73
4
74
0
42
0.000000001
43
0.0000000001
44
0.0000000001
40
0
40
0
40
0
40
0
40
1
40
1
40
1
40
1
41
1
41
1
41
1
41
1
10
-11.121262310551332
20
-0.00072984638444406613
30
0
10
-10.991904424246933
20
0.051876715522003458
30
0
10
-10.844446309309275
20
-0.010528192805772107
30
0
10
-10.791931930871501
20
-0.14010387909471733
30
0
0
SPLINE
5
273
100
AcDbEntity
8
0
100
AcDbSpline
70
4
71
3
72
8
73
4
74
0
42
0.000000001
43
0.0000000001
44
0.0000000001
40
0
40
0
40
0
40
0
40
1
40
1
40
1
40
1
41
1
41
1
41
1
41
1
10
-7.3284883169303114
20
0.71813923456494289
30
0
10
-7.2760367501843941
20
0.58871853188851242
30
0
10
-7.3384416677505824
20
0.44126041320671439
30
0
10
-7.4677995587351589
20
0.38865386284828274
30
0
0
SPLINE
5
274
100
AcDbEntity
8
0
100
AcDbSpline
70
4
71
3
72
8
73
4
74
0
42
0.000000001
43
0.0000000001
44
0.0000000001
40
0
40
0
40
0
40
0
40
1
40
1
40
1
40
1
41
1
41
1
41
1
41
1
10
-7.4677995587351589
20
0.38865386284828274
30
0
10
-7.597220256792383
20
0.33620229797443724
30
0
10
-7.7447411825468304
20
0.39876220102520898
30
0
10
-7.7971927492927486
20
0.52818290370163945
30
0
0
SPLINE
5
275
100
AcDbEntity
8
0
100
AcDbSpline
70
4
71
3
72
8
73
4
74
0
42
0.000000001
43
0.0000000001
44
0.0000000001
40
0
40
0
40
0
40
0
40
1
40
1
40
1
40
1
41
1
41
1
41
1
41
1
10
-7.7971927492927486
20
0.52818290370163945
30
0
10
-7.8497071277305208
20
0.65775858999058467
30
0
10
-7.7873022110394006
20
0.80521669756190128
30
0
10
-7.6578186966101427
20
0.85751326727521615
30
0
0
SPLINE
5
276
100
AcDbEntity
8
0
100
AcDbSpline
70
4
71
3
72
8
73
4
74
0
42
0.000000001
43
0.0000000001
44
0.0000000001
40
0
40
0
40
0
40
0
40
1
40
1
40
1
40
1
41
1
41
1
41
1
41
1
10
-7.6578186966101427
20
0.85751326727521615
30
0
10
-7.5284608103057424
20
0.9101198291816659
30
0
10
-7.3810026953680836
20
0.84771492085388811
30
0
10
-7.3284883169303114
20
0.71813923456494289
30
0
0
SPLINE
5
277
100
AcDbEntity
8
0
100
AcDbSpline
70
4
71
3
72
8
73
4
74
0
42
0.000000001
43
0.0000000001
44
0.0000000001
40
0
40
0
40
0
40
0
40
1
40
1
40
1
40
1
41
1
41
1
41
1
41
1
10
-8.5235992242762926
20
0.50665178076051198
30
0
10
-8.4711476575303752
20
0.37723107808407708
30
0
10
-8.5334897634047078
20
0.2296179757897665
30
0
10
-8.66291046608114
20
0.17716640904384962
30
0
0
SPLINE
5
278
100
AcDbEntity
8
0
100
AcDbSpline
70
4
71
3
72
8
73
4
74
0
42
0.000000001
43
0.0000000001
44
0.0000000001
40
0
40
0
40
0
40
0
40
1
40
1
40
1
40
1
41
1
41
1
41
1
41
1
10
-8.66291046608114
20
0.17716640904384962
30
0
10
-8.7923311641383641
20
0.12471484417000189
30
0
10
-8.9399442710518837
20
0.18705694817226393
30
0
10
-8.9924586494896559
20
0.31663263446120915
30
0
0
SPLINE
5
279
100
AcDbEntity
8
0
100
AcDbSpline
70
4
71
3
72
8
73
4
74
0
42
0.000000001
43
0.0000000001
44
0.0000000001
40
0
40
0
40
0
40
0
40
1
40
1
40
1
40
1
41
1
41
1
41
1
41
1
10
-8.9924586494896559
20
0.31663263446120915
30
0
10
-9.044910216235575
20
0.44605333713764184
30
0
10
-8.982350306693526
20
0.5935742601449534
30
0
10
-8.8529296086363001
20
0.6460258250187989
30
0
0
SPLINE
5
280
100
AcDbEntity
8
0
100
AcDbSpline
70
4
71
3
72
8
73
4
74
0
42
0.000000001
43
0.0000000001
44
0.0000000001
40
0
40
0
40
0
40
0
40
1
40
1
40
1
40
1
41
1
41
1
41
1
41
1
10
-8.8529296086363001
20
0.6460258250187989
30
0
10
-8.7235089059598678
20
0.69847739176471801
30
0
10
-8.5758958074096956
20
0.63613529512879907
30
0
10
-8.5235992242762926
20
0.50665178076051198
30
0
0
SPLINE
5
281
100
AcDbEntity
8
0
100
AcDbSpline
70
4
71
3
72
8
73
4
74
0
42
0.000000001
43
0.0000000001
44
0.0000000001
40
0
40
0
40
0
40
0
40
1
40
1
40
1
40
1
41
1
41
1
41
1
41
1
10
-10.169313590942419
20
1.0310175945962774
30
0
10
-10.134156455461554
20
0.94385150293251563
30
0
10
-10.176086992146068
20
0.8447429797683581
30
0
10
-10.263282393375125
20
0.80921302353591962
30
0
0
SPLINE
5
282
100
AcDbEntity
8
0
100
AcDbSpline
70
4
71
3
72
8
73
4
74
0
42
0.000000001
43
0.0000000001
44
0.0000000001
40
0
40
0
40
0
40
0
40
1
40
1
40
1
40
1
41
1
41
1
41
1
41
1
10
-10.263282393375125
20
0.80921302353591962
30
0
10
-10.350448480419885
20
0.77405588992762064
30
0
10
-10.449557009076909
20
0.81598641362899516
30
0
10
-10.485024125784115
20
0.90302683722802257
30
0
0
SPLINE
5
283
100
AcDbEntity
8
0
100
AcDbSpline
70
4
71
3
72
8
73
4
74
0
42
0.000000001
43
0.0000000001
44
0.0000000001
40
0
40
0
40
0
40
0
40
1
40
1
40
1
40
1
41
1
41
1
41
1
41
1
10
-10.485024125784115
20
0.90302683722802257
30
0
10
-10.520244100790215
20
0.99034790652181126
30
0
10
-10.478376402819487
20
1.0896114318466443
30
0
10
-10.391273151679663
20
1.1249235606871144
30
0
0
SPLINE
5
284
100
AcDbEntity
8
0
100
AcDbSpline
70
4
71
3
72
8
73
4
74
0
42
0.000000001
43
0.0000000001
44
0.0000000001
40
0
40
0
40
0
40
0
40
1
40
1
40
1
40
1
41
1
41
1
41
1
41
1
10
-10.391273151679663
20
1.1249235606871144
30
0
10
-10.303952081449591
20
1.1601435333837129
30
0
10
-10.204688551942686
20
1.118275831730271
30
0
10
-10.169313590942419
20
1.0310175945962774
30
0
0
SPLINE
5
285
100
AcDbEntity
8
0
100
AcDbSpline
70
4
71
3
72
8
73
4
74
0
42
0.000000001
43
0.0000000001
44
0.0000000001
40
0
40
0
40
0
40
0
40
1
40
1
40
1
40
1
41
1
41
1
41
1
41
1
10
-8.3911008752792693
20
-1.1671318060331126
30
0
10
-8.355772676197045
20
-1.254228567314819
30
0
10
-8.3978399264555499
20
-1.3534077350747276
30
0
10
-8.4849366923559177
20
-1.3887359360303719
30
0
0
SPLINE
5
286
100
AcDbEntity
8
0
100
AcDbSpline
70
4
71
3
72
8
73
4
74
0
42
0.000000001
43
0.0000000001
44
0.0000000001
40
0
40
0
40
0
40
0
40
1
40
1
40
1
40
1
41
1
41
1
41
1
41
1
10
-8.4849366923559177
20
-1.3887359360303719
30
0
10
-8.5721884327110303
20
-1.4241269977435156
30
0
10
-8.6713047304761233
20
-1.3822147181929134
30
0
10
-8.7064779551036011
20
-1.2950550961537055
30
0
0
SPLINE
5
287
100
AcDbEntity
8
0
100
AcDbSpline
70
4
71
3
72
8
73
4
74
0
42
0.000000001
43
0.0000000001
44
0.0000000001
40
0
40
0
40
0
40
0
40
1
40
1
40
1
40
1
41
1
41
1
41
1
41
1
10
-8.7064779551036011
20
-1.2950550961537055
30
0
10
-8.7418690186901653
20
-1.2078033511799324
30
0
10
-8.6998646314660419
20
-1.1084692166120269
30
0
10
-8.6127050043398192
20
-1.0732959912657902
30
0
0
SPLINE
5
288
100
AcDbEntity
8
0
100
AcDbSpline
70
4
71
3
72
8
73
4
74
0
42
0.000000001
43
0.0000000001
44
0.0000000001
40
0
40
0
40
0
40
0
40
1
40
1
40
1
40
1
41
1
41
1
41
1
41
1
10
-8.6127050043398192
20
-1.0732959912657902
30
0
10
-8.5257632175128553
20
-1.0380306529410666
30
0
10
-8.4264919388658317
20
-1.0798800610593395
30
0
10
-8.3911008752792693
20
-1.1671318060331126
30
0
0
ENDSEC
0
SECTION
2
OBJECTS
0
DICTIONARY
5
C
100
AcDbDictionary
3
ACAD_GROUP
350
D
3
ACAD_MLINESTYLE
350
17
0
DICTIONARY
5
D
100
AcDbDictionary
0
DICTIONARY
5
1A
330
C
100
AcDbDictionary
0
DICTIONARY
5
17
100
AcDbDictionary
0
ENDSEC
0
EOF
