M48
; DRILL file {KiCad 9.0.0-rc3} date 2025-04-05T20:55:47-0500
; FORMAT={-:-/ absolute / metric / decimal}
; #@! TF.CreationDate,2025-04-05T20:55:47-05:00
; #@! TF.GenerationSoftware,Kicad,Pcbnew,9.0.0-rc3
; #@! TF.FileFunction,Plated,1,2,PTH
FMAT,2
METRIC
; #@! TA.AperFunction,Plated,PTH,ComponentDrill
T1C0.200
; #@! TA.AperFunction,Plated,PTH,ViaDrill
T2C0.300
; #@! TA.AperFunction,Plated,PTH,ComponentDrill
T3C0.650
; #@! TA.AperFunction,Plated,PTH,ComponentDrill
T4C0.750
; #@! TA.AperFunction,Plated,PTH,ComponentDrill
T5C0.800
; #@! TA.AperFunction,Plated,PTH,ComponentDrill
T6C0.900
; #@! TA.AperFunction,Plated,PTH,ComponentDrill
T7C1.000
; #@! TA.AperFunction,Plated,PTH,ComponentDrill
T8C1.100
; #@! TA.AperFunction,Plated,PTH,ComponentDrill
T9C1.200
%
G90
G05
T1
X149.964Y-54.23
X149.964Y-55.33
X150.514Y-53.68
X150.514Y-54.78
X150.514Y-55.88
X151.064Y-54.23
X151.064Y-55.33
X151.614Y-53.68
X151.614Y-54.78
X151.614Y-55.88
X152.165Y-54.23
X152.165Y-55.33
T2
X105.5Y-52.53
X108.554Y-81.34
X109.702Y-83.54
X116.159Y-51.26
X117.173Y-50.465
X119.0Y-48.72
X119.0Y-54.305
X130.0Y-51.47
X130.0Y-64.242
X131.557Y-83.94
X133.141Y-114.19
X139.827Y-70.177
X140.0Y-76.981
X141.877Y-125.77
X142.616Y-50.29
X142.731Y-54.745
X147.804Y-98.667
X150.464Y-80.753
X154.566Y-61.02
X156.348Y-83.94
X156.656Y-47.992
X157.583Y-50.482
X157.6Y-54.241
X157.602Y-60.378
X157.936Y-114.764
X158.992Y-66.268
X159.131Y-122.26
X159.906Y-79.383
X160.111Y-48.255
X160.574Y-63.711
X161.171Y-125.117
X162.325Y-48.604
X162.422Y-76.73
X163.046Y-63.057
X167.0Y-107.659
X168.552Y-52.112
X168.552Y-61.474
X168.802Y-126.315
X169.267Y-89.044
X169.54Y-54.863
X170.196Y-132.227
X171.5Y-51.109
X171.5Y-58.35
X172.0Y-122.229
X173.137Y-56.284
X175.625Y-128.042
X197.833Y-81.176
X204.063Y-63.991
T3
X105.0Y-78.73
X105.0Y-82.23
X106.27Y-78.73
X106.27Y-82.23
X113.465Y-46.18
X113.465Y-47.45
X113.465Y-48.72
X113.465Y-49.99
X113.465Y-51.26
X113.465Y-52.53
X132.464Y-131.18
X133.734Y-131.18
X135.005Y-131.18
X136.274Y-131.18
X137.5Y-50.73
X137.5Y-52.0
X137.5Y-53.27
X137.5Y-54.54
X137.5Y-55.81
X137.5Y-57.08
X137.5Y-58.35
X137.5Y-59.62
X137.5Y-60.89
X137.544Y-131.18
X138.814Y-131.18
X159.0Y-90.73
X159.0Y-92.0
X162.409Y-143.73
X162.409Y-152.73
X163.679Y-143.73
X163.679Y-152.73
X164.95Y-143.73
X164.95Y-152.73
X169.0Y-90.23
X170.27Y-90.23
X171.54Y-90.23
X172.81Y-90.23
X177.0Y-124.23
X177.0Y-125.5
X180.0Y-76.73
X181.0Y-35.96
X181.0Y-37.23
X181.0Y-60.96
X181.0Y-62.23
X181.27Y-76.73
X192.0Y-59.73
X193.27Y-59.73
X199.0Y-59.73
X200.0Y-65.46
X200.0Y-66.73
X200.27Y-59.73
T4
X105.36Y-114.19
X105.36Y-115.46
X105.36Y-116.73
X105.36Y-123.23
X105.36Y-124.5
X105.36Y-125.77
X116.46Y-141.023
X116.46Y-149.523
X117.73Y-141.023
X117.73Y-149.523
X119.0Y-141.023
X119.0Y-149.523
X133.23Y-140.883
X133.23Y-149.383
X134.5Y-140.883
X134.5Y-149.383
X135.77Y-140.883
X135.77Y-149.383
T5
X105.19Y-149.473
X105.5Y-36.23
X111.0Y-108.73
X111.0Y-116.35
X111.0Y-123.23
X111.0Y-130.85
X111.5Y-77.23
X112.5Y-63.23
X112.5Y-70.73
X112.5Y-83.11
X112.5Y-90.73
X112.5Y-93.61
X112.5Y-101.23
X112.81Y-149.473
X113.12Y-36.23
X113.5Y-77.23
X119.5Y-71.48
X119.5Y-78.98
X122.38Y-140.523
X122.38Y-149.023
X124.38Y-99.23
X130.0Y-140.523
X130.0Y-149.023
X132.0Y-99.23
X134.19Y-90.73
X139.19Y-148.023
X141.81Y-90.73
X146.5Y-66.73
X146.81Y-148.023
X149.5Y-75.23
X151.5Y-75.23
X154.0Y-66.73
X164.0Y-59.73
X164.0Y-67.23
X165.5Y-49.23
X165.5Y-56.85
X166.0Y-130.23
X166.5Y-136.73
X173.62Y-130.23
X174.0Y-136.73
X175.75Y-113.98
X177.5Y-129.61
X177.5Y-137.23
X181.0Y-39.61
X181.0Y-47.23
X181.0Y-50.73
X181.0Y-58.35
X181.0Y-135.23
X181.5Y-92.92
X181.5Y-100.54
X188.62Y-135.23
X189.25Y-113.98
X192.5Y-75.73
X192.5Y-82.73
X194.0Y-90.23
X194.035Y-98.23
X198.895Y-107.98
X198.895Y-115.48
X199.0Y-90.23
X199.0Y-142.48
X199.0Y-149.98
X199.035Y-98.23
X200.12Y-75.73
X200.12Y-82.73
T6
X104.5Y-88.68
X104.5Y-97.23
X107.04Y-88.68
X107.04Y-97.23
X149.225Y-91.73
X151.765Y-91.73
X181.464Y-84.915
X181.464Y-87.455
X184.0Y-126.19
X184.0Y-128.73
X193.225Y-67.23
X195.765Y-67.23
T7
X157.96Y-126.73
X157.96Y-129.27
X157.96Y-131.81
X160.5Y-126.73
X160.5Y-129.27
X160.5Y-131.81
T8
X106.0Y-141.523
X108.54Y-141.523
X111.08Y-141.523
X140.5Y-141.523
X143.04Y-141.523
X145.58Y-141.523
X199.5Y-126.15
X199.5Y-128.69
X199.5Y-131.23
T9
X119.392Y-82.73
X119.392Y-100.73
X180.0Y-107.73
X180.0Y-120.23
X185.0Y-107.73
X185.0Y-120.23
M30
