%TF.GenerationSoftware,KiCad,Pcbnew,9.0.0-rc3*%
%TF.CreationDate,2025-04-05T20:51:13-05:00*%
%TF.ProjectId,Brine,4272696e-652e-46b6-9963-61645f706362,Dev Board 01*%
%TF.SameCoordinates,Original*%
%TF.FileFunction,Copper,L2,Bot*%
%TF.FilePolarity,Positive*%
%FSLAX46Y46*%
G04 Gerber Fmt 4.6, Leading zero omitted, Abs format (unit mm)*
G04 Created by KiCad (PCBNEW 9.0.0-rc3) date 2025-04-05 20:51:13*
%MOMM*%
%LPD*%
G01*
G04 APERTURE LIST*
G04 Aperture macros list*
%AMRoundRect*
0 Rectangle with rounded corners*
0 $1 Rounding radius*
0 $2 $3 $4 $5 $6 $7 $8 $9 X,Y pos of 4 corners*
0 Add a 4 corners polygon primitive as box body*
4,1,4,$2,$3,$4,$5,$6,$7,$8,$9,$2,$3,0*
0 Add four circle primitives for the rounded corners*
1,1,$1+$1,$2,$3*
1,1,$1+$1,$4,$5*
1,1,$1+$1,$6,$7*
1,1,$1+$1,$8,$9*
0 Add four rect primitives between the rounded corners*
20,1,$1+$1,$2,$3,$4,$5,0*
20,1,$1+$1,$4,$5,$6,$7,0*
20,1,$1+$1,$6,$7,$8,$9,0*
20,1,$1+$1,$8,$9,$2,$3,0*%
G04 Aperture macros list end*
%TA.AperFunction,ComponentPad*%
%ADD10O,2.000000X1.905000*%
%TD*%
%TA.AperFunction,ComponentPad*%
%ADD11R,2.000000X1.905000*%
%TD*%
%TA.AperFunction,ComponentPad*%
%ADD12C,1.600000*%
%TD*%
%TA.AperFunction,ComponentPad*%
%ADD13O,1.600000X1.600000*%
%TD*%
%TA.AperFunction,ComponentPad*%
%ADD14O,1.000000X1.000000*%
%TD*%
%TA.AperFunction,ComponentPad*%
%ADD15R,1.000000X1.000000*%
%TD*%
%TA.AperFunction,ComponentPad*%
%ADD16C,1.800000*%
%TD*%
%TA.AperFunction,ComponentPad*%
%ADD17R,1.800000X1.800000*%
%TD*%
%TA.AperFunction,ComponentPad*%
%ADD18O,2.400000X2.400000*%
%TD*%
%TA.AperFunction,ComponentPad*%
%ADD19R,2.400000X2.400000*%
%TD*%
%TA.AperFunction,ComponentPad*%
%ADD20C,2.159000*%
%TD*%
%TA.AperFunction,ComponentPad*%
%ADD21C,1.676400*%
%TD*%
%TA.AperFunction,HeatsinkPad*%
%ADD22C,0.600000*%
%TD*%
%TA.AperFunction,ComponentPad*%
%ADD23R,1.050000X1.500000*%
%TD*%
%TA.AperFunction,ComponentPad*%
%ADD24O,1.050000X1.500000*%
%TD*%
%TA.AperFunction,ComponentPad*%
%ADD25R,1.500000X1.050000*%
%TD*%
%TA.AperFunction,ComponentPad*%
%ADD26O,1.500000X1.050000*%
%TD*%
%TA.AperFunction,ComponentPad*%
%ADD27RoundRect,0.250000X0.600000X0.600000X-0.600000X0.600000X-0.600000X-0.600000X0.600000X-0.600000X0*%
%TD*%
%TA.AperFunction,ComponentPad*%
%ADD28C,1.700000*%
%TD*%
%TA.AperFunction,ComponentPad*%
%ADD29R,1.905000X2.000000*%
%TD*%
%TA.AperFunction,ComponentPad*%
%ADD30O,1.905000X2.000000*%
%TD*%
%TA.AperFunction,ViaPad*%
%ADD31C,0.600000*%
%TD*%
%TA.AperFunction,Conductor*%
%ADD32C,0.200000*%
%TD*%
G04 APERTURE END LIST*
D10*
%TO.P,U3,3,VO*%
%TO.N,ESP32_3.3*%
X199500000Y-126150000D03*
%TO.P,U3,2,GND*%
%TO.N,GND*%
X199500000Y-128690000D03*
D11*
%TO.P,U3,1,VI*%
%TO.N,+5V*%
X199500000Y-131230000D03*
%TD*%
D12*
%TO.P,C11,2*%
%TO.N,GND*%
X111500000Y-77230000D03*
%TO.P,C11,1*%
%TO.N,Net-(U4-V3)*%
X113500000Y-77230000D03*
%TD*%
D13*
%TO.P,R17,2*%
%TO.N,Net-(D5-K)*%
X112500000Y-93610000D03*
D12*
%TO.P,R17,1*%
%TO.N,Net-(J11-Pin_2)*%
X112500000Y-101230000D03*
%TD*%
D14*
%TO.P,USB-C1,6,Pin_6*%
%TO.N,CC2*%
X113464500Y-52530000D03*
%TO.P,USB-C1,5,Pin_5*%
%TO.N,D+*%
X113464500Y-51260000D03*
%TO.P,USB-C1,4,Pin_4*%
%TO.N,D-*%
X113464500Y-49990000D03*
%TO.P,USB-C1,3,Pin_3*%
%TO.N,CC1*%
X113464500Y-48720000D03*
%TO.P,USB-C1,2,Pin_2*%
%TO.N,GND*%
X113464500Y-47450000D03*
D15*
%TO.P,USB-C1,1,Pin_1*%
%TO.N,V_USB*%
X113464500Y-46180000D03*
%TD*%
D13*
%TO.P,C10,2*%
%TO.N,GND*%
X112500000Y-63230000D03*
D12*
%TO.P,C10,1*%
%TO.N,ESP32_3.3*%
X112500000Y-70730000D03*
%TD*%
D14*
%TO.P,J10,2,Pin_2*%
%TO.N,Net-(J10-Pin_2)*%
X106270000Y-82230000D03*
D15*
%TO.P,J10,1,Pin_1*%
%TO.N,ESP32_RX*%
X105000000Y-82230000D03*
%TD*%
D16*
%TO.P,D5,2,A*%
%TO.N,ESP32_3.3*%
X107040000Y-97230000D03*
D17*
%TO.P,D5,1,K*%
%TO.N,Net-(D5-K)*%
X104500000Y-97230000D03*
%TD*%
D18*
%TO.P,C9,2*%
%TO.N,GND*%
X119392500Y-82730000D03*
D19*
%TO.P,C9,1*%
%TO.N,V_USB*%
X119392500Y-100730000D03*
%TD*%
D13*
%TO.P,R16,2*%
%TO.N,Net-(D4-K)*%
X112500000Y-83110000D03*
D12*
%TO.P,R16,1*%
%TO.N,Net-(J10-Pin_2)*%
X112500000Y-90730000D03*
%TD*%
D13*
%TO.P,C8,2*%
%TO.N,GND*%
X119500000Y-78980000D03*
D12*
%TO.P,C8,1*%
%TO.N,V_USB*%
X119500000Y-71480000D03*
%TD*%
D16*
%TO.P,D4,2,A*%
%TO.N,ESP32_3.3*%
X107040000Y-88680000D03*
D17*
%TO.P,D4,1,K*%
%TO.N,Net-(D4-K)*%
X104500000Y-88680000D03*
%TD*%
D14*
%TO.P,J11,2,Pin_2*%
%TO.N,Net-(J11-Pin_2)*%
X106270000Y-78730000D03*
D15*
%TO.P,J11,1,Pin_1*%
%TO.N,ESP32_TX*%
X105000000Y-78730000D03*
%TD*%
D12*
%TO.P,R8,1*%
%TO.N,ESP32_SCL*%
X181000000Y-47230000D03*
D13*
%TO.P,R8,2*%
%TO.N,Net-(J8-Pin_1)*%
X181000000Y-39610000D03*
%TD*%
D15*
%TO.P,J8,1,Pin_1*%
%TO.N,Net-(J8-Pin_1)*%
X181000000Y-37230000D03*
D14*
%TO.P,J8,2,Pin_2*%
%TO.N,ESP32_3.3*%
X181000000Y-35960000D03*
%TD*%
D12*
%TO.P,R9,1*%
%TO.N,ESP32_SDA*%
X181000000Y-58350000D03*
D13*
%TO.P,R9,2*%
%TO.N,Net-(J9-Pin_1)*%
X181000000Y-50730000D03*
%TD*%
D15*
%TO.P,J9,1,Pin_1*%
%TO.N,Net-(J9-Pin_1)*%
X181000000Y-62230000D03*
D14*
%TO.P,J9,2,Pin_2*%
%TO.N,ESP32_3.3*%
X181000000Y-60960000D03*
%TD*%
D20*
%TO.P,SW1,1,1*%
%TO.N,GND*%
X185000000Y-107730000D03*
%TO.P,SW1,2*%
%TO.N,N/C*%
X185000000Y-120230000D03*
%TO.P,SW1,3,3*%
%TO.N,BUTTON*%
X180000000Y-107730000D03*
%TO.P,SW1,4*%
%TO.N,N/C*%
X180000000Y-120230000D03*
D21*
%TO.P,SW1,A,A*%
%TO.N,BUTTON_LED*%
X175750000Y-113980000D03*
%TO.P,SW1,C,C*%
%TO.N,GND*%
X189250000Y-113980000D03*
%TD*%
D15*
%TO.P,J14,1,Pin_1*%
%TO.N,ALT*%
X162409500Y-152730000D03*
D14*
%TO.P,J14,2,Pin_2*%
%TO.N,GND*%
X163679500Y-152730000D03*
%TO.P,J14,3,Pin_3*%
%TO.N,ESP32_3.3*%
X164949500Y-152730000D03*
%TD*%
D15*
%TO.P,J13,1,Pin_1*%
%TO.N,ESP32_SDA*%
X164949500Y-143730000D03*
D14*
%TO.P,J13,3,Pin_3*%
%TO.N,QST*%
X162409500Y-143730000D03*
%TO.P,J13,2,Pin_2*%
%TO.N,ESP32_SCL*%
X163679500Y-143730000D03*
%TD*%
D16*
%TO.P,D3,2,A*%
%TO.N,ESP32_3.3*%
X181464500Y-84915000D03*
D17*
%TO.P,D3,1,K*%
%TO.N,Net-(D3-K)*%
X181464500Y-87455000D03*
%TD*%
%TO.P,D6,1,K*%
%TO.N,Net-(D6-K)*%
X184000000Y-128730000D03*
D16*
%TO.P,D6,2,A*%
%TO.N,ATTINY_STAT*%
X184000000Y-126190000D03*
%TD*%
D14*
%TO.P,J7,2,Pin_2*%
%TO.N,Net-(J7-Pin_2)*%
X181270000Y-76730000D03*
D15*
%TO.P,J7,1,Pin_1*%
%TO.N,GND*%
X180000000Y-76730000D03*
%TD*%
D12*
%TO.P,R20,1*%
%TO.N,ATTINY_INT*%
X177500000Y-137230000D03*
D13*
%TO.P,R20,2*%
%TO.N,ESP32_3.3*%
X177500000Y-129610000D03*
%TD*%
%TO.P,R4,2*%
%TO.N,Net-(D1-K)*%
X141810000Y-90730000D03*
D12*
%TO.P,R4,1*%
%TO.N,Net-(J3-Pin_2)*%
X134190000Y-90730000D03*
%TD*%
D13*
%TO.P,C4,2*%
%TO.N,GND*%
X154000000Y-66730000D03*
D12*
%TO.P,C4,1*%
%TO.N,ESP32_3.3*%
X146500000Y-66730000D03*
%TD*%
D22*
%TO.P,U1,19,GND*%
%TO.N,GND*%
X152164500Y-55330000D03*
X152164500Y-54230000D03*
X151614500Y-55880000D03*
X151614500Y-54780000D03*
X151614500Y-53680000D03*
X151064500Y-55330000D03*
X151064500Y-54230000D03*
X150514500Y-55880000D03*
X150514500Y-54780000D03*
X150514500Y-53680000D03*
X149964500Y-55330000D03*
X149964500Y-54230000D03*
%TD*%
D23*
%TO.P,Q5,1,E*%
%TO.N,V_USB*%
X116460000Y-141022800D03*
D24*
%TO.P,Q5,2,B*%
%TO.N,Net-(Q5-B)*%
X117730000Y-141022800D03*
%TO.P,Q5,3,C*%
%TO.N,Net-(Q5-C)*%
X119000000Y-141022800D03*
%TD*%
D12*
%TO.P,R18,1*%
%TO.N,ATTINY_RST*%
X188620000Y-135230000D03*
D13*
%TO.P,R18,2*%
%TO.N,ESP32_3.3*%
X181000000Y-135230000D03*
%TD*%
D12*
%TO.P,R5,1*%
%TO.N,GND*%
X192500000Y-75730000D03*
D13*
%TO.P,R5,2*%
%TO.N,Net-(U2-PROG)*%
X200120000Y-75730000D03*
%TD*%
D12*
%TO.P,C5,2*%
%TO.N,GND*%
X151500000Y-75230000D03*
%TO.P,C5,1*%
%TO.N,ESP32_3.3*%
X149500000Y-75230000D03*
%TD*%
D16*
%TO.P,D1,2,A*%
%TO.N,ESP32_IO18_SCK*%
X151765000Y-91730000D03*
D17*
%TO.P,D1,1,K*%
%TO.N,Net-(D1-K)*%
X149225000Y-91730000D03*
%TD*%
D25*
%TO.P,Q2,1,E*%
%TO.N,ESP32_0*%
X105360000Y-125770000D03*
D26*
%TO.P,Q2,2,B*%
%TO.N,Net-(Q2-B)*%
X105360000Y-124500000D03*
%TO.P,Q2,3,C*%
%TO.N,DTR*%
X105360000Y-123230000D03*
%TD*%
D12*
%TO.P,R14,1*%
%TO.N,GND*%
X124380000Y-99230000D03*
D13*
%TO.P,R14,2*%
%TO.N,CC1*%
X132000000Y-99230000D03*
%TD*%
D27*
%TO.P,J15,1,MISO*%
%TO.N,ATTINY_MISO*%
X160500000Y-131810000D03*
D28*
%TO.P,J15,2,VCC*%
%TO.N,ESP32_3.3*%
X157960000Y-131810000D03*
%TO.P,J15,3,SCK*%
%TO.N,ATTINY_SCK*%
X160500000Y-129270000D03*
%TO.P,J15,4,MOSI*%
%TO.N,ATTINY_SDA*%
X157960000Y-129270000D03*
%TO.P,J15,5,~{RST}*%
%TO.N,ATTINY_RST*%
X160500000Y-126730000D03*
%TO.P,J15,6,GND*%
%TO.N,GND*%
X157960000Y-126730000D03*
%TD*%
D15*
%TO.P,J2,1,Pin_1*%
%TO.N,GND*%
X132464500Y-131180000D03*
D14*
%TO.P,J2,2,Pin_2*%
%TO.N,ESP32_3.3*%
X133734500Y-131180000D03*
%TO.P,J2,3,Pin_3*%
%TO.N,ESP32_SDA*%
X135004500Y-131180000D03*
%TO.P,J2,4,Pin_4*%
%TO.N,ESP32_SCL*%
X136274500Y-131180000D03*
%TO.P,J2,5,Pin_5*%
%TO.N,INT*%
X137544500Y-131180000D03*
%TO.P,J2,6,Pin_6*%
%TO.N,SHUT*%
X138814500Y-131180000D03*
%TD*%
D12*
%TO.P,C7,1*%
%TO.N,+5V*%
X198895000Y-107980000D03*
D13*
%TO.P,C7,2*%
%TO.N,GND*%
X198895000Y-115480000D03*
%TD*%
D25*
%TO.P,Q1,1,E*%
%TO.N,RTS*%
X105360000Y-116730000D03*
D26*
%TO.P,Q1,2,B*%
%TO.N,Net-(Q1-B)*%
X105360000Y-115460000D03*
%TO.P,Q1,3,C*%
%TO.N,ESP32_EN*%
X105360000Y-114190000D03*
%TD*%
D13*
%TO.P,R6,2*%
%TO.N,Net-(D2-A)*%
X200120000Y-82730000D03*
D12*
%TO.P,R6,1*%
%TO.N,Net-(J4-Pin_2)*%
X192500000Y-82730000D03*
%TD*%
%TO.P,R2,1*%
%TO.N,Net-(Q1-B)*%
X111000000Y-108730000D03*
D13*
%TO.P,R2,2*%
%TO.N,DTR*%
X111000000Y-116350000D03*
%TD*%
D12*
%TO.P,R19,1*%
%TO.N,Net-(J16-Pin_2)*%
X173620000Y-130230000D03*
D13*
%TO.P,R19,2*%
%TO.N,Net-(D6-K)*%
X166000000Y-130230000D03*
%TD*%
D15*
%TO.P,J6,1,Pin_1*%
%TO.N,V_BATT*%
X199000000Y-59730000D03*
D14*
%TO.P,J6,2,Pin_2*%
%TO.N,GND*%
X200270000Y-59730000D03*
%TD*%
D12*
%TO.P,R12,1*%
%TO.N,GND*%
X105190000Y-149472800D03*
D13*
%TO.P,R12,2*%
%TO.N,Net-(Q3-G)*%
X112810000Y-149472800D03*
%TD*%
D23*
%TO.P,Q7,1,E*%
%TO.N,5V_CHG*%
X116460000Y-149522800D03*
D24*
%TO.P,Q7,2,B*%
%TO.N,Net-(Q5-B)*%
X117730000Y-149522800D03*
%TO.P,Q7,3,C*%
%TO.N,Net-(Q3-G)*%
X119000000Y-149522800D03*
%TD*%
D12*
%TO.P,R11,1*%
%TO.N,GND*%
X122380000Y-149022800D03*
D13*
%TO.P,R11,2*%
%TO.N,Net-(Q6-C)*%
X130000000Y-149022800D03*
%TD*%
D15*
%TO.P,J4,1,Pin_1*%
%TO.N,Net-(J4-Pin_1)*%
X200000000Y-66730000D03*
D14*
%TO.P,J4,2,Pin_2*%
%TO.N,Net-(J4-Pin_2)*%
X200000000Y-65460000D03*
%TD*%
D12*
%TO.P,C2,2*%
%TO.N,5V_CHG*%
X199000000Y-90230000D03*
%TO.P,C2,1*%
%TO.N,GND*%
X194000000Y-90230000D03*
%TD*%
D13*
%TO.P,R7,2*%
%TO.N,Net-(D3-K)*%
X181500000Y-92920000D03*
D12*
%TO.P,R7,1*%
%TO.N,Net-(J7-Pin_2)*%
X181500000Y-100540000D03*
%TD*%
D14*
%TO.P,J3,2,Pin_2*%
%TO.N,Net-(J3-Pin_2)*%
X159000000Y-92000000D03*
D15*
%TO.P,J3,1,Pin_1*%
%TO.N,GND*%
X159000000Y-90730000D03*
%TD*%
D23*
%TO.P,Q6,1,E*%
%TO.N,5V_EXT*%
X133230000Y-140882800D03*
D24*
%TO.P,Q6,2,B*%
%TO.N,Net-(Q6-B)*%
X134500000Y-140882800D03*
%TO.P,Q6,3,C*%
%TO.N,Net-(Q6-C)*%
X135770000Y-140882800D03*
%TD*%
D17*
%TO.P,D2,1,K*%
%TO.N,5V_CHG*%
X193225000Y-67230000D03*
D16*
%TO.P,D2,2,A*%
%TO.N,Net-(D2-A)*%
X195765000Y-67230000D03*
%TD*%
D14*
%TO.P,J1,4,Pin_4*%
%TO.N,ESP32_SCL*%
X172810000Y-90230000D03*
%TO.P,J1,3,Pin_3*%
%TO.N,ESP32_SDA*%
X171540000Y-90230000D03*
%TO.P,J1,2,Pin_2*%
%TO.N,ESP32_3.3*%
X170270000Y-90230000D03*
D15*
%TO.P,J1,1,Pin_1*%
%TO.N,GND*%
X169000000Y-90230000D03*
%TD*%
D29*
%TO.P,Q4,1,G*%
%TO.N,Net-(Q4-G)*%
X140500000Y-141522800D03*
D30*
%TO.P,Q4,2,D*%
%TO.N,5V_EXT*%
X143040000Y-141522800D03*
%TO.P,Q4,3,S*%
%TO.N,5V_CHG*%
X145580000Y-141522800D03*
%TD*%
D12*
%TO.P,R10,1*%
%TO.N,GND*%
X122380000Y-140522800D03*
D13*
%TO.P,R10,2*%
%TO.N,Net-(Q5-C)*%
X130000000Y-140522800D03*
%TD*%
D29*
%TO.P,Q3,1,G*%
%TO.N,Net-(Q3-G)*%
X106000000Y-141522800D03*
D30*
%TO.P,Q3,2,D*%
%TO.N,V_USB*%
X108540000Y-141522800D03*
%TO.P,Q3,3,S*%
%TO.N,5V_CHG*%
X111080000Y-141522800D03*
%TD*%
D12*
%TO.P,R3,1*%
%TO.N,Net-(Q2-B)*%
X111000000Y-130850000D03*
D13*
%TO.P,R3,2*%
%TO.N,RTS*%
X111000000Y-123230000D03*
%TD*%
D12*
%TO.P,C12,1*%
%TO.N,ESP32_3.3*%
X174000000Y-136730000D03*
D13*
%TO.P,C12,2*%
%TO.N,GND*%
X166500000Y-136730000D03*
%TD*%
D14*
%TO.P,J5,2,Pin_2*%
%TO.N,GND*%
X193270000Y-59730000D03*
D15*
%TO.P,J5,1,Pin_1*%
%TO.N,V_BATT*%
X192000000Y-59730000D03*
%TD*%
D12*
%TO.P,C6,1*%
%TO.N,ESP32_3.3*%
X199000000Y-142480000D03*
D13*
%TO.P,C6,2*%
%TO.N,GND*%
X199000000Y-149980000D03*
%TD*%
D23*
%TO.P,Q8,1,E*%
%TO.N,5V_CHG*%
X133230000Y-149382800D03*
D24*
%TO.P,Q8,2,B*%
%TO.N,Net-(Q6-B)*%
X134500000Y-149382800D03*
%TO.P,Q8,3,C*%
%TO.N,Net-(Q4-G)*%
X135770000Y-149382800D03*
%TD*%
D15*
%TO.P,J16,1,Pin_1*%
%TO.N,GND*%
X177000000Y-124230000D03*
D14*
%TO.P,J16,2,Pin_2*%
%TO.N,Net-(J16-Pin_2)*%
X177000000Y-125500000D03*
%TD*%
D12*
%TO.P,R15,1*%
%TO.N,GND*%
X113120000Y-36230000D03*
D13*
%TO.P,R15,2*%
%TO.N,CC2*%
X105500000Y-36230000D03*
%TD*%
D14*
%TO.P,J12,9,Pin_9*%
%TO.N,ESP32_IO19*%
X137500000Y-60890000D03*
%TO.P,J12,8,Pin_8*%
%TO.N,ESP32_IO10*%
X137500000Y-59620000D03*
%TO.P,J12,7,Pin_7*%
%TO.N,ESP32_IO9*%
X137500000Y-58350000D03*
%TO.P,J12,6,Pin_6*%
%TO.N,ESP32_IO8*%
X137500000Y-57080000D03*
%TO.P,J12,5,Pin_5*%
%TO.N,ESP32_IO7*%
X137500000Y-55810000D03*
%TO.P,J12,4,Pin_4*%
%TO.N,ESP32_IO5*%
X137500000Y-54540000D03*
%TO.P,J12,3,Pin_3*%
%TO.N,ESP32_IO4*%
X137500000Y-53270000D03*
%TO.P,J12,2,Pin_2*%
%TO.N,ESP32_IO1*%
X137500000Y-52000000D03*
D15*
%TO.P,J12,1,Pin_1*%
%TO.N,ESP32_IO0*%
X137500000Y-50730000D03*
%TD*%
D13*
%TO.P,R1,2*%
%TO.N,ESP32_3.3*%
X165500000Y-56850000D03*
D12*
%TO.P,R1,1*%
%TO.N,ESP32_EN*%
X165500000Y-49230000D03*
%TD*%
D13*
%TO.P,C1,2*%
%TO.N,GND*%
X164000000Y-59730000D03*
D12*
%TO.P,C1,1*%
%TO.N,ESP32_EN*%
X164000000Y-67230000D03*
%TD*%
%TO.P,R13,1*%
%TO.N,GND*%
X139190000Y-148022800D03*
D13*
%TO.P,R13,2*%
%TO.N,Net-(Q4-G)*%
X146810000Y-148022800D03*
%TD*%
D12*
%TO.P,C3,2*%
%TO.N,GND*%
X199035500Y-98230000D03*
%TO.P,C3,1*%
%TO.N,V_BATT*%
X194035500Y-98230000D03*
%TD*%
D31*
%TO.N,BUTTON_LED*%
X157935600Y-114764100D03*
%TO.N,ATTINY_SDA*%
X159131300Y-122259600D03*
X172000000Y-122229000D03*
%TO.N,ATTINY_MISO*%
X170195700Y-132227000D03*
%TO.N,BUTTON*%
X167000000Y-107658600D03*
%TO.N,D+*%
X116158900Y-51260000D03*
%TO.N,D-*%
X117173300Y-50465100D03*
%TO.N,ESP32_TX*%
X150464500Y-80753100D03*
%TO.N,ESP32_RX*%
X159906200Y-79383100D03*
X108553900Y-81339900D03*
%TO.N,ATTINY_INT*%
X161171200Y-125117200D03*
X175625400Y-128041700D03*
%TO.N,Net-(J10-Pin_2)*%
X109702000Y-83540100D03*
%TO.N,CC2*%
X119000000Y-54305200D03*
X105500000Y-52530000D03*
%TO.N,CC1*%
X119000000Y-48720000D03*
%TO.N,ESP32_0*%
X141876600Y-125770000D03*
X168551700Y-52111800D03*
X142731500Y-54744900D03*
%TO.N,ESP32_IO19*%
X154565900Y-61019800D03*
X163046200Y-63057200D03*
%TO.N,ESP32_IO1*%
X157583400Y-50481700D03*
%TO.N,ESP32_IO8*%
X169539900Y-54863400D03*
%TO.N,ESP32_IO9*%
X171500000Y-58350000D03*
%TO.N,ESP32_IO7*%
X171500000Y-51109100D03*
%TO.N,ESP32_IO0*%
X160110500Y-48254600D03*
%TO.N,ESP32_IO10*%
X157602100Y-60377700D03*
X168551700Y-61474400D03*
%TO.N,ESP32_SDA*%
X157600100Y-54241100D03*
X173137200Y-56284300D03*
X130000000Y-51469600D03*
X156656100Y-47991900D03*
%TO.N,ESP32_SCL*%
X162325100Y-48603800D03*
X160574100Y-63710600D03*
X130000000Y-64241800D03*
%TO.N,ATTINY_STAT*%
X168801700Y-126314800D03*
%TO.N,ESP32_IO18_SCK*%
X169266800Y-89044000D03*
%TO.N,Net-(J4-Pin_2)*%
X197833400Y-81175800D03*
%TO.N,ESP32_3.3*%
X140000000Y-76980800D03*
%TO.N,5V_CHG*%
X204063300Y-63991500D03*
X147804400Y-98666600D03*
%TO.N,ESP32_EN*%
X158992100Y-66268300D03*
X142616200Y-50290000D03*
X131556800Y-83940100D03*
X156348300Y-83940100D03*
X133140700Y-114190000D03*
%TO.N,GND*%
X139827300Y-70176900D03*
X162422400Y-76730000D03*
%TD*%
D32*
%TO.N,BUTTON_LED*%
X174965900Y-114764100D02*
X157935600Y-114764100D01*
X175750000Y-113980000D02*
X174965900Y-114764100D01*
%TO.N,ATTINY_SDA*%
X159161900Y-122229000D02*
X159131300Y-122259600D01*
X172000000Y-122229000D02*
X159161900Y-122229000D01*
%TO.N,ATTINY_MISO*%
X160917000Y-132227000D02*
X170195700Y-132227000D01*
X160500000Y-131810000D02*
X160917000Y-132227000D01*
%TO.N,BUTTON*%
X167071400Y-107730000D02*
X167000000Y-107658600D01*
X180000000Y-107730000D02*
X167071400Y-107730000D01*
%TO.N,D+*%
X113464500Y-51260000D02*
X116158900Y-51260000D01*
%TO.N,D-*%
X113464500Y-49990000D02*
X114266200Y-49990000D01*
X114741300Y-50465100D02*
X117173300Y-50465100D01*
X114266200Y-49990000D02*
X114741300Y-50465100D01*
%TO.N,ESP32_TX*%
X150449600Y-80738200D02*
X150464500Y-80753100D01*
X107008200Y-80738200D02*
X150449600Y-80738200D01*
X105000000Y-78730000D02*
X107008200Y-80738200D01*
%TO.N,ESP32_RX*%
X108680500Y-81213300D02*
X108553900Y-81339900D01*
X120386300Y-81213300D02*
X108680500Y-81213300D01*
X120541300Y-81368300D02*
X120386300Y-81213300D01*
X157921000Y-81368300D02*
X120541300Y-81368300D01*
X159906200Y-79383100D02*
X157921000Y-81368300D01*
X105890100Y-81339900D02*
X105000000Y-82230000D01*
X108553900Y-81339900D02*
X105890100Y-81339900D01*
%TO.N,ATTINY_INT*%
X164095700Y-128041700D02*
X161171200Y-125117200D01*
X175625400Y-128041700D02*
X164095700Y-128041700D01*
%TO.N,ATTINY_RST*%
X165395300Y-131625300D02*
X160500000Y-126730000D01*
X185015300Y-131625300D02*
X165395300Y-131625300D01*
X188620000Y-135230000D02*
X185015300Y-131625300D01*
%TO.N,Net-(J10-Pin_2)*%
X108381800Y-83540100D02*
X109702000Y-83540100D01*
X107071700Y-82230000D02*
X108381800Y-83540100D01*
X106270000Y-82230000D02*
X107071700Y-82230000D01*
%TO.N,CC2*%
X116041400Y-54305200D02*
X119000000Y-54305200D01*
X114266200Y-52530000D02*
X116041400Y-54305200D01*
X113464500Y-52530000D02*
X114266200Y-52530000D01*
X113464500Y-52530000D02*
X105500000Y-52530000D01*
%TO.N,CC1*%
X113464500Y-48720000D02*
X119000000Y-48720000D01*
%TO.N,Net-(Q5-C)*%
X127796000Y-141625100D02*
X128898300Y-140522800D01*
X120429000Y-141625100D02*
X127796000Y-141625100D01*
X119826700Y-141022800D02*
X120429000Y-141625100D01*
X119000000Y-141022800D02*
X119826700Y-141022800D01*
X130000000Y-140522800D02*
X128898300Y-140522800D01*
%TO.N,5V_EXT*%
X134160200Y-142864700D02*
X133230000Y-141934500D01*
X141541300Y-142864700D02*
X134160200Y-142864700D01*
X141785800Y-142620200D02*
X141541300Y-142864700D01*
X141785800Y-141522800D02*
X141785800Y-142620200D01*
X143040000Y-141522800D02*
X141785800Y-141522800D01*
X133230000Y-140882800D02*
X133230000Y-141934500D01*
%TO.N,Net-(Q4-G)*%
X136596700Y-149028000D02*
X136596700Y-149382800D01*
X138718400Y-146906300D02*
X136596700Y-149028000D01*
X144591800Y-146906300D02*
X138718400Y-146906300D01*
X145708300Y-148022800D02*
X144591800Y-146906300D01*
X146810000Y-148022800D02*
X145708300Y-148022800D01*
X135770000Y-149382800D02*
X136596700Y-149382800D01*
%TO.N,Net-(Q3-G)*%
X114913400Y-148471100D02*
X113911700Y-149472800D01*
X119000000Y-148471100D02*
X114913400Y-148471100D01*
X119000000Y-149522800D02*
X119000000Y-148471100D01*
X112810000Y-149472800D02*
X113911700Y-149472800D01*
%TO.N,ESP32_0*%
X105360000Y-125770000D02*
X141876600Y-125770000D01*
X145364600Y-52111800D02*
X142731500Y-54744900D01*
X168551700Y-52111800D02*
X145364600Y-52111800D01*
%TO.N,RTS*%
X109931600Y-122128300D02*
X111000000Y-122128300D01*
X105360000Y-117556700D02*
X109931600Y-122128300D01*
X105360000Y-116730000D02*
X105360000Y-117556700D01*
X111000000Y-123230000D02*
X111000000Y-122128300D01*
%TO.N,ESP32_IO19*%
X154436100Y-60890000D02*
X154565900Y-61019800D01*
X137500000Y-60890000D02*
X154436100Y-60890000D01*
X156603300Y-63057200D02*
X163046200Y-63057200D01*
X154565900Y-61019800D02*
X156603300Y-63057200D01*
%TO.N,ESP32_IO1*%
X143312200Y-50481700D02*
X157583400Y-50481700D01*
X142865400Y-50928500D02*
X143312200Y-50481700D01*
X142814700Y-50928500D02*
X142865400Y-50928500D01*
X141743200Y-52000000D02*
X142814700Y-50928500D01*
X137500000Y-52000000D02*
X141743200Y-52000000D01*
%TO.N,ESP32_IO8*%
X154298200Y-54863400D02*
X169539900Y-54863400D01*
X152081600Y-57080000D02*
X154298200Y-54863400D01*
X137500000Y-57080000D02*
X152081600Y-57080000D01*
%TO.N,ESP32_IO9*%
X137500000Y-58350000D02*
X171500000Y-58350000D01*
%TO.N,ESP32_IO7*%
X137500000Y-55810000D02*
X138301700Y-55810000D01*
X143252800Y-51109100D02*
X171500000Y-51109100D01*
X138551900Y-55810000D02*
X143252800Y-51109100D01*
X138301700Y-55810000D02*
X138551900Y-55810000D01*
%TO.N,ESP32_IO0*%
X159761300Y-48603800D02*
X160110500Y-48254600D01*
X140427900Y-48603800D02*
X159761300Y-48603800D01*
X138301700Y-50730000D02*
X140427900Y-48603800D01*
X137500000Y-50730000D02*
X138301700Y-50730000D01*
%TO.N,ESP32_IO10*%
X137500000Y-59620000D02*
X138301700Y-59620000D01*
X139059400Y-60377700D02*
X157602100Y-60377700D01*
X138301700Y-59620000D02*
X139059400Y-60377700D01*
X158698800Y-61474400D02*
X168551700Y-61474400D01*
X157602100Y-60377700D02*
X158698800Y-61474400D01*
%TO.N,ESP32_SDA*%
X136624200Y-132799700D02*
X135004500Y-131180000D01*
X145629800Y-132799700D02*
X136624200Y-132799700D01*
X157393800Y-144563700D02*
X145629800Y-132799700D01*
X164115800Y-144563700D02*
X157393800Y-144563700D01*
X164949500Y-143730000D02*
X164115800Y-144563700D01*
X173137200Y-56284400D02*
X173137200Y-56284300D01*
X178934400Y-56284400D02*
X173137200Y-56284400D01*
X181000000Y-58350000D02*
X178934400Y-56284400D01*
X171094000Y-54241100D02*
X157600100Y-54241100D01*
X173137200Y-56284300D02*
X171094000Y-54241100D01*
X133477700Y-47991900D02*
X130000000Y-51469600D01*
X156656100Y-47991900D02*
X133477700Y-47991900D01*
%TO.N,ESP32_SCL*%
X163930700Y-48603800D02*
X162325100Y-48603800D01*
X165304500Y-47230000D02*
X163930700Y-48603800D01*
X181000000Y-47230000D02*
X165304500Y-47230000D01*
X137227300Y-132132800D02*
X136274500Y-131180000D01*
X152082300Y-132132800D02*
X137227300Y-132132800D01*
X163679500Y-143730000D02*
X152082300Y-132132800D01*
X130531200Y-63710600D02*
X130000000Y-64241800D01*
X160574100Y-63710600D02*
X130531200Y-63710600D01*
%TO.N,ATTINY_STAT*%
X183875200Y-126314800D02*
X168801700Y-126314800D01*
X184000000Y-126190000D02*
X183875200Y-126314800D01*
%TO.N,Net-(D6-K)*%
X184000000Y-128730000D02*
X182798300Y-128730000D01*
X166000000Y-130230000D02*
X167101700Y-130230000D01*
X182546000Y-128477700D02*
X182798300Y-128730000D01*
X176040300Y-128477700D02*
X182546000Y-128477700D01*
X175874600Y-128643400D02*
X176040300Y-128477700D01*
X168688300Y-128643400D02*
X175874600Y-128643400D01*
X167101700Y-130230000D02*
X168688300Y-128643400D01*
%TO.N,Net-(D5-K)*%
X108946200Y-93610000D02*
X112500000Y-93610000D01*
X105701700Y-96854500D02*
X108946200Y-93610000D01*
X105701700Y-97230000D02*
X105701700Y-96854500D01*
X104500000Y-97230000D02*
X105701700Y-97230000D01*
%TO.N,Net-(D4-K)*%
X104500000Y-88680000D02*
X105701700Y-88680000D01*
X110366500Y-84141800D02*
X111398300Y-83110000D01*
X109864400Y-84141800D02*
X110366500Y-84141800D01*
X105701700Y-88304500D02*
X109864400Y-84141800D01*
X105701700Y-88680000D02*
X105701700Y-88304500D01*
X112500000Y-83110000D02*
X111398300Y-83110000D01*
%TO.N,ESP32_IO18_SCK*%
X154451000Y-89044000D02*
X151765000Y-91730000D01*
X169266800Y-89044000D02*
X154451000Y-89044000D01*
%TO.N,V_USB*%
X114830000Y-140219500D02*
X115633300Y-141022800D01*
X110548800Y-140219500D02*
X114830000Y-140219500D01*
X109794200Y-140974100D02*
X110548800Y-140219500D01*
X109794200Y-141522800D02*
X109794200Y-140974100D01*
X108540000Y-141522800D02*
X109794200Y-141522800D01*
X116460000Y-141022800D02*
X115633300Y-141022800D01*
%TO.N,Net-(J4-Pin_2)*%
X194054200Y-81175800D02*
X192500000Y-82730000D01*
X197833400Y-81175800D02*
X194054200Y-81175800D01*
%TO.N,Net-(J3-Pin_2)*%
X136436300Y-92976300D02*
X134190000Y-90730000D01*
X157222000Y-92976300D02*
X136436300Y-92976300D01*
X158198300Y-92000000D02*
X157222000Y-92976300D01*
X159000000Y-92000000D02*
X158198300Y-92000000D01*
%TO.N,Net-(D1-K)*%
X143911700Y-91730000D02*
X142911700Y-90730000D01*
X149225000Y-91730000D02*
X143911700Y-91730000D01*
X141810000Y-90730000D02*
X142911700Y-90730000D01*
%TO.N,ESP32_3.3*%
X175585000Y-84915000D02*
X181464500Y-84915000D01*
X170270000Y-90230000D02*
X175585000Y-84915000D01*
X156484300Y-130334300D02*
X157960000Y-131810000D01*
X134580200Y-130334300D02*
X156484300Y-130334300D01*
X133734500Y-131180000D02*
X134580200Y-130334300D01*
X170500000Y-133230000D02*
X174000000Y-136730000D01*
X159380000Y-133230000D02*
X170500000Y-133230000D01*
X157960000Y-131810000D02*
X159380000Y-133230000D01*
X180299200Y-60960000D02*
X180217700Y-60960000D01*
X180217700Y-60960000D02*
X180198300Y-60960000D01*
X181000000Y-60960000D02*
X180299200Y-60960000D01*
X148866000Y-64364000D02*
X146500000Y-66730000D01*
X176813700Y-64364000D02*
X148866000Y-64364000D01*
X180217700Y-60960000D02*
X176813700Y-64364000D01*
X175500000Y-135230000D02*
X174000000Y-136730000D01*
X181000000Y-135230000D02*
X175500000Y-135230000D01*
X189351700Y-142480000D02*
X199000000Y-142480000D01*
X182101700Y-135230000D02*
X189351700Y-142480000D01*
X181000000Y-135230000D02*
X182101700Y-135230000D01*
X176194800Y-56956500D02*
X180198300Y-60960000D01*
X166708200Y-56956500D02*
X176194800Y-56956500D01*
X166601700Y-56850000D02*
X166708200Y-56956500D01*
X165500000Y-56850000D02*
X166601700Y-56850000D01*
X141750800Y-75230000D02*
X140000000Y-76980800D01*
X149500000Y-75230000D02*
X141750800Y-75230000D01*
X118750800Y-76980800D02*
X140000000Y-76980800D01*
X112500000Y-70730000D02*
X118750800Y-76980800D01*
%TO.N,V_BATT*%
X192823300Y-58906700D02*
X192000000Y-59730000D01*
X197375000Y-58906700D02*
X192823300Y-58906700D01*
X198198300Y-59730000D02*
X197375000Y-58906700D01*
X199000000Y-59730000D02*
X198198300Y-59730000D01*
%TO.N,5V_CHG*%
X145580000Y-141522800D02*
X144325800Y-141522800D01*
X197289700Y-63991500D02*
X204063300Y-63991500D01*
X194426700Y-66854500D02*
X197289700Y-63991500D01*
X194426700Y-67230000D02*
X194426700Y-66854500D01*
X193225000Y-67230000D02*
X194426700Y-67230000D01*
X133230000Y-149382800D02*
X133230000Y-148331100D01*
X190563400Y-98666600D02*
X199000000Y-90230000D01*
X147804400Y-98666600D02*
X190563400Y-98666600D01*
X111080000Y-141522800D02*
X112334200Y-141522800D01*
X133230000Y-148331100D02*
X133230000Y-145758100D01*
X140641300Y-145758100D02*
X133230000Y-145758100D01*
X144325800Y-142073600D02*
X140641300Y-145758100D01*
X144325800Y-141522800D02*
X144325800Y-142073600D01*
X116569500Y-145758100D02*
X112334200Y-141522800D01*
X133230000Y-145758100D02*
X116569500Y-145758100D01*
%TO.N,ESP32_EN*%
X163038300Y-66268300D02*
X164000000Y-67230000D01*
X158992100Y-66268300D02*
X163038300Y-66268300D01*
X143676200Y-49230000D02*
X142616200Y-50290000D01*
X165500000Y-49230000D02*
X143676200Y-49230000D01*
X105360000Y-114190000D02*
X133140700Y-114190000D01*
X156348300Y-83940100D02*
X131556800Y-83940100D01*
%TO.N,GND*%
X160301700Y-90230000D02*
X159801700Y-90730000D01*
X169000000Y-90230000D02*
X160301700Y-90230000D01*
X159000000Y-90730000D02*
X159801700Y-90730000D01*
X160460000Y-124230000D02*
X157960000Y-126730000D01*
X177000000Y-124230000D02*
X160460000Y-124230000D01*
X136914500Y-126730000D02*
X157960000Y-126730000D01*
X132464500Y-131180000D02*
X136914500Y-126730000D01*
X141842900Y-72192500D02*
X139827300Y-70176900D01*
X141842900Y-72192600D02*
X141842900Y-72192500D01*
X148462600Y-72192600D02*
X141842900Y-72192600D01*
X151500000Y-75230000D02*
X148462600Y-72192600D01*
X149964500Y-55330000D02*
X151064500Y-55330000D01*
X151562600Y-55931900D02*
X151614500Y-55880000D01*
X150566400Y-55931900D02*
X151562600Y-55931900D01*
X150514500Y-55880000D02*
X150566400Y-55931900D01*
X150566400Y-53628100D02*
X150514500Y-53680000D01*
X151562600Y-53628100D02*
X150566400Y-53628100D01*
X151614500Y-53680000D02*
X151562600Y-53628100D01*
X151614500Y-54780000D02*
X151614500Y-54230000D01*
X151064500Y-54230000D02*
X151614500Y-54230000D01*
X151614500Y-54230000D02*
X152164500Y-54230000D01*
X163679500Y-152730000D02*
X163679500Y-151928300D01*
X196293300Y-113980000D02*
X197793300Y-115480000D01*
X189250000Y-113980000D02*
X196293300Y-113980000D01*
X199500000Y-128690000D02*
X199500000Y-127435800D01*
X194873400Y-60531700D02*
X194071700Y-59730000D01*
X200270000Y-60531700D02*
X194873400Y-60531700D01*
X200270000Y-59730000D02*
X200270000Y-60531700D01*
X193270000Y-59730000D02*
X194071700Y-59730000D01*
X143095500Y-151928300D02*
X163679500Y-151928300D01*
X139190000Y-148022800D02*
X143095500Y-151928300D01*
X123831700Y-150474500D02*
X122380000Y-149022800D01*
X136738300Y-150474500D02*
X123831700Y-150474500D01*
X139190000Y-148022800D02*
X136738300Y-150474500D01*
X131662800Y-131240000D02*
X131662800Y-131180000D01*
X122380000Y-140522800D02*
X131662800Y-131240000D01*
X132464500Y-131180000D02*
X131662800Y-131180000D01*
X180803000Y-77533000D02*
X180000000Y-76730000D01*
X190697000Y-77533000D02*
X180803000Y-77533000D01*
X192500000Y-75730000D02*
X190697000Y-77533000D01*
X180000000Y-76730000D02*
X162422400Y-76730000D01*
X198895000Y-115480000D02*
X198344200Y-115480000D01*
X198344200Y-115480000D02*
X197793300Y-115480000D01*
X195040000Y-118784200D02*
X195040000Y-124230000D01*
X198344200Y-115480000D02*
X195040000Y-118784200D01*
X177000000Y-124230000D02*
X195040000Y-124230000D01*
X198245800Y-127435800D02*
X199500000Y-127435800D01*
X195040000Y-124230000D02*
X198245800Y-127435800D01*
X113250000Y-78980000D02*
X111500000Y-77230000D01*
X119500000Y-78980000D02*
X113250000Y-78980000D01*
X120408000Y-150994800D02*
X122380000Y-149022800D01*
X106712000Y-150994800D02*
X120408000Y-150994800D01*
X105190000Y-149472800D02*
X106712000Y-150994800D01*
X152999900Y-76730000D02*
X162422400Y-76730000D01*
X152999900Y-76729900D02*
X152999900Y-76730000D01*
X151500000Y-75230000D02*
X152999900Y-76729900D01*
X150749900Y-78980000D02*
X119500000Y-78980000D01*
X152999900Y-76730000D02*
X150749900Y-78980000D01*
%TD*%
M02*
