%TF.GenerationSoftware,KiCad,Pcbnew,9.0.0-rc3*%
%TF.CreationDate,2025-04-05T20:51:13-05:00*%
%TF.ProjectId,Brine,4272696e-652e-46b6-9963-61645f706362,Dev Board 01*%
%TF.SameCoordinates,Original*%
%TF.FileFunction,Copper,L1,Top*%
%TF.FilePolarity,Positive*%
%FSLAX46Y46*%
G04 Gerber Fmt 4.6, Leading zero omitted, Abs format (unit mm)*
G04 Created by KiCad (PCBNEW 9.0.0-rc3) date 2025-04-05 20:51:13*
%MOMM*%
%LPD*%
G01*
G04 APERTURE LIST*
G04 Aperture macros list*
%AMRoundRect*
0 Rectangle with rounded corners*
0 $1 Rounding radius*
0 $2 $3 $4 $5 $6 $7 $8 $9 X,Y pos of 4 corners*
0 Add a 4 corners polygon primitive as box body*
4,1,4,$2,$3,$4,$5,$6,$7,$8,$9,$2,$3,0*
0 Add four circle primitives for the rounded corners*
1,1,$1+$1,$2,$3*
1,1,$1+$1,$4,$5*
1,1,$1+$1,$6,$7*
1,1,$1+$1,$8,$9*
0 Add four rect primitives between the rounded corners*
20,1,$1+$1,$2,$3,$4,$5,0*
20,1,$1+$1,$4,$5,$6,$7,0*
20,1,$1+$1,$6,$7,$8,$9,0*
20,1,$1+$1,$8,$9,$2,$3,0*%
G04 Aperture macros list end*
%TA.AperFunction,ComponentPad*%
%ADD10O,2.000000X1.905000*%
%TD*%
%TA.AperFunction,ComponentPad*%
%ADD11R,2.000000X1.905000*%
%TD*%
%TA.AperFunction,SMDPad,CuDef*%
%ADD12C,3.000000*%
%TD*%
%TA.AperFunction,ComponentPad*%
%ADD13C,1.600000*%
%TD*%
%TA.AperFunction,ComponentPad*%
%ADD14O,1.600000X1.600000*%
%TD*%
%TA.AperFunction,ComponentPad*%
%ADD15O,1.000000X1.000000*%
%TD*%
%TA.AperFunction,ComponentPad*%
%ADD16R,1.000000X1.000000*%
%TD*%
%TA.AperFunction,ComponentPad*%
%ADD17C,1.800000*%
%TD*%
%TA.AperFunction,ComponentPad*%
%ADD18R,1.800000X1.800000*%
%TD*%
%TA.AperFunction,ComponentPad*%
%ADD19O,2.400000X2.400000*%
%TD*%
%TA.AperFunction,ComponentPad*%
%ADD20R,2.400000X2.400000*%
%TD*%
%TA.AperFunction,SMDPad,CuDef*%
%ADD21RoundRect,0.150000X0.825000X0.150000X-0.825000X0.150000X-0.825000X-0.150000X0.825000X-0.150000X0*%
%TD*%
%TA.AperFunction,SMDPad,CuDef*%
%ADD22R,1.700000X1.000000*%
%TD*%
%TA.AperFunction,ComponentPad*%
%ADD23C,2.159000*%
%TD*%
%TA.AperFunction,ComponentPad*%
%ADD24C,1.676400*%
%TD*%
%TA.AperFunction,HeatsinkPad*%
%ADD25C,0.600000*%
%TD*%
%TA.AperFunction,HeatsinkPad*%
%ADD26R,2.900000X2.900000*%
%TD*%
%TA.AperFunction,SMDPad,CuDef*%
%ADD27R,1.500000X0.900000*%
%TD*%
%TA.AperFunction,ComponentPad*%
%ADD28R,1.050000X1.500000*%
%TD*%
%TA.AperFunction,ComponentPad*%
%ADD29O,1.050000X1.500000*%
%TD*%
%TA.AperFunction,ComponentPad*%
%ADD30R,1.500000X1.050000*%
%TD*%
%TA.AperFunction,ComponentPad*%
%ADD31O,1.500000X1.050000*%
%TD*%
%TA.AperFunction,ComponentPad*%
%ADD32RoundRect,0.250000X0.600000X0.600000X-0.600000X0.600000X-0.600000X-0.600000X0.600000X-0.600000X0*%
%TD*%
%TA.AperFunction,ComponentPad*%
%ADD33C,1.700000*%
%TD*%
%TA.AperFunction,SMDPad,CuDef*%
%ADD34RoundRect,0.150000X-0.825000X-0.150000X0.825000X-0.150000X0.825000X0.150000X-0.825000X0.150000X0*%
%TD*%
%TA.AperFunction,SMDPad,CuDef*%
%ADD35RoundRect,0.150000X-0.512500X-0.150000X0.512500X-0.150000X0.512500X0.150000X-0.512500X0.150000X0*%
%TD*%
%TA.AperFunction,ComponentPad*%
%ADD36R,1.905000X2.000000*%
%TD*%
%TA.AperFunction,ComponentPad*%
%ADD37O,1.905000X2.000000*%
%TD*%
%TA.AperFunction,ViaPad*%
%ADD38C,0.600000*%
%TD*%
%TA.AperFunction,Conductor*%
%ADD39C,0.200000*%
%TD*%
G04 APERTURE END LIST*
D10*
%TO.P,U3,3,VO*%
%TO.N,ESP32_3.3*%
X199500000Y-126150000D03*
%TO.P,U3,2,GND*%
%TO.N,GND*%
X199500000Y-128690000D03*
D11*
%TO.P,U3,1,VI*%
%TO.N,+5V*%
X199500000Y-131230000D03*
%TD*%
D12*
%TO.P,TP7,1,1*%
%TO.N,+5V*%
X199000000Y-119730000D03*
%TD*%
%TO.P,TP32,1,1*%
%TO.N,BUTTON*%
X167000000Y-109680000D03*
%TD*%
D13*
%TO.P,C11,2*%
%TO.N,GND*%
X111500000Y-77230000D03*
%TO.P,C11,1*%
%TO.N,Net-(U4-V3)*%
X113500000Y-77230000D03*
%TD*%
D14*
%TO.P,R17,2*%
%TO.N,Net-(D5-K)*%
X112500000Y-93610000D03*
D13*
%TO.P,R17,1*%
%TO.N,Net-(J11-Pin_2)*%
X112500000Y-101230000D03*
%TD*%
D15*
%TO.P,USB-C1,6,Pin_6*%
%TO.N,CC2*%
X113464500Y-52530000D03*
%TO.P,USB-C1,5,Pin_5*%
%TO.N,D+*%
X113464500Y-51260000D03*
%TO.P,USB-C1,4,Pin_4*%
%TO.N,D-*%
X113464500Y-49990000D03*
%TO.P,USB-C1,3,Pin_3*%
%TO.N,CC1*%
X113464500Y-48720000D03*
%TO.P,USB-C1,2,Pin_2*%
%TO.N,GND*%
X113464500Y-47450000D03*
D16*
%TO.P,USB-C1,1,Pin_1*%
%TO.N,V_USB*%
X113464500Y-46180000D03*
%TD*%
D14*
%TO.P,C10,2*%
%TO.N,GND*%
X112500000Y-63230000D03*
D13*
%TO.P,C10,1*%
%TO.N,ESP32_3.3*%
X112500000Y-70730000D03*
%TD*%
D15*
%TO.P,J10,2,Pin_2*%
%TO.N,Net-(J10-Pin_2)*%
X106270000Y-82230000D03*
D16*
%TO.P,J10,1,Pin_1*%
%TO.N,ESP32_RX*%
X105000000Y-82230000D03*
%TD*%
D17*
%TO.P,D5,2,A*%
%TO.N,ESP32_3.3*%
X107040000Y-97230000D03*
D18*
%TO.P,D5,1,K*%
%TO.N,Net-(D5-K)*%
X104500000Y-97230000D03*
%TD*%
D19*
%TO.P,C9,2*%
%TO.N,GND*%
X119392500Y-82730000D03*
D20*
%TO.P,C9,1*%
%TO.N,V_USB*%
X119392500Y-100730000D03*
%TD*%
D12*
%TO.P,TP29,1,1*%
%TO.N,D-*%
X119000000Y-58730000D03*
%TD*%
D14*
%TO.P,R16,2*%
%TO.N,Net-(D4-K)*%
X112500000Y-83110000D03*
D13*
%TO.P,R16,1*%
%TO.N,Net-(J10-Pin_2)*%
X112500000Y-90730000D03*
%TD*%
D14*
%TO.P,C8,2*%
%TO.N,GND*%
X119500000Y-78980000D03*
D13*
%TO.P,C8,1*%
%TO.N,V_USB*%
X119500000Y-71480000D03*
%TD*%
D17*
%TO.P,D4,2,A*%
%TO.N,ESP32_3.3*%
X107040000Y-88680000D03*
D18*
%TO.P,D4,1,K*%
%TO.N,Net-(D4-K)*%
X104500000Y-88680000D03*
%TD*%
D12*
%TO.P,TP28,1,1*%
%TO.N,CC1*%
X119000000Y-45730000D03*
%TD*%
%TO.P,TP27,1,1*%
%TO.N,V_USB*%
X119000000Y-38730000D03*
%TD*%
%TO.P,TP31,1,1*%
%TO.N,CC2*%
X119000000Y-52230000D03*
%TD*%
%TO.P,TP30,1,1*%
%TO.N,D+*%
X119000000Y-65730000D03*
%TD*%
D15*
%TO.P,J11,2,Pin_2*%
%TO.N,Net-(J11-Pin_2)*%
X106270000Y-78730000D03*
D16*
%TO.P,J11,1,Pin_1*%
%TO.N,ESP32_TX*%
X105000000Y-78730000D03*
%TD*%
D21*
%TO.P,U4,16,VCC*%
%TO.N,ESP32_3.3*%
X103000000Y-73080000D03*
%TO.P,U4,15,R232*%
%TO.N,unconnected-(U4-R232-Pad15)*%
X103000000Y-71810000D03*
%TO.P,U4,14,~{RTS}*%
%TO.N,RTS*%
X103000000Y-70540000D03*
%TO.P,U4,13,~{DTR}*%
%TO.N,DTR*%
X103000000Y-69270000D03*
%TO.P,U4,12,~{DCD}*%
%TO.N,unconnected-(U4-~{DCD}-Pad12)*%
X103000000Y-68000000D03*
%TO.P,U4,11,~{RI}*%
%TO.N,unconnected-(U4-~{RI}-Pad11)*%
X103000000Y-66730000D03*
%TO.P,U4,10,~{DSR}*%
%TO.N,unconnected-(U4-~{DSR}-Pad10)*%
X103000000Y-65460000D03*
%TO.P,U4,9,~{CTS}*%
%TO.N,unconnected-(U4-~{CTS}-Pad9)*%
X103000000Y-64190000D03*
%TO.P,U4,8,NC*%
%TO.N,unconnected-(U4-NC-Pad8)*%
X107950000Y-64190000D03*
%TO.P,U4,7,NC*%
%TO.N,unconnected-(U4-NC-Pad7)*%
X107950000Y-65460000D03*
%TO.P,U4,6,UD-*%
%TO.N,D-*%
X107950000Y-66730000D03*
%TO.P,U4,5,UD+*%
%TO.N,D+*%
X107950000Y-68000000D03*
%TO.P,U4,4,V3*%
%TO.N,Net-(U4-V3)*%
X107950000Y-69270000D03*
%TO.P,U4,3,RXD*%
%TO.N,ESP32_TX*%
X107950000Y-70540000D03*
%TO.P,U4,2,TXD*%
%TO.N,ESP32_RX*%
X107950000Y-71810000D03*
%TO.P,U4,1,GND*%
%TO.N,GND*%
X107950000Y-73080000D03*
%TD*%
D13*
%TO.P,R8,1*%
%TO.N,ESP32_SCL*%
X181000000Y-47230000D03*
D14*
%TO.P,R8,2*%
%TO.N,Net-(J8-Pin_1)*%
X181000000Y-39610000D03*
%TD*%
D16*
%TO.P,J8,1,Pin_1*%
%TO.N,Net-(J8-Pin_1)*%
X181000000Y-37230000D03*
D15*
%TO.P,J8,2,Pin_2*%
%TO.N,ESP32_3.3*%
X181000000Y-35960000D03*
%TD*%
D13*
%TO.P,R9,1*%
%TO.N,ESP32_SDA*%
X181000000Y-58350000D03*
D14*
%TO.P,R9,2*%
%TO.N,Net-(J9-Pin_1)*%
X181000000Y-50730000D03*
%TD*%
D16*
%TO.P,J9,1,Pin_1*%
%TO.N,Net-(J9-Pin_1)*%
X181000000Y-62230000D03*
D15*
%TO.P,J9,2,Pin_2*%
%TO.N,ESP32_3.3*%
X181000000Y-60960000D03*
%TD*%
D12*
%TO.P,TP14,1,1*%
%TO.N,ESP32_IO5*%
X130000000Y-77230000D03*
%TD*%
%TO.P,TP12,1,1*%
%TO.N,ESP32_SCL*%
X130000000Y-62230000D03*
%TD*%
%TO.P,TP10,1,1*%
%TO.N,ESP32_IO1*%
X130000000Y-47730000D03*
%TD*%
%TO.P,TP13,1,1*%
%TO.N,ESP32_IO4*%
X130000000Y-70230000D03*
%TD*%
%TO.P,TP9,1,1*%
%TO.N,ESP32_IO0*%
X130000000Y-40230000D03*
%TD*%
%TO.P,TP22,1,1*%
%TO.N,ESP32_EN*%
X130000000Y-85230000D03*
%TD*%
%TO.P,TP11,1,1*%
%TO.N,ESP32_SDA*%
X130000000Y-55230000D03*
%TD*%
D22*
%TO.P,S1,1,1*%
%TO.N,ESP32_EN*%
X157500000Y-75580000D03*
%TO.P,S1,2,2*%
%TO.N,GND*%
X163800000Y-75580000D03*
%TO.P,S1,3,3*%
%TO.N,ESP32_EN*%
X157500000Y-71780000D03*
%TO.P,S1,4,4*%
%TO.N,GND*%
X163800000Y-71780000D03*
%TD*%
D23*
%TO.P,SW1,1,1*%
%TO.N,GND*%
X185000000Y-107730000D03*
%TO.P,SW1,2*%
%TO.N,N/C*%
X185000000Y-120230000D03*
%TO.P,SW1,3,3*%
%TO.N,BUTTON*%
X180000000Y-107730000D03*
%TO.P,SW1,4*%
%TO.N,N/C*%
X180000000Y-120230000D03*
D24*
%TO.P,SW1,A,A*%
%TO.N,BUTTON_LED*%
X175750000Y-113980000D03*
%TO.P,SW1,C,C*%
%TO.N,GND*%
X189250000Y-113980000D03*
%TD*%
D16*
%TO.P,J14,1,Pin_1*%
%TO.N,ALT*%
X162409500Y-152730000D03*
D15*
%TO.P,J14,2,Pin_2*%
%TO.N,GND*%
X163679500Y-152730000D03*
%TO.P,J14,3,Pin_3*%
%TO.N,ESP32_3.3*%
X164949500Y-152730000D03*
%TD*%
D16*
%TO.P,J13,1,Pin_1*%
%TO.N,ESP32_SDA*%
X164949500Y-143730000D03*
D15*
%TO.P,J13,3,Pin_3*%
%TO.N,QST*%
X162409500Y-143730000D03*
%TO.P,J13,2,Pin_2*%
%TO.N,ESP32_SCL*%
X163679500Y-143730000D03*
%TD*%
D17*
%TO.P,D3,2,A*%
%TO.N,ESP32_3.3*%
X181464500Y-84915000D03*
D18*
%TO.P,D3,1,K*%
%TO.N,Net-(D3-K)*%
X181464500Y-87455000D03*
%TD*%
%TO.P,D6,1,K*%
%TO.N,Net-(D6-K)*%
X184000000Y-128730000D03*
D17*
%TO.P,D6,2,A*%
%TO.N,ATTINY_STAT*%
X184000000Y-126190000D03*
%TD*%
D12*
%TO.P,TP17,1,1*%
%TO.N,ESP32_IO8*%
X171500000Y-53680000D03*
%TD*%
%TO.P,TP20,1,1*%
%TO.N,ESP32_IO18_SCK*%
X171500000Y-76180000D03*
%TD*%
D15*
%TO.P,J7,2,Pin_2*%
%TO.N,Net-(J7-Pin_2)*%
X181270000Y-76730000D03*
D16*
%TO.P,J7,1,Pin_1*%
%TO.N,GND*%
X180000000Y-76730000D03*
%TD*%
D13*
%TO.P,R20,1*%
%TO.N,ATTINY_INT*%
X177500000Y-137230000D03*
D14*
%TO.P,R20,2*%
%TO.N,ESP32_3.3*%
X177500000Y-129610000D03*
%TD*%
D12*
%TO.P,TP24,1,1*%
%TO.N,ESP32_RX*%
X161000000Y-83680000D03*
%TD*%
D14*
%TO.P,R4,2*%
%TO.N,Net-(D1-K)*%
X141810000Y-90730000D03*
D13*
%TO.P,R4,1*%
%TO.N,Net-(J3-Pin_2)*%
X134190000Y-90730000D03*
%TD*%
D12*
%TO.P,TP35,1,1*%
%TO.N,ATTINY_MISO*%
X172000000Y-109730000D03*
%TD*%
D14*
%TO.P,C4,2*%
%TO.N,GND*%
X154000000Y-66730000D03*
D13*
%TO.P,C4,1*%
%TO.N,ESP32_3.3*%
X146500000Y-66730000D03*
%TD*%
D25*
%TO.P,U1,19,GND*%
%TO.N,GND*%
X152164500Y-55330000D03*
X152164500Y-54230000D03*
X151614500Y-55880000D03*
X151614500Y-54780000D03*
X151614500Y-53680000D03*
X151064500Y-55330000D03*
D26*
X151064500Y-54780000D03*
D25*
X151064500Y-54230000D03*
X150514500Y-55880000D03*
X150514500Y-54780000D03*
X150514500Y-53680000D03*
X149964500Y-55330000D03*
X149964500Y-54230000D03*
D27*
%TO.P,U1,18,IO0*%
%TO.N,ESP32_IO0*%
X158854500Y-48580000D03*
%TO.P,U1,17,IO1*%
%TO.N,ESP32_IO1*%
X158854500Y-50080000D03*
%TO.P,U1,16,IO2*%
%TO.N,ESP32_SDA*%
X158854500Y-51580000D03*
%TO.P,U1,15,IO3*%
%TO.N,ESP32_SCL*%
X158854500Y-53080000D03*
%TO.P,U1,14,IO19*%
%TO.N,ESP32_IO19*%
X158854500Y-54580000D03*
%TO.P,U1,13,IO18*%
%TO.N,ESP32_IO18_SCK*%
X158854500Y-56080000D03*
%TO.P,U1,12,IO21/TXD*%
%TO.N,ESP32_TX*%
X158854500Y-57580000D03*
%TO.P,U1,11,IO20/RXD*%
%TO.N,ESP32_RX*%
X158854500Y-59080000D03*
%TO.P,U1,10,IO10*%
%TO.N,ESP32_IO10*%
X158854500Y-60580000D03*
%TO.P,U1,9,GND*%
%TO.N,GND*%
X141354500Y-60580000D03*
%TO.P,U1,8,IO9*%
%TO.N,ESP32_IO9*%
X141354500Y-59080000D03*
%TO.P,U1,7,IO8*%
%TO.N,ESP32_IO8*%
X141354500Y-57580000D03*
%TO.P,U1,6,IO7*%
%TO.N,ESP32_IO7*%
X141354500Y-56080000D03*
%TO.P,U1,5,IO6*%
%TO.N,ESP32_0*%
X141354500Y-54580000D03*
%TO.P,U1,4,IO5*%
%TO.N,ESP32_IO5*%
X141354500Y-53080000D03*
%TO.P,U1,3,IO4*%
%TO.N,ESP32_IO4*%
X141354500Y-51580000D03*
%TO.P,U1,2,EN*%
%TO.N,ESP32_EN*%
X141354500Y-50080000D03*
%TO.P,U1,1,3V3*%
%TO.N,ESP32_3.3*%
X141354500Y-48580000D03*
%TD*%
D12*
%TO.P,TP21,1,1*%
%TO.N,ESP32_IO19*%
X171500000Y-83680000D03*
%TD*%
D28*
%TO.P,Q5,1,E*%
%TO.N,V_USB*%
X116460000Y-141022800D03*
D29*
%TO.P,Q5,2,B*%
%TO.N,Net-(Q5-B)*%
X117730000Y-141022800D03*
%TO.P,Q5,3,C*%
%TO.N,Net-(Q5-C)*%
X119000000Y-141022800D03*
%TD*%
D13*
%TO.P,R18,1*%
%TO.N,ATTINY_RST*%
X188620000Y-135230000D03*
D14*
%TO.P,R18,2*%
%TO.N,ESP32_3.3*%
X181000000Y-135230000D03*
%TD*%
D12*
%TO.P,TP33,1,1*%
%TO.N,ATTINY_STAT*%
X167000000Y-117180000D03*
%TD*%
D13*
%TO.P,R5,1*%
%TO.N,GND*%
X192500000Y-75730000D03*
D14*
%TO.P,R5,2*%
%TO.N,Net-(U2-PROG)*%
X200120000Y-75730000D03*
%TD*%
D13*
%TO.P,C5,2*%
%TO.N,GND*%
X151500000Y-75230000D03*
%TO.P,C5,1*%
%TO.N,ESP32_3.3*%
X149500000Y-75230000D03*
%TD*%
D12*
%TO.P,TP2,1,1*%
%TO.N,Net-(U2-PROG)*%
X200000000Y-53730000D03*
%TD*%
%TO.P,TP23,1,1*%
%TO.N,ESP32_3.3*%
X140000000Y-83680000D03*
%TD*%
D17*
%TO.P,D1,2,A*%
%TO.N,ESP32_IO18_SCK*%
X151765000Y-91730000D03*
D18*
%TO.P,D1,1,K*%
%TO.N,Net-(D1-K)*%
X149225000Y-91730000D03*
%TD*%
D30*
%TO.P,Q2,1,E*%
%TO.N,ESP32_0*%
X105360000Y-125770000D03*
D31*
%TO.P,Q2,2,B*%
%TO.N,Net-(Q2-B)*%
X105360000Y-124500000D03*
%TO.P,Q2,3,C*%
%TO.N,DTR*%
X105360000Y-123230000D03*
%TD*%
D13*
%TO.P,R14,1*%
%TO.N,GND*%
X124380000Y-99230000D03*
D14*
%TO.P,R14,2*%
%TO.N,CC1*%
X132000000Y-99230000D03*
%TD*%
D12*
%TO.P,TP34,1,1*%
%TO.N,ATTINY_SCK*%
X167000000Y-124680000D03*
%TD*%
D32*
%TO.P,J15,1,MISO*%
%TO.N,ATTINY_MISO*%
X160500000Y-131810000D03*
D33*
%TO.P,J15,2,VCC*%
%TO.N,ESP32_3.3*%
X157960000Y-131810000D03*
%TO.P,J15,3,SCK*%
%TO.N,ATTINY_SCK*%
X160500000Y-129270000D03*
%TO.P,J15,4,MOSI*%
%TO.N,ATTINY_SDA*%
X157960000Y-129270000D03*
%TO.P,J15,5,~{RST}*%
%TO.N,ATTINY_RST*%
X160500000Y-126730000D03*
%TO.P,J15,6,GND*%
%TO.N,GND*%
X157960000Y-126730000D03*
%TD*%
D16*
%TO.P,J2,1,Pin_1*%
%TO.N,GND*%
X132464500Y-131180000D03*
D15*
%TO.P,J2,2,Pin_2*%
%TO.N,ESP32_3.3*%
X133734500Y-131180000D03*
%TO.P,J2,3,Pin_3*%
%TO.N,ESP32_SDA*%
X135004500Y-131180000D03*
%TO.P,J2,4,Pin_4*%
%TO.N,ESP32_SCL*%
X136274500Y-131180000D03*
%TO.P,J2,5,Pin_5*%
%TO.N,INT*%
X137544500Y-131180000D03*
%TO.P,J2,6,Pin_6*%
%TO.N,SHUT*%
X138814500Y-131180000D03*
%TD*%
D13*
%TO.P,C7,1*%
%TO.N,+5V*%
X198895000Y-107980000D03*
D14*
%TO.P,C7,2*%
%TO.N,GND*%
X198895000Y-115480000D03*
%TD*%
D30*
%TO.P,Q1,1,E*%
%TO.N,RTS*%
X105360000Y-116730000D03*
D31*
%TO.P,Q1,2,B*%
%TO.N,Net-(Q1-B)*%
X105360000Y-115460000D03*
%TO.P,Q1,3,C*%
%TO.N,ESP32_EN*%
X105360000Y-114190000D03*
%TD*%
D12*
%TO.P,TP15,1,1*%
%TO.N,ESP32_0*%
X171500000Y-38680000D03*
%TD*%
D14*
%TO.P,R6,2*%
%TO.N,Net-(D2-A)*%
X200120000Y-82730000D03*
D13*
%TO.P,R6,1*%
%TO.N,Net-(J4-Pin_2)*%
X192500000Y-82730000D03*
%TD*%
%TO.P,R2,1*%
%TO.N,Net-(Q1-B)*%
X111000000Y-108730000D03*
D14*
%TO.P,R2,2*%
%TO.N,DTR*%
X111000000Y-116350000D03*
%TD*%
D12*
%TO.P,TP5,1,1*%
%TO.N,V_BATT*%
X196500000Y-50230000D03*
%TD*%
%TO.P,TP18,1,1*%
%TO.N,ESP32_IO9*%
X171500000Y-60680000D03*
%TD*%
D13*
%TO.P,R19,1*%
%TO.N,Net-(J16-Pin_2)*%
X173620000Y-130230000D03*
D14*
%TO.P,R19,2*%
%TO.N,Net-(D6-K)*%
X166000000Y-130230000D03*
%TD*%
D16*
%TO.P,J6,1,Pin_1*%
%TO.N,V_BATT*%
X199000000Y-59730000D03*
D15*
%TO.P,J6,2,Pin_2*%
%TO.N,GND*%
X200270000Y-59730000D03*
%TD*%
D13*
%TO.P,R12,1*%
%TO.N,GND*%
X105190000Y-149472800D03*
D14*
%TO.P,R12,2*%
%TO.N,Net-(Q3-G)*%
X112810000Y-149472800D03*
%TD*%
D28*
%TO.P,Q7,1,E*%
%TO.N,5V_CHG*%
X116460000Y-149522800D03*
D29*
%TO.P,Q7,2,B*%
%TO.N,Net-(Q5-B)*%
X117730000Y-149522800D03*
%TO.P,Q7,3,C*%
%TO.N,Net-(Q3-G)*%
X119000000Y-149522800D03*
%TD*%
D12*
%TO.P,TP6,1,1*%
%TO.N,ESP32_3.3*%
X199000000Y-137730000D03*
%TD*%
D13*
%TO.P,R11,1*%
%TO.N,GND*%
X122380000Y-149022800D03*
D14*
%TO.P,R11,2*%
%TO.N,Net-(Q6-C)*%
X130000000Y-149022800D03*
%TD*%
D12*
%TO.P,TP37,1,1*%
%TO.N,BUTTON_LED*%
X172000000Y-124730000D03*
%TD*%
D34*
%TO.P,U5,1,VCC*%
%TO.N,ESP32_3.3*%
X156500000Y-107920000D03*
%TO.P,U5,2,XTAL1/PB0*%
%TO.N,unconnected-(U5-XTAL1{slash}PB0-Pad2)*%
X156500000Y-109190000D03*
%TO.P,U5,3,XTAL2/PB1*%
%TO.N,unconnected-(U5-XTAL2{slash}PB1-Pad3)*%
X156500000Y-110460000D03*
%TO.P,U5,4,~{RESET}/PB3*%
%TO.N,ATTINY_RST*%
X156500000Y-111730000D03*
%TO.P,U5,5,PB2*%
%TO.N,unconnected-(U5-PB2-Pad5)*%
X156500000Y-113000000D03*
%TO.P,U5,6,PA7*%
%TO.N,BUTTON_LED*%
X156500000Y-114270000D03*
%TO.P,U5,7,PA6*%
%TO.N,ATTINY_SDA*%
X156500000Y-115540000D03*
%TO.P,U5,8,PA5*%
%TO.N,ATTINY_MISO*%
X161450000Y-115540000D03*
%TO.P,U5,9,PA4*%
%TO.N,ATTINY_SCK*%
X161450000Y-114270000D03*
%TO.P,U5,10,PA3*%
%TO.N,ATTINY_STAT*%
X161450000Y-113000000D03*
%TO.P,U5,11,PA2*%
%TO.N,BUTTON*%
X161450000Y-111730000D03*
%TO.P,U5,12,PA1*%
%TO.N,unconnected-(U5-PA1-Pad12)*%
X161450000Y-110460000D03*
%TO.P,U5,13,AREF/PA0*%
%TO.N,ATTINY_INT*%
X161450000Y-109190000D03*
%TO.P,U5,14,GND*%
%TO.N,GND*%
X161450000Y-107920000D03*
%TD*%
D22*
%TO.P,S2,4,4*%
%TO.N,ESP32_0*%
X145000000Y-71880000D03*
%TO.P,S2,3,3*%
%TO.N,GND*%
X138700000Y-71880000D03*
%TO.P,S2,2,2*%
%TO.N,ESP32_0*%
X145000000Y-75680000D03*
%TO.P,S2,1,1*%
%TO.N,GND*%
X138700000Y-75680000D03*
%TD*%
D12*
%TO.P,TP3,1,1*%
%TO.N,GND*%
X193000000Y-53730000D03*
%TD*%
D16*
%TO.P,J4,1,Pin_1*%
%TO.N,Net-(J4-Pin_1)*%
X200000000Y-66730000D03*
D15*
%TO.P,J4,2,Pin_2*%
%TO.N,Net-(J4-Pin_2)*%
X200000000Y-65460000D03*
%TD*%
D12*
%TO.P,TP19,1,1*%
%TO.N,ESP32_IO10*%
X171500000Y-68680000D03*
%TD*%
D13*
%TO.P,C2,2*%
%TO.N,5V_CHG*%
X199000000Y-90230000D03*
%TO.P,C2,1*%
%TO.N,GND*%
X194000000Y-90230000D03*
%TD*%
D14*
%TO.P,R7,2*%
%TO.N,Net-(D3-K)*%
X181500000Y-92920000D03*
D13*
%TO.P,R7,1*%
%TO.N,Net-(J7-Pin_2)*%
X181500000Y-100540000D03*
%TD*%
D12*
%TO.P,TP25,1,1*%
%TO.N,ESP32_TX*%
X150464500Y-83680000D03*
%TD*%
D15*
%TO.P,J3,2,Pin_2*%
%TO.N,Net-(J3-Pin_2)*%
X159000000Y-92000000D03*
D16*
%TO.P,J3,1,Pin_1*%
%TO.N,GND*%
X159000000Y-90730000D03*
%TD*%
D28*
%TO.P,Q6,1,E*%
%TO.N,5V_EXT*%
X133230000Y-140882800D03*
D29*
%TO.P,Q6,2,B*%
%TO.N,Net-(Q6-B)*%
X134500000Y-140882800D03*
%TO.P,Q6,3,C*%
%TO.N,Net-(Q6-C)*%
X135770000Y-140882800D03*
%TD*%
D35*
%TO.P,U2,1,STAT*%
%TO.N,Net-(J4-Pin_1)*%
X195500000Y-37780000D03*
%TO.P,U2,2,V_{SS}*%
%TO.N,GND*%
X195500000Y-38730000D03*
%TO.P,U2,3,V_{BAT}*%
%TO.N,V_BATT*%
X195500000Y-39680000D03*
%TO.P,U2,4,V_{DD}*%
%TO.N,5V_CHG*%
X197775000Y-39680000D03*
%TO.P,U2,5,PROG*%
%TO.N,Net-(U2-PROG)*%
X197775000Y-37780000D03*
%TD*%
D12*
%TO.P,TP36,1,1*%
%TO.N,ATTINY_SDA*%
X172000000Y-117230000D03*
%TD*%
D18*
%TO.P,D2,1,K*%
%TO.N,5V_CHG*%
X193225000Y-67230000D03*
D17*
%TO.P,D2,2,A*%
%TO.N,Net-(D2-A)*%
X195765000Y-67230000D03*
%TD*%
D15*
%TO.P,J1,4,Pin_4*%
%TO.N,ESP32_SCL*%
X172810000Y-90230000D03*
%TO.P,J1,3,Pin_3*%
%TO.N,ESP32_SDA*%
X171540000Y-90230000D03*
%TO.P,J1,2,Pin_2*%
%TO.N,ESP32_3.3*%
X170270000Y-90230000D03*
D16*
%TO.P,J1,1,Pin_1*%
%TO.N,GND*%
X169000000Y-90230000D03*
%TD*%
D12*
%TO.P,TP1,1,1*%
%TO.N,5V_CHG*%
X200000000Y-46230000D03*
%TD*%
D36*
%TO.P,Q4,1,G*%
%TO.N,Net-(Q4-G)*%
X140500000Y-141522800D03*
D37*
%TO.P,Q4,2,D*%
%TO.N,5V_EXT*%
X143040000Y-141522800D03*
%TO.P,Q4,3,S*%
%TO.N,5V_CHG*%
X145580000Y-141522800D03*
%TD*%
D13*
%TO.P,R10,1*%
%TO.N,GND*%
X122380000Y-140522800D03*
D14*
%TO.P,R10,2*%
%TO.N,Net-(Q5-C)*%
X130000000Y-140522800D03*
%TD*%
D36*
%TO.P,Q3,1,G*%
%TO.N,Net-(Q3-G)*%
X106000000Y-141522800D03*
D37*
%TO.P,Q3,2,D*%
%TO.N,V_USB*%
X108540000Y-141522800D03*
%TO.P,Q3,3,S*%
%TO.N,5V_CHG*%
X111080000Y-141522800D03*
%TD*%
D13*
%TO.P,R3,1*%
%TO.N,Net-(Q2-B)*%
X111000000Y-130850000D03*
D14*
%TO.P,R3,2*%
%TO.N,RTS*%
X111000000Y-123230000D03*
%TD*%
D13*
%TO.P,C12,1*%
%TO.N,ESP32_3.3*%
X174000000Y-136730000D03*
D14*
%TO.P,C12,2*%
%TO.N,GND*%
X166500000Y-136730000D03*
%TD*%
D15*
%TO.P,J5,2,Pin_2*%
%TO.N,GND*%
X193270000Y-59730000D03*
D16*
%TO.P,J5,1,Pin_1*%
%TO.N,V_BATT*%
X192000000Y-59730000D03*
%TD*%
D12*
%TO.P,TP4,1,1*%
%TO.N,Net-(J4-Pin_1)*%
X193000000Y-46230000D03*
%TD*%
%TO.P,TP16,1,1*%
%TO.N,ESP32_IO7*%
X171500000Y-46180000D03*
%TD*%
D13*
%TO.P,C6,1*%
%TO.N,ESP32_3.3*%
X199000000Y-142480000D03*
D14*
%TO.P,C6,2*%
%TO.N,GND*%
X199000000Y-149980000D03*
%TD*%
D28*
%TO.P,Q8,1,E*%
%TO.N,5V_CHG*%
X133230000Y-149382800D03*
D29*
%TO.P,Q8,2,B*%
%TO.N,Net-(Q6-B)*%
X134500000Y-149382800D03*
%TO.P,Q8,3,C*%
%TO.N,Net-(Q4-G)*%
X135770000Y-149382800D03*
%TD*%
D16*
%TO.P,J16,1,Pin_1*%
%TO.N,GND*%
X177000000Y-124230000D03*
D15*
%TO.P,J16,2,Pin_2*%
%TO.N,Net-(J16-Pin_2)*%
X177000000Y-125500000D03*
%TD*%
D13*
%TO.P,R15,1*%
%TO.N,GND*%
X113120000Y-36230000D03*
D14*
%TO.P,R15,2*%
%TO.N,CC2*%
X105500000Y-36230000D03*
%TD*%
D15*
%TO.P,J12,9,Pin_9*%
%TO.N,ESP32_IO19*%
X137500000Y-60890000D03*
%TO.P,J12,8,Pin_8*%
%TO.N,ESP32_IO10*%
X137500000Y-59620000D03*
%TO.P,J12,7,Pin_7*%
%TO.N,ESP32_IO9*%
X137500000Y-58350000D03*
%TO.P,J12,6,Pin_6*%
%TO.N,ESP32_IO8*%
X137500000Y-57080000D03*
%TO.P,J12,5,Pin_5*%
%TO.N,ESP32_IO7*%
X137500000Y-55810000D03*
%TO.P,J12,4,Pin_4*%
%TO.N,ESP32_IO5*%
X137500000Y-54540000D03*
%TO.P,J12,3,Pin_3*%
%TO.N,ESP32_IO4*%
X137500000Y-53270000D03*
%TO.P,J12,2,Pin_2*%
%TO.N,ESP32_IO1*%
X137500000Y-52000000D03*
D16*
%TO.P,J12,1,Pin_1*%
%TO.N,ESP32_IO0*%
X137500000Y-50730000D03*
%TD*%
D14*
%TO.P,R1,2*%
%TO.N,ESP32_3.3*%
X165500000Y-56850000D03*
D13*
%TO.P,R1,1*%
%TO.N,ESP32_EN*%
X165500000Y-49230000D03*
%TD*%
D14*
%TO.P,C1,2*%
%TO.N,GND*%
X164000000Y-59730000D03*
D13*
%TO.P,C1,1*%
%TO.N,ESP32_EN*%
X164000000Y-67230000D03*
%TD*%
%TO.P,R13,1*%
%TO.N,GND*%
X139190000Y-148022800D03*
D14*
%TO.P,R13,2*%
%TO.N,Net-(Q4-G)*%
X146810000Y-148022800D03*
%TD*%
D13*
%TO.P,C3,2*%
%TO.N,GND*%
X199035500Y-98230000D03*
%TO.P,C3,1*%
%TO.N,V_BATT*%
X194035500Y-98230000D03*
%TD*%
D38*
%TO.N,BUTTON_LED*%
X157935600Y-114764100D03*
%TO.N,ATTINY_SDA*%
X159131300Y-122259600D03*
X172000000Y-122229000D03*
%TO.N,ATTINY_MISO*%
X170195700Y-132227000D03*
%TO.N,BUTTON*%
X167000000Y-107658600D03*
%TO.N,D+*%
X116158900Y-51260000D03*
%TO.N,D-*%
X117173300Y-50465100D03*
%TO.N,ESP32_TX*%
X150464500Y-80753100D03*
%TO.N,ESP32_RX*%
X159906200Y-79383100D03*
X108553900Y-81339900D03*
%TO.N,ATTINY_INT*%
X161171200Y-125117200D03*
X175625400Y-128041700D03*
%TO.N,Net-(J10-Pin_2)*%
X109702000Y-83540100D03*
%TO.N,CC2*%
X119000000Y-54305200D03*
X105500000Y-52530000D03*
%TO.N,CC1*%
X119000000Y-48720000D03*
%TO.N,ESP32_0*%
X141876600Y-125770000D03*
X168551700Y-52111800D03*
X142731500Y-54744900D03*
%TO.N,ESP32_IO19*%
X154565900Y-61019800D03*
X163046200Y-63057200D03*
%TO.N,ESP32_IO1*%
X157583400Y-50481700D03*
%TO.N,ESP32_IO8*%
X169539900Y-54863400D03*
%TO.N,ESP32_IO9*%
X171500000Y-58350000D03*
%TO.N,ESP32_IO7*%
X171500000Y-51109100D03*
%TO.N,ESP32_IO0*%
X160110500Y-48254600D03*
%TO.N,ESP32_IO10*%
X157602100Y-60377700D03*
X168551700Y-61474400D03*
%TO.N,ESP32_SDA*%
X157600100Y-54241100D03*
X173137200Y-56284300D03*
X130000000Y-51469600D03*
X156656100Y-47991900D03*
%TO.N,ESP32_SCL*%
X162325100Y-48603800D03*
X160574100Y-63710600D03*
X130000000Y-64241800D03*
%TO.N,ATTINY_STAT*%
X168801700Y-126314800D03*
%TO.N,ESP32_IO18_SCK*%
X169266800Y-89044000D03*
%TO.N,Net-(J4-Pin_2)*%
X197833400Y-81175800D03*
%TO.N,ESP32_3.3*%
X140000000Y-76980800D03*
%TO.N,5V_CHG*%
X204063300Y-63991500D03*
X147804400Y-98666600D03*
%TO.N,ESP32_EN*%
X158992100Y-66268300D03*
X142616200Y-50290000D03*
X131556800Y-83940100D03*
X156348300Y-83940100D03*
X133140700Y-114190000D03*
%TO.N,GND*%
X139827300Y-70176900D03*
X162422400Y-76730000D03*
%TD*%
D39*
%TO.N,BUTTON_LED*%
X157441500Y-114270000D02*
X157935600Y-114764100D01*
X156500000Y-114270000D02*
X157441500Y-114270000D01*
X175750000Y-120980000D02*
X175750000Y-113980000D01*
X172000000Y-124730000D02*
X175750000Y-120980000D01*
%TO.N,ATTINY_SDA*%
X156500000Y-119628300D02*
X159131300Y-122259600D01*
X156500000Y-115540000D02*
X156500000Y-119628300D01*
X159131300Y-128098700D02*
X157960000Y-129270000D01*
X159131300Y-122259600D02*
X159131300Y-128098700D01*
X172000000Y-117230000D02*
X172000000Y-122229000D01*
%TO.N,ATTINY_MISO*%
X162209900Y-116299900D02*
X161450000Y-115540000D01*
X162209900Y-130100100D02*
X162209900Y-116299900D01*
X160500000Y-131810000D02*
X162209900Y-130100100D01*
X170195700Y-111534300D02*
X170195700Y-132227000D01*
X172000000Y-109730000D02*
X170195700Y-111534300D01*
%TO.N,ATTINY_SCK*%
X161802100Y-114270000D02*
X161450000Y-114270000D01*
X163527700Y-115995600D02*
X161802100Y-114270000D01*
X163527700Y-121207700D02*
X163527700Y-115995600D01*
X167000000Y-124680000D02*
X163527700Y-121207700D01*
X161056700Y-114270000D02*
X161450000Y-114270000D01*
X160150300Y-115176400D02*
X161056700Y-114270000D01*
X160150300Y-116063600D02*
X160150300Y-115176400D01*
X161798100Y-117711400D02*
X160150300Y-116063600D01*
X161798100Y-127971900D02*
X161798100Y-117711400D01*
X160500000Y-129270000D02*
X161798100Y-127971900D01*
%TO.N,BUTTON*%
X167000000Y-107658600D02*
X167000000Y-109680000D01*
X164950000Y-111730000D02*
X161450000Y-111730000D01*
X167000000Y-109680000D02*
X164950000Y-111730000D01*
%TO.N,D+*%
X116158900Y-62888900D02*
X116158900Y-51260000D01*
X119000000Y-65730000D02*
X116158900Y-62888900D01*
X114278600Y-52074100D02*
X113464500Y-51260000D01*
X114278600Y-58156200D02*
X114278600Y-52074100D01*
X110871800Y-61563000D02*
X114278600Y-58156200D01*
X110871800Y-65427300D02*
X110871800Y-61563000D01*
X108299100Y-68000000D02*
X110871800Y-65427300D01*
X107950000Y-68000000D02*
X108299100Y-68000000D01*
%TO.N,D-*%
X117173300Y-56903300D02*
X117173300Y-50465100D01*
X119000000Y-58730000D02*
X117173300Y-56903300D01*
X108294800Y-66730000D02*
X107950000Y-66730000D01*
X109930900Y-65093900D02*
X108294800Y-66730000D01*
X109930900Y-53523600D02*
X109930900Y-65093900D01*
X113464500Y-49990000D02*
X109930900Y-53523600D01*
%TO.N,ESP32_TX*%
X107495300Y-70540000D02*
X107950000Y-70540000D01*
X105000000Y-73035300D02*
X107495300Y-70540000D01*
X105000000Y-78730000D02*
X105000000Y-73035300D01*
X150464500Y-83680000D02*
X150464500Y-80753100D01*
X158854500Y-57580000D02*
X157802800Y-57580000D01*
X156402500Y-58980300D02*
X157802800Y-57580000D01*
X156402500Y-67337100D02*
X156402500Y-58980300D01*
X155100200Y-68639400D02*
X156402500Y-67337100D01*
X155100200Y-76117400D02*
X155100200Y-68639400D01*
X150464500Y-80753100D02*
X155100200Y-76117400D01*
%TO.N,ESP32_RX*%
X158854500Y-59080000D02*
X159906200Y-59080000D01*
X159906200Y-82586200D02*
X161000000Y-83680000D01*
X159906200Y-79383100D02*
X159906200Y-82586200D01*
X159906200Y-59080000D02*
X159906200Y-79383100D01*
X107593500Y-71810000D02*
X107950000Y-71810000D01*
X106664600Y-72738900D02*
X107593500Y-71810000D01*
X106664600Y-73422100D02*
X106664600Y-72738900D01*
X108553900Y-75311400D02*
X106664600Y-73422100D01*
X108553900Y-81339900D02*
X108553900Y-75311400D01*
%TO.N,ATTINY_INT*%
X175625400Y-135355400D02*
X177500000Y-137230000D01*
X175625400Y-128041700D02*
X175625400Y-135355400D01*
X161171200Y-117872100D02*
X161171200Y-125117200D01*
X159733700Y-116434600D02*
X161171200Y-117872100D01*
X159733700Y-110507600D02*
X159733700Y-116434600D01*
X161051300Y-109190000D02*
X159733700Y-110507600D01*
X161450000Y-109190000D02*
X161051300Y-109190000D01*
%TO.N,Net-(J16-Pin_2)*%
X177000000Y-125500000D02*
X177000000Y-126301700D01*
X173620000Y-129196300D02*
X173620000Y-130230000D01*
X176514600Y-126301700D02*
X173620000Y-129196300D01*
X177000000Y-126301700D02*
X176514600Y-126301700D01*
%TO.N,ATTINY_RST*%
X160500000Y-119398600D02*
X160500000Y-126730000D01*
X159172700Y-118071300D02*
X160500000Y-119398600D01*
X159172700Y-114027500D02*
X159172700Y-118071300D01*
X156875200Y-111730000D02*
X159172700Y-114027500D01*
X156500000Y-111730000D02*
X156875200Y-111730000D01*
%TO.N,Net-(J11-Pin_2)*%
X106270000Y-78730000D02*
X106270000Y-79531700D01*
X108969800Y-97699800D02*
X112500000Y-101230000D01*
X108969800Y-82606600D02*
X108969800Y-97699800D01*
X106270000Y-79906800D02*
X108969800Y-82606600D01*
X106270000Y-79531700D02*
X106270000Y-79906800D01*
%TO.N,Net-(J10-Pin_2)*%
X109702000Y-87932000D02*
X112500000Y-90730000D01*
X109702000Y-83540100D02*
X109702000Y-87932000D01*
%TO.N,CC2*%
X119000000Y-54305200D02*
X119000000Y-52230000D01*
X105500000Y-36230000D02*
X105500000Y-52530000D01*
%TO.N,CC1*%
X132000000Y-99230000D02*
X132000000Y-98128300D01*
X119000000Y-45730000D02*
X119000000Y-48720000D01*
X127082200Y-93210500D02*
X132000000Y-98128300D01*
X127082200Y-56802200D02*
X127082200Y-93210500D01*
X119000000Y-48720000D02*
X127082200Y-56802200D01*
%TO.N,Net-(J9-Pin_1)*%
X179882300Y-52949400D02*
X181000000Y-51831700D01*
X179882300Y-61112300D02*
X179882300Y-52949400D01*
X181000000Y-62230000D02*
X179882300Y-61112300D01*
X181000000Y-50730000D02*
X181000000Y-51831700D01*
%TO.N,Net-(J8-Pin_1)*%
X181000000Y-37230000D02*
X181000000Y-39610000D01*
%TO.N,Net-(J7-Pin_2)*%
X180215000Y-99255000D02*
X181500000Y-100540000D01*
X180215000Y-82589200D02*
X180215000Y-99255000D01*
X181270000Y-81534200D02*
X180215000Y-82589200D01*
X181270000Y-76730000D02*
X181270000Y-81534200D01*
%TO.N,Net-(Q6-C)*%
X132542800Y-139831100D02*
X135770000Y-139831100D01*
X130000000Y-142373900D02*
X132542800Y-139831100D01*
X130000000Y-149022800D02*
X130000000Y-142373900D01*
X135770000Y-140882800D02*
X135770000Y-139831100D01*
%TO.N,Net-(Q6-B)*%
X134500000Y-140882800D02*
X134500000Y-149382800D01*
%TO.N,Net-(Q5-B)*%
X117730000Y-149522800D02*
X117730000Y-141022800D01*
%TO.N,Net-(Q4-G)*%
X136596700Y-144171900D02*
X136596700Y-149382800D01*
X139245800Y-141522800D02*
X136596700Y-144171900D01*
X140500000Y-141522800D02*
X139245800Y-141522800D01*
X135770000Y-149382800D02*
X136596700Y-149382800D01*
%TO.N,Net-(Q3-G)*%
X111708300Y-148532800D02*
X111708300Y-149472800D01*
X106000000Y-142824500D02*
X111708300Y-148532800D01*
X106000000Y-141522800D02*
X106000000Y-142824500D01*
X112810000Y-149472800D02*
X111708300Y-149472800D01*
%TO.N,ESP32_0*%
X143848300Y-75680000D02*
X143848300Y-71880000D01*
X145000000Y-75680000D02*
X143848300Y-75680000D01*
X145000000Y-71880000D02*
X144424200Y-71880000D01*
X144424200Y-71880000D02*
X143848300Y-71880000D01*
X141876600Y-92750300D02*
X141876600Y-125770000D01*
X143848300Y-90778600D02*
X141876600Y-92750300D01*
X143848300Y-75680000D02*
X143848300Y-90778600D01*
X141354500Y-54580000D02*
X142406200Y-54580000D01*
X168551700Y-41628300D02*
X168551700Y-52111800D01*
X171500000Y-38680000D02*
X168551700Y-41628300D01*
X142571100Y-54744900D02*
X142731500Y-54744900D01*
X142406200Y-54580000D02*
X142571100Y-54744900D01*
X142731500Y-70187300D02*
X144424200Y-71880000D01*
X142731500Y-54744900D02*
X142731500Y-70187300D01*
%TO.N,DTR*%
X111000000Y-116350000D02*
X111000000Y-117451700D01*
X105360000Y-123230000D02*
X105360000Y-122816600D01*
X110311600Y-117451700D02*
X107332900Y-120430400D01*
X111000000Y-117451700D02*
X110311600Y-117451700D01*
X105360000Y-122403300D02*
X105360000Y-122816600D01*
X107332900Y-120430400D02*
X105360000Y-122403300D01*
X101265900Y-114363400D02*
X107332900Y-120430400D01*
X101265900Y-70568900D02*
X101265900Y-114363400D01*
X102564800Y-69270000D02*
X101265900Y-70568900D01*
X103000000Y-69270000D02*
X102564800Y-69270000D01*
%TO.N,RTS*%
X102655300Y-70540000D02*
X103000000Y-70540000D01*
X101667600Y-71527700D02*
X102655300Y-70540000D01*
X101667600Y-114089300D02*
X101667600Y-71527700D01*
X104308300Y-116730000D02*
X101667600Y-114089300D01*
X105360000Y-116730000D02*
X104308300Y-116730000D01*
%TO.N,ESP32_IO5*%
X139761700Y-53080000D02*
X141354500Y-53080000D01*
X138301700Y-54540000D02*
X139761700Y-53080000D01*
X137710800Y-54540000D02*
X138301700Y-54540000D01*
X137710800Y-54540000D02*
X137500000Y-54540000D01*
X135298500Y-71931500D02*
X130000000Y-77230000D01*
X135298500Y-56741500D02*
X135298500Y-71931500D01*
X137500000Y-54540000D02*
X135298500Y-56741500D01*
%TO.N,ESP32_IO19*%
X158651700Y-54580000D02*
X158854500Y-54580000D01*
X154565900Y-58665800D02*
X158651700Y-54580000D01*
X154565900Y-61019800D02*
X154565900Y-58665800D01*
X162893900Y-63209500D02*
X163046200Y-63057200D01*
X162893900Y-67688500D02*
X162893900Y-63209500D01*
X166923800Y-71718400D02*
X162893900Y-67688500D01*
X166923800Y-79103800D02*
X166923800Y-71718400D01*
X171500000Y-83680000D02*
X166923800Y-79103800D01*
%TO.N,ESP32_IO1*%
X157802800Y-50262300D02*
X157583400Y-50481700D01*
X157802800Y-50080000D02*
X157802800Y-50262300D01*
X158854500Y-50080000D02*
X157802800Y-50080000D01*
X130477400Y-47730000D02*
X130000000Y-47730000D01*
X134747400Y-52000000D02*
X130477400Y-47730000D01*
X137500000Y-52000000D02*
X134747400Y-52000000D01*
%TO.N,ESP32_IO8*%
X139802800Y-57080000D02*
X140302800Y-57580000D01*
X137500000Y-57080000D02*
X139802800Y-57080000D01*
X141354500Y-57580000D02*
X140302800Y-57580000D01*
X170723300Y-53680000D02*
X169539900Y-54863400D01*
X171500000Y-53680000D02*
X170723300Y-53680000D01*
%TO.N,ESP32_IO9*%
X139572800Y-58350000D02*
X140302800Y-59080000D01*
X137500000Y-58350000D02*
X139572800Y-58350000D01*
X141354500Y-59080000D02*
X140302800Y-59080000D01*
X171500000Y-60680000D02*
X171500000Y-58350000D01*
%TO.N,ESP32_IO7*%
X140032800Y-55810000D02*
X140302800Y-56080000D01*
X137500000Y-55810000D02*
X140032800Y-55810000D01*
X141354500Y-56080000D02*
X140302800Y-56080000D01*
X171500000Y-46180000D02*
X171500000Y-51109100D01*
%TO.N,ESP32_IO4*%
X139991700Y-51580000D02*
X141354500Y-51580000D01*
X138301700Y-53270000D02*
X139991700Y-51580000D01*
X137710800Y-53270000D02*
X138301700Y-53270000D01*
X137710800Y-53270000D02*
X137500000Y-53270000D01*
X133706800Y-66523200D02*
X130000000Y-70230000D01*
X133706800Y-57063200D02*
X133706800Y-66523200D01*
X137500000Y-53270000D02*
X133706800Y-57063200D01*
%TO.N,ESP32_IO0*%
X130000000Y-42428300D02*
X130000000Y-40230000D01*
X137500000Y-49928300D02*
X130000000Y-42428300D01*
X137500000Y-50730000D02*
X137500000Y-49928300D01*
X158854500Y-48580000D02*
X159906200Y-48580000D01*
X159906200Y-48458900D02*
X159906200Y-48580000D01*
X160110500Y-48254600D02*
X159906200Y-48458900D01*
%TO.N,ESP32_IO10*%
X158854500Y-60580000D02*
X157802800Y-60580000D01*
X168551700Y-65731700D02*
X168551700Y-61474400D01*
X171500000Y-68680000D02*
X168551700Y-65731700D01*
X157602100Y-60379300D02*
X157602100Y-60377700D01*
X157802800Y-60580000D02*
X157602100Y-60379300D01*
%TO.N,ESP32_SDA*%
X158854500Y-51580000D02*
X157802800Y-51580000D01*
X157802800Y-54038400D02*
X157600100Y-54241100D01*
X157802800Y-51580000D02*
X157802800Y-54038400D01*
X130000000Y-55230000D02*
X130000000Y-51469600D01*
X156656100Y-53297100D02*
X156656100Y-47991900D01*
X157600100Y-54241100D02*
X156656100Y-53297100D01*
X171540000Y-90230000D02*
X171540000Y-91031700D01*
X164949500Y-134969600D02*
X164949500Y-143730000D01*
X169789900Y-130129200D02*
X164949500Y-134969600D01*
X169789900Y-92781800D02*
X169789900Y-130129200D01*
X171540000Y-91031700D02*
X169789900Y-92781800D01*
X173703400Y-56850500D02*
X173137200Y-56284300D01*
X173703400Y-84992800D02*
X173703400Y-56850500D01*
X171540000Y-87156200D02*
X173703400Y-84992800D01*
X171540000Y-90230000D02*
X171540000Y-87156200D01*
%TO.N,ESP32_SCL*%
X172810000Y-90230000D02*
X172810000Y-89428300D01*
X162325100Y-50660900D02*
X159906000Y-53080000D01*
X162325100Y-48603800D02*
X162325100Y-50660900D01*
X158854500Y-53080000D02*
X159906000Y-53080000D01*
X160574100Y-53748100D02*
X160574100Y-63710600D01*
X159906000Y-53080000D02*
X160574100Y-53748100D01*
X130000000Y-64241800D02*
X130000000Y-62230000D01*
X174105100Y-54124900D02*
X181000000Y-47230000D01*
X174105100Y-88133200D02*
X174105100Y-54124900D01*
X172810000Y-89428300D02*
X174105100Y-88133200D01*
X136274500Y-86096700D02*
X136274500Y-131180000D01*
X128198300Y-78020500D02*
X136274500Y-86096700D01*
X128198300Y-66043500D02*
X128198300Y-78020500D01*
X130000000Y-64241800D02*
X128198300Y-66043500D01*
%TO.N,ATTINY_STAT*%
X162820000Y-113000000D02*
X167000000Y-117180000D01*
X161450000Y-113000000D02*
X162820000Y-113000000D01*
X168801700Y-118981700D02*
X168801700Y-126314800D01*
X167000000Y-117180000D02*
X168801700Y-118981700D01*
%TO.N,Net-(D3-K)*%
X181500000Y-88692200D02*
X181500000Y-92920000D01*
X181464500Y-88656700D02*
X181500000Y-88692200D01*
X181464500Y-87455000D02*
X181464500Y-88656700D01*
%TO.N,Net-(D2-A)*%
X195765000Y-80032000D02*
X195765000Y-67230000D01*
X198463000Y-82730000D02*
X195765000Y-80032000D01*
X200120000Y-82730000D02*
X198463000Y-82730000D01*
%TO.N,ESP32_IO18_SCK*%
X169266800Y-88507600D02*
X169266800Y-89044000D01*
X173301700Y-84472700D02*
X169266800Y-88507600D01*
X173301700Y-77981700D02*
X173301700Y-84472700D01*
X171500000Y-76180000D02*
X173301700Y-77981700D01*
X151765000Y-87528500D02*
X151765000Y-91730000D01*
X148660500Y-84424000D02*
X151765000Y-87528500D01*
X148660500Y-81474500D02*
X148660500Y-84424000D01*
X154691700Y-75443300D02*
X148660500Y-81474500D01*
X154691700Y-67607600D02*
X154691700Y-75443300D01*
X155600600Y-66698700D02*
X154691700Y-67607600D01*
X155600600Y-58282200D02*
X155600600Y-66698700D01*
X157802800Y-56080000D02*
X155600600Y-58282200D01*
X158854500Y-56080000D02*
X157802800Y-56080000D01*
%TO.N,Net-(U4-V3)*%
X113500000Y-74421300D02*
X113500000Y-77230000D01*
X108348700Y-69270000D02*
X113500000Y-74421300D01*
X107950000Y-69270000D02*
X108348700Y-69270000D01*
%TO.N,V_USB*%
X116460000Y-105164200D02*
X119392500Y-102231700D01*
X116460000Y-141022800D02*
X116460000Y-105164200D01*
X119392500Y-100730000D02*
X119392500Y-102231700D01*
X119392500Y-100730000D02*
X119392500Y-99228300D01*
X117837100Y-73142900D02*
X119500000Y-71480000D01*
X117837100Y-97672900D02*
X117837100Y-73142900D01*
X119392500Y-99228300D02*
X117837100Y-97672900D01*
X113464500Y-46180000D02*
X114266200Y-46180000D01*
X115534400Y-46180000D02*
X114266200Y-46180000D01*
X115534400Y-67514400D02*
X115534400Y-46180000D01*
X119500000Y-71480000D02*
X115534400Y-67514400D01*
X115534400Y-42195600D02*
X119000000Y-38730000D01*
X115534400Y-46180000D02*
X115534400Y-42195600D01*
%TO.N,Net-(J4-Pin_1)*%
X193000000Y-39854300D02*
X193000000Y-46230000D01*
X195074300Y-37780000D02*
X193000000Y-39854300D01*
X195500000Y-37780000D02*
X195074300Y-37780000D01*
X196965200Y-63695200D02*
X200000000Y-66730000D01*
X196965200Y-54195100D02*
X196965200Y-63695200D01*
X193000000Y-50229900D02*
X196965200Y-54195100D01*
X193000000Y-46230000D02*
X193000000Y-50229900D01*
%TO.N,Net-(J4-Pin_2)*%
X197833400Y-70399000D02*
X197833400Y-81175800D01*
X200801700Y-67430700D02*
X197833400Y-70399000D01*
X200801700Y-65460000D02*
X200801700Y-67430700D01*
X200000000Y-65460000D02*
X200801700Y-65460000D01*
%TO.N,Net-(U2-PROG)*%
X200120000Y-75730000D02*
X200120000Y-74628300D01*
X200000000Y-50173900D02*
X200000000Y-53730000D01*
X196779700Y-46953600D02*
X200000000Y-50173900D01*
X196779700Y-38775300D02*
X196779700Y-46953600D01*
X197775000Y-37780000D02*
X196779700Y-38775300D01*
X201268600Y-54998600D02*
X200000000Y-53730000D01*
X201268600Y-73479700D02*
X201268600Y-54998600D01*
X200120000Y-74628300D02*
X201268600Y-73479700D01*
%TO.N,+5V*%
X199500000Y-131230000D02*
X199500000Y-129975800D01*
X200008600Y-118721400D02*
X199000000Y-119730000D01*
X200008600Y-109093600D02*
X200008600Y-118721400D01*
X198895000Y-107980000D02*
X200008600Y-109093600D01*
X200048700Y-129975800D02*
X199500000Y-129975800D01*
X200803700Y-129220800D02*
X200048700Y-129975800D01*
X200803700Y-121533700D02*
X200803700Y-129220800D01*
X199000000Y-119730000D02*
X200803700Y-121533700D01*
%TO.N,ESP32_3.3*%
X199000000Y-142480000D02*
X199000000Y-137730000D01*
X199500000Y-126150000D02*
X199500000Y-127404200D01*
X141354500Y-48580000D02*
X142406200Y-48580000D01*
X146500000Y-52673800D02*
X142406200Y-48580000D01*
X146500000Y-66730000D02*
X146500000Y-52673800D01*
X181000000Y-60960000D02*
X181801700Y-60960000D01*
X174000000Y-142877800D02*
X174000000Y-136730000D01*
X164949500Y-151928300D02*
X174000000Y-142877800D01*
X164949500Y-152730000D02*
X164949500Y-151928300D01*
X182123900Y-60960000D02*
X181801700Y-60960000D01*
X182123900Y-36282200D02*
X182123900Y-60960000D01*
X181801700Y-35960000D02*
X182123900Y-36282200D01*
X182123900Y-84255600D02*
X181464500Y-84915000D01*
X182123900Y-60960000D02*
X182123900Y-84255600D01*
X181000000Y-35960000D02*
X181801700Y-35960000D01*
X177583400Y-130711700D02*
X177500000Y-130711700D01*
X181000000Y-134128300D02*
X177583400Y-130711700D01*
X181000000Y-135230000D02*
X181000000Y-134128300D01*
X177500000Y-129610000D02*
X177500000Y-130711700D01*
X107040000Y-88680000D02*
X107040000Y-97230000D01*
X103000000Y-84640000D02*
X107040000Y-88680000D01*
X103000000Y-73080000D02*
X103000000Y-84640000D01*
X110405000Y-68635000D02*
X112500000Y-70730000D01*
X106933000Y-68635000D02*
X110405000Y-68635000D01*
X105971100Y-69596900D02*
X106933000Y-68635000D01*
X105971100Y-70493800D02*
X105971100Y-69596900D01*
X103384900Y-73080000D02*
X105971100Y-70493800D01*
X103000000Y-73080000D02*
X103384900Y-73080000D01*
X140000000Y-76980800D02*
X140000000Y-83680000D01*
X156500000Y-107920000D02*
X156138200Y-107920000D01*
X155193100Y-129043100D02*
X157960000Y-131810000D01*
X155193100Y-108865100D02*
X155193100Y-129043100D01*
X156138200Y-107920000D02*
X155193100Y-108865100D01*
X149500000Y-75230000D02*
X148660500Y-75230000D01*
X146500000Y-73069500D02*
X146500000Y-66730000D01*
X148660500Y-75230000D02*
X146500000Y-73069500D01*
X197768500Y-136498500D02*
X199000000Y-137730000D01*
X197768500Y-128568500D02*
X197768500Y-136498500D01*
X198932800Y-127404200D02*
X197768500Y-128568500D01*
X199500000Y-127404200D02*
X198932800Y-127404200D01*
X150494900Y-102276700D02*
X156138200Y-107920000D01*
X150494900Y-89822600D02*
X150494900Y-102276700D01*
X148258800Y-87586500D02*
X150494900Y-89822600D01*
X148258800Y-75631700D02*
X148258800Y-87586500D01*
X148660500Y-75230000D02*
X148258800Y-75631700D01*
%TO.N,V_BATT*%
X195500000Y-49230000D02*
X196500000Y-50230000D01*
X195500000Y-39680000D02*
X195500000Y-49230000D01*
X191372200Y-61159500D02*
X192000000Y-60531700D01*
X191372200Y-95566700D02*
X191372200Y-61159500D01*
X194035500Y-98230000D02*
X191372200Y-95566700D01*
X192000000Y-59730000D02*
X192000000Y-60531700D01*
X198198300Y-51928300D02*
X196500000Y-50230000D01*
X198198300Y-58126600D02*
X198198300Y-51928300D01*
X199000000Y-58928300D02*
X198198300Y-58126600D01*
X199000000Y-59730000D02*
X199000000Y-58928300D01*
%TO.N,Net-(Q2-B)*%
X106411700Y-126261700D02*
X111000000Y-130850000D01*
X106411700Y-124500000D02*
X106411700Y-126261700D01*
X105360000Y-124500000D02*
X106411700Y-124500000D01*
%TO.N,5V_CHG*%
X112334200Y-146223700D02*
X115633300Y-149522800D01*
X112334200Y-141522800D02*
X112334200Y-146223700D01*
X111080000Y-141522800D02*
X112334200Y-141522800D01*
X116460000Y-149522800D02*
X115633300Y-149522800D01*
X194426700Y-85656700D02*
X199000000Y-90230000D01*
X194426700Y-69633400D02*
X194426700Y-85656700D01*
X193225000Y-68431700D02*
X194426700Y-69633400D01*
X193225000Y-67230000D02*
X193225000Y-68431700D01*
X200000000Y-41905000D02*
X200000000Y-46230000D01*
X197775000Y-39680000D02*
X200000000Y-41905000D01*
X204063300Y-50293300D02*
X204063300Y-63991500D01*
X200000000Y-46230000D02*
X204063300Y-50293300D01*
X147804400Y-140552600D02*
X147804400Y-98666600D01*
X146834200Y-141522800D02*
X147804400Y-140552600D01*
X145580000Y-141522800D02*
X146834200Y-141522800D01*
%TO.N,ESP32_EN*%
X156348300Y-71780000D02*
X156348300Y-75580000D01*
X157500000Y-75580000D02*
X156348300Y-75580000D01*
X157500000Y-71780000D02*
X156924200Y-71780000D01*
X156924200Y-71780000D02*
X156348300Y-71780000D01*
X158992100Y-69712100D02*
X158992100Y-66268300D01*
X156924200Y-71780000D02*
X158992100Y-69712100D01*
X141354500Y-50080000D02*
X142406200Y-50080000D01*
X166602400Y-64627600D02*
X164000000Y-67230000D01*
X166602400Y-50332400D02*
X166602400Y-64627600D01*
X165500000Y-49230000D02*
X166602400Y-50332400D01*
X156348300Y-75580000D02*
X156348300Y-83940100D01*
X142406200Y-50080000D02*
X142616200Y-50290000D01*
X130000000Y-85230000D02*
X131556800Y-85230000D01*
X131556800Y-83940100D02*
X131556800Y-85230000D01*
X133140700Y-91274900D02*
X133140700Y-114190000D01*
X131556800Y-89691000D02*
X133140700Y-91274900D01*
X131556800Y-85230000D02*
X131556800Y-89691000D01*
%TO.N,Net-(Q1-B)*%
X111000000Y-110871700D02*
X106411700Y-115460000D01*
X111000000Y-108730000D02*
X111000000Y-110871700D01*
X105360000Y-115460000D02*
X106411700Y-115460000D01*
%TO.N,GND*%
X194000000Y-93194500D02*
X194000000Y-90230000D01*
X199035500Y-98230000D02*
X194000000Y-93194500D01*
X137548300Y-75680000D02*
X137548300Y-71880000D01*
X138700000Y-75680000D02*
X137548300Y-75680000D01*
X138700000Y-71880000D02*
X138124200Y-71880000D01*
X138124200Y-71880000D02*
X137548300Y-71880000D01*
X141354500Y-60580000D02*
X140302800Y-60580000D01*
X166500000Y-149107800D02*
X163679500Y-151928300D01*
X166500000Y-136730000D02*
X166500000Y-149107800D01*
X163679500Y-152730000D02*
X163679500Y-151928300D01*
X197793300Y-99472200D02*
X199035500Y-98230000D01*
X197793300Y-113276600D02*
X197793300Y-99472200D01*
X198895000Y-114378300D02*
X197793300Y-113276600D01*
X198895000Y-115480000D02*
X198895000Y-114378300D01*
X138124200Y-71880000D02*
X139827300Y-70176900D01*
X140302800Y-69701400D02*
X140302800Y-60580000D01*
X139827300Y-70176900D02*
X140302800Y-69701400D01*
X149964500Y-54230000D02*
X149964500Y-55330000D01*
X150514500Y-53680000D02*
X150514500Y-54780000D01*
X150514500Y-54780000D02*
X150514500Y-55880000D01*
X151064500Y-54230000D02*
X151064500Y-54780000D01*
X151064500Y-54780000D02*
X151064500Y-55330000D01*
X151614500Y-53680000D02*
X151614500Y-54780000D01*
X152164500Y-54230000D02*
X152164500Y-55330000D01*
X189250000Y-111980000D02*
X189250000Y-113980000D01*
X185000000Y-107730000D02*
X189250000Y-111980000D01*
X162648300Y-71780000D02*
X162648300Y-75580000D01*
X163800000Y-75580000D02*
X162648300Y-75580000D01*
X122380000Y-140522800D02*
X122380000Y-149022800D01*
X194000000Y-77230000D02*
X192500000Y-75730000D01*
X194000000Y-90230000D02*
X194000000Y-77230000D01*
X193270000Y-62955600D02*
X193270000Y-59730000D01*
X192023300Y-64202300D02*
X193270000Y-62955600D01*
X192023300Y-75253300D02*
X192023300Y-64202300D01*
X192500000Y-75730000D02*
X192023300Y-75253300D01*
X119392500Y-82730000D02*
X119392500Y-84231700D01*
X159000000Y-90730000D02*
X159801700Y-90730000D01*
X161450000Y-92378300D02*
X159801700Y-90730000D01*
X161450000Y-107920000D02*
X161450000Y-92378300D01*
X162648300Y-76504100D02*
X162422400Y-76730000D01*
X162648300Y-75580000D02*
X162648300Y-76504100D01*
X162810300Y-77117900D02*
X162422400Y-76730000D01*
X162810300Y-87721400D02*
X162810300Y-77117900D01*
X159801700Y-90730000D02*
X162810300Y-87721400D01*
X112500000Y-63230000D02*
X112500000Y-62128300D01*
X114722000Y-48707500D02*
X113464500Y-47450000D01*
X114722000Y-59906300D02*
X114722000Y-48707500D01*
X112500000Y-62128300D02*
X114722000Y-59906300D01*
X112662800Y-36687200D02*
X113120000Y-36230000D01*
X112662800Y-47450000D02*
X112662800Y-36687200D01*
X113464500Y-47450000D02*
X112662800Y-47450000D01*
X112500000Y-63230000D02*
X112500000Y-64331700D01*
X119392500Y-84231700D02*
X119500000Y-84231700D01*
X119500000Y-94350000D02*
X119500000Y-84231700D01*
X124380000Y-99230000D02*
X119500000Y-94350000D01*
X119500000Y-84231700D02*
X119500000Y-78980000D01*
X163800000Y-71780000D02*
X163224200Y-71780000D01*
X163224200Y-71780000D02*
X162648300Y-71780000D01*
X164000000Y-59730000D02*
X164000000Y-60831700D01*
X153964200Y-65592500D02*
X154000000Y-65628300D01*
X153964200Y-57129700D02*
X153964200Y-65592500D01*
X152164500Y-55330000D02*
X153964200Y-57129700D01*
X154000000Y-66730000D02*
X154000000Y-65628300D01*
X198170200Y-130019800D02*
X199500000Y-128690000D01*
X198170200Y-133111000D02*
X198170200Y-130019800D01*
X200830700Y-135771500D02*
X198170200Y-133111000D01*
X200830700Y-147047600D02*
X200830700Y-135771500D01*
X199000000Y-148878300D02*
X200830700Y-147047600D01*
X199000000Y-149980000D02*
X199000000Y-148878300D01*
X162441500Y-70997300D02*
X163224200Y-71780000D01*
X162441500Y-62390200D02*
X162441500Y-70997300D01*
X164000000Y-60831700D02*
X162441500Y-62390200D01*
X114601700Y-66433400D02*
X112500000Y-64331700D01*
X114601700Y-77686400D02*
X114601700Y-66433400D01*
X113956400Y-78331700D02*
X114601700Y-77686400D01*
X112601700Y-78331700D02*
X113956400Y-78331700D01*
X111500000Y-77230000D02*
X112601700Y-78331700D01*
X111500000Y-76630000D02*
X111500000Y-77230000D01*
X107950000Y-73080000D02*
X111500000Y-76630000D01*
X154000000Y-72730000D02*
X151500000Y-75230000D01*
X154000000Y-66730000D02*
X154000000Y-72730000D01*
X193270000Y-54000000D02*
X193000000Y-53730000D01*
X193270000Y-59730000D02*
X193270000Y-54000000D01*
X195897700Y-38730000D02*
X195500000Y-38730000D01*
X196499300Y-38128400D02*
X195897700Y-38730000D01*
X196499300Y-37403900D02*
X196499300Y-38128400D01*
X196257700Y-37162300D02*
X196499300Y-37403900D01*
X194753800Y-37162300D02*
X196257700Y-37162300D01*
X191198300Y-40717800D02*
X194753800Y-37162300D01*
X191198300Y-51928300D02*
X191198300Y-40717800D01*
X193000000Y-53730000D02*
X191198300Y-51928300D01*
%TD*%
M02*
