%TF.GenerationSoftware,KiCad,Pcbnew,9.0.0-rc3*%
%TF.CreationDate,2025-04-06T11:09:10-05:00*%
%TF.ProjectId,Brine,4272696e-652e-46b6-9963-61645f706362,Dev Board 01*%
%TF.SameCoordinates,Original*%
%TF.FileFunction,Copper,L1,Top*%
%TF.FilePolarity,Positive*%
%FSLAX46Y46*%
G04 Gerber Fmt 4.6, Leading zero omitted, Abs format (unit mm)*
G04 Created by KiCad (PCBNEW 9.0.0-rc3) date 2025-04-06 11:09:10*
%MOMM*%
%LPD*%
G01*
G04 APERTURE LIST*
G04 Aperture macros list*
%AMRoundRect*
0 Rectangle with rounded corners*
0 $1 Rounding radius*
0 $2 $3 $4 $5 $6 $7 $8 $9 X,Y pos of 4 corners*
0 Add a 4 corners polygon primitive as box body*
4,1,4,$2,$3,$4,$5,$6,$7,$8,$9,$2,$3,0*
0 Add four circle primitives for the rounded corners*
1,1,$1+$1,$2,$3*
1,1,$1+$1,$4,$5*
1,1,$1+$1,$6,$7*
1,1,$1+$1,$8,$9*
0 Add four rect primitives between the rounded corners*
20,1,$1+$1,$2,$3,$4,$5,0*
20,1,$1+$1,$4,$5,$6,$7,0*
20,1,$1+$1,$6,$7,$8,$9,0*
20,1,$1+$1,$8,$9,$2,$3,0*%
G04 Aperture macros list end*
%TA.AperFunction,ComponentPad*%
%ADD10R,1.000000X1.000000*%
%TD*%
%TA.AperFunction,ComponentPad*%
%ADD11O,1.000000X1.000000*%
%TD*%
%TA.AperFunction,ComponentPad*%
%ADD12O,2.000000X1.905000*%
%TD*%
%TA.AperFunction,ComponentPad*%
%ADD13R,2.000000X1.905000*%
%TD*%
%TA.AperFunction,SMDPad,CuDef*%
%ADD14C,3.000000*%
%TD*%
%TA.AperFunction,ComponentPad*%
%ADD15C,1.600000*%
%TD*%
%TA.AperFunction,ComponentPad*%
%ADD16O,1.600000X1.600000*%
%TD*%
%TA.AperFunction,ComponentPad*%
%ADD17C,1.800000*%
%TD*%
%TA.AperFunction,ComponentPad*%
%ADD18R,1.800000X1.800000*%
%TD*%
%TA.AperFunction,ComponentPad*%
%ADD19O,2.400000X2.400000*%
%TD*%
%TA.AperFunction,ComponentPad*%
%ADD20R,2.400000X2.400000*%
%TD*%
%TA.AperFunction,SMDPad,CuDef*%
%ADD21RoundRect,0.150000X0.825000X0.150000X-0.825000X0.150000X-0.825000X-0.150000X0.825000X-0.150000X0*%
%TD*%
%TA.AperFunction,SMDPad,CuDef*%
%ADD22R,1.700000X1.000000*%
%TD*%
%TA.AperFunction,ComponentPad*%
%ADD23C,2.159000*%
%TD*%
%TA.AperFunction,ComponentPad*%
%ADD24C,1.676400*%
%TD*%
%TA.AperFunction,HeatsinkPad*%
%ADD25C,0.600000*%
%TD*%
%TA.AperFunction,HeatsinkPad*%
%ADD26R,2.900000X2.900000*%
%TD*%
%TA.AperFunction,SMDPad,CuDef*%
%ADD27R,1.500000X0.900000*%
%TD*%
%TA.AperFunction,ComponentPad*%
%ADD28R,1.050000X1.500000*%
%TD*%
%TA.AperFunction,ComponentPad*%
%ADD29O,1.050000X1.500000*%
%TD*%
%TA.AperFunction,ComponentPad*%
%ADD30R,1.500000X1.050000*%
%TD*%
%TA.AperFunction,ComponentPad*%
%ADD31O,1.500000X1.050000*%
%TD*%
%TA.AperFunction,ComponentPad*%
%ADD32RoundRect,0.250000X0.600000X0.600000X-0.600000X0.600000X-0.600000X-0.600000X0.600000X-0.600000X0*%
%TD*%
%TA.AperFunction,ComponentPad*%
%ADD33C,1.700000*%
%TD*%
%TA.AperFunction,SMDPad,CuDef*%
%ADD34RoundRect,0.150000X-0.825000X-0.150000X0.825000X-0.150000X0.825000X0.150000X-0.825000X0.150000X0*%
%TD*%
%TA.AperFunction,SMDPad,CuDef*%
%ADD35RoundRect,0.150000X-0.512500X-0.150000X0.512500X-0.150000X0.512500X0.150000X-0.512500X0.150000X0*%
%TD*%
%TA.AperFunction,ComponentPad*%
%ADD36R,1.905000X2.000000*%
%TD*%
%TA.AperFunction,ComponentPad*%
%ADD37O,1.905000X2.000000*%
%TD*%
%TA.AperFunction,ViaPad*%
%ADD38C,0.600000*%
%TD*%
%TA.AperFunction,Conductor*%
%ADD39C,0.200000*%
%TD*%
G04 APERTURE END LIST*
D10*
%TO.P,J19,1,Pin_1*%
%TO.N,GND*%
X116500000Y-110500000D03*
D11*
%TO.P,J19,2,Pin_2*%
%TO.N,ESP32_3.3*%
X116500000Y-111770000D03*
%TO.P,J19,3,Pin_3*%
%TO.N,ESP32_SDA*%
X116500000Y-113040000D03*
%TO.P,J19,4,Pin_4*%
%TO.N,ESP32_SCL*%
X116500000Y-114310000D03*
%TD*%
D10*
%TO.P,J18,1,Pin_1*%
%TO.N,GND*%
X116500000Y-125500000D03*
D11*
%TO.P,J18,2,Pin_2*%
%TO.N,ESP32_3.3*%
X116500000Y-126770000D03*
%TO.P,J18,3,Pin_3*%
%TO.N,ESP32_SDA*%
X116500000Y-128040000D03*
%TO.P,J18,4,Pin_4*%
%TO.N,ESP32_SCL*%
X116500000Y-129310000D03*
%TD*%
D10*
%TO.P,J7,1,Pin_1*%
%TO.N,GND*%
X181500000Y-79500000D03*
D11*
%TO.P,J7,2,Pin_2*%
%TO.N,Net-(J7-Pin_2)*%
X182770000Y-79500000D03*
%TD*%
D10*
%TO.P,J17,1,Pin_1*%
%TO.N,GND*%
X189230000Y-145500000D03*
D11*
%TO.P,J17,2,Pin_2*%
%TO.N,ESP32_3.3*%
X190500000Y-145500000D03*
%TD*%
D12*
%TO.P,U3,3,VO*%
%TO.N,ESP32_3.3*%
X199500000Y-126150000D03*
%TO.P,U3,2,GND*%
%TO.N,GND*%
X199500000Y-128690000D03*
D13*
%TO.P,U3,1,VI*%
%TO.N,+5V*%
X199500000Y-131230000D03*
%TD*%
D14*
%TO.P,TP7,1,1*%
%TO.N,+5V*%
X199000000Y-119730000D03*
%TD*%
%TO.P,TP32,1,1*%
%TO.N,BUTTON*%
X167000000Y-109680000D03*
%TD*%
D15*
%TO.P,C11,2*%
%TO.N,GND*%
X111500000Y-77230000D03*
%TO.P,C11,1*%
%TO.N,Net-(U4-V3)*%
X113500000Y-77230000D03*
%TD*%
D16*
%TO.P,R17,2*%
%TO.N,Net-(D5-K)*%
X112500000Y-93610000D03*
D15*
%TO.P,R17,1*%
%TO.N,Net-(J11-Pin_2)*%
X112500000Y-101230000D03*
%TD*%
D11*
%TO.P,USB-C1,6,Pin_6*%
%TO.N,CC2*%
X113464500Y-52530000D03*
%TO.P,USB-C1,5,Pin_5*%
%TO.N,D+*%
X113464500Y-51260000D03*
%TO.P,USB-C1,4,Pin_4*%
%TO.N,D-*%
X113464500Y-49990000D03*
%TO.P,USB-C1,3,Pin_3*%
%TO.N,CC1*%
X113464500Y-48720000D03*
%TO.P,USB-C1,2,Pin_2*%
%TO.N,GND*%
X113464500Y-47450000D03*
D10*
%TO.P,USB-C1,1,Pin_1*%
%TO.N,V_USB*%
X113464500Y-46180000D03*
%TD*%
D16*
%TO.P,C10,2*%
%TO.N,GND*%
X112500000Y-63230000D03*
D15*
%TO.P,C10,1*%
%TO.N,ESP32_3.3*%
X112500000Y-70730000D03*
%TD*%
D11*
%TO.P,J10,2,Pin_2*%
%TO.N,Net-(J10-Pin_2)*%
X106270000Y-82230000D03*
D10*
%TO.P,J10,1,Pin_1*%
%TO.N,ESP32_RX*%
X105000000Y-82230000D03*
%TD*%
D17*
%TO.P,D5,2,A*%
%TO.N,ESP32_3.3*%
X107040000Y-97230000D03*
D18*
%TO.P,D5,1,K*%
%TO.N,Net-(D5-K)*%
X104500000Y-97230000D03*
%TD*%
D19*
%TO.P,C9,2*%
%TO.N,GND*%
X119392500Y-82730000D03*
D20*
%TO.P,C9,1*%
%TO.N,V_USB*%
X119392500Y-100730000D03*
%TD*%
D14*
%TO.P,TP29,1,1*%
%TO.N,D-*%
X119000000Y-58730000D03*
%TD*%
D16*
%TO.P,R16,2*%
%TO.N,Net-(D4-K)*%
X112500000Y-83110000D03*
D15*
%TO.P,R16,1*%
%TO.N,Net-(J10-Pin_2)*%
X112500000Y-90730000D03*
%TD*%
D16*
%TO.P,C8,2*%
%TO.N,GND*%
X119500000Y-78980000D03*
D15*
%TO.P,C8,1*%
%TO.N,V_USB*%
X119500000Y-71480000D03*
%TD*%
D17*
%TO.P,D4,2,A*%
%TO.N,ESP32_3.3*%
X107040000Y-88680000D03*
D18*
%TO.P,D4,1,K*%
%TO.N,Net-(D4-K)*%
X104500000Y-88680000D03*
%TD*%
D14*
%TO.P,TP28,1,1*%
%TO.N,CC1*%
X119000000Y-45730000D03*
%TD*%
%TO.P,TP27,1,1*%
%TO.N,V_USB*%
X119000000Y-38730000D03*
%TD*%
%TO.P,TP31,1,1*%
%TO.N,CC2*%
X119000000Y-52230000D03*
%TD*%
%TO.P,TP30,1,1*%
%TO.N,D+*%
X119000000Y-65730000D03*
%TD*%
D11*
%TO.P,J11,2,Pin_2*%
%TO.N,Net-(J11-Pin_2)*%
X106270000Y-78730000D03*
D10*
%TO.P,J11,1,Pin_1*%
%TO.N,ESP32_TX*%
X105000000Y-78730000D03*
%TD*%
D21*
%TO.P,U4,16,VCC*%
%TO.N,ESP32_3.3*%
X103000000Y-73080000D03*
%TO.P,U4,15,R232*%
%TO.N,unconnected-(U4-R232-Pad15)*%
X103000000Y-71810000D03*
%TO.P,U4,14,~{RTS}*%
%TO.N,RTS*%
X103000000Y-70540000D03*
%TO.P,U4,13,~{DTR}*%
%TO.N,DTR*%
X103000000Y-69270000D03*
%TO.P,U4,12,~{DCD}*%
%TO.N,unconnected-(U4-~{DCD}-Pad12)*%
X103000000Y-68000000D03*
%TO.P,U4,11,~{RI}*%
%TO.N,unconnected-(U4-~{RI}-Pad11)*%
X103000000Y-66730000D03*
%TO.P,U4,10,~{DSR}*%
%TO.N,unconnected-(U4-~{DSR}-Pad10)*%
X103000000Y-65460000D03*
%TO.P,U4,9,~{CTS}*%
%TO.N,unconnected-(U4-~{CTS}-Pad9)*%
X103000000Y-64190000D03*
%TO.P,U4,8,NC*%
%TO.N,unconnected-(U4-NC-Pad8)*%
X107950000Y-64190000D03*
%TO.P,U4,7,NC*%
%TO.N,unconnected-(U4-NC-Pad7)*%
X107950000Y-65460000D03*
%TO.P,U4,6,UD-*%
%TO.N,D-*%
X107950000Y-66730000D03*
%TO.P,U4,5,UD+*%
%TO.N,D+*%
X107950000Y-68000000D03*
%TO.P,U4,4,V3*%
%TO.N,Net-(U4-V3)*%
X107950000Y-69270000D03*
%TO.P,U4,3,RXD*%
%TO.N,ESP32_TX*%
X107950000Y-70540000D03*
%TO.P,U4,2,TXD*%
%TO.N,ESP32_RX*%
X107950000Y-71810000D03*
%TO.P,U4,1,GND*%
%TO.N,GND*%
X107950000Y-73080000D03*
%TD*%
D15*
%TO.P,R8,1*%
%TO.N,ESP32_SCL*%
X181500000Y-47230000D03*
D16*
%TO.P,R8,2*%
%TO.N,Net-(J8-Pin_1)*%
X181500000Y-39610000D03*
%TD*%
D10*
%TO.P,J8,1,Pin_1*%
%TO.N,Net-(J8-Pin_1)*%
X181500000Y-37230000D03*
D11*
%TO.P,J8,2,Pin_2*%
%TO.N,ESP32_3.3*%
X181500000Y-35960000D03*
%TD*%
D15*
%TO.P,R9,1*%
%TO.N,ESP32_SDA*%
X181500000Y-58350000D03*
D16*
%TO.P,R9,2*%
%TO.N,Net-(J9-Pin_1)*%
X181500000Y-50730000D03*
%TD*%
D10*
%TO.P,J9,1,Pin_1*%
%TO.N,Net-(J9-Pin_1)*%
X181500000Y-62230000D03*
D11*
%TO.P,J9,2,Pin_2*%
%TO.N,ESP32_3.3*%
X181500000Y-60960000D03*
%TD*%
D14*
%TO.P,TP14,1,1*%
%TO.N,ESP32_IO5*%
X130000000Y-77230000D03*
%TD*%
%TO.P,TP12,1,1*%
%TO.N,ESP32_SCL*%
X130000000Y-62230000D03*
%TD*%
%TO.P,TP10,1,1*%
%TO.N,ESP32_IO1*%
X130000000Y-47730000D03*
%TD*%
%TO.P,TP13,1,1*%
%TO.N,ESP32_IO4*%
X130000000Y-70230000D03*
%TD*%
%TO.P,TP9,1,1*%
%TO.N,ESP32_IO0*%
X130000000Y-40230000D03*
%TD*%
%TO.P,TP22,1,1*%
%TO.N,ESP32_EN*%
X130000000Y-85230000D03*
%TD*%
%TO.P,TP11,1,1*%
%TO.N,ESP32_SDA*%
X130000000Y-55230000D03*
%TD*%
D22*
%TO.P,S1,1,1*%
%TO.N,ESP32_EN*%
X157500000Y-75580000D03*
%TO.P,S1,2,2*%
%TO.N,GND*%
X163800000Y-75580000D03*
%TO.P,S1,3,3*%
%TO.N,ESP32_EN*%
X157500000Y-71780000D03*
%TO.P,S1,4,4*%
%TO.N,GND*%
X163800000Y-71780000D03*
%TD*%
D23*
%TO.P,SW1,1,1*%
%TO.N,GND*%
X185000000Y-107730000D03*
%TO.P,SW1,2*%
%TO.N,N/C*%
X185000000Y-120230000D03*
%TO.P,SW1,3,3*%
%TO.N,BUTTON*%
X180000000Y-107730000D03*
%TO.P,SW1,4*%
%TO.N,N/C*%
X180000000Y-120230000D03*
D24*
%TO.P,SW1,A,A*%
%TO.N,BUTTON_LED*%
X175750000Y-113980000D03*
%TO.P,SW1,C,C*%
%TO.N,GND*%
X189250000Y-113980000D03*
%TD*%
D10*
%TO.P,J14,1,Pin_1*%
%TO.N,ALT*%
X162409500Y-152730000D03*
D11*
%TO.P,J14,2,Pin_2*%
%TO.N,GND*%
X163679500Y-152730000D03*
%TO.P,J14,3,Pin_3*%
%TO.N,ESP32_3.3*%
X164949500Y-152730000D03*
%TD*%
D10*
%TO.P,J13,1,Pin_1*%
%TO.N,ESP32_SDA*%
X164949500Y-143730000D03*
D11*
%TO.P,J13,3,Pin_3*%
%TO.N,QST*%
X162409500Y-143730000D03*
%TO.P,J13,2,Pin_2*%
%TO.N,ESP32_SCL*%
X163679500Y-143730000D03*
%TD*%
D17*
%TO.P,D3,2,A*%
%TO.N,ESP32_3.3*%
X181464500Y-84915000D03*
D18*
%TO.P,D3,1,K*%
%TO.N,Net-(D3-K)*%
X181464500Y-87455000D03*
%TD*%
%TO.P,D6,1,K*%
%TO.N,Net-(D6-K)*%
X184000000Y-128730000D03*
D17*
%TO.P,D6,2,A*%
%TO.N,ATTINY_STAT*%
X184000000Y-126190000D03*
%TD*%
D14*
%TO.P,TP17,1,1*%
%TO.N,ESP32_IO8*%
X171500000Y-53680000D03*
%TD*%
%TO.P,TP20,1,1*%
%TO.N,ESP32_IO18_SCK*%
X171500000Y-76180000D03*
%TD*%
D15*
%TO.P,R20,1*%
%TO.N,ATTINY_INT*%
X177500000Y-137230000D03*
D16*
%TO.P,R20,2*%
%TO.N,ESP32_3.3*%
X177500000Y-129610000D03*
%TD*%
D14*
%TO.P,TP24,1,1*%
%TO.N,ESP32_RX*%
X161000000Y-83680000D03*
%TD*%
D16*
%TO.P,R4,2*%
%TO.N,Net-(D1-K)*%
X141810000Y-90730000D03*
D15*
%TO.P,R4,1*%
%TO.N,Net-(J3-Pin_2)*%
X134190000Y-90730000D03*
%TD*%
D14*
%TO.P,TP35,1,1*%
%TO.N,ATTINY_MISO*%
X172000000Y-109730000D03*
%TD*%
D16*
%TO.P,C4,2*%
%TO.N,GND*%
X154000000Y-66730000D03*
D15*
%TO.P,C4,1*%
%TO.N,ESP32_3.3*%
X146500000Y-66730000D03*
%TD*%
D25*
%TO.P,U1,19,GND*%
%TO.N,GND*%
X152164500Y-55330000D03*
X152164500Y-54230000D03*
X151614500Y-55880000D03*
X151614500Y-54780000D03*
X151614500Y-53680000D03*
X151064500Y-55330000D03*
D26*
X151064500Y-54780000D03*
D25*
X151064500Y-54230000D03*
X150514500Y-55880000D03*
X150514500Y-54780000D03*
X150514500Y-53680000D03*
X149964500Y-55330000D03*
X149964500Y-54230000D03*
D27*
%TO.P,U1,18,IO0*%
%TO.N,ESP32_IO0*%
X158854500Y-48580000D03*
%TO.P,U1,17,IO1*%
%TO.N,ESP32_IO1*%
X158854500Y-50080000D03*
%TO.P,U1,16,IO2*%
%TO.N,ESP32_SDA*%
X158854500Y-51580000D03*
%TO.P,U1,15,IO3*%
%TO.N,ESP32_SCL*%
X158854500Y-53080000D03*
%TO.P,U1,14,IO19*%
%TO.N,ESP32_IO19*%
X158854500Y-54580000D03*
%TO.P,U1,13,IO18*%
%TO.N,ESP32_IO18_SCK*%
X158854500Y-56080000D03*
%TO.P,U1,12,IO21/TXD*%
%TO.N,ESP32_TX*%
X158854500Y-57580000D03*
%TO.P,U1,11,IO20/RXD*%
%TO.N,ESP32_RX*%
X158854500Y-59080000D03*
%TO.P,U1,10,IO10*%
%TO.N,ESP32_IO10*%
X158854500Y-60580000D03*
%TO.P,U1,9,GND*%
%TO.N,GND*%
X141354500Y-60580000D03*
%TO.P,U1,8,IO9*%
%TO.N,ESP32_IO9*%
X141354500Y-59080000D03*
%TO.P,U1,7,IO8*%
%TO.N,ESP32_IO8*%
X141354500Y-57580000D03*
%TO.P,U1,6,IO7*%
%TO.N,ESP32_IO7*%
X141354500Y-56080000D03*
%TO.P,U1,5,IO6*%
%TO.N,ESP32_0*%
X141354500Y-54580000D03*
%TO.P,U1,4,IO5*%
%TO.N,ESP32_IO5*%
X141354500Y-53080000D03*
%TO.P,U1,3,IO4*%
%TO.N,ESP32_IO4*%
X141354500Y-51580000D03*
%TO.P,U1,2,EN*%
%TO.N,ESP32_EN*%
X141354500Y-50080000D03*
%TO.P,U1,1,3V3*%
%TO.N,ESP32_3.3*%
X141354500Y-48580000D03*
%TD*%
D14*
%TO.P,TP21,1,1*%
%TO.N,ESP32_IO19*%
X171500000Y-83680000D03*
%TD*%
D28*
%TO.P,Q5,1,E*%
%TO.N,V_USB*%
X116460000Y-141022800D03*
D29*
%TO.P,Q5,2,B*%
%TO.N,Net-(Q5-B)*%
X117730000Y-141022800D03*
%TO.P,Q5,3,C*%
%TO.N,Net-(Q5-C)*%
X119000000Y-141022800D03*
%TD*%
D15*
%TO.P,R18,1*%
%TO.N,ATTINY_RST*%
X188620000Y-135230000D03*
D16*
%TO.P,R18,2*%
%TO.N,ESP32_3.3*%
X181000000Y-135230000D03*
%TD*%
D14*
%TO.P,TP33,1,1*%
%TO.N,ATTINY_STAT*%
X167000000Y-117180000D03*
%TD*%
D15*
%TO.P,R5,1*%
%TO.N,GND*%
X192500000Y-75730000D03*
D16*
%TO.P,R5,2*%
%TO.N,Net-(U2-PROG)*%
X200120000Y-75730000D03*
%TD*%
D15*
%TO.P,C5,2*%
%TO.N,GND*%
X151500000Y-75230000D03*
%TO.P,C5,1*%
%TO.N,ESP32_3.3*%
X149500000Y-75230000D03*
%TD*%
D14*
%TO.P,TP2,1,1*%
%TO.N,Net-(U2-PROG)*%
X200000000Y-53730000D03*
%TD*%
%TO.P,TP23,1,1*%
%TO.N,ESP32_3.3*%
X140000000Y-83680000D03*
%TD*%
D17*
%TO.P,D1,2,A*%
%TO.N,ESP32_IO18_SCK*%
X151765000Y-91730000D03*
D18*
%TO.P,D1,1,K*%
%TO.N,Net-(D1-K)*%
X149225000Y-91730000D03*
%TD*%
D30*
%TO.P,Q2,1,E*%
%TO.N,ESP32_0*%
X103860000Y-125770000D03*
D31*
%TO.P,Q2,2,B*%
%TO.N,Net-(Q2-B)*%
X103860000Y-124500000D03*
%TO.P,Q2,3,C*%
%TO.N,DTR*%
X103860000Y-123230000D03*
%TD*%
D15*
%TO.P,R14,1*%
%TO.N,GND*%
X124380000Y-99230000D03*
D16*
%TO.P,R14,2*%
%TO.N,CC1*%
X132000000Y-99230000D03*
%TD*%
D14*
%TO.P,TP34,1,1*%
%TO.N,ATTINY_SCK*%
X167000000Y-124680000D03*
%TD*%
D32*
%TO.P,J15,1,MISO*%
%TO.N,ATTINY_MISO*%
X160500000Y-131810000D03*
D33*
%TO.P,J15,2,VCC*%
%TO.N,ESP32_3.3*%
X157960000Y-131810000D03*
%TO.P,J15,3,SCK*%
%TO.N,ATTINY_SCK*%
X160500000Y-129270000D03*
%TO.P,J15,4,MOSI*%
%TO.N,ATTINY_SDA*%
X157960000Y-129270000D03*
%TO.P,J15,5,~{RST}*%
%TO.N,ATTINY_RST*%
X160500000Y-126730000D03*
%TO.P,J15,6,GND*%
%TO.N,GND*%
X157960000Y-126730000D03*
%TD*%
D10*
%TO.P,J2,1,Pin_1*%
%TO.N,GND*%
X132464500Y-131180000D03*
D11*
%TO.P,J2,2,Pin_2*%
%TO.N,ESP32_3.3*%
X133734500Y-131180000D03*
%TO.P,J2,3,Pin_3*%
%TO.N,ESP32_SDA*%
X135004500Y-131180000D03*
%TO.P,J2,4,Pin_4*%
%TO.N,ESP32_SCL*%
X136274500Y-131180000D03*
%TO.P,J2,5,Pin_5*%
%TO.N,INT*%
X137544500Y-131180000D03*
%TO.P,J2,6,Pin_6*%
%TO.N,SHUT*%
X138814500Y-131180000D03*
%TD*%
D15*
%TO.P,C7,1*%
%TO.N,+5V*%
X198895000Y-107980000D03*
D16*
%TO.P,C7,2*%
%TO.N,GND*%
X198895000Y-115480000D03*
%TD*%
D30*
%TO.P,Q1,1,E*%
%TO.N,RTS*%
X103860000Y-116730000D03*
D31*
%TO.P,Q1,2,B*%
%TO.N,Net-(Q1-B)*%
X103860000Y-115460000D03*
%TO.P,Q1,3,C*%
%TO.N,ESP32_EN*%
X103860000Y-114190000D03*
%TD*%
D14*
%TO.P,TP15,1,1*%
%TO.N,ESP32_0*%
X171500000Y-38680000D03*
%TD*%
D16*
%TO.P,R6,2*%
%TO.N,Net-(D2-A)*%
X200120000Y-82730000D03*
D15*
%TO.P,R6,1*%
%TO.N,Net-(J4-Pin_2)*%
X192500000Y-82730000D03*
%TD*%
%TO.P,R2,1*%
%TO.N,Net-(Q1-B)*%
X109500000Y-108730000D03*
D16*
%TO.P,R2,2*%
%TO.N,DTR*%
X109500000Y-116350000D03*
%TD*%
D14*
%TO.P,TP5,1,1*%
%TO.N,V_BATT*%
X196500000Y-50230000D03*
%TD*%
%TO.P,TP18,1,1*%
%TO.N,ESP32_IO9*%
X171500000Y-60680000D03*
%TD*%
D15*
%TO.P,R19,1*%
%TO.N,Net-(J16-Pin_2)*%
X173620000Y-130230000D03*
D16*
%TO.P,R19,2*%
%TO.N,Net-(D6-K)*%
X166000000Y-130230000D03*
%TD*%
D10*
%TO.P,J6,1,Pin_1*%
%TO.N,V_BATT*%
X199000000Y-59730000D03*
D11*
%TO.P,J6,2,Pin_2*%
%TO.N,GND*%
X200270000Y-59730000D03*
%TD*%
D15*
%TO.P,R12,1*%
%TO.N,GND*%
X105190000Y-149472800D03*
D16*
%TO.P,R12,2*%
%TO.N,Net-(Q3-G)*%
X112810000Y-149472800D03*
%TD*%
D28*
%TO.P,Q7,1,E*%
%TO.N,5V_CHG*%
X116460000Y-149522800D03*
D29*
%TO.P,Q7,2,B*%
%TO.N,Net-(Q5-B)*%
X117730000Y-149522800D03*
%TO.P,Q7,3,C*%
%TO.N,Net-(Q3-G)*%
X119000000Y-149522800D03*
%TD*%
D14*
%TO.P,TP6,1,1*%
%TO.N,ESP32_3.3*%
X199000000Y-137730000D03*
%TD*%
D15*
%TO.P,R11,1*%
%TO.N,GND*%
X122380000Y-149022800D03*
D16*
%TO.P,R11,2*%
%TO.N,Net-(Q6-C)*%
X130000000Y-149022800D03*
%TD*%
D14*
%TO.P,TP37,1,1*%
%TO.N,BUTTON_LED*%
X172000000Y-124730000D03*
%TD*%
D34*
%TO.P,U5,1,VCC*%
%TO.N,ESP32_3.3*%
X156500000Y-107920000D03*
%TO.P,U5,2,XTAL1/PB0*%
%TO.N,unconnected-(U5-XTAL1{slash}PB0-Pad2)*%
X156500000Y-109190000D03*
%TO.P,U5,3,XTAL2/PB1*%
%TO.N,unconnected-(U5-XTAL2{slash}PB1-Pad3)*%
X156500000Y-110460000D03*
%TO.P,U5,4,~{RESET}/PB3*%
%TO.N,ATTINY_RST*%
X156500000Y-111730000D03*
%TO.P,U5,5,PB2*%
%TO.N,unconnected-(U5-PB2-Pad5)*%
X156500000Y-113000000D03*
%TO.P,U5,6,PA7*%
%TO.N,BUTTON_LED*%
X156500000Y-114270000D03*
%TO.P,U5,7,PA6*%
%TO.N,ATTINY_SDA*%
X156500000Y-115540000D03*
%TO.P,U5,8,PA5*%
%TO.N,ATTINY_MISO*%
X161450000Y-115540000D03*
%TO.P,U5,9,PA4*%
%TO.N,ATTINY_SCK*%
X161450000Y-114270000D03*
%TO.P,U5,10,PA3*%
%TO.N,ATTINY_STAT*%
X161450000Y-113000000D03*
%TO.P,U5,11,PA2*%
%TO.N,BUTTON*%
X161450000Y-111730000D03*
%TO.P,U5,12,PA1*%
%TO.N,unconnected-(U5-PA1-Pad12)*%
X161450000Y-110460000D03*
%TO.P,U5,13,AREF/PA0*%
%TO.N,ATTINY_INT*%
X161450000Y-109190000D03*
%TO.P,U5,14,GND*%
%TO.N,GND*%
X161450000Y-107920000D03*
%TD*%
D22*
%TO.P,S2,4,4*%
%TO.N,ESP32_0*%
X145000000Y-71880000D03*
%TO.P,S2,3,3*%
%TO.N,GND*%
X138700000Y-71880000D03*
%TO.P,S2,2,2*%
%TO.N,ESP32_0*%
X145000000Y-75680000D03*
%TO.P,S2,1,1*%
%TO.N,GND*%
X138700000Y-75680000D03*
%TD*%
D14*
%TO.P,TP3,1,1*%
%TO.N,GND*%
X193000000Y-53730000D03*
%TD*%
D10*
%TO.P,J4,1,Pin_1*%
%TO.N,Net-(J4-Pin_1)*%
X200000000Y-66730000D03*
D11*
%TO.P,J4,2,Pin_2*%
%TO.N,Net-(J4-Pin_2)*%
X200000000Y-65460000D03*
%TD*%
D14*
%TO.P,TP19,1,1*%
%TO.N,ESP32_IO10*%
X171500000Y-68680000D03*
%TD*%
D15*
%TO.P,C2,2*%
%TO.N,5V_CHG*%
X199000000Y-90230000D03*
%TO.P,C2,1*%
%TO.N,GND*%
X194000000Y-90230000D03*
%TD*%
D16*
%TO.P,R7,2*%
%TO.N,Net-(D3-K)*%
X181500000Y-92920000D03*
D15*
%TO.P,R7,1*%
%TO.N,Net-(J7-Pin_2)*%
X181500000Y-100540000D03*
%TD*%
D14*
%TO.P,TP25,1,1*%
%TO.N,ESP32_TX*%
X150464500Y-83680000D03*
%TD*%
D11*
%TO.P,J3,2,Pin_2*%
%TO.N,Net-(J3-Pin_2)*%
X159000000Y-92000000D03*
D10*
%TO.P,J3,1,Pin_1*%
%TO.N,GND*%
X159000000Y-90730000D03*
%TD*%
D28*
%TO.P,Q6,1,E*%
%TO.N,5V_EXT*%
X133230000Y-140882800D03*
D29*
%TO.P,Q6,2,B*%
%TO.N,Net-(Q6-B)*%
X134500000Y-140882800D03*
%TO.P,Q6,3,C*%
%TO.N,Net-(Q6-C)*%
X135770000Y-140882800D03*
%TD*%
D35*
%TO.P,U2,1,STAT*%
%TO.N,Net-(J4-Pin_1)*%
X195500000Y-37780000D03*
%TO.P,U2,2,V_{SS}*%
%TO.N,GND*%
X195500000Y-38730000D03*
%TO.P,U2,3,V_{BAT}*%
%TO.N,V_BATT*%
X195500000Y-39680000D03*
%TO.P,U2,4,V_{DD}*%
%TO.N,5V_CHG*%
X197775000Y-39680000D03*
%TO.P,U2,5,PROG*%
%TO.N,Net-(U2-PROG)*%
X197775000Y-37780000D03*
%TD*%
D14*
%TO.P,TP36,1,1*%
%TO.N,ATTINY_SDA*%
X172000000Y-117230000D03*
%TD*%
D18*
%TO.P,D2,1,K*%
%TO.N,5V_CHG*%
X193225000Y-67230000D03*
D17*
%TO.P,D2,2,A*%
%TO.N,Net-(D2-A)*%
X195765000Y-67230000D03*
%TD*%
D11*
%TO.P,J1,4,Pin_4*%
%TO.N,ESP32_SCL*%
X172810000Y-90230000D03*
%TO.P,J1,3,Pin_3*%
%TO.N,ESP32_SDA*%
X171540000Y-90230000D03*
%TO.P,J1,2,Pin_2*%
%TO.N,ESP32_3.3*%
X170270000Y-90230000D03*
D10*
%TO.P,J1,1,Pin_1*%
%TO.N,GND*%
X169000000Y-90230000D03*
%TD*%
D14*
%TO.P,TP1,1,1*%
%TO.N,5V_CHG*%
X200000000Y-46230000D03*
%TD*%
D36*
%TO.P,Q4,1,G*%
%TO.N,Net-(Q4-G)*%
X140500000Y-141522800D03*
D37*
%TO.P,Q4,2,D*%
%TO.N,5V_EXT*%
X143040000Y-141522800D03*
%TO.P,Q4,3,S*%
%TO.N,5V_CHG*%
X145580000Y-141522800D03*
%TD*%
D15*
%TO.P,R10,1*%
%TO.N,GND*%
X122380000Y-140522800D03*
D16*
%TO.P,R10,2*%
%TO.N,Net-(Q5-C)*%
X130000000Y-140522800D03*
%TD*%
D36*
%TO.P,Q3,1,G*%
%TO.N,Net-(Q3-G)*%
X106000000Y-141522800D03*
D37*
%TO.P,Q3,2,D*%
%TO.N,V_USB*%
X108540000Y-141522800D03*
%TO.P,Q3,3,S*%
%TO.N,5V_CHG*%
X111080000Y-141522800D03*
%TD*%
D15*
%TO.P,R3,1*%
%TO.N,Net-(Q2-B)*%
X109500000Y-130850000D03*
D16*
%TO.P,R3,2*%
%TO.N,RTS*%
X109500000Y-123230000D03*
%TD*%
D15*
%TO.P,C12,1*%
%TO.N,ESP32_3.3*%
X174000000Y-136730000D03*
D16*
%TO.P,C12,2*%
%TO.N,GND*%
X166500000Y-136730000D03*
%TD*%
D11*
%TO.P,J5,2,Pin_2*%
%TO.N,GND*%
X193270000Y-59730000D03*
D10*
%TO.P,J5,1,Pin_1*%
%TO.N,V_BATT*%
X192000000Y-59730000D03*
%TD*%
D14*
%TO.P,TP4,1,1*%
%TO.N,Net-(J4-Pin_1)*%
X193000000Y-46230000D03*
%TD*%
%TO.P,TP16,1,1*%
%TO.N,ESP32_IO7*%
X171500000Y-46180000D03*
%TD*%
D15*
%TO.P,C6,1*%
%TO.N,ESP32_3.3*%
X199000000Y-142480000D03*
D16*
%TO.P,C6,2*%
%TO.N,GND*%
X199000000Y-149980000D03*
%TD*%
D28*
%TO.P,Q8,1,E*%
%TO.N,5V_CHG*%
X133230000Y-149382800D03*
D29*
%TO.P,Q8,2,B*%
%TO.N,Net-(Q6-B)*%
X134500000Y-149382800D03*
%TO.P,Q8,3,C*%
%TO.N,Net-(Q4-G)*%
X135770000Y-149382800D03*
%TD*%
D10*
%TO.P,J16,1,Pin_1*%
%TO.N,GND*%
X177000000Y-124230000D03*
D11*
%TO.P,J16,2,Pin_2*%
%TO.N,Net-(J16-Pin_2)*%
X177000000Y-125500000D03*
%TD*%
D15*
%TO.P,R15,1*%
%TO.N,GND*%
X113120000Y-36230000D03*
D16*
%TO.P,R15,2*%
%TO.N,CC2*%
X105500000Y-36230000D03*
%TD*%
D11*
%TO.P,J12,9,Pin_9*%
%TO.N,ESP32_IO19*%
X137500000Y-60890000D03*
%TO.P,J12,8,Pin_8*%
%TO.N,ESP32_IO10*%
X137500000Y-59620000D03*
%TO.P,J12,7,Pin_7*%
%TO.N,ESP32_IO9*%
X137500000Y-58350000D03*
%TO.P,J12,6,Pin_6*%
%TO.N,ESP32_IO8*%
X137500000Y-57080000D03*
%TO.P,J12,5,Pin_5*%
%TO.N,ESP32_IO7*%
X137500000Y-55810000D03*
%TO.P,J12,4,Pin_4*%
%TO.N,ESP32_IO5*%
X137500000Y-54540000D03*
%TO.P,J12,3,Pin_3*%
%TO.N,ESP32_IO4*%
X137500000Y-53270000D03*
%TO.P,J12,2,Pin_2*%
%TO.N,ESP32_IO1*%
X137500000Y-52000000D03*
D10*
%TO.P,J12,1,Pin_1*%
%TO.N,ESP32_IO0*%
X137500000Y-50730000D03*
%TD*%
D16*
%TO.P,R1,2*%
%TO.N,ESP32_3.3*%
X165500000Y-56850000D03*
D15*
%TO.P,R1,1*%
%TO.N,ESP32_EN*%
X165500000Y-49230000D03*
%TD*%
D16*
%TO.P,C1,2*%
%TO.N,GND*%
X164000000Y-59730000D03*
D15*
%TO.P,C1,1*%
%TO.N,ESP32_EN*%
X164000000Y-67230000D03*
%TD*%
%TO.P,R13,1*%
%TO.N,GND*%
X139190000Y-148022800D03*
D16*
%TO.P,R13,2*%
%TO.N,Net-(Q4-G)*%
X146810000Y-148022800D03*
%TD*%
D15*
%TO.P,C3,2*%
%TO.N,GND*%
X199035500Y-98230000D03*
%TO.P,C3,1*%
%TO.N,V_BATT*%
X194035500Y-98230000D03*
%TD*%
D38*
%TO.N,BUTTON_LED*%
X157935600Y-114764100D03*
%TO.N,ATTINY_SDA*%
X172000000Y-121508800D03*
%TO.N,ATTINY_MISO*%
X170175300Y-132227000D03*
%TO.N,ATTINY_SCK*%
X163539500Y-130970300D03*
%TO.N,BUTTON*%
X167000000Y-107658600D03*
%TO.N,D+*%
X116158900Y-51260000D03*
%TO.N,D-*%
X117173300Y-50465100D03*
%TO.N,ESP32_TX*%
X153461400Y-80683200D03*
%TO.N,ESP32_RX*%
X155732400Y-81949200D03*
%TO.N,ATTINY_INT*%
X162937800Y-139273500D03*
%TO.N,CC2*%
X119000000Y-54305200D03*
%TO.N,CC1*%
X119000000Y-48720000D03*
X126825200Y-98666600D03*
%TO.N,ESP32_0*%
X141876600Y-124462800D03*
X168551700Y-52268000D03*
X142731500Y-54744900D03*
%TO.N,ESP32_IO19*%
X155945900Y-58620700D03*
%TO.N,ESP32_IO1*%
X160113300Y-49853600D03*
%TO.N,ESP32_IO8*%
X169539900Y-54863400D03*
%TO.N,ESP32_IO9*%
X171500000Y-58019000D03*
%TO.N,ESP32_IO7*%
X171500000Y-51421500D03*
%TO.N,ESP32_IO0*%
X156993600Y-49207500D03*
%TO.N,ESP32_IO10*%
X157600500Y-60377700D03*
X171500000Y-64368300D03*
%TO.N,ESP32_SDA*%
X157600100Y-54241100D03*
X173520300Y-54241100D03*
%TO.N,ESP32_SCL*%
X162325100Y-48603800D03*
X131855800Y-49900900D03*
X118347100Y-114491300D03*
%TO.N,ATTINY_STAT*%
X168770100Y-126314900D03*
%TO.N,ESP32_IO18_SCK*%
X164951700Y-87459500D03*
%TO.N,V_USB*%
X114123800Y-64393200D03*
%TO.N,ESP32_3.3*%
X140000000Y-76980800D03*
%TO.N,5V_CHG*%
X204063300Y-63991500D03*
X147804400Y-98666600D03*
X132951500Y-145791400D03*
%TO.N,ESP32_EN*%
X130000000Y-101614300D03*
X158651700Y-66608700D03*
X137146600Y-68874900D03*
X143163500Y-68874900D03*
%TO.N,GND*%
X139827300Y-70176900D03*
X162422400Y-75104200D03*
X154000000Y-60360500D03*
X115434400Y-64171200D03*
%TD*%
D39*
%TO.N,BUTTON_LED*%
X157441500Y-114270000D02*
X157935600Y-114764100D01*
X156500000Y-114270000D02*
X157441500Y-114270000D01*
X175750000Y-120980000D02*
X172000000Y-124730000D01*
X175750000Y-113980000D02*
X175750000Y-120980000D01*
%TO.N,ATTINY_SDA*%
X159131300Y-128098700D02*
X157960000Y-129270000D01*
X159131300Y-118739300D02*
X159131300Y-128098700D01*
X156500000Y-116108000D02*
X159131300Y-118739300D01*
X156500000Y-115540000D02*
X156500000Y-116108000D01*
X172000000Y-121508800D02*
X172000000Y-117230000D01*
%TO.N,ATTINY_MISO*%
X162071600Y-116161600D02*
X161450000Y-115540000D01*
X162071600Y-130238400D02*
X162071600Y-116161600D01*
X160500000Y-131810000D02*
X162071600Y-130238400D01*
X170175300Y-111554700D02*
X170175300Y-132227000D01*
X172000000Y-109730000D02*
X170175300Y-111554700D01*
%TO.N,ATTINY_SCK*%
X161056700Y-114270000D02*
X161450000Y-114270000D01*
X160150300Y-115176400D02*
X161056700Y-114270000D01*
X160150300Y-116063600D02*
X160150300Y-115176400D01*
X161669900Y-117583200D02*
X160150300Y-116063600D01*
X161669900Y-128100100D02*
X161669900Y-117583200D01*
X160500000Y-129270000D02*
X161669900Y-128100100D01*
X163539500Y-128140500D02*
X167000000Y-124680000D01*
X163539500Y-130970300D02*
X163539500Y-128140500D01*
%TO.N,BUTTON*%
X164950000Y-111730000D02*
X167000000Y-109680000D01*
X161450000Y-111730000D02*
X164950000Y-111730000D01*
X167000000Y-107658600D02*
X167000000Y-109680000D01*
%TO.N,D+*%
X116158900Y-51260000D02*
X116158900Y-62888900D01*
X116158900Y-62888900D02*
X119000000Y-65730000D01*
X115865900Y-62888900D02*
X116158900Y-62888900D01*
X114832700Y-63922100D02*
X115865900Y-62888900D01*
X114832700Y-64535200D02*
X114832700Y-63922100D01*
X111367900Y-68000000D02*
X114832700Y-64535200D01*
X107950000Y-68000000D02*
X111367900Y-68000000D01*
%TO.N,D-*%
X108296000Y-66730000D02*
X107950000Y-66730000D01*
X110985100Y-64040900D02*
X108296000Y-66730000D01*
X110985100Y-56301100D02*
X110985100Y-64040900D01*
X114278600Y-53007600D02*
X110985100Y-56301100D01*
X114278600Y-50804100D02*
X114278600Y-53007600D01*
X113464500Y-49990000D02*
X114278600Y-50804100D01*
X117173300Y-56903300D02*
X117173300Y-50465100D01*
X119000000Y-58730000D02*
X117173300Y-56903300D01*
%TO.N,ESP32_TX*%
X158854500Y-57580000D02*
X157802800Y-57580000D01*
X107495300Y-70540000D02*
X107950000Y-70540000D01*
X105000000Y-73035300D02*
X107495300Y-70540000D01*
X105000000Y-78730000D02*
X105000000Y-73035300D01*
X153461300Y-80683200D02*
X153461400Y-80683200D01*
X150464500Y-83680000D02*
X153461300Y-80683200D01*
X157802800Y-57614700D02*
X157802800Y-57580000D01*
X155274700Y-60142800D02*
X157802800Y-57614700D01*
X155274700Y-78869900D02*
X155274700Y-60142800D01*
X153461400Y-80683200D02*
X155274700Y-78869900D01*
%TO.N,ESP32_RX*%
X158854500Y-59080000D02*
X159906200Y-59080000D01*
X159906200Y-81949200D02*
X155732400Y-81949200D01*
X159906200Y-82586200D02*
X159906200Y-81949200D01*
X161000000Y-83680000D02*
X159906200Y-82586200D01*
X159906200Y-81949200D02*
X159906200Y-59080000D01*
X107107100Y-79321200D02*
X105000000Y-81428300D01*
X107107100Y-77347300D02*
X107107100Y-79321200D01*
X106640800Y-76881000D02*
X107107100Y-77347300D01*
X106640800Y-72774500D02*
X106640800Y-76881000D01*
X107605300Y-71810000D02*
X106640800Y-72774500D01*
X107950000Y-71810000D02*
X107605300Y-71810000D01*
X105000000Y-82230000D02*
X105000000Y-81428300D01*
%TO.N,ATTINY_INT*%
X162937800Y-114081300D02*
X162937800Y-139273500D01*
X162458800Y-113602300D02*
X162937800Y-114081300D01*
X160375900Y-113602300D02*
X162458800Y-113602300D01*
X160172700Y-113399100D02*
X160375900Y-113602300D01*
X160172700Y-110068600D02*
X160172700Y-113399100D01*
X161051300Y-109190000D02*
X160172700Y-110068600D01*
X161450000Y-109190000D02*
X161051300Y-109190000D01*
%TO.N,Net-(J16-Pin_2)*%
X177000000Y-126850000D02*
X177000000Y-125500000D01*
X173620000Y-130230000D02*
X177000000Y-126850000D01*
%TO.N,ATTINY_RST*%
X160500000Y-119398600D02*
X160500000Y-126730000D01*
X159172700Y-118071300D02*
X160500000Y-119398600D01*
X159172700Y-114027500D02*
X159172700Y-118071300D01*
X156875200Y-111730000D02*
X159172700Y-114027500D01*
X156500000Y-111730000D02*
X156875200Y-111730000D01*
%TO.N,Net-(J11-Pin_2)*%
X110312000Y-99042000D02*
X112500000Y-101230000D01*
X110312000Y-89481100D02*
X110312000Y-99042000D01*
X104197400Y-83366500D02*
X110312000Y-89481100D01*
X104197400Y-81604300D02*
X104197400Y-83366500D01*
X106270000Y-79531700D02*
X104197400Y-81604300D01*
X106270000Y-78730000D02*
X106270000Y-79531700D01*
%TO.N,Net-(J10-Pin_2)*%
X106270000Y-84500000D02*
X112500000Y-90730000D01*
X106270000Y-82230000D02*
X106270000Y-84500000D01*
%TO.N,CC2*%
X105500000Y-44565500D02*
X113464500Y-52530000D01*
X105500000Y-36230000D02*
X105500000Y-44565500D01*
X119000000Y-54305200D02*
X119000000Y-52230000D01*
%TO.N,CC1*%
X119000000Y-45730000D02*
X119000000Y-48720000D01*
X126825200Y-56545200D02*
X126825200Y-98666600D01*
X119000000Y-48720000D02*
X126825200Y-56545200D01*
%TO.N,Net-(J9-Pin_1)*%
X182638600Y-61091400D02*
X181500000Y-62230000D01*
X182638600Y-52970300D02*
X182638600Y-61091400D01*
X181500000Y-51831700D02*
X182638600Y-52970300D01*
X181500000Y-50730000D02*
X181500000Y-51831700D01*
%TO.N,Net-(J8-Pin_1)*%
X181500000Y-39610000D02*
X181500000Y-37230000D01*
%TO.N,Net-(J7-Pin_2)*%
X182770000Y-99270000D02*
X182770000Y-79500000D01*
X181500000Y-100540000D02*
X182770000Y-99270000D01*
%TO.N,Net-(Q6-C)*%
X132542800Y-139831100D02*
X135770000Y-139831100D01*
X130000000Y-142373900D02*
X132542800Y-139831100D01*
X130000000Y-149022800D02*
X130000000Y-142373900D01*
X135770000Y-140882800D02*
X135770000Y-139831100D01*
%TO.N,Net-(Q6-B)*%
X134500000Y-140882800D02*
X134500000Y-149382800D01*
%TO.N,Net-(Q5-B)*%
X117730000Y-149522800D02*
X117730000Y-141022800D01*
%TO.N,Net-(Q4-G)*%
X136596700Y-144171900D02*
X136596700Y-149382800D01*
X139245800Y-141522800D02*
X136596700Y-144171900D01*
X140500000Y-141522800D02*
X139245800Y-141522800D01*
X135770000Y-149382800D02*
X136596700Y-149382800D01*
%TO.N,Net-(Q3-G)*%
X111708300Y-148532800D02*
X111708300Y-149472800D01*
X106000000Y-142824500D02*
X111708300Y-148532800D01*
X106000000Y-141522800D02*
X106000000Y-142824500D01*
X112810000Y-149472800D02*
X111708300Y-149472800D01*
%TO.N,ESP32_0*%
X143848300Y-75680000D02*
X143848300Y-71880000D01*
X145000000Y-75680000D02*
X143848300Y-75680000D01*
X145000000Y-71880000D02*
X144424200Y-71880000D01*
X144424200Y-71880000D02*
X143848300Y-71880000D01*
X141876600Y-92750300D02*
X141876600Y-124462800D01*
X143848300Y-90778600D02*
X141876600Y-92750300D01*
X143848300Y-75680000D02*
X143848300Y-90778600D01*
X141354500Y-54580000D02*
X142406200Y-54580000D01*
X168551700Y-41628300D02*
X168551700Y-52268000D01*
X171500000Y-38680000D02*
X168551700Y-41628300D01*
X142571100Y-54744900D02*
X142731500Y-54744900D01*
X142406200Y-54580000D02*
X142571100Y-54744900D01*
X142552800Y-70008600D02*
X144424200Y-71880000D01*
X142552800Y-54923600D02*
X142552800Y-70008600D01*
X142731500Y-54744900D02*
X142552800Y-54923600D01*
%TO.N,DTR*%
X109500000Y-116350000D02*
X109500000Y-117451700D01*
X103860000Y-123230000D02*
X103860000Y-122816600D01*
X108811600Y-117451700D02*
X105832900Y-120430400D01*
X109500000Y-117451700D02*
X108811600Y-117451700D01*
X103860000Y-122403300D02*
X103860000Y-122816600D01*
X105832900Y-120430400D02*
X103860000Y-122403300D01*
X101265900Y-115863400D02*
X105832900Y-120430400D01*
X101265900Y-70568900D02*
X101265900Y-115863400D01*
X102564800Y-69270000D02*
X101265900Y-70568900D01*
X103000000Y-69270000D02*
X102564800Y-69270000D01*
%TO.N,RTS*%
X102655300Y-70540000D02*
X103000000Y-70540000D01*
X101667600Y-71527700D02*
X102655300Y-70540000D01*
X101667600Y-115589300D02*
X101667600Y-71527700D01*
X102808300Y-116730000D02*
X101667600Y-115589300D01*
X103860000Y-116730000D02*
X102808300Y-116730000D01*
%TO.N,ESP32_IO5*%
X139761700Y-53080000D02*
X141354500Y-53080000D01*
X138301700Y-54540000D02*
X139761700Y-53080000D01*
X137710800Y-54540000D02*
X138301700Y-54540000D01*
X137710800Y-54540000D02*
X137500000Y-54540000D01*
X135298500Y-71931500D02*
X130000000Y-77230000D01*
X135298500Y-56741500D02*
X135298500Y-71931500D01*
X137500000Y-54540000D02*
X135298500Y-56741500D01*
%TO.N,ESP32_IO19*%
X158651700Y-54580000D02*
X158854500Y-54580000D01*
X155945900Y-57285800D02*
X158651700Y-54580000D01*
X155945900Y-58620700D02*
X155945900Y-57285800D01*
X173326800Y-81853200D02*
X171500000Y-83680000D01*
X173326800Y-75407400D02*
X173326800Y-81853200D01*
X166259500Y-68340100D02*
X173326800Y-75407400D01*
X163547100Y-68340100D02*
X166259500Y-68340100D01*
X162309900Y-67102900D02*
X163547100Y-68340100D01*
X162309900Y-56983700D02*
X162309900Y-67102900D01*
X159906200Y-54580000D02*
X162309900Y-56983700D01*
X158854500Y-54580000D02*
X159906200Y-54580000D01*
%TO.N,ESP32_IO1*%
X158854500Y-50080000D02*
X159906200Y-50080000D01*
X159906200Y-50060700D02*
X160113300Y-49853600D01*
X159906200Y-50080000D02*
X159906200Y-50060700D01*
X130535800Y-47730000D02*
X130000000Y-47730000D01*
X134805800Y-52000000D02*
X130535800Y-47730000D01*
X137500000Y-52000000D02*
X134805800Y-52000000D01*
%TO.N,ESP32_IO8*%
X139802800Y-57080000D02*
X140302800Y-57580000D01*
X137500000Y-57080000D02*
X139802800Y-57080000D01*
X141354500Y-57580000D02*
X140302800Y-57580000D01*
X170723300Y-53680000D02*
X169539900Y-54863400D01*
X171500000Y-53680000D02*
X170723300Y-53680000D01*
%TO.N,ESP32_IO9*%
X139572800Y-58350000D02*
X140302800Y-59080000D01*
X137500000Y-58350000D02*
X139572800Y-58350000D01*
X141354500Y-59080000D02*
X140302800Y-59080000D01*
X171500000Y-60680000D02*
X171500000Y-58019000D01*
%TO.N,ESP32_IO7*%
X140032800Y-55810000D02*
X140302800Y-56080000D01*
X137500000Y-55810000D02*
X140032800Y-55810000D01*
X141354500Y-56080000D02*
X140302800Y-56080000D01*
X171500000Y-46180000D02*
X171500000Y-51421500D01*
%TO.N,ESP32_IO4*%
X139991700Y-51580000D02*
X141354500Y-51580000D01*
X138301700Y-53270000D02*
X139991700Y-51580000D01*
X137710800Y-53270000D02*
X138301700Y-53270000D01*
X137710800Y-53270000D02*
X137500000Y-53270000D01*
X133706800Y-66523200D02*
X130000000Y-70230000D01*
X133706800Y-57063200D02*
X133706800Y-66523200D01*
X137500000Y-53270000D02*
X133706800Y-57063200D01*
%TO.N,ESP32_IO0*%
X130000000Y-42428300D02*
X130000000Y-40230000D01*
X137500000Y-49928300D02*
X130000000Y-42428300D01*
X137500000Y-50730000D02*
X137500000Y-49928300D01*
X157621100Y-48580000D02*
X156993600Y-49207500D01*
X158854500Y-48580000D02*
X157621100Y-48580000D01*
%TO.N,ESP32_IO10*%
X158854500Y-60580000D02*
X157802800Y-60580000D01*
X157802800Y-60580000D02*
X157600500Y-60377700D01*
X171500000Y-68680000D02*
X171500000Y-64368300D01*
%TO.N,ESP32_SDA*%
X158854500Y-51580000D02*
X157802800Y-51580000D01*
X157802800Y-54038400D02*
X157600100Y-54241100D01*
X157802800Y-51580000D02*
X157802800Y-54038400D01*
X128175200Y-123549000D02*
X135004500Y-130378300D01*
X128175200Y-57054800D02*
X128175200Y-123549000D01*
X130000000Y-55230000D02*
X128175200Y-57054800D01*
X135004500Y-131180000D02*
X135004500Y-130378300D01*
X171540000Y-90322700D02*
X171540000Y-91031700D01*
X171540000Y-90322700D02*
X171540000Y-90230000D01*
X164949500Y-134468800D02*
X164949500Y-143730000D01*
X169371900Y-130046400D02*
X164949500Y-134468800D01*
X169371900Y-93199800D02*
X169371900Y-130046400D01*
X171540000Y-91031700D02*
X169371900Y-93199800D01*
X115280900Y-126820900D02*
X116500000Y-128040000D01*
X115280900Y-114259100D02*
X115280900Y-126820900D01*
X116500000Y-113040000D02*
X115280900Y-114259100D01*
X173728500Y-54449300D02*
X173520300Y-54241100D01*
X173728500Y-84438900D02*
X173728500Y-54449300D01*
X171540000Y-86627400D02*
X173728500Y-84438900D01*
X171540000Y-90230000D02*
X171540000Y-86627400D01*
%TO.N,ESP32_SCL*%
X158854500Y-53080000D02*
X159906200Y-53080000D01*
X159906200Y-51022700D02*
X162325100Y-48603800D01*
X159906200Y-53080000D02*
X159906200Y-51022700D01*
X131855800Y-60374200D02*
X131855800Y-49900900D01*
X130000000Y-62230000D02*
X131855800Y-60374200D01*
X172810000Y-90137200D02*
X172810000Y-89428300D01*
X172810000Y-90137200D02*
X172810000Y-90230000D01*
X163679500Y-143730000D02*
X163679500Y-144531700D01*
X165574600Y-144531700D02*
X163679500Y-144531700D01*
X165772500Y-144333800D02*
X165574600Y-144531700D01*
X165772500Y-142653000D02*
X165772500Y-144333800D01*
X165374800Y-142255300D02*
X165772500Y-142653000D01*
X165374800Y-135110200D02*
X165374800Y-142255300D01*
X169773600Y-130711400D02*
X165374800Y-135110200D01*
X169773600Y-108881100D02*
X169773600Y-130711400D01*
X172810000Y-105844700D02*
X169773600Y-108881100D01*
X172810000Y-90230000D02*
X172810000Y-105844700D01*
X118347100Y-127462900D02*
X118347100Y-114491300D01*
X116500000Y-129310000D02*
X118347100Y-127462900D01*
X174130200Y-54599800D02*
X181500000Y-47230000D01*
X174130200Y-88108100D02*
X174130200Y-54599800D01*
X172810000Y-89428300D02*
X174130200Y-88108100D01*
%TO.N,ATTINY_STAT*%
X162820000Y-113000000D02*
X167000000Y-117180000D01*
X161450000Y-113000000D02*
X162820000Y-113000000D01*
X168820900Y-126264100D02*
X168770100Y-126314900D01*
X168820900Y-119000900D02*
X168820900Y-126264100D01*
X167000000Y-117180000D02*
X168820900Y-119000900D01*
%TO.N,Net-(D3-K)*%
X181500000Y-88692200D02*
X181500000Y-92920000D01*
X181464500Y-88656700D02*
X181500000Y-88692200D01*
X181464500Y-87455000D02*
X181464500Y-88656700D01*
%TO.N,Net-(D2-A)*%
X195765000Y-77273300D02*
X200120000Y-81628300D01*
X195765000Y-67230000D02*
X195765000Y-77273300D01*
X200120000Y-82730000D02*
X200120000Y-81628300D01*
%TO.N,ESP32_IO18_SCK*%
X158854500Y-56080000D02*
X159906200Y-56080000D01*
X164951700Y-76180000D02*
X171500000Y-76180000D01*
X164951700Y-76180000D02*
X164951700Y-87459500D01*
X164951700Y-70400100D02*
X164951700Y-76180000D01*
X161867000Y-67315400D02*
X164951700Y-70400100D01*
X161867000Y-58040800D02*
X161867000Y-67315400D01*
X159906200Y-56080000D02*
X161867000Y-58040800D01*
%TO.N,Net-(U4-V3)*%
X113500000Y-74459200D02*
X113500000Y-77230000D01*
X108310800Y-69270000D02*
X113500000Y-74459200D01*
X107950000Y-69270000D02*
X108310800Y-69270000D01*
%TO.N,V_USB*%
X116460000Y-141022800D02*
X116460000Y-139971100D01*
X113464500Y-46180000D02*
X114266200Y-46180000D01*
X119000000Y-41446200D02*
X119000000Y-38730000D01*
X114266200Y-46180000D02*
X119000000Y-41446200D01*
X119392500Y-137038600D02*
X119392500Y-100730000D01*
X116460000Y-139971100D02*
X119392500Y-137038600D01*
X121343100Y-73323100D02*
X119500000Y-71480000D01*
X121343100Y-97277700D02*
X121343100Y-73323100D01*
X119392500Y-99228300D02*
X121343100Y-97277700D01*
X119392500Y-100730000D02*
X119392500Y-99228300D01*
X115135200Y-47049000D02*
X114266200Y-46180000D01*
X115135200Y-59563800D02*
X115135200Y-47049000D01*
X114123800Y-60575200D02*
X115135200Y-59563800D01*
X114123800Y-64393200D02*
X114123800Y-60575200D01*
%TO.N,Net-(J4-Pin_1)*%
X195959200Y-62689200D02*
X200000000Y-66730000D01*
X195959200Y-53752300D02*
X195959200Y-62689200D01*
X193000000Y-50793100D02*
X195959200Y-53752300D01*
X193000000Y-46230000D02*
X193000000Y-50793100D01*
X195074300Y-37780000D02*
X195500000Y-37780000D01*
X193000000Y-39854300D02*
X195074300Y-37780000D01*
X193000000Y-46230000D02*
X193000000Y-39854300D01*
%TO.N,Net-(U2-PROG)*%
X200120000Y-75730000D02*
X200120000Y-74628300D01*
X200000000Y-50173900D02*
X200000000Y-53730000D01*
X196779700Y-46953600D02*
X200000000Y-50173900D01*
X196779700Y-38775300D02*
X196779700Y-46953600D01*
X197775000Y-37780000D02*
X196779700Y-38775300D01*
X201102400Y-73645900D02*
X200120000Y-74628300D01*
X201102400Y-54832400D02*
X201102400Y-73645900D01*
X200000000Y-53730000D02*
X201102400Y-54832400D01*
%TO.N,+5V*%
X199500000Y-131230000D02*
X199500000Y-129975800D01*
X200008600Y-118721400D02*
X199000000Y-119730000D01*
X200008600Y-109093600D02*
X200008600Y-118721400D01*
X198895000Y-107980000D02*
X200008600Y-109093600D01*
X200803700Y-121533700D02*
X199000000Y-119730000D01*
X200803700Y-124529300D02*
X200803700Y-121533700D01*
X201205400Y-124931000D02*
X200803700Y-124529300D01*
X201205400Y-127261300D02*
X201205400Y-124931000D01*
X200970000Y-127496700D02*
X201205400Y-127261300D01*
X200803700Y-127496700D02*
X200970000Y-127496700D01*
X200803700Y-129220800D02*
X200803700Y-127496700D01*
X200048700Y-129975800D02*
X200803700Y-129220800D01*
X199500000Y-129975800D02*
X200048700Y-129975800D01*
%TO.N,ESP32_3.3*%
X199000000Y-137730000D02*
X199000000Y-142480000D01*
X141354500Y-48580000D02*
X142406200Y-48580000D01*
X146500000Y-52673800D02*
X142406200Y-48580000D01*
X146500000Y-66730000D02*
X146500000Y-52673800D01*
X174000000Y-142877800D02*
X174000000Y-136730000D01*
X164949500Y-151928300D02*
X174000000Y-142877800D01*
X164949500Y-152730000D02*
X164949500Y-151928300D01*
X177583400Y-130711700D02*
X177500000Y-130711700D01*
X181000000Y-134128300D02*
X177583400Y-130711700D01*
X181000000Y-135230000D02*
X181000000Y-134128300D01*
X177500000Y-129610000D02*
X177500000Y-130711700D01*
X103000000Y-84640000D02*
X107040000Y-88680000D01*
X103000000Y-73080000D02*
X103000000Y-84640000D01*
X110405000Y-68635000D02*
X112500000Y-70730000D01*
X106933000Y-68635000D02*
X110405000Y-68635000D01*
X105971100Y-69596900D02*
X106933000Y-68635000D01*
X105971100Y-70493800D02*
X105971100Y-69596900D01*
X103384900Y-73080000D02*
X105971100Y-70493800D01*
X103000000Y-73080000D02*
X103384900Y-73080000D01*
X140000000Y-76980800D02*
X140000000Y-83680000D01*
X107040000Y-88680000D02*
X107040000Y-97230000D01*
X107040000Y-103111700D02*
X115698300Y-111770000D01*
X107040000Y-97230000D02*
X107040000Y-103111700D01*
X199500000Y-126150000D02*
X199500000Y-127404200D01*
X180698300Y-84148800D02*
X181464500Y-84915000D01*
X180698300Y-60960000D02*
X180698300Y-84148800D01*
X181500000Y-60960000D02*
X180698300Y-60960000D01*
X180320800Y-60582500D02*
X180698300Y-60960000D01*
X180320800Y-49977000D02*
X180320800Y-60582500D01*
X182638400Y-47659400D02*
X180320800Y-49977000D01*
X182638400Y-36296700D02*
X182638400Y-47659400D01*
X182301700Y-35960000D02*
X182638400Y-36296700D01*
X181500000Y-35960000D02*
X182301700Y-35960000D01*
X197796600Y-136526600D02*
X199000000Y-137730000D01*
X197796600Y-128558900D02*
X197796600Y-136526600D01*
X198951300Y-127404200D02*
X197796600Y-128558900D01*
X199500000Y-127404200D02*
X198951300Y-127404200D01*
X116289300Y-111770000D02*
X115698300Y-111770000D01*
X116289300Y-111770000D02*
X116500000Y-111770000D01*
X116343300Y-126770000D02*
X116500000Y-126770000D01*
X115698300Y-126125000D02*
X116343300Y-126770000D01*
X115698300Y-124304100D02*
X115698300Y-126125000D01*
X117301700Y-122700700D02*
X115698300Y-124304100D01*
X117301700Y-112571700D02*
X117301700Y-122700700D01*
X116500000Y-111770000D02*
X117301700Y-112571700D01*
X149500000Y-75230000D02*
X148660500Y-75230000D01*
X146500000Y-73069500D02*
X146500000Y-66730000D01*
X148660500Y-75230000D02*
X146500000Y-73069500D01*
X156138200Y-94403700D02*
X156138200Y-107920000D01*
X148660500Y-86926000D02*
X156138200Y-94403700D01*
X148660500Y-75230000D02*
X148660500Y-86926000D01*
X156500000Y-107920000D02*
X156138200Y-107920000D01*
X155193100Y-129043100D02*
X157960000Y-131810000D01*
X155193100Y-108865100D02*
X155193100Y-129043100D01*
X156138200Y-107920000D02*
X155193100Y-108865100D01*
%TO.N,V_BATT*%
X191371000Y-61160700D02*
X192000000Y-60531700D01*
X191371000Y-95565500D02*
X191371000Y-61160700D01*
X194035500Y-98230000D02*
X191371000Y-95565500D01*
X192000000Y-59730000D02*
X192000000Y-60531700D01*
X195500000Y-49230000D02*
X196500000Y-50230000D01*
X195500000Y-39680000D02*
X195500000Y-49230000D01*
X196500000Y-56428300D02*
X199000000Y-58928300D01*
X196500000Y-50230000D02*
X196500000Y-56428300D01*
X199000000Y-59730000D02*
X199000000Y-58928300D01*
%TO.N,Net-(Q2-B)*%
X104911700Y-126261700D02*
X109500000Y-130850000D01*
X104911700Y-124500000D02*
X104911700Y-126261700D01*
X103860000Y-124500000D02*
X104911700Y-124500000D01*
%TO.N,5V_CHG*%
X112334200Y-146223700D02*
X115633300Y-149522800D01*
X112334200Y-141522800D02*
X112334200Y-146223700D01*
X111080000Y-141522800D02*
X112334200Y-141522800D01*
X116460000Y-149522800D02*
X115633300Y-149522800D01*
X194426700Y-85656700D02*
X199000000Y-90230000D01*
X194426700Y-69633400D02*
X194426700Y-85656700D01*
X193225000Y-68431700D02*
X194426700Y-69633400D01*
X193225000Y-67230000D02*
X193225000Y-68431700D01*
X200000000Y-41905000D02*
X200000000Y-46230000D01*
X197775000Y-39680000D02*
X200000000Y-41905000D01*
X204063300Y-50293300D02*
X204063300Y-63991500D01*
X200000000Y-46230000D02*
X204063300Y-50293300D01*
X147804400Y-140552600D02*
X147804400Y-98666600D01*
X146834200Y-141522800D02*
X147804400Y-140552600D01*
X145580000Y-141522800D02*
X146834200Y-141522800D01*
X132951500Y-148052600D02*
X132951500Y-145791400D01*
X133230000Y-148331100D02*
X132951500Y-148052600D01*
X133230000Y-149382800D02*
X133230000Y-148331100D01*
%TO.N,ESP32_EN*%
X130000000Y-101614300D02*
X130000000Y-85230000D01*
X156348300Y-71780000D02*
X156348300Y-75580000D01*
X157500000Y-71780000D02*
X156348300Y-71780000D01*
X157500000Y-75580000D02*
X156348300Y-75580000D01*
X157500000Y-71780000D02*
X158651700Y-71780000D01*
X137146600Y-78083400D02*
X137146600Y-68874900D01*
X130000000Y-85230000D02*
X137146600Y-78083400D01*
X158651700Y-66608700D02*
X158651700Y-71780000D01*
X166602400Y-64627600D02*
X164000000Y-67230000D01*
X166602400Y-50332400D02*
X166602400Y-64627600D01*
X165500000Y-49230000D02*
X166602400Y-50332400D01*
X141354500Y-50080000D02*
X142406200Y-50080000D01*
X143389000Y-51062800D02*
X142406200Y-50080000D01*
X143389000Y-68649400D02*
X143389000Y-51062800D01*
X143163500Y-68874900D02*
X143389000Y-68649400D01*
%TO.N,Net-(Q1-B)*%
X109500000Y-110871700D02*
X104911700Y-115460000D01*
X109500000Y-108730000D02*
X109500000Y-110871700D01*
X103860000Y-115460000D02*
X104911700Y-115460000D01*
%TO.N,GND*%
X138700000Y-75680000D02*
X137548300Y-75680000D01*
X138700000Y-71880000D02*
X138124200Y-71880000D01*
X138124200Y-71880000D02*
X137548300Y-71880000D01*
X141354500Y-60580000D02*
X140302800Y-60580000D01*
X163679500Y-152730000D02*
X163679500Y-151928300D01*
X154000000Y-72730000D02*
X154000000Y-66730000D01*
X151500000Y-75230000D02*
X154000000Y-72730000D01*
X138124200Y-71880000D02*
X139827300Y-70176900D01*
X140302800Y-69701400D02*
X140302800Y-60580000D01*
X139827300Y-70176900D02*
X140302800Y-69701400D01*
X149964500Y-54230000D02*
X149964500Y-55330000D01*
X150514500Y-53680000D02*
X150514500Y-54780000D01*
X150514500Y-54780000D02*
X150514500Y-55880000D01*
X151064500Y-54230000D02*
X151064500Y-54780000D01*
X151064500Y-54780000D02*
X151064500Y-55330000D01*
X151614500Y-53680000D02*
X151614500Y-54780000D01*
X152164500Y-54230000D02*
X152164500Y-55330000D01*
X193270000Y-54000000D02*
X193270000Y-59730000D01*
X193000000Y-53730000D02*
X193270000Y-54000000D01*
X189250000Y-111980000D02*
X189250000Y-113980000D01*
X185000000Y-107730000D02*
X189250000Y-111980000D01*
X163800000Y-75580000D02*
X162648300Y-75580000D01*
X163800000Y-71780000D02*
X162648300Y-71780000D01*
X122380000Y-140522800D02*
X122380000Y-149022800D01*
X194000000Y-77230000D02*
X192500000Y-75730000D01*
X194000000Y-90230000D02*
X194000000Y-77230000D01*
X193270000Y-62955600D02*
X193270000Y-59730000D01*
X192023300Y-64202300D02*
X193270000Y-62955600D01*
X192023300Y-75253300D02*
X192023300Y-64202300D01*
X192500000Y-75730000D02*
X192023300Y-75253300D01*
X111500000Y-76630000D02*
X111500000Y-77230000D01*
X107950000Y-73080000D02*
X111500000Y-76630000D01*
X119392500Y-79087500D02*
X119500000Y-78980000D01*
X119392500Y-82730000D02*
X119392500Y-79087500D01*
X159000000Y-90730000D02*
X159801700Y-90730000D01*
X161450000Y-92378300D02*
X159801700Y-90730000D01*
X161450000Y-107920000D02*
X161450000Y-92378300D01*
X137548300Y-75680000D02*
X137548300Y-71880000D01*
X112500000Y-63230000D02*
X112500000Y-62128300D01*
X112662800Y-36687200D02*
X113120000Y-36230000D01*
X112662800Y-47450000D02*
X112662800Y-36687200D01*
X113464500Y-47450000D02*
X112662800Y-47450000D01*
X185000000Y-109009500D02*
X185000000Y-107730000D01*
X177000000Y-117009500D02*
X185000000Y-109009500D01*
X177000000Y-124230000D02*
X177000000Y-117009500D01*
X199000000Y-149980000D02*
X199000000Y-148878300D01*
X198895000Y-115480000D02*
X198895000Y-114378300D01*
X198844400Y-98038900D02*
X198120700Y-98038900D01*
X199035500Y-98230000D02*
X198844400Y-98038900D01*
X194000000Y-93918200D02*
X198120700Y-98038900D01*
X194000000Y-90230000D02*
X194000000Y-93918200D01*
X116500000Y-125500000D02*
X116500000Y-124698300D01*
X116500000Y-110500000D02*
X116500000Y-109698300D01*
X162648300Y-71780000D02*
X162648300Y-75104200D01*
X162648300Y-75104200D02*
X162648300Y-75580000D01*
X162648300Y-75104200D02*
X162422400Y-75104200D01*
X166500000Y-149107800D02*
X166500000Y-136730000D01*
X163679500Y-151928300D02*
X166500000Y-149107800D01*
X154000000Y-57165500D02*
X154000000Y-60360500D01*
X152164500Y-55330000D02*
X154000000Y-57165500D01*
X154000000Y-60360500D02*
X154000000Y-66730000D01*
X198198300Y-129991700D02*
X199500000Y-128690000D01*
X198198300Y-133132100D02*
X198198300Y-129991700D01*
X200830700Y-135764500D02*
X198198300Y-133132100D01*
X200830700Y-147047600D02*
X200830700Y-135764500D01*
X199000000Y-148878300D02*
X200830700Y-147047600D01*
X197793300Y-113276600D02*
X198895000Y-114378300D01*
X197793300Y-98366300D02*
X197793300Y-113276600D01*
X198120700Y-98038900D02*
X197793300Y-98366300D01*
X197172000Y-116101300D02*
X198895000Y-114378300D01*
X197172000Y-121995600D02*
X197172000Y-116101300D01*
X200803700Y-125627300D02*
X197172000Y-121995600D01*
X200803700Y-126891300D02*
X200803700Y-125627300D01*
X199500000Y-128195000D02*
X200803700Y-126891300D01*
X199500000Y-128690000D02*
X199500000Y-128195000D01*
X119500000Y-78980000D02*
X119500000Y-77878300D01*
X117703400Y-110151200D02*
X117250500Y-109698300D01*
X117703400Y-123494900D02*
X117703400Y-110151200D01*
X116500000Y-124698300D02*
X117703400Y-123494900D01*
X116500000Y-109698300D02*
X117250500Y-109698300D01*
X119976100Y-77878300D02*
X119500000Y-77878300D01*
X120921600Y-78823800D02*
X119976100Y-77878300D01*
X120921600Y-83937400D02*
X120921600Y-78823800D01*
X117250500Y-87608500D02*
X120921600Y-83937400D01*
X117250500Y-109698300D02*
X117250500Y-87608500D01*
X162810300Y-87721400D02*
X159801700Y-90730000D01*
X162810300Y-76543700D02*
X162810300Y-87721400D01*
X162648300Y-76381700D02*
X162810300Y-76543700D01*
X162648300Y-75580000D02*
X162648300Y-76381700D01*
X115434400Y-66769000D02*
X119043700Y-70378300D01*
X115434400Y-64171200D02*
X115434400Y-66769000D01*
X119956400Y-70378300D02*
X119043700Y-70378300D01*
X124380000Y-74801900D02*
X119956400Y-70378300D01*
X124380000Y-99230000D02*
X124380000Y-74801900D01*
X118398300Y-76776600D02*
X119500000Y-77878300D01*
X118398300Y-71023700D02*
X118398300Y-76776600D01*
X119043700Y-70378300D02*
X118398300Y-71023700D01*
X112500000Y-61607600D02*
X112500000Y-62128300D01*
X114731500Y-59376100D02*
X112500000Y-61607600D01*
X114731500Y-48717000D02*
X114731500Y-59376100D01*
X113464500Y-47450000D02*
X114731500Y-48717000D01*
X191195100Y-51925100D02*
X193000000Y-53730000D01*
X191195100Y-40719300D02*
X191195100Y-51925100D01*
X194799900Y-37114500D02*
X191195100Y-40719300D01*
X196198400Y-37114500D02*
X194799900Y-37114500D01*
X196500600Y-37416700D02*
X196198400Y-37114500D01*
X196500600Y-38104900D02*
X196500600Y-37416700D01*
X195875500Y-38730000D02*
X196500600Y-38104900D01*
X195500000Y-38730000D02*
X195875500Y-38730000D01*
%TD*%
M02*
