%TF.GenerationSoftware,KiCad,Pcbnew,9.0.0-rc3*%
%TF.CreationDate,2025-04-06T11:09:10-05:00*%
%TF.ProjectId,Brine,4272696e-652e-46b6-9963-61645f706362,Dev Board 01*%
%TF.SameCoordinates,Original*%
%TF.FileFunction,Paste,Top*%
%TF.FilePolarity,Positive*%
%FSLAX46Y46*%
G04 Gerber Fmt 4.6, Leading zero omitted, Abs format (unit mm)*
G04 Created by KiCad (PCBNEW 9.0.0-rc3) date 2025-04-06 11:09:10*
%MOMM*%
%LPD*%
G01*
G04 APERTURE LIST*
G04 Aperture macros list*
%AMRoundRect*
0 Rectangle with rounded corners*
0 $1 Rounding radius*
0 $2 $3 $4 $5 $6 $7 $8 $9 X,Y pos of 4 corners*
0 Add a 4 corners polygon primitive as box body*
4,1,4,$2,$3,$4,$5,$6,$7,$8,$9,$2,$3,0*
0 Add four circle primitives for the rounded corners*
1,1,$1+$1,$2,$3*
1,1,$1+$1,$4,$5*
1,1,$1+$1,$6,$7*
1,1,$1+$1,$8,$9*
0 Add four rect primitives between the rounded corners*
20,1,$1+$1,$2,$3,$4,$5,0*
20,1,$1+$1,$4,$5,$6,$7,0*
20,1,$1+$1,$6,$7,$8,$9,0*
20,1,$1+$1,$8,$9,$2,$3,0*%
G04 Aperture macros list end*
%ADD10RoundRect,0.150000X0.825000X0.150000X-0.825000X0.150000X-0.825000X-0.150000X0.825000X-0.150000X0*%
%ADD11R,1.700000X1.000000*%
%ADD12R,1.500000X0.900000*%
%ADD13R,0.700000X0.700000*%
%ADD14RoundRect,0.150000X-0.825000X-0.150000X0.825000X-0.150000X0.825000X0.150000X-0.825000X0.150000X0*%
%ADD15RoundRect,0.150000X-0.512500X-0.150000X0.512500X-0.150000X0.512500X0.150000X-0.512500X0.150000X0*%
G04 APERTURE END LIST*
D10*
%TO.C,U4*%
X103000000Y-73080000D03*
X103000000Y-71810000D03*
X103000000Y-70540000D03*
X103000000Y-69270000D03*
X103000000Y-68000000D03*
X103000000Y-66730000D03*
X103000000Y-65460000D03*
X103000000Y-64190000D03*
X107950000Y-64190000D03*
X107950000Y-65460000D03*
X107950000Y-66730000D03*
X107950000Y-68000000D03*
X107950000Y-69270000D03*
X107950000Y-70540000D03*
X107950000Y-71810000D03*
X107950000Y-73080000D03*
%TD*%
D11*
%TO.C,S1*%
X157500000Y-75580000D03*
X163800000Y-75580000D03*
X157500000Y-71780000D03*
X163800000Y-71780000D03*
%TD*%
D12*
%TO.C,U1*%
X158854500Y-48580000D03*
X158854500Y-50080000D03*
X158854500Y-51580000D03*
X158854500Y-53080000D03*
X158854500Y-54580000D03*
X158854500Y-56080000D03*
X158854500Y-57580000D03*
X158854500Y-59080000D03*
X158854500Y-60580000D03*
X141354500Y-60580000D03*
X141354500Y-59080000D03*
X141354500Y-57580000D03*
X141354500Y-56080000D03*
X141354500Y-54580000D03*
X141354500Y-53080000D03*
X141354500Y-51580000D03*
X141354500Y-50080000D03*
X141354500Y-48580000D03*
D13*
X152164500Y-55880000D03*
X152164500Y-54780000D03*
X152164500Y-53680000D03*
X151064500Y-55880000D03*
X151064500Y-54780000D03*
X151064500Y-53680000D03*
X149964500Y-55880000D03*
X149964500Y-54780000D03*
X149964500Y-53680000D03*
%TD*%
D14*
%TO.C,U5*%
X156500000Y-107920000D03*
X156500000Y-109190000D03*
X156500000Y-110460000D03*
X156500000Y-111730000D03*
X156500000Y-113000000D03*
X156500000Y-114270000D03*
X156500000Y-115540000D03*
X161450000Y-115540000D03*
X161450000Y-114270000D03*
X161450000Y-113000000D03*
X161450000Y-111730000D03*
X161450000Y-110460000D03*
X161450000Y-109190000D03*
X161450000Y-107920000D03*
%TD*%
D11*
%TO.C,S2*%
X145000000Y-71880000D03*
X138700000Y-71880000D03*
X145000000Y-75680000D03*
X138700000Y-75680000D03*
%TD*%
D15*
%TO.C,U2*%
X195500000Y-37780000D03*
X195500000Y-38730000D03*
X195500000Y-39680000D03*
X197775000Y-39680000D03*
X197775000Y-37780000D03*
%TD*%
M02*
