%TF.GenerationSoftware,KiCad,Pcbnew,9.0.0-rc3*%
%TF.CreationDate,2025-04-06T11:09:10-05:00*%
%TF.ProjectId,Brine,4272696e-652e-46b6-9963-61645f706362,Dev Board 01*%
%TF.SameCoordinates,Original*%
%TF.FileFunction,Copper,L2,Bot*%
%TF.FilePolarity,Positive*%
%FSLAX46Y46*%
G04 Gerber Fmt 4.6, Leading zero omitted, Abs format (unit mm)*
G04 Created by KiCad (PCBNEW 9.0.0-rc3) date 2025-04-06 11:09:10*
%MOMM*%
%LPD*%
G01*
G04 APERTURE LIST*
G04 Aperture macros list*
%AMRoundRect*
0 Rectangle with rounded corners*
0 $1 Rounding radius*
0 $2 $3 $4 $5 $6 $7 $8 $9 X,Y pos of 4 corners*
0 Add a 4 corners polygon primitive as box body*
4,1,4,$2,$3,$4,$5,$6,$7,$8,$9,$2,$3,0*
0 Add four circle primitives for the rounded corners*
1,1,$1+$1,$2,$3*
1,1,$1+$1,$4,$5*
1,1,$1+$1,$6,$7*
1,1,$1+$1,$8,$9*
0 Add four rect primitives between the rounded corners*
20,1,$1+$1,$2,$3,$4,$5,0*
20,1,$1+$1,$4,$5,$6,$7,0*
20,1,$1+$1,$6,$7,$8,$9,0*
20,1,$1+$1,$8,$9,$2,$3,0*%
G04 Aperture macros list end*
%TA.AperFunction,ComponentPad*%
%ADD10R,1.000000X1.000000*%
%TD*%
%TA.AperFunction,ComponentPad*%
%ADD11O,1.000000X1.000000*%
%TD*%
%TA.AperFunction,ComponentPad*%
%ADD12O,2.000000X1.905000*%
%TD*%
%TA.AperFunction,ComponentPad*%
%ADD13R,2.000000X1.905000*%
%TD*%
%TA.AperFunction,ComponentPad*%
%ADD14C,1.600000*%
%TD*%
%TA.AperFunction,ComponentPad*%
%ADD15O,1.600000X1.600000*%
%TD*%
%TA.AperFunction,ComponentPad*%
%ADD16C,1.800000*%
%TD*%
%TA.AperFunction,ComponentPad*%
%ADD17R,1.800000X1.800000*%
%TD*%
%TA.AperFunction,ComponentPad*%
%ADD18O,2.400000X2.400000*%
%TD*%
%TA.AperFunction,ComponentPad*%
%ADD19R,2.400000X2.400000*%
%TD*%
%TA.AperFunction,ComponentPad*%
%ADD20C,2.159000*%
%TD*%
%TA.AperFunction,ComponentPad*%
%ADD21C,1.676400*%
%TD*%
%TA.AperFunction,HeatsinkPad*%
%ADD22C,0.600000*%
%TD*%
%TA.AperFunction,ComponentPad*%
%ADD23R,1.050000X1.500000*%
%TD*%
%TA.AperFunction,ComponentPad*%
%ADD24O,1.050000X1.500000*%
%TD*%
%TA.AperFunction,ComponentPad*%
%ADD25R,1.500000X1.050000*%
%TD*%
%TA.AperFunction,ComponentPad*%
%ADD26O,1.500000X1.050000*%
%TD*%
%TA.AperFunction,ComponentPad*%
%ADD27RoundRect,0.250000X0.600000X0.600000X-0.600000X0.600000X-0.600000X-0.600000X0.600000X-0.600000X0*%
%TD*%
%TA.AperFunction,ComponentPad*%
%ADD28C,1.700000*%
%TD*%
%TA.AperFunction,ComponentPad*%
%ADD29R,1.905000X2.000000*%
%TD*%
%TA.AperFunction,ComponentPad*%
%ADD30O,1.905000X2.000000*%
%TD*%
%TA.AperFunction,ViaPad*%
%ADD31C,0.600000*%
%TD*%
%TA.AperFunction,Conductor*%
%ADD32C,0.200000*%
%TD*%
G04 APERTURE END LIST*
D10*
%TO.P,J19,1,Pin_1*%
%TO.N,GND*%
X116500000Y-110500000D03*
D11*
%TO.P,J19,2,Pin_2*%
%TO.N,ESP32_3.3*%
X116500000Y-111770000D03*
%TO.P,J19,3,Pin_3*%
%TO.N,ESP32_SDA*%
X116500000Y-113040000D03*
%TO.P,J19,4,Pin_4*%
%TO.N,ESP32_SCL*%
X116500000Y-114310000D03*
%TD*%
D10*
%TO.P,J18,1,Pin_1*%
%TO.N,GND*%
X116500000Y-125500000D03*
D11*
%TO.P,J18,2,Pin_2*%
%TO.N,ESP32_3.3*%
X116500000Y-126770000D03*
%TO.P,J18,3,Pin_3*%
%TO.N,ESP32_SDA*%
X116500000Y-128040000D03*
%TO.P,J18,4,Pin_4*%
%TO.N,ESP32_SCL*%
X116500000Y-129310000D03*
%TD*%
D10*
%TO.P,J7,1,Pin_1*%
%TO.N,GND*%
X181500000Y-79500000D03*
D11*
%TO.P,J7,2,Pin_2*%
%TO.N,Net-(J7-Pin_2)*%
X182770000Y-79500000D03*
%TD*%
D10*
%TO.P,J17,1,Pin_1*%
%TO.N,GND*%
X189230000Y-145500000D03*
D11*
%TO.P,J17,2,Pin_2*%
%TO.N,ESP32_3.3*%
X190500000Y-145500000D03*
%TD*%
D12*
%TO.P,U3,3,VO*%
%TO.N,ESP32_3.3*%
X199500000Y-126150000D03*
%TO.P,U3,2,GND*%
%TO.N,GND*%
X199500000Y-128690000D03*
D13*
%TO.P,U3,1,VI*%
%TO.N,+5V*%
X199500000Y-131230000D03*
%TD*%
D14*
%TO.P,C11,2*%
%TO.N,GND*%
X111500000Y-77230000D03*
%TO.P,C11,1*%
%TO.N,Net-(U4-V3)*%
X113500000Y-77230000D03*
%TD*%
D15*
%TO.P,R17,2*%
%TO.N,Net-(D5-K)*%
X112500000Y-93610000D03*
D14*
%TO.P,R17,1*%
%TO.N,Net-(J11-Pin_2)*%
X112500000Y-101230000D03*
%TD*%
D11*
%TO.P,USB-C1,6,Pin_6*%
%TO.N,CC2*%
X113464500Y-52530000D03*
%TO.P,USB-C1,5,Pin_5*%
%TO.N,D+*%
X113464500Y-51260000D03*
%TO.P,USB-C1,4,Pin_4*%
%TO.N,D-*%
X113464500Y-49990000D03*
%TO.P,USB-C1,3,Pin_3*%
%TO.N,CC1*%
X113464500Y-48720000D03*
%TO.P,USB-C1,2,Pin_2*%
%TO.N,GND*%
X113464500Y-47450000D03*
D10*
%TO.P,USB-C1,1,Pin_1*%
%TO.N,V_USB*%
X113464500Y-46180000D03*
%TD*%
D15*
%TO.P,C10,2*%
%TO.N,GND*%
X112500000Y-63230000D03*
D14*
%TO.P,C10,1*%
%TO.N,ESP32_3.3*%
X112500000Y-70730000D03*
%TD*%
D11*
%TO.P,J10,2,Pin_2*%
%TO.N,Net-(J10-Pin_2)*%
X106270000Y-82230000D03*
D10*
%TO.P,J10,1,Pin_1*%
%TO.N,ESP32_RX*%
X105000000Y-82230000D03*
%TD*%
D16*
%TO.P,D5,2,A*%
%TO.N,ESP32_3.3*%
X107040000Y-97230000D03*
D17*
%TO.P,D5,1,K*%
%TO.N,Net-(D5-K)*%
X104500000Y-97230000D03*
%TD*%
D18*
%TO.P,C9,2*%
%TO.N,GND*%
X119392500Y-82730000D03*
D19*
%TO.P,C9,1*%
%TO.N,V_USB*%
X119392500Y-100730000D03*
%TD*%
D15*
%TO.P,R16,2*%
%TO.N,Net-(D4-K)*%
X112500000Y-83110000D03*
D14*
%TO.P,R16,1*%
%TO.N,Net-(J10-Pin_2)*%
X112500000Y-90730000D03*
%TD*%
D15*
%TO.P,C8,2*%
%TO.N,GND*%
X119500000Y-78980000D03*
D14*
%TO.P,C8,1*%
%TO.N,V_USB*%
X119500000Y-71480000D03*
%TD*%
D16*
%TO.P,D4,2,A*%
%TO.N,ESP32_3.3*%
X107040000Y-88680000D03*
D17*
%TO.P,D4,1,K*%
%TO.N,Net-(D4-K)*%
X104500000Y-88680000D03*
%TD*%
D11*
%TO.P,J11,2,Pin_2*%
%TO.N,Net-(J11-Pin_2)*%
X106270000Y-78730000D03*
D10*
%TO.P,J11,1,Pin_1*%
%TO.N,ESP32_TX*%
X105000000Y-78730000D03*
%TD*%
D14*
%TO.P,R8,1*%
%TO.N,ESP32_SCL*%
X181500000Y-47230000D03*
D15*
%TO.P,R8,2*%
%TO.N,Net-(J8-Pin_1)*%
X181500000Y-39610000D03*
%TD*%
D10*
%TO.P,J8,1,Pin_1*%
%TO.N,Net-(J8-Pin_1)*%
X181500000Y-37230000D03*
D11*
%TO.P,J8,2,Pin_2*%
%TO.N,ESP32_3.3*%
X181500000Y-35960000D03*
%TD*%
D14*
%TO.P,R9,1*%
%TO.N,ESP32_SDA*%
X181500000Y-58350000D03*
D15*
%TO.P,R9,2*%
%TO.N,Net-(J9-Pin_1)*%
X181500000Y-50730000D03*
%TD*%
D10*
%TO.P,J9,1,Pin_1*%
%TO.N,Net-(J9-Pin_1)*%
X181500000Y-62230000D03*
D11*
%TO.P,J9,2,Pin_2*%
%TO.N,ESP32_3.3*%
X181500000Y-60960000D03*
%TD*%
D20*
%TO.P,SW1,1,1*%
%TO.N,GND*%
X185000000Y-107730000D03*
%TO.P,SW1,2*%
%TO.N,N/C*%
X185000000Y-120230000D03*
%TO.P,SW1,3,3*%
%TO.N,BUTTON*%
X180000000Y-107730000D03*
%TO.P,SW1,4*%
%TO.N,N/C*%
X180000000Y-120230000D03*
D21*
%TO.P,SW1,A,A*%
%TO.N,BUTTON_LED*%
X175750000Y-113980000D03*
%TO.P,SW1,C,C*%
%TO.N,GND*%
X189250000Y-113980000D03*
%TD*%
D10*
%TO.P,J14,1,Pin_1*%
%TO.N,ALT*%
X162409500Y-152730000D03*
D11*
%TO.P,J14,2,Pin_2*%
%TO.N,GND*%
X163679500Y-152730000D03*
%TO.P,J14,3,Pin_3*%
%TO.N,ESP32_3.3*%
X164949500Y-152730000D03*
%TD*%
D10*
%TO.P,J13,1,Pin_1*%
%TO.N,ESP32_SDA*%
X164949500Y-143730000D03*
D11*
%TO.P,J13,3,Pin_3*%
%TO.N,QST*%
X162409500Y-143730000D03*
%TO.P,J13,2,Pin_2*%
%TO.N,ESP32_SCL*%
X163679500Y-143730000D03*
%TD*%
D16*
%TO.P,D3,2,A*%
%TO.N,ESP32_3.3*%
X181464500Y-84915000D03*
D17*
%TO.P,D3,1,K*%
%TO.N,Net-(D3-K)*%
X181464500Y-87455000D03*
%TD*%
%TO.P,D6,1,K*%
%TO.N,Net-(D6-K)*%
X184000000Y-128730000D03*
D16*
%TO.P,D6,2,A*%
%TO.N,ATTINY_STAT*%
X184000000Y-126190000D03*
%TD*%
D14*
%TO.P,R20,1*%
%TO.N,ATTINY_INT*%
X177500000Y-137230000D03*
D15*
%TO.P,R20,2*%
%TO.N,ESP32_3.3*%
X177500000Y-129610000D03*
%TD*%
%TO.P,R4,2*%
%TO.N,Net-(D1-K)*%
X141810000Y-90730000D03*
D14*
%TO.P,R4,1*%
%TO.N,Net-(J3-Pin_2)*%
X134190000Y-90730000D03*
%TD*%
D15*
%TO.P,C4,2*%
%TO.N,GND*%
X154000000Y-66730000D03*
D14*
%TO.P,C4,1*%
%TO.N,ESP32_3.3*%
X146500000Y-66730000D03*
%TD*%
D22*
%TO.P,U1,19,GND*%
%TO.N,GND*%
X152164500Y-55330000D03*
X152164500Y-54230000D03*
X151614500Y-55880000D03*
X151614500Y-54780000D03*
X151614500Y-53680000D03*
X151064500Y-55330000D03*
X151064500Y-54230000D03*
X150514500Y-55880000D03*
X150514500Y-54780000D03*
X150514500Y-53680000D03*
X149964500Y-55330000D03*
X149964500Y-54230000D03*
%TD*%
D23*
%TO.P,Q5,1,E*%
%TO.N,V_USB*%
X116460000Y-141022800D03*
D24*
%TO.P,Q5,2,B*%
%TO.N,Net-(Q5-B)*%
X117730000Y-141022800D03*
%TO.P,Q5,3,C*%
%TO.N,Net-(Q5-C)*%
X119000000Y-141022800D03*
%TD*%
D14*
%TO.P,R18,1*%
%TO.N,ATTINY_RST*%
X188620000Y-135230000D03*
D15*
%TO.P,R18,2*%
%TO.N,ESP32_3.3*%
X181000000Y-135230000D03*
%TD*%
D14*
%TO.P,R5,1*%
%TO.N,GND*%
X192500000Y-75730000D03*
D15*
%TO.P,R5,2*%
%TO.N,Net-(U2-PROG)*%
X200120000Y-75730000D03*
%TD*%
D14*
%TO.P,C5,2*%
%TO.N,GND*%
X151500000Y-75230000D03*
%TO.P,C5,1*%
%TO.N,ESP32_3.3*%
X149500000Y-75230000D03*
%TD*%
D16*
%TO.P,D1,2,A*%
%TO.N,ESP32_IO18_SCK*%
X151765000Y-91730000D03*
D17*
%TO.P,D1,1,K*%
%TO.N,Net-(D1-K)*%
X149225000Y-91730000D03*
%TD*%
D25*
%TO.P,Q2,1,E*%
%TO.N,ESP32_0*%
X103860000Y-125770000D03*
D26*
%TO.P,Q2,2,B*%
%TO.N,Net-(Q2-B)*%
X103860000Y-124500000D03*
%TO.P,Q2,3,C*%
%TO.N,DTR*%
X103860000Y-123230000D03*
%TD*%
D14*
%TO.P,R14,1*%
%TO.N,GND*%
X124380000Y-99230000D03*
D15*
%TO.P,R14,2*%
%TO.N,CC1*%
X132000000Y-99230000D03*
%TD*%
D27*
%TO.P,J15,1,MISO*%
%TO.N,ATTINY_MISO*%
X160500000Y-131810000D03*
D28*
%TO.P,J15,2,VCC*%
%TO.N,ESP32_3.3*%
X157960000Y-131810000D03*
%TO.P,J15,3,SCK*%
%TO.N,ATTINY_SCK*%
X160500000Y-129270000D03*
%TO.P,J15,4,MOSI*%
%TO.N,ATTINY_SDA*%
X157960000Y-129270000D03*
%TO.P,J15,5,~{RST}*%
%TO.N,ATTINY_RST*%
X160500000Y-126730000D03*
%TO.P,J15,6,GND*%
%TO.N,GND*%
X157960000Y-126730000D03*
%TD*%
D10*
%TO.P,J2,1,Pin_1*%
%TO.N,GND*%
X132464500Y-131180000D03*
D11*
%TO.P,J2,2,Pin_2*%
%TO.N,ESP32_3.3*%
X133734500Y-131180000D03*
%TO.P,J2,3,Pin_3*%
%TO.N,ESP32_SDA*%
X135004500Y-131180000D03*
%TO.P,J2,4,Pin_4*%
%TO.N,ESP32_SCL*%
X136274500Y-131180000D03*
%TO.P,J2,5,Pin_5*%
%TO.N,INT*%
X137544500Y-131180000D03*
%TO.P,J2,6,Pin_6*%
%TO.N,SHUT*%
X138814500Y-131180000D03*
%TD*%
D14*
%TO.P,C7,1*%
%TO.N,+5V*%
X198895000Y-107980000D03*
D15*
%TO.P,C7,2*%
%TO.N,GND*%
X198895000Y-115480000D03*
%TD*%
D25*
%TO.P,Q1,1,E*%
%TO.N,RTS*%
X103860000Y-116730000D03*
D26*
%TO.P,Q1,2,B*%
%TO.N,Net-(Q1-B)*%
X103860000Y-115460000D03*
%TO.P,Q1,3,C*%
%TO.N,ESP32_EN*%
X103860000Y-114190000D03*
%TD*%
D15*
%TO.P,R6,2*%
%TO.N,Net-(D2-A)*%
X200120000Y-82730000D03*
D14*
%TO.P,R6,1*%
%TO.N,Net-(J4-Pin_2)*%
X192500000Y-82730000D03*
%TD*%
%TO.P,R2,1*%
%TO.N,Net-(Q1-B)*%
X109500000Y-108730000D03*
D15*
%TO.P,R2,2*%
%TO.N,DTR*%
X109500000Y-116350000D03*
%TD*%
D14*
%TO.P,R19,1*%
%TO.N,Net-(J16-Pin_2)*%
X173620000Y-130230000D03*
D15*
%TO.P,R19,2*%
%TO.N,Net-(D6-K)*%
X166000000Y-130230000D03*
%TD*%
D10*
%TO.P,J6,1,Pin_1*%
%TO.N,V_BATT*%
X199000000Y-59730000D03*
D11*
%TO.P,J6,2,Pin_2*%
%TO.N,GND*%
X200270000Y-59730000D03*
%TD*%
D14*
%TO.P,R12,1*%
%TO.N,GND*%
X105190000Y-149472800D03*
D15*
%TO.P,R12,2*%
%TO.N,Net-(Q3-G)*%
X112810000Y-149472800D03*
%TD*%
D23*
%TO.P,Q7,1,E*%
%TO.N,5V_CHG*%
X116460000Y-149522800D03*
D24*
%TO.P,Q7,2,B*%
%TO.N,Net-(Q5-B)*%
X117730000Y-149522800D03*
%TO.P,Q7,3,C*%
%TO.N,Net-(Q3-G)*%
X119000000Y-149522800D03*
%TD*%
D14*
%TO.P,R11,1*%
%TO.N,GND*%
X122380000Y-149022800D03*
D15*
%TO.P,R11,2*%
%TO.N,Net-(Q6-C)*%
X130000000Y-149022800D03*
%TD*%
D10*
%TO.P,J4,1,Pin_1*%
%TO.N,Net-(J4-Pin_1)*%
X200000000Y-66730000D03*
D11*
%TO.P,J4,2,Pin_2*%
%TO.N,Net-(J4-Pin_2)*%
X200000000Y-65460000D03*
%TD*%
D14*
%TO.P,C2,2*%
%TO.N,5V_CHG*%
X199000000Y-90230000D03*
%TO.P,C2,1*%
%TO.N,GND*%
X194000000Y-90230000D03*
%TD*%
D15*
%TO.P,R7,2*%
%TO.N,Net-(D3-K)*%
X181500000Y-92920000D03*
D14*
%TO.P,R7,1*%
%TO.N,Net-(J7-Pin_2)*%
X181500000Y-100540000D03*
%TD*%
D11*
%TO.P,J3,2,Pin_2*%
%TO.N,Net-(J3-Pin_2)*%
X159000000Y-92000000D03*
D10*
%TO.P,J3,1,Pin_1*%
%TO.N,GND*%
X159000000Y-90730000D03*
%TD*%
D23*
%TO.P,Q6,1,E*%
%TO.N,5V_EXT*%
X133230000Y-140882800D03*
D24*
%TO.P,Q6,2,B*%
%TO.N,Net-(Q6-B)*%
X134500000Y-140882800D03*
%TO.P,Q6,3,C*%
%TO.N,Net-(Q6-C)*%
X135770000Y-140882800D03*
%TD*%
D17*
%TO.P,D2,1,K*%
%TO.N,5V_CHG*%
X193225000Y-67230000D03*
D16*
%TO.P,D2,2,A*%
%TO.N,Net-(D2-A)*%
X195765000Y-67230000D03*
%TD*%
D11*
%TO.P,J1,4,Pin_4*%
%TO.N,ESP32_SCL*%
X172810000Y-90230000D03*
%TO.P,J1,3,Pin_3*%
%TO.N,ESP32_SDA*%
X171540000Y-90230000D03*
%TO.P,J1,2,Pin_2*%
%TO.N,ESP32_3.3*%
X170270000Y-90230000D03*
D10*
%TO.P,J1,1,Pin_1*%
%TO.N,GND*%
X169000000Y-90230000D03*
%TD*%
D29*
%TO.P,Q4,1,G*%
%TO.N,Net-(Q4-G)*%
X140500000Y-141522800D03*
D30*
%TO.P,Q4,2,D*%
%TO.N,5V_EXT*%
X143040000Y-141522800D03*
%TO.P,Q4,3,S*%
%TO.N,5V_CHG*%
X145580000Y-141522800D03*
%TD*%
D14*
%TO.P,R10,1*%
%TO.N,GND*%
X122380000Y-140522800D03*
D15*
%TO.P,R10,2*%
%TO.N,Net-(Q5-C)*%
X130000000Y-140522800D03*
%TD*%
D29*
%TO.P,Q3,1,G*%
%TO.N,Net-(Q3-G)*%
X106000000Y-141522800D03*
D30*
%TO.P,Q3,2,D*%
%TO.N,V_USB*%
X108540000Y-141522800D03*
%TO.P,Q3,3,S*%
%TO.N,5V_CHG*%
X111080000Y-141522800D03*
%TD*%
D14*
%TO.P,R3,1*%
%TO.N,Net-(Q2-B)*%
X109500000Y-130850000D03*
D15*
%TO.P,R3,2*%
%TO.N,RTS*%
X109500000Y-123230000D03*
%TD*%
D14*
%TO.P,C12,1*%
%TO.N,ESP32_3.3*%
X174000000Y-136730000D03*
D15*
%TO.P,C12,2*%
%TO.N,GND*%
X166500000Y-136730000D03*
%TD*%
D11*
%TO.P,J5,2,Pin_2*%
%TO.N,GND*%
X193270000Y-59730000D03*
D10*
%TO.P,J5,1,Pin_1*%
%TO.N,V_BATT*%
X192000000Y-59730000D03*
%TD*%
D14*
%TO.P,C6,1*%
%TO.N,ESP32_3.3*%
X199000000Y-142480000D03*
D15*
%TO.P,C6,2*%
%TO.N,GND*%
X199000000Y-149980000D03*
%TD*%
D23*
%TO.P,Q8,1,E*%
%TO.N,5V_CHG*%
X133230000Y-149382800D03*
D24*
%TO.P,Q8,2,B*%
%TO.N,Net-(Q6-B)*%
X134500000Y-149382800D03*
%TO.P,Q8,3,C*%
%TO.N,Net-(Q4-G)*%
X135770000Y-149382800D03*
%TD*%
D10*
%TO.P,J16,1,Pin_1*%
%TO.N,GND*%
X177000000Y-124230000D03*
D11*
%TO.P,J16,2,Pin_2*%
%TO.N,Net-(J16-Pin_2)*%
X177000000Y-125500000D03*
%TD*%
D14*
%TO.P,R15,1*%
%TO.N,GND*%
X113120000Y-36230000D03*
D15*
%TO.P,R15,2*%
%TO.N,CC2*%
X105500000Y-36230000D03*
%TD*%
D11*
%TO.P,J12,9,Pin_9*%
%TO.N,ESP32_IO19*%
X137500000Y-60890000D03*
%TO.P,J12,8,Pin_8*%
%TO.N,ESP32_IO10*%
X137500000Y-59620000D03*
%TO.P,J12,7,Pin_7*%
%TO.N,ESP32_IO9*%
X137500000Y-58350000D03*
%TO.P,J12,6,Pin_6*%
%TO.N,ESP32_IO8*%
X137500000Y-57080000D03*
%TO.P,J12,5,Pin_5*%
%TO.N,ESP32_IO7*%
X137500000Y-55810000D03*
%TO.P,J12,4,Pin_4*%
%TO.N,ESP32_IO5*%
X137500000Y-54540000D03*
%TO.P,J12,3,Pin_3*%
%TO.N,ESP32_IO4*%
X137500000Y-53270000D03*
%TO.P,J12,2,Pin_2*%
%TO.N,ESP32_IO1*%
X137500000Y-52000000D03*
D10*
%TO.P,J12,1,Pin_1*%
%TO.N,ESP32_IO0*%
X137500000Y-50730000D03*
%TD*%
D15*
%TO.P,R1,2*%
%TO.N,ESP32_3.3*%
X165500000Y-56850000D03*
D14*
%TO.P,R1,1*%
%TO.N,ESP32_EN*%
X165500000Y-49230000D03*
%TD*%
D15*
%TO.P,C1,2*%
%TO.N,GND*%
X164000000Y-59730000D03*
D14*
%TO.P,C1,1*%
%TO.N,ESP32_EN*%
X164000000Y-67230000D03*
%TD*%
%TO.P,R13,1*%
%TO.N,GND*%
X139190000Y-148022800D03*
D15*
%TO.P,R13,2*%
%TO.N,Net-(Q4-G)*%
X146810000Y-148022800D03*
%TD*%
D14*
%TO.P,C3,2*%
%TO.N,GND*%
X199035500Y-98230000D03*
%TO.P,C3,1*%
%TO.N,V_BATT*%
X194035500Y-98230000D03*
%TD*%
D31*
%TO.N,BUTTON_LED*%
X157935600Y-114764100D03*
%TO.N,ATTINY_SDA*%
X172000000Y-121508800D03*
%TO.N,ATTINY_MISO*%
X170175300Y-132227000D03*
%TO.N,ATTINY_SCK*%
X163539500Y-130970300D03*
%TO.N,BUTTON*%
X167000000Y-107658600D03*
%TO.N,D+*%
X116158900Y-51260000D03*
%TO.N,D-*%
X117173300Y-50465100D03*
%TO.N,ESP32_TX*%
X153461400Y-80683200D03*
%TO.N,ESP32_RX*%
X155732400Y-81949200D03*
%TO.N,ATTINY_INT*%
X162937800Y-139273500D03*
%TO.N,CC2*%
X119000000Y-54305200D03*
%TO.N,CC1*%
X119000000Y-48720000D03*
X126825200Y-98666600D03*
%TO.N,ESP32_0*%
X141876600Y-124462800D03*
X168551700Y-52268000D03*
X142731500Y-54744900D03*
%TO.N,ESP32_IO19*%
X155945900Y-58620700D03*
%TO.N,ESP32_IO1*%
X160113300Y-49853600D03*
%TO.N,ESP32_IO8*%
X169539900Y-54863400D03*
%TO.N,ESP32_IO9*%
X171500000Y-58019000D03*
%TO.N,ESP32_IO7*%
X171500000Y-51421500D03*
%TO.N,ESP32_IO0*%
X156993600Y-49207500D03*
%TO.N,ESP32_IO10*%
X157600500Y-60377700D03*
X171500000Y-64368300D03*
%TO.N,ESP32_SDA*%
X157600100Y-54241100D03*
X173520300Y-54241100D03*
%TO.N,ESP32_SCL*%
X162325100Y-48603800D03*
X131855800Y-49900900D03*
X118347100Y-114491300D03*
%TO.N,ATTINY_STAT*%
X168770100Y-126314900D03*
%TO.N,ESP32_IO18_SCK*%
X164951700Y-87459500D03*
%TO.N,V_USB*%
X114123800Y-64393200D03*
%TO.N,ESP32_3.3*%
X140000000Y-76980800D03*
%TO.N,5V_CHG*%
X204063300Y-63991500D03*
X147804400Y-98666600D03*
X132951500Y-145791400D03*
%TO.N,ESP32_EN*%
X130000000Y-101614300D03*
X158651700Y-66608700D03*
X137146600Y-68874900D03*
X143163500Y-68874900D03*
%TO.N,GND*%
X139827300Y-70176900D03*
X162422400Y-75104200D03*
X154000000Y-60360500D03*
X115434400Y-64171200D03*
%TD*%
D32*
%TO.N,BUTTON_LED*%
X174965900Y-114764100D02*
X157935600Y-114764100D01*
X175750000Y-113980000D02*
X174965900Y-114764100D01*
%TO.N,ATTINY_SDA*%
X161512400Y-121508800D02*
X172000000Y-121508800D01*
X156761200Y-126260000D02*
X161512400Y-121508800D01*
X156761200Y-128071200D02*
X156761200Y-126260000D01*
X157960000Y-129270000D02*
X156761200Y-128071200D01*
%TO.N,ATTINY_MISO*%
X160917000Y-132227000D02*
X170175300Y-132227000D01*
X160500000Y-131810000D02*
X160917000Y-132227000D01*
%TO.N,ATTINY_SCK*%
X162200300Y-130970300D02*
X163539500Y-130970300D01*
X160500000Y-129270000D02*
X162200300Y-130970300D01*
%TO.N,BUTTON*%
X167071400Y-107730000D02*
X167000000Y-107658600D01*
X180000000Y-107730000D02*
X167071400Y-107730000D01*
%TO.N,D+*%
X113464500Y-51260000D02*
X116158900Y-51260000D01*
%TO.N,D-*%
X113464500Y-49990000D02*
X114266200Y-49990000D01*
X114741300Y-50465100D02*
X117173300Y-50465100D01*
X114266200Y-49990000D02*
X114741300Y-50465100D01*
%TO.N,ESP32_TX*%
X106953200Y-80683200D02*
X105000000Y-78730000D01*
X153461400Y-80683200D02*
X106953200Y-80683200D01*
%TO.N,ESP32_RX*%
X106044600Y-81185400D02*
X105000000Y-82230000D01*
X121821000Y-81185400D02*
X106044600Y-81185400D01*
X122584800Y-81949200D02*
X121821000Y-81185400D01*
X155732400Y-81949200D02*
X122584800Y-81949200D01*
%TO.N,ATTINY_INT*%
X175456500Y-139273500D02*
X162937800Y-139273500D01*
X177500000Y-137230000D02*
X175456500Y-139273500D01*
%TO.N,ATTINY_RST*%
X165395300Y-131625300D02*
X160500000Y-126730000D01*
X185015300Y-131625300D02*
X165395300Y-131625300D01*
X188620000Y-135230000D02*
X185015300Y-131625300D01*
%TO.N,CC2*%
X116041400Y-54305200D02*
X119000000Y-54305200D01*
X114266200Y-52530000D02*
X116041400Y-54305200D01*
X113464500Y-52530000D02*
X114266200Y-52530000D01*
%TO.N,CC1*%
X113464500Y-48720000D02*
X119000000Y-48720000D01*
X130334900Y-98666600D02*
X130898300Y-99230000D01*
X126825200Y-98666600D02*
X130334900Y-98666600D01*
X132000000Y-99230000D02*
X130898300Y-99230000D01*
%TO.N,Net-(Q5-C)*%
X127796000Y-141625100D02*
X128898300Y-140522800D01*
X120429000Y-141625100D02*
X127796000Y-141625100D01*
X119826700Y-141022800D02*
X120429000Y-141625100D01*
X119000000Y-141022800D02*
X119826700Y-141022800D01*
X130000000Y-140522800D02*
X128898300Y-140522800D01*
%TO.N,5V_EXT*%
X134160200Y-142864700D02*
X133230000Y-141934500D01*
X141541300Y-142864700D02*
X134160200Y-142864700D01*
X141785800Y-142620200D02*
X141541300Y-142864700D01*
X141785800Y-141522800D02*
X141785800Y-142620200D01*
X143040000Y-141522800D02*
X141785800Y-141522800D01*
X133230000Y-140882800D02*
X133230000Y-141934500D01*
%TO.N,Net-(Q4-G)*%
X144348300Y-149382800D02*
X145708300Y-148022800D01*
X135770000Y-149382800D02*
X144348300Y-149382800D01*
X146810000Y-148022800D02*
X145708300Y-148022800D01*
%TO.N,Net-(Q3-G)*%
X114913400Y-148471100D02*
X113911700Y-149472800D01*
X119000000Y-148471100D02*
X114913400Y-148471100D01*
X119000000Y-149522800D02*
X119000000Y-148471100D01*
X112810000Y-149472800D02*
X113911700Y-149472800D01*
%TO.N,ESP32_0*%
X110837200Y-124462800D02*
X141876600Y-124462800D01*
X109530000Y-125770000D02*
X110837200Y-124462800D01*
X103860000Y-125770000D02*
X109530000Y-125770000D01*
X145208400Y-52268000D02*
X142731500Y-54744900D01*
X168551700Y-52268000D02*
X145208400Y-52268000D01*
%TO.N,RTS*%
X108431600Y-122128300D02*
X109500000Y-122128300D01*
X103860000Y-117556700D02*
X108431600Y-122128300D01*
X103860000Y-116730000D02*
X103860000Y-117556700D01*
X109500000Y-123230000D02*
X109500000Y-122128300D01*
%TO.N,ESP32_IO19*%
X140571000Y-58620700D02*
X138301700Y-60890000D01*
X155945900Y-58620700D02*
X140571000Y-58620700D01*
X137500000Y-60890000D02*
X138301700Y-60890000D01*
%TO.N,ESP32_IO1*%
X143210500Y-49853600D02*
X160113300Y-49853600D01*
X141064100Y-52000000D02*
X143210500Y-49853600D01*
X137500000Y-52000000D02*
X141064100Y-52000000D01*
%TO.N,ESP32_IO8*%
X154298200Y-54863400D02*
X169539900Y-54863400D01*
X152081600Y-57080000D02*
X154298200Y-54863400D01*
X137500000Y-57080000D02*
X152081600Y-57080000D01*
%TO.N,ESP32_IO9*%
X137500000Y-58350000D02*
X138301700Y-58350000D01*
X138632700Y-58019000D02*
X171500000Y-58019000D01*
X138301700Y-58350000D02*
X138632700Y-58019000D01*
%TO.N,ESP32_IO7*%
X142690200Y-51421500D02*
X171500000Y-51421500D01*
X138301700Y-55810000D02*
X142690200Y-51421500D01*
X137500000Y-55810000D02*
X138301700Y-55810000D01*
%TO.N,ESP32_IO0*%
X137500000Y-50730000D02*
X138301700Y-50730000D01*
X139824200Y-49207500D02*
X156993600Y-49207500D01*
X138301700Y-50730000D02*
X139824200Y-49207500D01*
%TO.N,ESP32_IO10*%
X161591100Y-64368300D02*
X171500000Y-64368300D01*
X157600500Y-60377700D02*
X161591100Y-64368300D01*
X156269800Y-61708400D02*
X157600500Y-60377700D01*
X137111700Y-61708400D02*
X156269800Y-61708400D01*
X136670600Y-61267300D02*
X137111700Y-61708400D01*
X136670600Y-60449400D02*
X136670600Y-61267300D01*
X137500000Y-59620000D02*
X136670600Y-60449400D01*
%TO.N,ESP32_SDA*%
X140120400Y-136295900D02*
X135004500Y-131180000D01*
X148222800Y-136295900D02*
X140120400Y-136295900D01*
X156490600Y-144563700D02*
X148222800Y-136295900D01*
X164115800Y-144563700D02*
X156490600Y-144563700D01*
X164949500Y-143730000D02*
X164115800Y-144563700D01*
X177391100Y-54241100D02*
X173520300Y-54241100D01*
X181500000Y-58350000D02*
X177391100Y-54241100D01*
X173520300Y-54241100D02*
X157600100Y-54241100D01*
X115664800Y-128875200D02*
X116500000Y-128040000D01*
X115664800Y-129611200D02*
X115664800Y-128875200D01*
X116171700Y-130118100D02*
X115664800Y-129611200D01*
X122717800Y-130118100D02*
X116171700Y-130118100D01*
X122868400Y-129967500D02*
X122717800Y-130118100D01*
X133792000Y-129967500D02*
X122868400Y-129967500D01*
X135004500Y-131180000D02*
X133792000Y-129967500D01*
%TO.N,ESP32_SCL*%
X134404500Y-129310000D02*
X116500000Y-129310000D01*
X136274500Y-131180000D02*
X134404500Y-129310000D01*
X163930700Y-48603800D02*
X162325100Y-48603800D01*
X165304500Y-47230000D02*
X163930700Y-48603800D01*
X181500000Y-47230000D02*
X165304500Y-47230000D01*
X137085300Y-131990800D02*
X136274500Y-131180000D01*
X151940300Y-131990800D02*
X137085300Y-131990800D01*
X163679500Y-143730000D02*
X151940300Y-131990800D01*
X133152900Y-48603800D02*
X131855800Y-49900900D01*
X162325100Y-48603800D02*
X133152900Y-48603800D01*
X117483000Y-114491300D02*
X118347100Y-114491300D01*
X117301700Y-114310000D02*
X117483000Y-114491300D01*
X116500000Y-114310000D02*
X117301700Y-114310000D01*
%TO.N,ATTINY_STAT*%
X183875100Y-126314900D02*
X168770100Y-126314900D01*
X184000000Y-126190000D02*
X183875100Y-126314900D01*
%TO.N,Net-(D6-K)*%
X168854000Y-128477700D02*
X167101700Y-130230000D01*
X182546000Y-128477700D02*
X168854000Y-128477700D01*
X182798300Y-128730000D02*
X182546000Y-128477700D01*
X184000000Y-128730000D02*
X182798300Y-128730000D01*
X166000000Y-130230000D02*
X167101700Y-130230000D01*
%TO.N,Net-(D5-K)*%
X108946200Y-93610000D02*
X112500000Y-93610000D01*
X105701700Y-96854500D02*
X108946200Y-93610000D01*
X105701700Y-97230000D02*
X105701700Y-96854500D01*
X104500000Y-97230000D02*
X105701700Y-97230000D01*
%TO.N,Net-(D4-K)*%
X110896200Y-83110000D02*
X112500000Y-83110000D01*
X105701700Y-88304500D02*
X110896200Y-83110000D01*
X105701700Y-88680000D02*
X105701700Y-88304500D01*
X104500000Y-88680000D02*
X105701700Y-88680000D01*
%TO.N,ESP32_IO18_SCK*%
X156035500Y-87459500D02*
X164951700Y-87459500D01*
X151765000Y-91730000D02*
X156035500Y-87459500D01*
%TO.N,V_USB*%
X114806600Y-140196100D02*
X115633300Y-141022800D01*
X110572200Y-140196100D02*
X114806600Y-140196100D01*
X109794200Y-140974100D02*
X110572200Y-140196100D01*
X109794200Y-141522800D02*
X109794200Y-140974100D01*
X108540000Y-141522800D02*
X109794200Y-141522800D01*
X116460000Y-141022800D02*
X115633300Y-141022800D01*
X119500000Y-69769400D02*
X114123800Y-64393200D01*
X119500000Y-71480000D02*
X119500000Y-69769400D01*
%TO.N,Net-(J4-Pin_2)*%
X198494700Y-66163600D02*
X199198300Y-65460000D01*
X198494700Y-76735300D02*
X198494700Y-66163600D01*
X192500000Y-82730000D02*
X198494700Y-76735300D01*
X200000000Y-65460000D02*
X199198300Y-65460000D01*
%TO.N,Net-(J3-Pin_2)*%
X136436300Y-92976300D02*
X134190000Y-90730000D01*
X157222000Y-92976300D02*
X136436300Y-92976300D01*
X158198300Y-92000000D02*
X157222000Y-92976300D01*
X159000000Y-92000000D02*
X158198300Y-92000000D01*
%TO.N,Net-(D1-K)*%
X143911700Y-91730000D02*
X142911700Y-90730000D01*
X149225000Y-91730000D02*
X143911700Y-91730000D01*
X141810000Y-90730000D02*
X142911700Y-90730000D01*
%TO.N,ESP32_3.3*%
X181500000Y-60960000D02*
X180698300Y-60960000D01*
X195980000Y-145500000D02*
X190500000Y-145500000D01*
X199000000Y-142480000D02*
X195980000Y-145500000D01*
X175500000Y-135230000D02*
X181000000Y-135230000D01*
X174000000Y-136730000D02*
X175500000Y-135230000D01*
X170500000Y-133230000D02*
X174000000Y-136730000D01*
X159380000Y-133230000D02*
X170500000Y-133230000D01*
X157960000Y-131810000D02*
X159380000Y-133230000D01*
X176588300Y-56850000D02*
X180698300Y-60960000D01*
X165500000Y-56850000D02*
X176588300Y-56850000D01*
X198245800Y-127404200D02*
X199500000Y-127404200D01*
X195662900Y-129987100D02*
X198245800Y-127404200D01*
X178978800Y-129987100D02*
X195662900Y-129987100D01*
X178601700Y-129610000D02*
X178978800Y-129987100D01*
X177500000Y-129610000D02*
X178601700Y-129610000D01*
X199500000Y-126150000D02*
X199500000Y-127404200D01*
X141750800Y-75230000D02*
X140000000Y-76980800D01*
X149500000Y-75230000D02*
X141750800Y-75230000D01*
X118750800Y-76980800D02*
X140000000Y-76980800D01*
X112500000Y-70730000D02*
X118750800Y-76980800D01*
X170270000Y-90230000D02*
X170270000Y-89428300D01*
X170270000Y-89428300D02*
X170270000Y-84915000D01*
X181464500Y-84915000D02*
X170270000Y-84915000D01*
X115262900Y-128007100D02*
X116500000Y-126770000D01*
X115262900Y-129845100D02*
X115262900Y-128007100D01*
X116597800Y-131180000D02*
X115262900Y-129845100D01*
X131037800Y-131180000D02*
X116597800Y-131180000D01*
X131839500Y-130378300D02*
X131037800Y-131180000D01*
X133100300Y-130378300D02*
X131839500Y-130378300D01*
X133734500Y-131012500D02*
X133100300Y-130378300D01*
X133734500Y-131180000D02*
X133734500Y-131012500D01*
X149864100Y-75230000D02*
X149500000Y-75230000D01*
X159549100Y-84915000D02*
X149864100Y-75230000D01*
X170270000Y-84915000D02*
X159549100Y-84915000D01*
%TO.N,V_BATT*%
X197396600Y-58928300D02*
X198198300Y-59730000D01*
X192801700Y-58928300D02*
X197396600Y-58928300D01*
X192000000Y-59730000D02*
X192801700Y-58928300D01*
X199000000Y-59730000D02*
X198198300Y-59730000D01*
%TO.N,5V_CHG*%
X197289700Y-63991500D02*
X204063300Y-63991500D01*
X194426700Y-66854500D02*
X197289700Y-63991500D01*
X194426700Y-67230000D02*
X194426700Y-66854500D01*
X193225000Y-67230000D02*
X194426700Y-67230000D01*
X131211600Y-150574500D02*
X116460000Y-150574500D01*
X132403300Y-149382800D02*
X131211600Y-150574500D01*
X116460000Y-149522800D02*
X116460000Y-150574500D01*
X190563400Y-98666600D02*
X199000000Y-90230000D01*
X147804400Y-98666600D02*
X190563400Y-98666600D01*
X133230000Y-149382800D02*
X132403300Y-149382800D01*
X144325800Y-142090000D02*
X144325800Y-141522800D01*
X140624400Y-145791400D02*
X144325800Y-142090000D01*
X132951500Y-145791400D02*
X140624400Y-145791400D01*
X145580000Y-141522800D02*
X144325800Y-141522800D01*
%TO.N,ESP32_EN*%
X123551600Y-101614300D02*
X130000000Y-101614300D01*
X110975900Y-114190000D02*
X123551600Y-101614300D01*
X103860000Y-114190000D02*
X110975900Y-114190000D01*
X163378700Y-66608700D02*
X158651700Y-66608700D01*
X164000000Y-67230000D02*
X163378700Y-66608700D01*
X156385500Y-68874900D02*
X143163500Y-68874900D01*
X158651700Y-66608700D02*
X156385500Y-68874900D01*
X143163500Y-68874900D02*
X137146600Y-68874900D01*
%TO.N,GND*%
X159000000Y-90730000D02*
X159801700Y-90730000D01*
X193710000Y-149980000D02*
X189230000Y-145500000D01*
X199000000Y-149980000D02*
X193710000Y-149980000D01*
X132464500Y-131180000D02*
X131662800Y-131180000D01*
X160460000Y-124230000D02*
X177000000Y-124230000D01*
X157960000Y-126730000D02*
X160460000Y-124230000D01*
X149964500Y-55330000D02*
X151064500Y-55330000D01*
X151562600Y-55931900D02*
X151614500Y-55880000D01*
X150566400Y-55931900D02*
X151562600Y-55931900D01*
X150514500Y-55880000D02*
X150566400Y-55931900D01*
X150566400Y-53628100D02*
X150514500Y-53680000D01*
X151562600Y-53628100D02*
X150566400Y-53628100D01*
X151614500Y-53680000D02*
X151562600Y-53628100D01*
X151614500Y-54780000D02*
X151614500Y-54230000D01*
X151064500Y-54230000D02*
X151614500Y-54230000D01*
X151614500Y-54230000D02*
X152164500Y-54230000D01*
X159146000Y-127916000D02*
X157960000Y-126730000D01*
X159146000Y-129772400D02*
X159146000Y-127916000D01*
X158378400Y-130540000D02*
X159146000Y-129772400D01*
X157577300Y-130540000D02*
X158378400Y-130540000D01*
X156761400Y-131355900D02*
X157577300Y-130540000D01*
X156761400Y-132267000D02*
X156761400Y-131355900D01*
X161224400Y-136730000D02*
X156761400Y-132267000D01*
X166500000Y-136730000D02*
X161224400Y-136730000D01*
X196293300Y-113980000D02*
X197793300Y-115480000D01*
X189250000Y-113980000D02*
X196293300Y-113980000D01*
X198895000Y-115480000D02*
X197793300Y-115480000D01*
X106606100Y-148056700D02*
X105190000Y-149472800D01*
X122380000Y-148056700D02*
X106606100Y-148056700D01*
X122603000Y-147833700D02*
X122380000Y-148056700D01*
X139000900Y-147833700D02*
X122603000Y-147833700D01*
X139190000Y-148022800D02*
X139000900Y-147833700D01*
X122380000Y-148056700D02*
X122380000Y-149022800D01*
X131662800Y-131240000D02*
X122380000Y-140522800D01*
X131662800Y-131180000D02*
X131662800Y-131240000D01*
X194873400Y-60531700D02*
X200270000Y-60531700D01*
X194071700Y-59730000D02*
X194873400Y-60531700D01*
X193270000Y-59730000D02*
X194071700Y-59730000D01*
X200270000Y-59730000D02*
X200270000Y-60531700D01*
X168177200Y-90730000D02*
X159801700Y-90730000D01*
X168198300Y-90708900D02*
X168177200Y-90730000D01*
X168198300Y-90230000D02*
X168198300Y-90708900D01*
X193161600Y-91068400D02*
X194000000Y-90230000D01*
X168346300Y-91068400D02*
X193161600Y-91068400D01*
X168177200Y-90899300D02*
X168346300Y-91068400D01*
X168177200Y-90730000D02*
X168177200Y-90899300D01*
X169000000Y-90230000D02*
X168198300Y-90230000D01*
X113250000Y-78980000D02*
X111500000Y-77230000D01*
X119500000Y-78980000D02*
X113250000Y-78980000D01*
X185270000Y-75730000D02*
X181500000Y-79500000D01*
X192500000Y-75730000D02*
X185270000Y-75730000D01*
X151625800Y-75104200D02*
X162422400Y-75104200D01*
X151500000Y-75230000D02*
X151625800Y-75104200D01*
X154630500Y-59730000D02*
X154000000Y-60360500D01*
X164000000Y-59730000D02*
X154630500Y-59730000D01*
X131261100Y-131581700D02*
X131662800Y-131180000D01*
X116431500Y-131581700D02*
X131261100Y-131581700D01*
X114861200Y-130011400D02*
X116431500Y-131581700D01*
X114861200Y-127138800D02*
X114861200Y-130011400D01*
X116500000Y-125500000D02*
X114861200Y-127138800D01*
X114493200Y-63230000D02*
X115434400Y-64171200D01*
X112500000Y-63230000D02*
X114493200Y-63230000D01*
X141842900Y-72192500D02*
X139827300Y-70176900D01*
X141842900Y-72192600D02*
X141842900Y-72192500D01*
X148462600Y-72192600D02*
X141842900Y-72192600D01*
X151500000Y-75230000D02*
X148462600Y-72192600D01*
X121440100Y-70176900D02*
X115434400Y-64171200D01*
X139827300Y-70176900D02*
X121440100Y-70176900D01*
%TD*%
M02*
