%TF.GenerationSoftware,KiCad,Pcbnew,9.0.0-rc3*%
%TF.CreationDate,2025-04-15T17:50:24-05:00*%
%TF.ProjectId,Brine,4272696e-652e-46b6-9963-61645f706362,Dev Board 01*%
%TF.SameCoordinates,Original*%
%TF.FileFunction,Soldermask,Top*%
%TF.FilePolarity,Negative*%
%FSLAX46Y46*%
G04 Gerber Fmt 4.6, Leading zero omitted, Abs format (unit mm)*
G04 Created by KiCad (PCBNEW 9.0.0-rc3) date 2025-04-15 17:50:24*
%MOMM*%
%LPD*%
G01*
G04 APERTURE LIST*
G04 Aperture macros list*
%AMRoundRect*
0 Rectangle with rounded corners*
0 $1 Rounding radius*
0 $2 $3 $4 $5 $6 $7 $8 $9 X,Y pos of 4 corners*
0 Add a 4 corners polygon primitive as box body*
4,1,4,$2,$3,$4,$5,$6,$7,$8,$9,$2,$3,0*
0 Add four circle primitives for the rounded corners*
1,1,$1+$1,$2,$3*
1,1,$1+$1,$4,$5*
1,1,$1+$1,$6,$7*
1,1,$1+$1,$8,$9*
0 Add four rect primitives between the rounded corners*
20,1,$1+$1,$2,$3,$4,$5,0*
20,1,$1+$1,$4,$5,$6,$7,0*
20,1,$1+$1,$6,$7,$8,$9,0*
20,1,$1+$1,$8,$9,$2,$3,0*%
G04 Aperture macros list end*
%ADD10O,1.700000X1.700000*%
%ADD11R,1.700000X1.700000*%
%ADD12C,3.000000*%
%ADD13C,1.600000*%
%ADD14O,1.600000X1.600000*%
%ADD15C,1.800000*%
%ADD16R,1.800000X1.800000*%
%ADD17O,1.050000X1.500000*%
%ADD18R,1.050000X1.500000*%
%ADD19C,1.879600*%
%ADD20C,2.362200*%
%ADD21RoundRect,0.150000X0.825000X0.150000X-0.825000X0.150000X-0.825000X-0.150000X0.825000X-0.150000X0*%
%ADD22C,3.200000*%
%ADD23R,1.700000X1.000000*%
%ADD24O,1.905000X2.000000*%
%ADD25R,1.905000X2.000000*%
%ADD26O,2.000000X1.905000*%
%ADD27R,2.000000X1.905000*%
%ADD28O,1.500000X1.050000*%
%ADD29R,1.500000X1.050000*%
%ADD30RoundRect,0.150000X-0.825000X-0.150000X0.825000X-0.150000X0.825000X0.150000X-0.825000X0.150000X0*%
%ADD31C,0.600000*%
%ADD32R,2.900000X2.900000*%
%ADD33R,1.500000X0.900000*%
%ADD34O,1.000000X1.000000*%
%ADD35R,1.000000X1.000000*%
%ADD36C,1.700000*%
%ADD37RoundRect,0.250000X0.600000X0.600000X-0.600000X0.600000X-0.600000X-0.600000X0.600000X-0.600000X0*%
%ADD38RoundRect,0.150000X-0.512500X-0.150000X0.512500X-0.150000X0.512500X0.150000X-0.512500X0.150000X0*%
%ADD39O,2.400000X2.400000*%
%ADD40R,2.400000X2.400000*%
G04 APERTURE END LIST*
D10*
%TO.C,J7*%
X183040000Y-79000000D03*
D11*
X180500000Y-79000000D03*
%TD*%
D12*
%TO.C,TP28*%
X113500000Y-36500000D03*
%TD*%
D13*
%TO.C,R15*%
X119500000Y-37880000D03*
D14*
X119500000Y-45500000D03*
%TD*%
D11*
%TO.C,USB-C1*%
X113471400Y-43053200D03*
D10*
X113471400Y-45593200D03*
X113471400Y-48133200D03*
X113471400Y-50673200D03*
X113471400Y-53213200D03*
X113471400Y-55753200D03*
%TD*%
D11*
%TO.C,J10*%
X105000000Y-82000000D03*
D10*
X107540000Y-82000000D03*
%TD*%
D11*
%TO.C,J11*%
X105000000Y-77500000D03*
D10*
X107540000Y-77500000D03*
%TD*%
%TO.C,J16*%
X177000000Y-126040000D03*
D11*
X177000000Y-123500000D03*
%TD*%
D10*
%TO.C,J4*%
X195460000Y-60000000D03*
D11*
X198000000Y-60000000D03*
%TD*%
D10*
%TO.C,J9*%
X180460000Y-61500000D03*
D11*
X183000000Y-61500000D03*
%TD*%
D10*
%TO.C,J8*%
X180460000Y-36500000D03*
D11*
X183000000Y-36500000D03*
%TD*%
D10*
%TO.C,J3*%
X157500000Y-93270000D03*
D11*
X157500000Y-90730000D03*
%TD*%
D10*
%TO.C,J17*%
X191279200Y-146217100D03*
D11*
X188739200Y-146217100D03*
%TD*%
D10*
%TO.C,J14*%
X166241700Y-152749000D03*
X163701700Y-152749000D03*
D11*
X161161700Y-152749000D03*
%TD*%
D10*
%TO.C,J13*%
X161119700Y-143751500D03*
X163659700Y-143751500D03*
D11*
X166199700Y-143751500D03*
%TD*%
D10*
%TO.C,J19*%
X116500000Y-116120000D03*
X116500000Y-113580000D03*
X116500000Y-111040000D03*
D11*
X116500000Y-108500000D03*
%TD*%
D10*
%TO.C,J18*%
X116500000Y-122880000D03*
X116500000Y-125420000D03*
X116500000Y-127960000D03*
D11*
X116500000Y-130500000D03*
%TD*%
D10*
%TO.C,J2*%
X142001800Y-131166800D03*
X139461800Y-131166800D03*
X136921800Y-131166800D03*
X134381800Y-131166800D03*
X131841800Y-131166800D03*
D11*
X129301800Y-131166800D03*
%TD*%
D10*
%TO.C,J1*%
X171120000Y-91000000D03*
X168580000Y-91000000D03*
X166040000Y-91000000D03*
D11*
X163500000Y-91000000D03*
%TD*%
D14*
%TO.C,R14*%
X132000000Y-99230000D03*
D13*
X124380000Y-99230000D03*
%TD*%
D14*
%TO.C,R3*%
X109500000Y-124690000D03*
D13*
X109500000Y-132310000D03*
%TD*%
D12*
%TO.C,TP27*%
X106000000Y-36500000D03*
%TD*%
D15*
%TO.C,D3*%
X181464500Y-84915000D03*
D16*
X181464500Y-87455000D03*
%TD*%
D12*
%TO.C,TP23*%
X140000000Y-83680000D03*
%TD*%
D14*
%TO.C,R20*%
X177500000Y-129610000D03*
D13*
X177500000Y-137230000D03*
%TD*%
D17*
%TO.C,Q5*%
X119000000Y-141022800D03*
X117730000Y-141022800D03*
D18*
X116460000Y-141022800D03*
%TD*%
D14*
%TO.C,C1*%
X164000000Y-59730000D03*
D13*
X164000000Y-67230000D03*
%TD*%
D12*
%TO.C,TP4*%
X193000000Y-46230000D03*
%TD*%
D14*
%TO.C,R8*%
X181500000Y-39610000D03*
D13*
X181500000Y-47230000D03*
%TD*%
D19*
%TO.C,SW1*%
X189250000Y-113980000D03*
X175750000Y-113980000D03*
D20*
X180000000Y-120230000D03*
X180000000Y-107730000D03*
X185000000Y-120230000D03*
X185000000Y-107730000D03*
D13*
X187000000Y-113980000D03*
X178000000Y-113980000D03*
%TD*%
D14*
%TO.C,C7*%
X199000000Y-107250000D03*
D13*
X199000000Y-114750000D03*
%TD*%
D21*
%TO.C,U4*%
X103000000Y-73080000D03*
X103000000Y-71810000D03*
X103000000Y-70540000D03*
X103000000Y-69270000D03*
X103000000Y-68000000D03*
X103000000Y-66730000D03*
X103000000Y-65460000D03*
X103000000Y-64190000D03*
X107950000Y-64190000D03*
X107950000Y-65460000D03*
X107950000Y-66730000D03*
X107950000Y-68000000D03*
X107950000Y-69270000D03*
X107950000Y-70540000D03*
X107950000Y-71810000D03*
X107950000Y-73080000D03*
%TD*%
D12*
%TO.C,TP1*%
X200000000Y-46230000D03*
%TD*%
D14*
%TO.C,R1*%
X165500000Y-56850000D03*
D13*
X165500000Y-49230000D03*
%TD*%
D22*
%TO.C,H1*%
X125304500Y-109252200D03*
%TD*%
D14*
%TO.C,R11*%
X130000000Y-149022800D03*
D13*
X122380000Y-149022800D03*
%TD*%
D12*
%TO.C,TP17*%
X171500000Y-53680000D03*
%TD*%
%TO.C,TP20*%
X171500000Y-76180000D03*
%TD*%
D14*
%TO.C,R10*%
X130000000Y-140522800D03*
D13*
X122380000Y-140522800D03*
%TD*%
D23*
%TO.C,S2*%
X145000000Y-71880000D03*
X138700000Y-71880000D03*
X145000000Y-75680000D03*
X138700000Y-75680000D03*
%TD*%
D12*
%TO.C,TP22*%
X130000000Y-85230000D03*
%TD*%
%TO.C,TP7*%
X199000000Y-118500000D03*
%TD*%
D14*
%TO.C,R12*%
X112810000Y-149500000D03*
D13*
X105190000Y-149500000D03*
%TD*%
D24*
%TO.C,Q3*%
X111080000Y-141522800D03*
X108540000Y-141522800D03*
D25*
X106000000Y-141522800D03*
%TD*%
D12*
%TO.C,TP12*%
X130000000Y-62230000D03*
%TD*%
D14*
%TO.C,R13*%
X146810000Y-149500000D03*
D13*
X139190000Y-149500000D03*
%TD*%
D14*
%TO.C,R18*%
X181000000Y-135230000D03*
D13*
X188620000Y-135230000D03*
%TD*%
D15*
%TO.C,D4*%
X107040000Y-88680000D03*
D16*
X104500000Y-88680000D03*
%TD*%
D26*
%TO.C,U3*%
X199500000Y-124500000D03*
X199500000Y-127040000D03*
D27*
X199500000Y-129580000D03*
%TD*%
D13*
%TO.C,C3*%
X199035500Y-98000000D03*
X194035500Y-98000000D03*
%TD*%
D12*
%TO.C,TP5*%
X196500000Y-50230000D03*
%TD*%
D28*
%TO.C,Q1*%
X103860000Y-114190000D03*
X103860000Y-115460000D03*
D29*
X103860000Y-116730000D03*
%TD*%
D12*
%TO.C,TP34*%
X167000000Y-124680000D03*
%TD*%
D15*
%TO.C,D6*%
X185000000Y-126190000D03*
D16*
X185000000Y-128730000D03*
%TD*%
D14*
%TO.C,R9*%
X181500000Y-50000000D03*
D13*
X181500000Y-57620000D03*
%TD*%
D12*
%TO.C,TP21*%
X171500000Y-83680000D03*
%TD*%
%TO.C,TP29*%
X119000000Y-57000000D03*
%TD*%
%TO.C,TP37*%
X172000000Y-124730000D03*
%TD*%
D15*
%TO.C,D2*%
X198000000Y-67000000D03*
D16*
X195460000Y-67000000D03*
%TD*%
D23*
%TO.C,S1*%
X163800000Y-71780000D03*
X157500000Y-71780000D03*
X163800000Y-75580000D03*
X157500000Y-75580000D03*
%TD*%
D14*
%TO.C,C4*%
X154000000Y-66730000D03*
D13*
X146500000Y-66730000D03*
%TD*%
D14*
%TO.C,R17*%
X112500000Y-93610000D03*
D13*
X112500000Y-101230000D03*
%TD*%
D17*
%TO.C,Q7*%
X119000000Y-149522800D03*
X117730000Y-149522800D03*
D18*
X116460000Y-149522800D03*
%TD*%
D30*
%TO.C,U5*%
X161450000Y-107920000D03*
X161450000Y-109190000D03*
X161450000Y-110460000D03*
X161450000Y-111730000D03*
X161450000Y-113000000D03*
X161450000Y-114270000D03*
X161450000Y-115540000D03*
X156500000Y-115540000D03*
X156500000Y-114270000D03*
X156500000Y-113000000D03*
X156500000Y-111730000D03*
X156500000Y-110460000D03*
X156500000Y-109190000D03*
X156500000Y-107920000D03*
%TD*%
D31*
%TO.C,U1*%
X152164500Y-55330000D03*
X152164500Y-54230000D03*
X151614500Y-55880000D03*
X151614500Y-54780000D03*
X151614500Y-53680000D03*
X151064500Y-55330000D03*
D32*
X151064500Y-54780000D03*
D31*
X151064500Y-54230000D03*
X150514500Y-55880000D03*
X150514500Y-54780000D03*
X150514500Y-53680000D03*
X149964500Y-55330000D03*
X149964500Y-54230000D03*
D33*
X158854500Y-48580000D03*
X158854500Y-50080000D03*
X158854500Y-51580000D03*
X158854500Y-53080000D03*
X158854500Y-54580000D03*
X158854500Y-56080000D03*
X158854500Y-57580000D03*
X158854500Y-59080000D03*
X158854500Y-60580000D03*
X141354500Y-60580000D03*
X141354500Y-59080000D03*
X141354500Y-57580000D03*
X141354500Y-56080000D03*
X141354500Y-54580000D03*
X141354500Y-53080000D03*
X141354500Y-51580000D03*
X141354500Y-50080000D03*
X141354500Y-48580000D03*
%TD*%
D34*
%TO.C,J12*%
X137500000Y-60890000D03*
X137500000Y-59620000D03*
X137500000Y-58350000D03*
X137500000Y-57080000D03*
X137500000Y-55810000D03*
X137500000Y-54540000D03*
X137500000Y-53270000D03*
X137500000Y-52000000D03*
D35*
X137500000Y-50730000D03*
%TD*%
D17*
%TO.C,Q8*%
X135770000Y-149382800D03*
X134500000Y-149382800D03*
D18*
X133230000Y-149382800D03*
%TD*%
D12*
%TO.C,TP36*%
X172000000Y-117230000D03*
%TD*%
D14*
%TO.C,C6*%
X199000000Y-134250000D03*
D13*
X199000000Y-141750000D03*
%TD*%
D12*
%TO.C,TP3*%
X193000000Y-53730000D03*
%TD*%
D14*
%TO.C,R19*%
X166000000Y-130230000D03*
D13*
X173620000Y-130230000D03*
%TD*%
D36*
%TO.C,J15*%
X157960000Y-126730000D03*
X160500000Y-126730000D03*
X157960000Y-129270000D03*
X160500000Y-129270000D03*
X157960000Y-131810000D03*
D37*
X160500000Y-131810000D03*
%TD*%
D24*
%TO.C,Q4*%
X145580000Y-141522800D03*
X143040000Y-141522800D03*
D25*
X140500000Y-141522800D03*
%TD*%
D28*
%TO.C,Q2*%
X103860000Y-123230000D03*
X103860000Y-124500000D03*
D29*
X103860000Y-125770000D03*
%TD*%
D12*
%TO.C,TP24*%
X161000000Y-83680000D03*
%TD*%
%TO.C,TP32*%
X167000000Y-109680000D03*
%TD*%
D14*
%TO.C,R2*%
X109500000Y-115120000D03*
D13*
X109500000Y-107500000D03*
%TD*%
D12*
%TO.C,TP11*%
X130000000Y-55230000D03*
%TD*%
%TO.C,TP18*%
X171500000Y-60680000D03*
%TD*%
%TO.C,TP15*%
X171500000Y-38680000D03*
%TD*%
D22*
%TO.C,H2*%
X145624500Y-109252200D03*
%TD*%
D14*
%TO.C,R16*%
X112500000Y-83110000D03*
D13*
X112500000Y-90730000D03*
%TD*%
D12*
%TO.C,TP6*%
X199000000Y-149000000D03*
%TD*%
D14*
%TO.C,C8*%
X119500000Y-77000000D03*
D13*
X119500000Y-69500000D03*
%TD*%
D38*
%TO.C,U2*%
X197775000Y-37780000D03*
X197775000Y-39680000D03*
X195500000Y-39680000D03*
X195500000Y-38730000D03*
X195500000Y-37780000D03*
%TD*%
D15*
%TO.C,D1*%
X151765000Y-91730000D03*
D16*
X149225000Y-91730000D03*
%TD*%
D14*
%TO.C,R7*%
X181500000Y-92920000D03*
D13*
X181500000Y-100540000D03*
%TD*%
D12*
%TO.C,TP25*%
X150464500Y-83680000D03*
%TD*%
D17*
%TO.C,Q6*%
X135770000Y-140882800D03*
X134500000Y-140882800D03*
D18*
X133230000Y-140882800D03*
%TD*%
D13*
%TO.C,C11*%
X112000000Y-77230000D03*
X114000000Y-77230000D03*
%TD*%
D12*
%TO.C,TP9*%
X130000000Y-40230000D03*
%TD*%
D13*
%TO.C,C2*%
X199000000Y-90500000D03*
X194000000Y-90500000D03*
%TD*%
D14*
%TO.C,C12*%
X166000000Y-136730000D03*
D13*
X173500000Y-136730000D03*
%TD*%
D14*
%TO.C,R6*%
X200120000Y-83500000D03*
D13*
X192500000Y-83500000D03*
%TD*%
D12*
%TO.C,TP16*%
X171500000Y-46180000D03*
%TD*%
%TO.C,TP30*%
X119000000Y-64000000D03*
%TD*%
D14*
%TO.C,R4*%
X141810000Y-90730000D03*
D13*
X134190000Y-90730000D03*
%TD*%
D12*
%TO.C,TP33*%
X167000000Y-117180000D03*
%TD*%
D14*
%TO.C,R5*%
X200120000Y-76500000D03*
D13*
X192500000Y-76500000D03*
%TD*%
%TO.C,C5*%
X151500000Y-75230000D03*
X149500000Y-75230000D03*
%TD*%
D12*
%TO.C,TP2*%
X200000000Y-53730000D03*
%TD*%
D39*
%TO.C,C9*%
X119392500Y-81500000D03*
D40*
X119392500Y-99500000D03*
%TD*%
D12*
%TO.C,TP10*%
X130000000Y-47730000D03*
%TD*%
%TO.C,TP13*%
X130000000Y-70230000D03*
%TD*%
%TO.C,TP19*%
X171500000Y-68680000D03*
%TD*%
%TO.C,TP31*%
X119000000Y-50500000D03*
%TD*%
D14*
%TO.C,C10*%
X112500000Y-63230000D03*
D13*
X112500000Y-70730000D03*
%TD*%
D12*
%TO.C,TP35*%
X172000000Y-109730000D03*
%TD*%
D15*
%TO.C,D5*%
X107040000Y-97230000D03*
D16*
X104500000Y-97230000D03*
%TD*%
D12*
%TO.C,TP14*%
X130000000Y-77230000D03*
%TD*%
M02*
