%TF.GenerationSoftware,KiCad,Pcbnew,9.0.0-rc3*%
%TF.CreationDate,2025-04-15T17:50:24-05:00*%
%TF.ProjectId,Brine,4272696e-652e-46b6-9963-61645f706362,Dev Board 01*%
%TF.SameCoordinates,Original*%
%TF.FileFunction,Copper,L1,Top*%
%TF.FilePolarity,Positive*%
%FSLAX46Y46*%
G04 Gerber Fmt 4.6, Leading zero omitted, Abs format (unit mm)*
G04 Created by KiCad (PCBNEW 9.0.0-rc3) date 2025-04-15 17:50:24*
%MOMM*%
%LPD*%
G01*
G04 APERTURE LIST*
G04 Aperture macros list*
%AMRoundRect*
0 Rectangle with rounded corners*
0 $1 Rounding radius*
0 $2 $3 $4 $5 $6 $7 $8 $9 X,Y pos of 4 corners*
0 Add a 4 corners polygon primitive as box body*
4,1,4,$2,$3,$4,$5,$6,$7,$8,$9,$2,$3,0*
0 Add four circle primitives for the rounded corners*
1,1,$1+$1,$2,$3*
1,1,$1+$1,$4,$5*
1,1,$1+$1,$6,$7*
1,1,$1+$1,$8,$9*
0 Add four rect primitives between the rounded corners*
20,1,$1+$1,$2,$3,$4,$5,0*
20,1,$1+$1,$4,$5,$6,$7,0*
20,1,$1+$1,$6,$7,$8,$9,0*
20,1,$1+$1,$8,$9,$2,$3,0*%
G04 Aperture macros list end*
%TA.AperFunction,ComponentPad*%
%ADD10O,1.700000X1.700000*%
%TD*%
%TA.AperFunction,ComponentPad*%
%ADD11R,1.700000X1.700000*%
%TD*%
%TA.AperFunction,SMDPad,CuDef*%
%ADD12C,3.000000*%
%TD*%
%TA.AperFunction,ComponentPad*%
%ADD13C,1.600000*%
%TD*%
%TA.AperFunction,ComponentPad*%
%ADD14O,1.600000X1.600000*%
%TD*%
%TA.AperFunction,ComponentPad*%
%ADD15C,1.800000*%
%TD*%
%TA.AperFunction,ComponentPad*%
%ADD16R,1.800000X1.800000*%
%TD*%
%TA.AperFunction,ComponentPad*%
%ADD17O,1.050000X1.500000*%
%TD*%
%TA.AperFunction,ComponentPad*%
%ADD18R,1.050000X1.500000*%
%TD*%
%TA.AperFunction,ComponentPad*%
%ADD19C,1.676400*%
%TD*%
%TA.AperFunction,ComponentPad*%
%ADD20C,2.159000*%
%TD*%
%TA.AperFunction,SMDPad,CuDef*%
%ADD21RoundRect,0.150000X0.825000X0.150000X-0.825000X0.150000X-0.825000X-0.150000X0.825000X-0.150000X0*%
%TD*%
%TA.AperFunction,SMDPad,CuDef*%
%ADD22R,1.700000X1.000000*%
%TD*%
%TA.AperFunction,ComponentPad*%
%ADD23O,1.905000X2.000000*%
%TD*%
%TA.AperFunction,ComponentPad*%
%ADD24R,1.905000X2.000000*%
%TD*%
%TA.AperFunction,ComponentPad*%
%ADD25O,2.000000X1.905000*%
%TD*%
%TA.AperFunction,ComponentPad*%
%ADD26R,2.000000X1.905000*%
%TD*%
%TA.AperFunction,ComponentPad*%
%ADD27O,1.500000X1.050000*%
%TD*%
%TA.AperFunction,ComponentPad*%
%ADD28R,1.500000X1.050000*%
%TD*%
%TA.AperFunction,SMDPad,CuDef*%
%ADD29RoundRect,0.150000X-0.825000X-0.150000X0.825000X-0.150000X0.825000X0.150000X-0.825000X0.150000X0*%
%TD*%
%TA.AperFunction,HeatsinkPad*%
%ADD30C,0.600000*%
%TD*%
%TA.AperFunction,HeatsinkPad*%
%ADD31R,2.900000X2.900000*%
%TD*%
%TA.AperFunction,SMDPad,CuDef*%
%ADD32R,1.500000X0.900000*%
%TD*%
%TA.AperFunction,ComponentPad*%
%ADD33O,1.000000X1.000000*%
%TD*%
%TA.AperFunction,ComponentPad*%
%ADD34R,1.000000X1.000000*%
%TD*%
%TA.AperFunction,ComponentPad*%
%ADD35C,1.700000*%
%TD*%
%TA.AperFunction,ComponentPad*%
%ADD36RoundRect,0.250000X0.600000X0.600000X-0.600000X0.600000X-0.600000X-0.600000X0.600000X-0.600000X0*%
%TD*%
%TA.AperFunction,SMDPad,CuDef*%
%ADD37RoundRect,0.150000X-0.512500X-0.150000X0.512500X-0.150000X0.512500X0.150000X-0.512500X0.150000X0*%
%TD*%
%TA.AperFunction,ComponentPad*%
%ADD38O,2.400000X2.400000*%
%TD*%
%TA.AperFunction,ComponentPad*%
%ADD39R,2.400000X2.400000*%
%TD*%
%TA.AperFunction,ViaPad*%
%ADD40C,0.600000*%
%TD*%
%TA.AperFunction,Conductor*%
%ADD41C,0.200000*%
%TD*%
G04 APERTURE END LIST*
D10*
%TO.P,J7,2,Pin_2*%
%TO.N,Net-(J7-Pin_2)*%
X183040000Y-79000000D03*
D11*
%TO.P,J7,1,Pin_1*%
%TO.N,GND*%
X180500000Y-79000000D03*
%TD*%
D12*
%TO.P,TP28,1,1*%
%TO.N,CC1*%
X113500000Y-36500000D03*
%TD*%
D13*
%TO.P,R15,1*%
%TO.N,GND*%
X119500000Y-37880000D03*
D14*
%TO.P,R15,2*%
%TO.N,CC2*%
X119500000Y-45500000D03*
%TD*%
D11*
%TO.P,USB-C1,1,Pin_1*%
%TO.N,V_USB*%
X113471400Y-43053200D03*
D10*
%TO.P,USB-C1,2,Pin_2*%
%TO.N,GND*%
X113471400Y-45593200D03*
%TO.P,USB-C1,3,Pin_3*%
%TO.N,CC1*%
X113471400Y-48133200D03*
%TO.P,USB-C1,4,Pin_4*%
%TO.N,D-*%
X113471400Y-50673200D03*
%TO.P,USB-C1,5,Pin_5*%
%TO.N,D+*%
X113471400Y-53213200D03*
%TO.P,USB-C1,6,Pin_6*%
%TO.N,CC2*%
X113471400Y-55753200D03*
%TD*%
D11*
%TO.P,J10,1,Pin_1*%
%TO.N,ESP32_RX*%
X105000000Y-82000000D03*
D10*
%TO.P,J10,2,Pin_2*%
%TO.N,Net-(J10-Pin_2)*%
X107540000Y-82000000D03*
%TD*%
D11*
%TO.P,J11,1,Pin_1*%
%TO.N,ESP32_TX*%
X105000000Y-77500000D03*
D10*
%TO.P,J11,2,Pin_2*%
%TO.N,Net-(J11-Pin_2)*%
X107540000Y-77500000D03*
%TD*%
%TO.P,J16,2,Pin_2*%
%TO.N,Net-(J16-Pin_2)*%
X177000000Y-126040000D03*
D11*
%TO.P,J16,1,Pin_1*%
%TO.N,GND*%
X177000000Y-123500000D03*
%TD*%
D10*
%TO.P,J4,2,Pin_2*%
%TO.N,Net-(J4-Pin_2)*%
X195460000Y-60000000D03*
D11*
%TO.P,J4,1,Pin_1*%
%TO.N,Net-(J4-Pin_1)*%
X198000000Y-60000000D03*
%TD*%
D10*
%TO.P,J9,2,Pin_2*%
%TO.N,ESP32_3.3*%
X180460000Y-61500000D03*
D11*
%TO.P,J9,1,Pin_1*%
%TO.N,Net-(J9-Pin_1)*%
X183000000Y-61500000D03*
%TD*%
D10*
%TO.P,J8,2,Pin_2*%
%TO.N,ESP32_3.3*%
X180460000Y-36500000D03*
D11*
%TO.P,J8,1,Pin_1*%
%TO.N,Net-(J8-Pin_1)*%
X183000000Y-36500000D03*
%TD*%
D10*
%TO.P,J3,2,Pin_2*%
%TO.N,Net-(J3-Pin_2)*%
X157500000Y-93270000D03*
D11*
%TO.P,J3,1,Pin_1*%
%TO.N,GND*%
X157500000Y-90730000D03*
%TD*%
D10*
%TO.P,J17,2,Pin_2*%
%TO.N,ESP32_3.3*%
X191279200Y-146217100D03*
D11*
%TO.P,J17,1,Pin_1*%
%TO.N,GND*%
X188739200Y-146217100D03*
%TD*%
D10*
%TO.P,J14,3,Pin_3*%
%TO.N,ESP32_3.3*%
X166241700Y-152749000D03*
%TO.P,J14,2,Pin_2*%
%TO.N,GND*%
X163701700Y-152749000D03*
D11*
%TO.P,J14,1,Pin_1*%
%TO.N,ALT*%
X161161700Y-152749000D03*
%TD*%
D10*
%TO.P,J13,3,Pin_3*%
%TO.N,QST*%
X161119700Y-143751500D03*
%TO.P,J13,2,Pin_2*%
%TO.N,ESP32_SCL*%
X163659700Y-143751500D03*
D11*
%TO.P,J13,1,Pin_1*%
%TO.N,ESP32_SDA*%
X166199700Y-143751500D03*
%TD*%
D10*
%TO.P,J19,4,Pin_4*%
%TO.N,ESP32_SCL*%
X116500000Y-116120000D03*
%TO.P,J19,3,Pin_3*%
%TO.N,ESP32_SDA*%
X116500000Y-113580000D03*
%TO.P,J19,2,Pin_2*%
%TO.N,ESP32_3.3*%
X116500000Y-111040000D03*
D11*
%TO.P,J19,1,Pin_1*%
%TO.N,GND*%
X116500000Y-108500000D03*
%TD*%
D10*
%TO.P,J18,4,Pin_4*%
%TO.N,ESP32_SCL*%
X116500000Y-122880000D03*
%TO.P,J18,3,Pin_3*%
%TO.N,ESP32_SDA*%
X116500000Y-125420000D03*
%TO.P,J18,2,Pin_2*%
%TO.N,ESP32_3.3*%
X116500000Y-127960000D03*
D11*
%TO.P,J18,1,Pin_1*%
%TO.N,GND*%
X116500000Y-130500000D03*
%TD*%
D10*
%TO.P,J2,6,Pin_6*%
%TO.N,SHUT*%
X142001800Y-131166800D03*
%TO.P,J2,5,Pin_5*%
%TO.N,INT*%
X139461800Y-131166800D03*
%TO.P,J2,4,Pin_4*%
%TO.N,ESP32_SCL*%
X136921800Y-131166800D03*
%TO.P,J2,3,Pin_3*%
%TO.N,ESP32_SDA*%
X134381800Y-131166800D03*
%TO.P,J2,2,Pin_2*%
%TO.N,ESP32_3.3*%
X131841800Y-131166800D03*
D11*
%TO.P,J2,1,Pin_1*%
%TO.N,GND*%
X129301800Y-131166800D03*
%TD*%
D10*
%TO.P,J1,4,Pin_4*%
%TO.N,ESP32_SCL*%
X171120000Y-91000000D03*
%TO.P,J1,3,Pin_3*%
%TO.N,ESP32_SDA*%
X168580000Y-91000000D03*
%TO.P,J1,2,Pin_2*%
%TO.N,ESP32_3.3*%
X166040000Y-91000000D03*
D11*
%TO.P,J1,1,Pin_1*%
%TO.N,GND*%
X163500000Y-91000000D03*
%TD*%
D14*
%TO.P,R14,2*%
%TO.N,CC1*%
X132000000Y-99230000D03*
D13*
%TO.P,R14,1*%
%TO.N,GND*%
X124380000Y-99230000D03*
%TD*%
D14*
%TO.P,R3,2*%
%TO.N,RTS*%
X109500000Y-124690000D03*
D13*
%TO.P,R3,1*%
%TO.N,Net-(Q2-B)*%
X109500000Y-132310000D03*
%TD*%
D12*
%TO.P,TP27,1,1*%
%TO.N,V_USB*%
X106000000Y-36500000D03*
%TD*%
D15*
%TO.P,D3,2,A*%
%TO.N,ESP32_3.3*%
X181464500Y-84915000D03*
D16*
%TO.P,D3,1,K*%
%TO.N,Net-(D3-K)*%
X181464500Y-87455000D03*
%TD*%
D12*
%TO.P,TP23,1,1*%
%TO.N,ESP32_3.3*%
X140000000Y-83680000D03*
%TD*%
D14*
%TO.P,R20,2*%
%TO.N,ESP32_3.3*%
X177500000Y-129610000D03*
D13*
%TO.P,R20,1*%
%TO.N,ATTINY_INT*%
X177500000Y-137230000D03*
%TD*%
D17*
%TO.P,Q5,3,C*%
%TO.N,Net-(Q5-C)*%
X119000000Y-141022800D03*
%TO.P,Q5,2,B*%
%TO.N,Net-(Q5-B)*%
X117730000Y-141022800D03*
D18*
%TO.P,Q5,1,E*%
%TO.N,V_USB*%
X116460000Y-141022800D03*
%TD*%
D14*
%TO.P,C1,2*%
%TO.N,GND*%
X164000000Y-59730000D03*
D13*
%TO.P,C1,1*%
%TO.N,ESP32_EN*%
X164000000Y-67230000D03*
%TD*%
D12*
%TO.P,TP4,1,1*%
%TO.N,Net-(J4-Pin_1)*%
X193000000Y-46230000D03*
%TD*%
D14*
%TO.P,R8,2*%
%TO.N,Net-(J8-Pin_1)*%
X181500000Y-39610000D03*
D13*
%TO.P,R8,1*%
%TO.N,ESP32_SCL*%
X181500000Y-47230000D03*
%TD*%
D19*
%TO.P,SW1,C,C*%
%TO.N,GND*%
X189250000Y-113980000D03*
%TO.P,SW1,A,A*%
%TO.N,BUTTON_LED*%
X175750000Y-113980000D03*
D20*
%TO.P,SW1,4*%
%TO.N,N/C*%
X180000000Y-120230000D03*
%TO.P,SW1,3,3*%
%TO.N,BUTTON*%
X180000000Y-107730000D03*
%TO.P,SW1,2*%
%TO.N,N/C*%
X185000000Y-120230000D03*
%TO.P,SW1,1,1*%
%TO.N,GND*%
X185000000Y-107730000D03*
%TD*%
D14*
%TO.P,C7,2*%
%TO.N,GND*%
X199000000Y-107250000D03*
D13*
%TO.P,C7,1*%
%TO.N,+5V*%
X199000000Y-114750000D03*
%TD*%
D21*
%TO.P,U4,16,VCC*%
%TO.N,ESP32_3.3*%
X103000000Y-73080000D03*
%TO.P,U4,15,R232*%
%TO.N,unconnected-(U4-R232-Pad15)*%
X103000000Y-71810000D03*
%TO.P,U4,14,~{RTS}*%
%TO.N,RTS*%
X103000000Y-70540000D03*
%TO.P,U4,13,~{DTR}*%
%TO.N,DTR*%
X103000000Y-69270000D03*
%TO.P,U4,12,~{DCD}*%
%TO.N,unconnected-(U4-~{DCD}-Pad12)*%
X103000000Y-68000000D03*
%TO.P,U4,11,~{RI}*%
%TO.N,unconnected-(U4-~{RI}-Pad11)*%
X103000000Y-66730000D03*
%TO.P,U4,10,~{DSR}*%
%TO.N,unconnected-(U4-~{DSR}-Pad10)*%
X103000000Y-65460000D03*
%TO.P,U4,9,~{CTS}*%
%TO.N,unconnected-(U4-~{CTS}-Pad9)*%
X103000000Y-64190000D03*
%TO.P,U4,8,NC*%
%TO.N,unconnected-(U4-NC-Pad8)*%
X107950000Y-64190000D03*
%TO.P,U4,7,NC*%
%TO.N,unconnected-(U4-NC-Pad7)*%
X107950000Y-65460000D03*
%TO.P,U4,6,UD-*%
%TO.N,D-*%
X107950000Y-66730000D03*
%TO.P,U4,5,UD+*%
%TO.N,D+*%
X107950000Y-68000000D03*
%TO.P,U4,4,V3*%
%TO.N,Net-(U4-V3)*%
X107950000Y-69270000D03*
%TO.P,U4,3,RXD*%
%TO.N,ESP32_TX*%
X107950000Y-70540000D03*
%TO.P,U4,2,TXD*%
%TO.N,ESP32_RX*%
X107950000Y-71810000D03*
%TO.P,U4,1,GND*%
%TO.N,GND*%
X107950000Y-73080000D03*
%TD*%
D12*
%TO.P,TP1,1,1*%
%TO.N,5V_CHG*%
X200000000Y-46230000D03*
%TD*%
D14*
%TO.P,R1,2*%
%TO.N,ESP32_3.3*%
X165500000Y-56850000D03*
D13*
%TO.P,R1,1*%
%TO.N,ESP32_EN*%
X165500000Y-49230000D03*
%TD*%
D14*
%TO.P,R11,2*%
%TO.N,Net-(Q6-C)*%
X130000000Y-149022800D03*
D13*
%TO.P,R11,1*%
%TO.N,GND*%
X122380000Y-149022800D03*
%TD*%
D12*
%TO.P,TP17,1,1*%
%TO.N,ESP32_IO8*%
X171500000Y-53680000D03*
%TD*%
%TO.P,TP20,1,1*%
%TO.N,ESP32_IO18_SCK*%
X171500000Y-76180000D03*
%TD*%
D14*
%TO.P,R10,2*%
%TO.N,Net-(Q5-C)*%
X130000000Y-140522800D03*
D13*
%TO.P,R10,1*%
%TO.N,GND*%
X122380000Y-140522800D03*
%TD*%
D22*
%TO.P,S2,4,4*%
%TO.N,ESP32_0*%
X145000000Y-71880000D03*
%TO.P,S2,3,3*%
%TO.N,GND*%
X138700000Y-71880000D03*
%TO.P,S2,2,2*%
%TO.N,ESP32_0*%
X145000000Y-75680000D03*
%TO.P,S2,1,1*%
%TO.N,GND*%
X138700000Y-75680000D03*
%TD*%
D12*
%TO.P,TP22,1,1*%
%TO.N,ESP32_EN*%
X130000000Y-85230000D03*
%TD*%
%TO.P,TP7,1,1*%
%TO.N,+5V*%
X199000000Y-118500000D03*
%TD*%
D14*
%TO.P,R12,2*%
%TO.N,Net-(Q3-G)*%
X112810000Y-149500000D03*
D13*
%TO.P,R12,1*%
%TO.N,GND*%
X105190000Y-149500000D03*
%TD*%
D23*
%TO.P,Q3,3,S*%
%TO.N,5V_CHG*%
X111080000Y-141522800D03*
%TO.P,Q3,2,D*%
%TO.N,V_USB*%
X108540000Y-141522800D03*
D24*
%TO.P,Q3,1,G*%
%TO.N,Net-(Q3-G)*%
X106000000Y-141522800D03*
%TD*%
D12*
%TO.P,TP12,1,1*%
%TO.N,ESP32_SCL*%
X130000000Y-62230000D03*
%TD*%
D14*
%TO.P,R13,2*%
%TO.N,Net-(Q4-G)*%
X146810000Y-149500000D03*
D13*
%TO.P,R13,1*%
%TO.N,GND*%
X139190000Y-149500000D03*
%TD*%
D14*
%TO.P,R18,2*%
%TO.N,ESP32_3.3*%
X181000000Y-135230000D03*
D13*
%TO.P,R18,1*%
%TO.N,ATTINY_RST*%
X188620000Y-135230000D03*
%TD*%
D15*
%TO.P,D4,2,A*%
%TO.N,ESP32_3.3*%
X107040000Y-88680000D03*
D16*
%TO.P,D4,1,K*%
%TO.N,Net-(D4-K)*%
X104500000Y-88680000D03*
%TD*%
D25*
%TO.P,U3,3,VO*%
%TO.N,ESP32_3.3*%
X199500000Y-124500000D03*
%TO.P,U3,2,GND*%
%TO.N,GND*%
X199500000Y-127040000D03*
D26*
%TO.P,U3,1,VI*%
%TO.N,+5V*%
X199500000Y-129580000D03*
%TD*%
D13*
%TO.P,C3,2*%
%TO.N,GND*%
X199035500Y-98000000D03*
%TO.P,C3,1*%
%TO.N,V_BATT*%
X194035500Y-98000000D03*
%TD*%
D12*
%TO.P,TP5,1,1*%
%TO.N,V_BATT*%
X196500000Y-50230000D03*
%TD*%
D27*
%TO.P,Q1,3,C*%
%TO.N,ESP32_EN*%
X103860000Y-114190000D03*
%TO.P,Q1,2,B*%
%TO.N,Net-(Q1-B)*%
X103860000Y-115460000D03*
D28*
%TO.P,Q1,1,E*%
%TO.N,RTS*%
X103860000Y-116730000D03*
%TD*%
D12*
%TO.P,TP34,1,1*%
%TO.N,ATTINY_SCK*%
X167000000Y-124680000D03*
%TD*%
D15*
%TO.P,D6,2,A*%
%TO.N,ATTINY_STAT*%
X185000000Y-126190000D03*
D16*
%TO.P,D6,1,K*%
%TO.N,Net-(D6-K)*%
X185000000Y-128730000D03*
%TD*%
D14*
%TO.P,R9,2*%
%TO.N,Net-(J9-Pin_1)*%
X181500000Y-50000000D03*
D13*
%TO.P,R9,1*%
%TO.N,ESP32_SDA*%
X181500000Y-57620000D03*
%TD*%
D12*
%TO.P,TP21,1,1*%
%TO.N,ESP32_IO19*%
X171500000Y-83680000D03*
%TD*%
%TO.P,TP29,1,1*%
%TO.N,D-*%
X119000000Y-57000000D03*
%TD*%
%TO.P,TP37,1,1*%
%TO.N,BUTTON_LED*%
X172000000Y-124730000D03*
%TD*%
D15*
%TO.P,D2,2,A*%
%TO.N,Net-(D2-A)*%
X198000000Y-67000000D03*
D16*
%TO.P,D2,1,K*%
%TO.N,5V_CHG*%
X195460000Y-67000000D03*
%TD*%
D22*
%TO.P,S1,4,4*%
%TO.N,GND*%
X163800000Y-71780000D03*
%TO.P,S1,3,3*%
%TO.N,ESP32_EN*%
X157500000Y-71780000D03*
%TO.P,S1,2,2*%
%TO.N,GND*%
X163800000Y-75580000D03*
%TO.P,S1,1,1*%
%TO.N,ESP32_EN*%
X157500000Y-75580000D03*
%TD*%
D14*
%TO.P,C4,2*%
%TO.N,GND*%
X154000000Y-66730000D03*
D13*
%TO.P,C4,1*%
%TO.N,ESP32_3.3*%
X146500000Y-66730000D03*
%TD*%
D14*
%TO.P,R17,2*%
%TO.N,Net-(D5-K)*%
X112500000Y-93610000D03*
D13*
%TO.P,R17,1*%
%TO.N,Net-(J11-Pin_2)*%
X112500000Y-101230000D03*
%TD*%
D17*
%TO.P,Q7,3,C*%
%TO.N,Net-(Q3-G)*%
X119000000Y-149522800D03*
%TO.P,Q7,2,B*%
%TO.N,Net-(Q5-B)*%
X117730000Y-149522800D03*
D18*
%TO.P,Q7,1,E*%
%TO.N,5V_CHG*%
X116460000Y-149522800D03*
%TD*%
D29*
%TO.P,U5,14,GND*%
%TO.N,GND*%
X161450000Y-107920000D03*
%TO.P,U5,13,AREF/PA0*%
%TO.N,ATTINY_INT*%
X161450000Y-109190000D03*
%TO.P,U5,12,PA1*%
%TO.N,unconnected-(U5-PA1-Pad12)*%
X161450000Y-110460000D03*
%TO.P,U5,11,PA2*%
%TO.N,BUTTON*%
X161450000Y-111730000D03*
%TO.P,U5,10,PA3*%
%TO.N,ATTINY_STAT*%
X161450000Y-113000000D03*
%TO.P,U5,9,PA4*%
%TO.N,ATTINY_SCK*%
X161450000Y-114270000D03*
%TO.P,U5,8,PA5*%
%TO.N,ATTINY_MISO*%
X161450000Y-115540000D03*
%TO.P,U5,7,PA6*%
%TO.N,ATTINY_SDA*%
X156500000Y-115540000D03*
%TO.P,U5,6,PA7*%
%TO.N,BUTTON_LED*%
X156500000Y-114270000D03*
%TO.P,U5,5,PB2*%
%TO.N,unconnected-(U5-PB2-Pad5)*%
X156500000Y-113000000D03*
%TO.P,U5,4,~{RESET}/PB3*%
%TO.N,ATTINY_RST*%
X156500000Y-111730000D03*
%TO.P,U5,3,XTAL2/PB1*%
%TO.N,unconnected-(U5-XTAL2{slash}PB1-Pad3)*%
X156500000Y-110460000D03*
%TO.P,U5,2,XTAL1/PB0*%
%TO.N,unconnected-(U5-XTAL1{slash}PB0-Pad2)*%
X156500000Y-109190000D03*
%TO.P,U5,1,VCC*%
%TO.N,ESP32_3.3*%
X156500000Y-107920000D03*
%TD*%
D30*
%TO.P,U1,19,GND*%
%TO.N,GND*%
X152164500Y-55330000D03*
X152164500Y-54230000D03*
X151614500Y-55880000D03*
X151614500Y-54780000D03*
X151614500Y-53680000D03*
X151064500Y-55330000D03*
D31*
X151064500Y-54780000D03*
D30*
X151064500Y-54230000D03*
X150514500Y-55880000D03*
X150514500Y-54780000D03*
X150514500Y-53680000D03*
X149964500Y-55330000D03*
X149964500Y-54230000D03*
D32*
%TO.P,U1,18,IO0*%
%TO.N,ESP32_IO0*%
X158854500Y-48580000D03*
%TO.P,U1,17,IO1*%
%TO.N,ESP32_IO1*%
X158854500Y-50080000D03*
%TO.P,U1,16,IO2*%
%TO.N,ESP32_SDA*%
X158854500Y-51580000D03*
%TO.P,U1,15,IO3*%
%TO.N,ESP32_SCL*%
X158854500Y-53080000D03*
%TO.P,U1,14,IO19*%
%TO.N,ESP32_IO19*%
X158854500Y-54580000D03*
%TO.P,U1,13,IO18*%
%TO.N,ESP32_IO18_SCK*%
X158854500Y-56080000D03*
%TO.P,U1,12,IO21/TXD*%
%TO.N,ESP32_TX*%
X158854500Y-57580000D03*
%TO.P,U1,11,IO20/RXD*%
%TO.N,ESP32_RX*%
X158854500Y-59080000D03*
%TO.P,U1,10,IO10*%
%TO.N,ESP32_IO10*%
X158854500Y-60580000D03*
%TO.P,U1,9,GND*%
%TO.N,GND*%
X141354500Y-60580000D03*
%TO.P,U1,8,IO9*%
%TO.N,ESP32_IO9*%
X141354500Y-59080000D03*
%TO.P,U1,7,IO8*%
%TO.N,ESP32_IO8*%
X141354500Y-57580000D03*
%TO.P,U1,6,IO7*%
%TO.N,ESP32_IO7*%
X141354500Y-56080000D03*
%TO.P,U1,5,IO6*%
%TO.N,ESP32_0*%
X141354500Y-54580000D03*
%TO.P,U1,4,IO5*%
%TO.N,ESP32_IO5*%
X141354500Y-53080000D03*
%TO.P,U1,3,IO4*%
%TO.N,ESP32_IO4*%
X141354500Y-51580000D03*
%TO.P,U1,2,EN*%
%TO.N,ESP32_EN*%
X141354500Y-50080000D03*
%TO.P,U1,1,3V3*%
%TO.N,ESP32_3.3*%
X141354500Y-48580000D03*
%TD*%
D33*
%TO.P,J12,9,Pin_9*%
%TO.N,ESP32_IO19*%
X137500000Y-60890000D03*
%TO.P,J12,8,Pin_8*%
%TO.N,ESP32_IO10*%
X137500000Y-59620000D03*
%TO.P,J12,7,Pin_7*%
%TO.N,ESP32_IO9*%
X137500000Y-58350000D03*
%TO.P,J12,6,Pin_6*%
%TO.N,ESP32_IO8*%
X137500000Y-57080000D03*
%TO.P,J12,5,Pin_5*%
%TO.N,ESP32_IO7*%
X137500000Y-55810000D03*
%TO.P,J12,4,Pin_4*%
%TO.N,ESP32_IO5*%
X137500000Y-54540000D03*
%TO.P,J12,3,Pin_3*%
%TO.N,ESP32_IO4*%
X137500000Y-53270000D03*
%TO.P,J12,2,Pin_2*%
%TO.N,ESP32_IO1*%
X137500000Y-52000000D03*
D34*
%TO.P,J12,1,Pin_1*%
%TO.N,ESP32_IO0*%
X137500000Y-50730000D03*
%TD*%
D17*
%TO.P,Q8,3,C*%
%TO.N,Net-(Q4-G)*%
X135770000Y-149382800D03*
%TO.P,Q8,2,B*%
%TO.N,Net-(Q6-B)*%
X134500000Y-149382800D03*
D18*
%TO.P,Q8,1,E*%
%TO.N,5V_CHG*%
X133230000Y-149382800D03*
%TD*%
D12*
%TO.P,TP36,1,1*%
%TO.N,ATTINY_SDA*%
X172000000Y-117230000D03*
%TD*%
D14*
%TO.P,C6,2*%
%TO.N,GND*%
X199000000Y-134250000D03*
D13*
%TO.P,C6,1*%
%TO.N,ESP32_3.3*%
X199000000Y-141750000D03*
%TD*%
D12*
%TO.P,TP3,1,1*%
%TO.N,GND*%
X193000000Y-53730000D03*
%TD*%
D14*
%TO.P,R19,2*%
%TO.N,Net-(D6-K)*%
X166000000Y-130230000D03*
D13*
%TO.P,R19,1*%
%TO.N,Net-(J16-Pin_2)*%
X173620000Y-130230000D03*
%TD*%
D35*
%TO.P,J15,6,GND*%
%TO.N,GND*%
X157960000Y-126730000D03*
%TO.P,J15,5,~{RST}*%
%TO.N,ATTINY_RST*%
X160500000Y-126730000D03*
%TO.P,J15,4,MOSI*%
%TO.N,ATTINY_SDA*%
X157960000Y-129270000D03*
%TO.P,J15,3,SCK*%
%TO.N,ATTINY_SCK*%
X160500000Y-129270000D03*
%TO.P,J15,2,VCC*%
%TO.N,ESP32_3.3*%
X157960000Y-131810000D03*
D36*
%TO.P,J15,1,MISO*%
%TO.N,ATTINY_MISO*%
X160500000Y-131810000D03*
%TD*%
D23*
%TO.P,Q4,3,S*%
%TO.N,5V_CHG*%
X145580000Y-141522800D03*
%TO.P,Q4,2,D*%
%TO.N,5V_EXT*%
X143040000Y-141522800D03*
D24*
%TO.P,Q4,1,G*%
%TO.N,Net-(Q4-G)*%
X140500000Y-141522800D03*
%TD*%
D27*
%TO.P,Q2,3,C*%
%TO.N,DTR*%
X103860000Y-123230000D03*
%TO.P,Q2,2,B*%
%TO.N,Net-(Q2-B)*%
X103860000Y-124500000D03*
D28*
%TO.P,Q2,1,E*%
%TO.N,ESP32_0*%
X103860000Y-125770000D03*
%TD*%
D12*
%TO.P,TP24,1,1*%
%TO.N,ESP32_RX*%
X161000000Y-83680000D03*
%TD*%
%TO.P,TP32,1,1*%
%TO.N,BUTTON*%
X167000000Y-109680000D03*
%TD*%
D14*
%TO.P,R2,2*%
%TO.N,DTR*%
X109500000Y-115120000D03*
D13*
%TO.P,R2,1*%
%TO.N,Net-(Q1-B)*%
X109500000Y-107500000D03*
%TD*%
D12*
%TO.P,TP11,1,1*%
%TO.N,ESP32_SDA*%
X130000000Y-55230000D03*
%TD*%
%TO.P,TP18,1,1*%
%TO.N,ESP32_IO9*%
X171500000Y-60680000D03*
%TD*%
%TO.P,TP15,1,1*%
%TO.N,ESP32_0*%
X171500000Y-38680000D03*
%TD*%
D14*
%TO.P,R16,2*%
%TO.N,Net-(D4-K)*%
X112500000Y-83110000D03*
D13*
%TO.P,R16,1*%
%TO.N,Net-(J10-Pin_2)*%
X112500000Y-90730000D03*
%TD*%
D12*
%TO.P,TP6,1,1*%
%TO.N,ESP32_3.3*%
X199000000Y-149000000D03*
%TD*%
D14*
%TO.P,C8,2*%
%TO.N,GND*%
X119500000Y-77000000D03*
D13*
%TO.P,C8,1*%
%TO.N,V_USB*%
X119500000Y-69500000D03*
%TD*%
D37*
%TO.P,U2,5,PROG*%
%TO.N,Net-(U2-PROG)*%
X197775000Y-37780000D03*
%TO.P,U2,4,V_{DD}*%
%TO.N,5V_CHG*%
X197775000Y-39680000D03*
%TO.P,U2,3,V_{BAT}*%
%TO.N,V_BATT*%
X195500000Y-39680000D03*
%TO.P,U2,2,V_{SS}*%
%TO.N,GND*%
X195500000Y-38730000D03*
%TO.P,U2,1,STAT*%
%TO.N,Net-(J4-Pin_1)*%
X195500000Y-37780000D03*
%TD*%
D15*
%TO.P,D1,2,A*%
%TO.N,ESP32_IO18_SCK*%
X151765000Y-91730000D03*
D16*
%TO.P,D1,1,K*%
%TO.N,Net-(D1-K)*%
X149225000Y-91730000D03*
%TD*%
D14*
%TO.P,R7,2*%
%TO.N,Net-(D3-K)*%
X181500000Y-92920000D03*
D13*
%TO.P,R7,1*%
%TO.N,Net-(J7-Pin_2)*%
X181500000Y-100540000D03*
%TD*%
D12*
%TO.P,TP25,1,1*%
%TO.N,ESP32_TX*%
X150464500Y-83680000D03*
%TD*%
D17*
%TO.P,Q6,3,C*%
%TO.N,Net-(Q6-C)*%
X135770000Y-140882800D03*
%TO.P,Q6,2,B*%
%TO.N,Net-(Q6-B)*%
X134500000Y-140882800D03*
D18*
%TO.P,Q6,1,E*%
%TO.N,5V_EXT*%
X133230000Y-140882800D03*
%TD*%
D13*
%TO.P,C11,2*%
%TO.N,GND*%
X112000000Y-77230000D03*
%TO.P,C11,1*%
%TO.N,Net-(U4-V3)*%
X114000000Y-77230000D03*
%TD*%
D12*
%TO.P,TP9,1,1*%
%TO.N,ESP32_IO0*%
X130000000Y-40230000D03*
%TD*%
D13*
%TO.P,C2,2*%
%TO.N,5V_CHG*%
X199000000Y-90500000D03*
%TO.P,C2,1*%
%TO.N,GND*%
X194000000Y-90500000D03*
%TD*%
D14*
%TO.P,C12,2*%
%TO.N,GND*%
X166000000Y-136730000D03*
D13*
%TO.P,C12,1*%
%TO.N,ESP32_3.3*%
X173500000Y-136730000D03*
%TD*%
D14*
%TO.P,R6,2*%
%TO.N,Net-(D2-A)*%
X200120000Y-83500000D03*
D13*
%TO.P,R6,1*%
%TO.N,Net-(J4-Pin_2)*%
X192500000Y-83500000D03*
%TD*%
D12*
%TO.P,TP16,1,1*%
%TO.N,ESP32_IO7*%
X171500000Y-46180000D03*
%TD*%
%TO.P,TP30,1,1*%
%TO.N,D+*%
X119000000Y-64000000D03*
%TD*%
D14*
%TO.P,R4,2*%
%TO.N,Net-(D1-K)*%
X141810000Y-90730000D03*
D13*
%TO.P,R4,1*%
%TO.N,Net-(J3-Pin_2)*%
X134190000Y-90730000D03*
%TD*%
D12*
%TO.P,TP33,1,1*%
%TO.N,ATTINY_STAT*%
X167000000Y-117180000D03*
%TD*%
D14*
%TO.P,R5,2*%
%TO.N,Net-(U2-PROG)*%
X200120000Y-76500000D03*
D13*
%TO.P,R5,1*%
%TO.N,GND*%
X192500000Y-76500000D03*
%TD*%
%TO.P,C5,2*%
%TO.N,GND*%
X151500000Y-75230000D03*
%TO.P,C5,1*%
%TO.N,ESP32_3.3*%
X149500000Y-75230000D03*
%TD*%
D12*
%TO.P,TP2,1,1*%
%TO.N,Net-(U2-PROG)*%
X200000000Y-53730000D03*
%TD*%
D38*
%TO.P,C9,2*%
%TO.N,GND*%
X119392500Y-81500000D03*
D39*
%TO.P,C9,1*%
%TO.N,V_USB*%
X119392500Y-99500000D03*
%TD*%
D12*
%TO.P,TP10,1,1*%
%TO.N,ESP32_IO1*%
X130000000Y-47730000D03*
%TD*%
%TO.P,TP13,1,1*%
%TO.N,ESP32_IO4*%
X130000000Y-70230000D03*
%TD*%
%TO.P,TP19,1,1*%
%TO.N,ESP32_IO10*%
X171500000Y-68680000D03*
%TD*%
%TO.P,TP31,1,1*%
%TO.N,CC2*%
X119000000Y-50500000D03*
%TD*%
D14*
%TO.P,C10,2*%
%TO.N,GND*%
X112500000Y-63230000D03*
D13*
%TO.P,C10,1*%
%TO.N,ESP32_3.3*%
X112500000Y-70730000D03*
%TD*%
D12*
%TO.P,TP35,1,1*%
%TO.N,ATTINY_MISO*%
X172000000Y-109730000D03*
%TD*%
D15*
%TO.P,D5,2,A*%
%TO.N,ESP32_3.3*%
X107040000Y-97230000D03*
D16*
%TO.P,D5,1,K*%
%TO.N,Net-(D5-K)*%
X104500000Y-97230000D03*
%TD*%
D12*
%TO.P,TP14,1,1*%
%TO.N,ESP32_IO5*%
X130000000Y-77230000D03*
%TD*%
D40*
%TO.N,BUTTON_LED*%
X158629200Y-116072400D03*
%TO.N,ATTINY_SDA*%
X172188100Y-122698300D03*
%TO.N,ATTINY_MISO*%
X169492300Y-133404900D03*
%TO.N,BUTTON*%
X166724200Y-107104900D03*
%TO.N,ESP32_TX*%
X150768300Y-81118200D03*
X144840500Y-56874100D03*
X160110100Y-57433400D03*
%TO.N,ESP32_RX*%
X159660000Y-86885400D03*
%TO.N,ATTINY_INT*%
X172548800Y-112749400D03*
X163182500Y-109528200D03*
%TO.N,Net-(J10-Pin_2)*%
X108191700Y-87257400D03*
%TO.N,ESP32_0*%
X141876600Y-125174300D03*
X168551700Y-52259700D03*
X143800600Y-55527000D03*
%TO.N,ESP32_IO19*%
X156359500Y-59293700D03*
X169729800Y-66914400D03*
%TO.N,ESP32_IO1*%
X140080100Y-49419600D03*
X160649600Y-50387000D03*
%TO.N,ESP32_IO8*%
X170491300Y-56334300D03*
%TO.N,ESP32_IO9*%
X169729800Y-62803500D03*
%TO.N,ESP32_IO7*%
X171515600Y-48874600D03*
%TO.N,ESP32_IO0*%
X156458500Y-49698000D03*
%TO.N,ESP32_IO10*%
X171515600Y-65987800D03*
X157161300Y-58892000D03*
%TO.N,ESP32_SDA*%
X167760700Y-51406600D03*
X132115100Y-49457000D03*
X157450200Y-51214700D03*
X160257300Y-51651500D03*
%TO.N,ESP32_SCL*%
X162623900Y-48305000D03*
X169325900Y-46341300D03*
X137028500Y-93778100D03*
%TO.N,ATTINY_STAT*%
X160839400Y-124722100D03*
%TO.N,ESP32_IO18_SCK*%
X159746000Y-92776000D03*
X169492300Y-92357800D03*
%TO.N,V_USB*%
X105940000Y-67715000D03*
%TO.N,+5V*%
X197963900Y-127246100D03*
%TO.N,ESP32_3.3*%
X141876600Y-75104200D03*
X114283100Y-110447800D03*
%TO.N,5V_CHG*%
X147804400Y-98666600D03*
%TO.N,ESP32_EN*%
X159625000Y-72158900D03*
X136177800Y-72580900D03*
X133703500Y-99518900D03*
X142731500Y-50178100D03*
%TO.N,GND*%
X108857800Y-62869900D03*
X142701700Y-74283800D03*
X118429600Y-74317900D03*
X121129300Y-151914600D03*
X118742500Y-97747000D03*
%TD*%
D41*
%TO.N,BUTTON_LED*%
X175750000Y-120980000D02*
X172000000Y-124730000D01*
X175750000Y-113980000D02*
X175750000Y-120980000D01*
X158629200Y-115972100D02*
X158629200Y-116072400D01*
X156927100Y-114270000D02*
X158629200Y-115972100D01*
X156500000Y-114270000D02*
X156927100Y-114270000D01*
%TO.N,ATTINY_SDA*%
X156500000Y-127810000D02*
X157960000Y-129270000D01*
X156500000Y-115540000D02*
X156500000Y-127810000D01*
X172000000Y-122510200D02*
X172000000Y-117230000D01*
X172188100Y-122698300D02*
X172000000Y-122510200D01*
%TO.N,ATTINY_MISO*%
X162126100Y-130183900D02*
X160500000Y-131810000D01*
X162126100Y-116216100D02*
X162126100Y-130183900D01*
X161450000Y-115540000D02*
X162126100Y-116216100D01*
X169492300Y-112237700D02*
X169492300Y-133404900D01*
X172000000Y-109730000D02*
X169492300Y-112237700D01*
%TO.N,ATTINY_SCK*%
X163729900Y-121409900D02*
X167000000Y-124680000D01*
X163729900Y-116094000D02*
X163729900Y-121409900D01*
X161905900Y-114270000D02*
X163729900Y-116094000D01*
X161450000Y-114270000D02*
X161905900Y-114270000D01*
X161000400Y-114270000D02*
X161450000Y-114270000D01*
X160142900Y-115127500D02*
X161000400Y-114270000D01*
X160142900Y-123174700D02*
X160142900Y-115127500D01*
X161721800Y-124753600D02*
X160142900Y-123174700D01*
X161721800Y-128048200D02*
X161721800Y-124753600D01*
X160500000Y-129270000D02*
X161721800Y-128048200D01*
%TO.N,BUTTON*%
X167000000Y-107380700D02*
X167000000Y-109680000D01*
X166724200Y-107104900D02*
X167000000Y-107380700D01*
X162099100Y-111730000D02*
X166724200Y-107104900D01*
X161450000Y-111730000D02*
X162099100Y-111730000D01*
%TO.N,D+*%
X119000000Y-59625000D02*
X119000000Y-64000000D01*
X113739900Y-54364900D02*
X119000000Y-59625000D01*
X113471400Y-54364900D02*
X113739900Y-54364900D01*
X113471400Y-53213200D02*
X113471400Y-53789000D01*
X113471400Y-53789000D02*
X113471400Y-54364900D01*
X111057700Y-56202700D02*
X113471400Y-53789000D01*
X111057700Y-65276300D02*
X111057700Y-56202700D01*
X108334000Y-68000000D02*
X111057700Y-65276300D01*
X107950000Y-68000000D02*
X108334000Y-68000000D01*
%TO.N,D-*%
X113824900Y-51824900D02*
X119000000Y-57000000D01*
X113471400Y-51824900D02*
X113824900Y-51824900D01*
X113471400Y-50673200D02*
X113471400Y-51249000D01*
X113471400Y-51249000D02*
X113471400Y-51824900D01*
X110190100Y-54530300D02*
X113471400Y-51249000D01*
X110190100Y-64834700D02*
X110190100Y-54530300D01*
X108294800Y-66730000D02*
X110190100Y-64834700D01*
X107950000Y-66730000D02*
X108294800Y-66730000D01*
%TO.N,ESP32_TX*%
X107551300Y-70540000D02*
X107950000Y-70540000D01*
X105000000Y-73091300D02*
X107551300Y-70540000D01*
X105000000Y-77500000D02*
X105000000Y-73091300D01*
X158854500Y-57580000D02*
X159906200Y-57580000D01*
X160052800Y-57433400D02*
X160110100Y-57433400D01*
X159906200Y-57580000D02*
X160052800Y-57433400D01*
X150464500Y-81422000D02*
X150464500Y-83680000D01*
X150768300Y-81118200D02*
X150464500Y-81422000D01*
X144840500Y-67687900D02*
X144840500Y-56874100D01*
X147275000Y-70122400D02*
X144840500Y-67687900D01*
X147275000Y-77624900D02*
X147275000Y-70122400D01*
X150768300Y-81118200D02*
X147275000Y-77624900D01*
%TO.N,ESP32_RX*%
X158854500Y-59080000D02*
X159906200Y-59080000D01*
X105000000Y-82000000D02*
X105000000Y-80848300D01*
X107529500Y-71810000D02*
X107950000Y-71810000D01*
X106153200Y-73186300D02*
X107529500Y-71810000D01*
X106153200Y-79695100D02*
X106153200Y-73186300D01*
X105000000Y-80848300D02*
X106153200Y-79695100D01*
X161000000Y-85545400D02*
X161000000Y-83680000D01*
X159660000Y-86885400D02*
X161000000Y-85545400D01*
X160252200Y-82932200D02*
X161000000Y-83680000D01*
X160252200Y-59426000D02*
X160252200Y-82932200D01*
X159906200Y-59080000D02*
X160252200Y-59426000D01*
%TO.N,ATTINY_INT*%
X170126000Y-129856000D02*
X177500000Y-137230000D01*
X170126000Y-115172200D02*
X170126000Y-129856000D01*
X172548800Y-112749400D02*
X170126000Y-115172200D01*
X161788200Y-109528200D02*
X161450000Y-109190000D01*
X163182500Y-109528200D02*
X161788200Y-109528200D01*
X163182500Y-109528200D02*
X162964600Y-109528200D01*
X162964600Y-109528200D02*
X163182500Y-109528200D01*
X172548800Y-112749400D02*
X170126000Y-115172200D01*
X170126000Y-115172200D02*
X172548800Y-112749400D01*
%TO.N,Net-(J16-Pin_2)*%
X176658300Y-127191700D02*
X177000000Y-127191700D01*
X173620000Y-130230000D02*
X176658300Y-127191700D01*
X177000000Y-126040000D02*
X177000000Y-127191700D01*
%TO.N,ATTINY_RST*%
X159231000Y-124267500D02*
X159466400Y-124502900D01*
X159231000Y-114109000D02*
X159231000Y-124267500D01*
X156852000Y-111730000D02*
X159231000Y-114109000D01*
X156500000Y-111730000D02*
X156852000Y-111730000D01*
X159632700Y-125862700D02*
X160500000Y-126730000D01*
X159632700Y-124669200D02*
X159632700Y-125862700D01*
X159466400Y-124502900D02*
X159632700Y-124669200D01*
X159466400Y-124502900D02*
X159632700Y-124669200D01*
%TO.N,Net-(J11-Pin_2)*%
X107540000Y-77500000D02*
X107540000Y-78651700D01*
X108793400Y-79905100D02*
X107540000Y-78651700D01*
X108793400Y-97523400D02*
X108793400Y-79905100D01*
X112500000Y-101230000D02*
X108793400Y-97523400D01*
%TO.N,Net-(J10-Pin_2)*%
X107540000Y-86605700D02*
X107540000Y-82000000D01*
X108191700Y-87257400D02*
X107540000Y-86605700D01*
%TO.N,CC2*%
X119000000Y-47101700D02*
X119000000Y-50500000D01*
X119500000Y-46601700D02*
X119000000Y-47101700D01*
X119500000Y-45500000D02*
X119500000Y-46601700D01*
%TO.N,CC1*%
X113471400Y-48133200D02*
X113471400Y-49284900D01*
X114635900Y-48690900D02*
X114041900Y-49284900D01*
X114635900Y-37635900D02*
X114635900Y-48690900D01*
X113500000Y-36500000D02*
X114635900Y-37635900D01*
X132000000Y-99230000D02*
X132000000Y-98128300D01*
X114041900Y-49284900D02*
X113471400Y-49284900D01*
X127710900Y-93839200D02*
X132000000Y-98128300D01*
X127710900Y-62953900D02*
X127710900Y-93839200D01*
X114041900Y-49284900D02*
X127710900Y-62953900D01*
%TO.N,Net-(J9-Pin_1)*%
X183000000Y-52601700D02*
X183000000Y-61500000D01*
X181500000Y-51101700D02*
X183000000Y-52601700D01*
X181500000Y-50000000D02*
X181500000Y-51101700D01*
%TO.N,Net-(J8-Pin_1)*%
X182356600Y-37651700D02*
X183000000Y-37651700D01*
X181500000Y-38508300D02*
X182356600Y-37651700D01*
X181500000Y-39610000D02*
X181500000Y-38508300D01*
X183000000Y-36500000D02*
X183000000Y-37651700D01*
%TO.N,Net-(J7-Pin_2)*%
X183040000Y-99000000D02*
X183040000Y-79000000D01*
X181500000Y-100540000D02*
X183040000Y-99000000D01*
%TO.N,Net-(Q6-C)*%
X130000000Y-142391100D02*
X130000000Y-149022800D01*
X132560000Y-139831100D02*
X130000000Y-142391100D01*
X135770000Y-139831100D02*
X132560000Y-139831100D01*
X135770000Y-140882800D02*
X135770000Y-139831100D01*
%TO.N,Net-(Q6-B)*%
X134500000Y-149382800D02*
X134500000Y-140882800D01*
%TO.N,Net-(Q5-B)*%
X117730000Y-149522800D02*
X117730000Y-141022800D01*
%TO.N,Net-(Q4-G)*%
X139245800Y-146733700D02*
X136596700Y-149382800D01*
X139245800Y-141522800D02*
X139245800Y-146733700D01*
X140500000Y-141522800D02*
X139245800Y-141522800D01*
X135770000Y-149382800D02*
X136596700Y-149382800D01*
%TO.N,Net-(Q3-G)*%
X111708300Y-148532800D02*
X111708300Y-149500000D01*
X106000000Y-142824500D02*
X111708300Y-148532800D01*
X106000000Y-141522800D02*
X106000000Y-142824500D01*
X112810000Y-149500000D02*
X111708300Y-149500000D01*
%TO.N,ESP32_0*%
X141354500Y-54580000D02*
X142406200Y-54580000D01*
X143848300Y-90778600D02*
X143848300Y-75680000D01*
X141876600Y-92750300D02*
X143848300Y-90778600D01*
X141876600Y-125174300D02*
X141876600Y-92750300D01*
X145000000Y-75680000D02*
X143848300Y-75680000D01*
X145000000Y-71880000D02*
X144424200Y-71880000D01*
X144424200Y-71880000D02*
X143848300Y-71880000D01*
X143848300Y-72455900D02*
X143848300Y-75680000D01*
X144424200Y-71880000D02*
X143848300Y-72455900D01*
X168551700Y-41628300D02*
X168551700Y-52259700D01*
X171500000Y-38680000D02*
X168551700Y-41628300D01*
X143800600Y-71832300D02*
X143800600Y-55527000D01*
X143848300Y-71880000D02*
X143800600Y-71832300D01*
X143353200Y-55527000D02*
X143800600Y-55527000D01*
X142406200Y-54580000D02*
X143353200Y-55527000D01*
%TO.N,DTR*%
X103860000Y-123230000D02*
X103860000Y-122816600D01*
X101320600Y-120277200D02*
X103860000Y-122816600D01*
X101320600Y-70514200D02*
X101320600Y-120277200D01*
X102564800Y-69270000D02*
X101320600Y-70514200D01*
X103000000Y-69270000D02*
X102564800Y-69270000D01*
%TO.N,RTS*%
X109500000Y-123196700D02*
X109500000Y-124690000D01*
X103860000Y-117556700D02*
X109500000Y-123196700D01*
X103860000Y-116730000D02*
X103860000Y-117556700D01*
X101722300Y-115644000D02*
X102808300Y-116730000D01*
X101722300Y-71464000D02*
X101722300Y-115644000D01*
X102646300Y-70540000D02*
X101722300Y-71464000D01*
X103000000Y-70540000D02*
X102646300Y-70540000D01*
X103860000Y-116730000D02*
X102808300Y-116730000D01*
%TO.N,ESP32_IO5*%
X139761700Y-53080000D02*
X141354500Y-53080000D01*
X138301700Y-54540000D02*
X139761700Y-53080000D01*
X137500000Y-54540000D02*
X138301700Y-54540000D01*
X136199400Y-55840600D02*
X137500000Y-54540000D01*
X136199400Y-71030600D02*
X136199400Y-55840600D01*
X130000000Y-77230000D02*
X136199400Y-71030600D01*
%TO.N,ESP32_IO19*%
X156359500Y-56023300D02*
X156359500Y-59293700D01*
X157802800Y-54580000D02*
X156359500Y-56023300D01*
X158328700Y-54580000D02*
X157802800Y-54580000D01*
X158328700Y-54580000D02*
X158854500Y-54580000D01*
X169676100Y-81856100D02*
X171500000Y-83680000D01*
X169676100Y-66968100D02*
X169676100Y-81856100D01*
X169729800Y-66914400D02*
X169676100Y-66968100D01*
%TO.N,ESP32_IO1*%
X158854500Y-50080000D02*
X159906200Y-50080000D01*
X135509000Y-52000000D02*
X137500000Y-52000000D01*
X131239000Y-47730000D02*
X135509000Y-52000000D01*
X130000000Y-47730000D02*
X131239000Y-47730000D01*
X138301700Y-51198000D02*
X140080100Y-49419600D01*
X138301700Y-52000000D02*
X138301700Y-51198000D01*
X160213200Y-50387000D02*
X159906200Y-50080000D01*
X160649600Y-50387000D02*
X160213200Y-50387000D01*
X137500000Y-52000000D02*
X138301700Y-52000000D01*
X160649600Y-50387000D02*
X160213200Y-50387000D01*
X160213200Y-50387000D02*
X160649600Y-50387000D01*
%TO.N,ESP32_IO8*%
X139802800Y-57080000D02*
X140302800Y-57580000D01*
X137500000Y-57080000D02*
X139802800Y-57080000D01*
X141354500Y-57580000D02*
X140302800Y-57580000D01*
X171500000Y-55325600D02*
X171500000Y-53680000D01*
X170491300Y-56334300D02*
X171500000Y-55325600D01*
%TO.N,ESP32_IO9*%
X139031700Y-59080000D02*
X138301700Y-58350000D01*
X141354500Y-59080000D02*
X139031700Y-59080000D01*
X137500000Y-58350000D02*
X138301700Y-58350000D01*
X169729800Y-62450200D02*
X169729800Y-62803500D01*
X171500000Y-60680000D02*
X169729800Y-62450200D01*
%TO.N,ESP32_IO7*%
X140032800Y-55810000D02*
X140302800Y-56080000D01*
X137500000Y-55810000D02*
X140032800Y-55810000D01*
X141354500Y-56080000D02*
X140302800Y-56080000D01*
X171500000Y-48859000D02*
X171515600Y-48874600D01*
X171500000Y-46180000D02*
X171500000Y-48859000D01*
%TO.N,ESP32_IO4*%
X139991700Y-51580000D02*
X138301700Y-53270000D01*
X141354500Y-51580000D02*
X139991700Y-51580000D01*
X137500000Y-53270000D02*
X138301700Y-53270000D01*
X135748900Y-64481100D02*
X130000000Y-70230000D01*
X135748900Y-55021100D02*
X135748900Y-64481100D01*
X137500000Y-53270000D02*
X135748900Y-55021100D01*
%TO.N,ESP32_IO0*%
X130000000Y-42428300D02*
X137500000Y-49928300D01*
X130000000Y-40230000D02*
X130000000Y-42428300D01*
X137500000Y-50730000D02*
X137500000Y-49928300D01*
X156458500Y-49698000D02*
X156456900Y-49698000D01*
X157578100Y-48580000D02*
X156460000Y-49698100D01*
X156460000Y-49698100D02*
X156458500Y-49698100D01*
X158854500Y-48580000D02*
X157578100Y-48580000D01*
X156458500Y-49698100D02*
X156458500Y-49698000D01*
X156456900Y-49698000D02*
X156458500Y-49698000D01*
%TO.N,ESP32_IO10*%
X171500000Y-66003400D02*
X171500000Y-68680000D01*
X171515600Y-65987800D02*
X171500000Y-66003400D01*
X158854500Y-60580000D02*
X157802800Y-60580000D01*
X157802800Y-59533500D02*
X157161300Y-58892000D01*
X157802800Y-60580000D02*
X157802800Y-59533500D01*
%TO.N,ESP32_SDA*%
X116768500Y-114731700D02*
X116500000Y-114731700D01*
X117658100Y-115621300D02*
X116768500Y-114731700D01*
X117658100Y-123372000D02*
X117658100Y-115621300D01*
X116761800Y-124268300D02*
X117658100Y-123372000D01*
X116500000Y-124268300D02*
X116761800Y-124268300D01*
X116500000Y-125420000D02*
X116500000Y-124268300D01*
X116500000Y-113580000D02*
X116500000Y-114731700D01*
X168580000Y-90424100D02*
X168580000Y-89848300D01*
X168580000Y-90424100D02*
X168580000Y-91000000D01*
X168850900Y-139948600D02*
X166199700Y-142599800D01*
X168850900Y-92422600D02*
X168850900Y-139948600D01*
X168580000Y-92151700D02*
X168850900Y-92422600D01*
X168580000Y-91000000D02*
X168580000Y-92151700D01*
X166199700Y-143751500D02*
X166199700Y-142599800D01*
X167760700Y-89029000D02*
X167760700Y-51406600D01*
X168580000Y-89848300D02*
X167760700Y-89029000D01*
X132115100Y-53114900D02*
X132115100Y-49457000D01*
X130000000Y-55230000D02*
X132115100Y-53114900D01*
X157802800Y-51567300D02*
X157802800Y-51580000D01*
X157369900Y-51134400D02*
X157802800Y-51567300D01*
X158854500Y-51580000D02*
X157802800Y-51580000D01*
X159977700Y-51651500D02*
X159906200Y-51580000D01*
X160257300Y-51651500D02*
X159977700Y-51651500D01*
X158854500Y-51580000D02*
X159906200Y-51580000D01*
X157369900Y-51134400D02*
X157450200Y-51214700D01*
%TO.N,ESP32_SCL*%
X158854500Y-53080000D02*
X159906200Y-53080000D01*
X116500000Y-122880000D02*
X116500000Y-116120000D01*
X171120000Y-91000000D02*
X171120000Y-89848300D01*
X162623900Y-50362300D02*
X159906200Y-53080000D01*
X162623900Y-48305000D02*
X162623900Y-50362300D01*
X136921800Y-131166800D02*
X136921800Y-130015100D01*
X169100700Y-87829000D02*
X171120000Y-89848300D01*
X169100700Y-62581800D02*
X169100700Y-87829000D01*
X169325900Y-62356600D02*
X169100700Y-62581800D01*
X169325900Y-46341300D02*
X169325900Y-62356600D01*
X128156200Y-64073800D02*
X130000000Y-62230000D01*
X128156200Y-90869200D02*
X128156200Y-64073800D01*
X133101700Y-95814700D02*
X128156200Y-90869200D01*
X133101700Y-99842600D02*
X133101700Y-95814700D01*
X133430500Y-100171400D02*
X133101700Y-99842600D01*
X133978700Y-100171400D02*
X133430500Y-100171400D01*
X133978700Y-127072000D02*
X133978700Y-100171400D01*
X136921800Y-130015100D02*
X133978700Y-127072000D01*
X137028500Y-97121600D02*
X137028500Y-93778100D01*
X133978700Y-100171400D02*
X137028500Y-97121600D01*
%TO.N,ATTINY_STAT*%
X162820000Y-113000000D02*
X161450000Y-113000000D01*
X167000000Y-117180000D02*
X162820000Y-113000000D01*
X159732700Y-123615400D02*
X160839400Y-124722100D01*
X159732700Y-114318600D02*
X159732700Y-123615400D01*
X161051300Y-113000000D02*
X159732700Y-114318600D01*
X161450000Y-113000000D02*
X161051300Y-113000000D01*
%TO.N,Net-(D3-K)*%
X181500000Y-88692200D02*
X181500000Y-92920000D01*
X181464500Y-88656700D02*
X181500000Y-88692200D01*
X181464500Y-87455000D02*
X181464500Y-88656700D01*
%TO.N,Net-(D2-A)*%
X198000000Y-80278300D02*
X198000000Y-67000000D01*
X200120000Y-82398300D02*
X198000000Y-80278300D01*
X200120000Y-83500000D02*
X200120000Y-82398300D01*
%TO.N,ESP32_IO18_SCK*%
X159746000Y-92367600D02*
X159746000Y-92776000D01*
X162858700Y-89254900D02*
X159746000Y-92367600D01*
X162858700Y-81375300D02*
X162858700Y-89254900D01*
X161309600Y-79826200D02*
X162858700Y-81375300D01*
X161309600Y-57483400D02*
X161309600Y-79826200D01*
X159906200Y-56080000D02*
X161309600Y-57483400D01*
X169492300Y-92357700D02*
X169492300Y-92357800D01*
X171450200Y-92357700D02*
X169492300Y-92357700D01*
X173304700Y-90503200D02*
X171450200Y-92357700D01*
X173304700Y-77984700D02*
X173304700Y-90503200D01*
X171500000Y-76180000D02*
X173304700Y-77984700D01*
X158854500Y-56080000D02*
X159906200Y-56080000D01*
%TO.N,Net-(U4-V3)*%
X114000000Y-74933300D02*
X114000000Y-77230000D01*
X108336700Y-69270000D02*
X114000000Y-74933300D01*
X107950000Y-69270000D02*
X108336700Y-69270000D01*
%TO.N,V_USB*%
X112319700Y-42819700D02*
X112319700Y-43053200D01*
X106000000Y-36500000D02*
X112319700Y-42819700D01*
X112321200Y-43053200D02*
X112319700Y-43053200D01*
X112420600Y-43053200D02*
X112321200Y-43053200D01*
X113471400Y-43053200D02*
X112420600Y-43053200D01*
X116460000Y-141022800D02*
X115633300Y-141022800D01*
X114946600Y-140336100D02*
X115633300Y-141022800D01*
X114946600Y-105447600D02*
X114946600Y-140336100D01*
X119392500Y-101001700D02*
X114946600Y-105447600D01*
X119392500Y-100250800D02*
X119392500Y-101001700D01*
X119392500Y-100250800D02*
X119392500Y-99500000D01*
X120912100Y-70912100D02*
X119500000Y-69500000D01*
X120912100Y-96478700D02*
X120912100Y-70912100D01*
X119392500Y-97998300D02*
X120912100Y-96478700D01*
X119392500Y-99500000D02*
X119392500Y-97998300D01*
X105940000Y-36560000D02*
X106000000Y-36500000D01*
X105940000Y-67715000D02*
X105940000Y-36560000D01*
%TO.N,Net-(J4-Pin_1)*%
X195142200Y-37780000D02*
X195500000Y-37780000D01*
X193000000Y-39922200D02*
X195142200Y-37780000D01*
X193000000Y-46230000D02*
X193000000Y-39922200D01*
X196251900Y-37780000D02*
X195500000Y-37780000D01*
X197343400Y-38871500D02*
X196251900Y-37780000D01*
X198283600Y-38871500D02*
X197343400Y-38871500D01*
X201414400Y-42002300D02*
X198283600Y-38871500D01*
X201414400Y-44711900D02*
X201414400Y-42002300D01*
X201814600Y-45112100D02*
X201414400Y-44711900D01*
X201814600Y-49367400D02*
X201814600Y-45112100D01*
X198000000Y-53182000D02*
X201814600Y-49367400D01*
X198000000Y-60000000D02*
X198000000Y-53182000D01*
%TO.N,Net-(J4-Pin_2)*%
X195460000Y-60000000D02*
X195460000Y-61151700D01*
X194258300Y-62353400D02*
X195460000Y-61151700D01*
X194258300Y-81741700D02*
X194258300Y-62353400D01*
X192500000Y-83500000D02*
X194258300Y-81741700D01*
%TO.N,Net-(U2-PROG)*%
X200000000Y-75278300D02*
X200120000Y-75398300D01*
X200000000Y-53730000D02*
X200000000Y-75278300D01*
X200120000Y-76500000D02*
X200120000Y-75398300D01*
X202216300Y-44745600D02*
X201980900Y-44510200D01*
X202216300Y-51513700D02*
X202216300Y-44745600D01*
X200000000Y-53730000D02*
X202216300Y-51513700D01*
X201980900Y-44510200D02*
X201816100Y-44345400D01*
X201980900Y-44510200D02*
X201816100Y-44345400D01*
X201816100Y-41821100D02*
X197775000Y-37780000D01*
X201816100Y-44345400D02*
X201816100Y-41821100D01*
%TO.N,+5V*%
X199000000Y-114750000D02*
X199000000Y-118500000D01*
X197963900Y-119536100D02*
X199000000Y-118500000D01*
X197963900Y-127246100D02*
X197963900Y-119536100D01*
%TO.N,ESP32_3.3*%
X116500000Y-111040000D02*
X116500000Y-112191700D01*
X116500000Y-127960000D02*
X116500000Y-126808300D01*
X149500000Y-69730000D02*
X149500000Y-75230000D01*
X146500000Y-66730000D02*
X149500000Y-69730000D01*
X116787900Y-112191700D02*
X116500000Y-112191700D01*
X118059800Y-113463600D02*
X116787900Y-112191700D01*
X118059800Y-125517000D02*
X118059800Y-113463600D01*
X116768500Y-126808300D02*
X118059800Y-125517000D01*
X116500000Y-126808300D02*
X116768500Y-126808300D01*
X199000000Y-141750000D02*
X199000000Y-149000000D01*
X181693600Y-84685900D02*
X181464500Y-84915000D01*
X181693600Y-63885300D02*
X181693600Y-84685900D01*
X180460000Y-62651700D02*
X181693600Y-63885300D01*
X146500000Y-52673800D02*
X146500000Y-66730000D01*
X142406200Y-48580000D02*
X146500000Y-52673800D01*
X141354500Y-48580000D02*
X142406200Y-48580000D01*
X140000000Y-76980800D02*
X140000000Y-83680000D01*
X141876600Y-75104200D02*
X140000000Y-76980800D01*
X107040000Y-97230000D02*
X107040000Y-88680000D01*
X180916600Y-134128300D02*
X181000000Y-134128300D01*
X177500000Y-130711700D02*
X180916600Y-134128300D01*
X177500000Y-129610000D02*
X177500000Y-130711700D01*
X181000000Y-135230000D02*
X181000000Y-134128300D01*
X200812500Y-139937500D02*
X199000000Y-141750000D01*
X200812500Y-126518000D02*
X200812500Y-139937500D01*
X200048700Y-125754200D02*
X200812500Y-126518000D01*
X199500000Y-125754200D02*
X200048700Y-125754200D01*
X199500000Y-124500000D02*
X199500000Y-125754200D01*
X180460000Y-61820000D02*
X180460000Y-62651700D01*
X180460000Y-61820000D02*
X180460000Y-61500000D01*
X180364700Y-37747000D02*
X180460000Y-37651700D01*
X180364700Y-60253000D02*
X180364700Y-37747000D01*
X180460000Y-60348300D02*
X180364700Y-60253000D01*
X180460000Y-61500000D02*
X180460000Y-60348300D01*
X180460000Y-36500000D02*
X180460000Y-37651700D01*
X173500000Y-144339000D02*
X173500000Y-136730000D01*
X166241700Y-151597300D02*
X173500000Y-144339000D01*
X166241700Y-152749000D02*
X166241700Y-151597300D01*
X107040000Y-103204700D02*
X107040000Y-97230000D01*
X114283100Y-110447800D02*
X107040000Y-103204700D01*
X103000000Y-84640000D02*
X103000000Y-73080000D01*
X107040000Y-88680000D02*
X103000000Y-84640000D01*
X110405000Y-68635000D02*
X112500000Y-70730000D01*
X106950500Y-68635000D02*
X110405000Y-68635000D01*
X104445400Y-71140100D02*
X106950500Y-68635000D01*
X104445400Y-71996100D02*
X104445400Y-71140100D01*
X103361500Y-73080000D02*
X104445400Y-71996100D01*
X103000000Y-73080000D02*
X103361500Y-73080000D01*
X155210000Y-129060000D02*
X157960000Y-131810000D01*
X155210000Y-108848200D02*
X155210000Y-129060000D01*
X156138200Y-107920000D02*
X155210000Y-108848200D01*
X156138200Y-81868200D02*
X149500000Y-75230000D01*
X156138200Y-107920000D02*
X156138200Y-81868200D01*
X156500000Y-107920000D02*
X156138200Y-107920000D01*
%TO.N,V_BATT*%
X195500000Y-49230000D02*
X195955000Y-49685000D01*
X195500000Y-39680000D02*
X195500000Y-49230000D01*
X195955000Y-49685000D02*
X196500000Y-50230000D01*
X195955000Y-56669100D02*
X195955000Y-49685000D01*
X193798700Y-58825400D02*
X195955000Y-56669100D01*
X193798700Y-76759400D02*
X193798700Y-58825400D01*
X191388600Y-79169500D02*
X193798700Y-76759400D01*
X191388600Y-95353100D02*
X191388600Y-79169500D01*
X194035500Y-98000000D02*
X191388600Y-95353100D01*
%TO.N,Net-(Q2-B)*%
X109500000Y-129088300D02*
X104911700Y-124500000D01*
X109500000Y-132310000D02*
X109500000Y-129088300D01*
X103860000Y-124500000D02*
X104911700Y-124500000D01*
%TO.N,5V_CHG*%
X195460000Y-86960000D02*
X199000000Y-90500000D01*
X195460000Y-68201700D02*
X195460000Y-86960000D01*
X195460000Y-67562900D02*
X195460000Y-68201700D01*
X112334200Y-146223700D02*
X115633300Y-149522800D01*
X112334200Y-141522800D02*
X112334200Y-146223700D01*
X111080000Y-141522800D02*
X112334200Y-141522800D01*
X116460000Y-149522800D02*
X115633300Y-149522800D01*
X195460000Y-67562900D02*
X195460000Y-67000000D01*
X195460000Y-67000000D02*
X195460000Y-65798300D01*
X200000000Y-46230000D02*
X199262500Y-46230000D01*
X196661700Y-64596600D02*
X195460000Y-65798300D01*
X196661700Y-52968300D02*
X196661700Y-64596600D01*
X199262500Y-50367500D02*
X196661700Y-52968300D01*
X199262500Y-46230000D02*
X199262500Y-50367500D01*
X199262500Y-41167500D02*
X199262500Y-46230000D01*
X197775000Y-39680000D02*
X199262500Y-41167500D01*
X147804400Y-140552600D02*
X147804400Y-98666600D01*
X146834200Y-141522800D02*
X147804400Y-140552600D01*
X145580000Y-141522800D02*
X146834200Y-141522800D01*
%TO.N,ESP32_EN*%
X156348300Y-75580000D02*
X156348300Y-71780000D01*
X157500000Y-75580000D02*
X156348300Y-75580000D01*
X157500000Y-71780000D02*
X156348300Y-71780000D01*
X164324500Y-50405500D02*
X165500000Y-49230000D01*
X164324500Y-57699000D02*
X164324500Y-50405500D01*
X165114800Y-58489300D02*
X164324500Y-57699000D01*
X165114800Y-66115200D02*
X165114800Y-58489300D01*
X164000000Y-67230000D02*
X165114800Y-66115200D01*
X159030600Y-72158900D02*
X158651700Y-71780000D01*
X159625000Y-72158900D02*
X159030600Y-72158900D01*
X157500000Y-71780000D02*
X158651700Y-71780000D01*
X136177800Y-79052200D02*
X136177800Y-72580900D01*
X130000000Y-85230000D02*
X136177800Y-79052200D01*
X130000000Y-91944800D02*
X130000000Y-85230000D01*
X133703500Y-95648300D02*
X130000000Y-91944800D01*
X133703500Y-99518900D02*
X133703500Y-95648300D01*
X142633400Y-50080000D02*
X142731500Y-50178100D01*
X141354500Y-50080000D02*
X142633400Y-50080000D01*
X142731500Y-50178100D02*
X142731500Y-49986800D01*
X142731500Y-49986800D02*
X142731500Y-50178100D01*
%TO.N,Net-(Q1-B)*%
X104911700Y-112088300D02*
X109500000Y-107500000D01*
X104911700Y-115460000D02*
X104911700Y-112088300D01*
X103860000Y-115460000D02*
X104911700Y-115460000D01*
%TO.N,GND*%
X188739200Y-146217100D02*
X188739200Y-145065400D01*
X166000000Y-136730000D02*
X166000000Y-137831700D01*
X163701700Y-152749000D02*
X163701700Y-151597300D01*
X141354500Y-60580000D02*
X140302800Y-60580000D01*
X138700000Y-71880000D02*
X139851700Y-71880000D01*
X151064500Y-54230000D02*
X151064500Y-54780000D01*
X137548300Y-75680000D02*
X137548300Y-71880000D01*
X138700000Y-75680000D02*
X137548300Y-75680000D01*
X138700000Y-71880000D02*
X137548300Y-71880000D01*
X151500000Y-70331700D02*
X151500000Y-75230000D01*
X154000000Y-67831700D02*
X151500000Y-70331700D01*
X199000000Y-98035500D02*
X199035500Y-98000000D01*
X199000000Y-107250000D02*
X199000000Y-98035500D01*
X150514500Y-53680000D02*
X150514500Y-54780000D01*
X199000000Y-134250000D02*
X199000000Y-133148300D01*
X199500000Y-127040000D02*
X199500000Y-128294200D01*
X163800000Y-75580000D02*
X162648300Y-75580000D01*
X193000000Y-49730000D02*
X193000000Y-53730000D01*
X194887100Y-47842900D02*
X193000000Y-49730000D01*
X194887100Y-45222700D02*
X194887100Y-47842900D01*
X194527500Y-44863100D02*
X194887100Y-45222700D01*
X194527500Y-39350300D02*
X194527500Y-44863100D01*
X195147800Y-38730000D02*
X194527500Y-39350300D01*
X195500000Y-38730000D02*
X195147800Y-38730000D01*
X189739400Y-114469400D02*
X189250000Y-113980000D01*
X189739400Y-144065200D02*
X189739400Y-114469400D01*
X188739200Y-145065400D02*
X189739400Y-144065200D01*
X185000000Y-109730000D02*
X185000000Y-107730000D01*
X189250000Y-113980000D02*
X185000000Y-109730000D01*
X151064500Y-55330000D02*
X151064500Y-54780000D01*
X199000000Y-107250000D02*
X199000000Y-108351700D01*
X122380000Y-137531700D02*
X122380000Y-140522800D01*
X116500000Y-131651700D02*
X122380000Y-137531700D01*
X116500000Y-130500000D02*
X116500000Y-131651700D01*
X163800000Y-71780000D02*
X163224200Y-71780000D01*
X154000000Y-67280800D02*
X154000000Y-67831700D01*
X154000000Y-67280800D02*
X154000000Y-66730000D01*
X154000000Y-57165500D02*
X152164500Y-55330000D01*
X154000000Y-66730000D02*
X154000000Y-57165500D01*
X161450000Y-94201700D02*
X161450000Y-107920000D01*
X163500000Y-92151700D02*
X161450000Y-94201700D01*
X163500000Y-91000000D02*
X163500000Y-92151700D01*
X151614500Y-54780000D02*
X151614500Y-53680000D01*
X162648300Y-72355900D02*
X162648300Y-75580000D01*
X163224200Y-71780000D02*
X162648300Y-72355900D01*
X112000000Y-77130000D02*
X112000000Y-77230000D01*
X107950000Y-73080000D02*
X112000000Y-77130000D01*
X150514500Y-55880000D02*
X150514500Y-54780000D01*
X116500000Y-130500000D02*
X116500000Y-129348300D01*
X116243300Y-129348300D02*
X116500000Y-129348300D01*
X115348300Y-128453300D02*
X116243300Y-129348300D01*
X115348300Y-110515400D02*
X115348300Y-128453300D01*
X116212000Y-109651700D02*
X115348300Y-110515400D01*
X116500000Y-109651700D02*
X116212000Y-109651700D01*
X116500000Y-108500000D02*
X116500000Y-109651700D01*
X119392500Y-78209200D02*
X119392500Y-81500000D01*
X119500000Y-78101700D02*
X119392500Y-78209200D01*
X116500000Y-107110000D02*
X116500000Y-108500000D01*
X124380000Y-99230000D02*
X116500000Y-107110000D01*
X108857800Y-51070600D02*
X108857800Y-62869900D01*
X113183500Y-46744900D02*
X108857800Y-51070600D01*
X113471400Y-46744900D02*
X113183500Y-46744900D01*
X113471400Y-45593200D02*
X113471400Y-46744900D01*
X119500000Y-77550800D02*
X119500000Y-78101700D01*
X119500000Y-77550800D02*
X119500000Y-77000000D01*
X157500000Y-81230000D02*
X151500000Y-75230000D01*
X157500000Y-90730000D02*
X157500000Y-81230000D01*
X162843000Y-71398800D02*
X163224200Y-71780000D01*
X162843000Y-61988700D02*
X162843000Y-71398800D01*
X164000000Y-60831700D02*
X162843000Y-61988700D01*
X164000000Y-59730000D02*
X164000000Y-60831700D01*
X140302800Y-71880000D02*
X139851700Y-71880000D01*
X140302800Y-60580000D02*
X140302800Y-71880000D01*
X140302800Y-71884900D02*
X142701700Y-74283800D01*
X140302800Y-71880000D02*
X140302800Y-71884900D01*
X198198300Y-132346600D02*
X198198300Y-128294200D01*
X199000000Y-133148300D02*
X198198300Y-132346600D01*
X198161200Y-128294200D02*
X198198300Y-128294200D01*
X197198300Y-127331300D02*
X198161200Y-128294200D01*
X197198300Y-110153400D02*
X197198300Y-127331300D01*
X199000000Y-108351700D02*
X197198300Y-110153400D01*
X198198300Y-128294200D02*
X199500000Y-128294200D01*
X162648300Y-76381700D02*
X162648300Y-75580000D01*
X163500000Y-77233400D02*
X162648300Y-76381700D01*
X163500000Y-91000000D02*
X163500000Y-77233400D01*
X112500000Y-68388300D02*
X118429600Y-74317900D01*
X112500000Y-63230000D02*
X112500000Y-68388300D01*
X118429600Y-74827900D02*
X119500000Y-75898300D01*
X118429600Y-74317900D02*
X118429600Y-74827900D01*
X122380000Y-140522800D02*
X122380000Y-149022800D01*
X122380000Y-150663900D02*
X121129300Y-151914600D01*
X122380000Y-149022800D02*
X122380000Y-150663900D01*
X119500000Y-77000000D02*
X119500000Y-75898300D01*
X165030700Y-150268300D02*
X163701700Y-151597300D01*
X165030700Y-138801000D02*
X165030700Y-150268300D01*
X165261700Y-138570000D02*
X165030700Y-138801000D01*
X159111700Y-127881700D02*
X157960000Y-126730000D01*
X159111700Y-132420100D02*
X159111700Y-127881700D01*
X165261700Y-138570000D02*
X159111700Y-132420100D01*
X166000000Y-137831700D02*
X165261700Y-138570000D01*
X199035500Y-95535500D02*
X194000000Y-90500000D01*
X199035500Y-98000000D02*
X199035500Y-95535500D01*
X193000000Y-76000000D02*
X192500000Y-76500000D01*
X193000000Y-53730000D02*
X193000000Y-76000000D01*
X119392500Y-97097000D02*
X119392500Y-81500000D01*
X118742500Y-97747000D02*
X119392500Y-97097000D01*
%TD*%
M02*
