%TF.GenerationSoftware,KiCad,Pcbnew,9.0.0-rc3*%
%TF.CreationDate,2025-04-15T17:50:24-05:00*%
%TF.ProjectId,Brine,4272696e-652e-46b6-9963-61645f706362,Dev Board 01*%
%TF.SameCoordinates,Original*%
%TF.FileFunction,Legend,Bot*%
%TF.FilePolarity,Positive*%
%FSLAX46Y46*%
G04 Gerber Fmt 4.6, Leading zero omitted, Abs format (unit mm)*
G04 Created by KiCad (PCBNEW 9.0.0-rc3) date 2025-04-15 17:50:24*
%MOMM*%
%LPD*%
G01*
G04 APERTURE LIST*
%ADD10C,0.100000*%
G04 APERTURE END LIST*
D10*
X106000000Y-149000000D02*
X106000000Y-39500000D01*
X111000000Y-149000000D02*
G75*
G02*
X101000000Y-149000000I-5000000J0D01*
G01*
X101000000Y-149000000D02*
G75*
G02*
X111000000Y-149000000I5000000J0D01*
G01*
X106000000Y-149000000D02*
X198500000Y-149000000D01*
X105000000Y-150000000D02*
X106000000Y-149000000D01*
X105000000Y-150000000D02*
X99000000Y-150000000D01*
X105000000Y-150000000D02*
X105000000Y-156000000D01*
X203500000Y-149000000D02*
G75*
G02*
X193500000Y-149000000I-5000000J0D01*
G01*
X193500000Y-149000000D02*
G75*
G02*
X203500000Y-149000000I5000000J0D01*
G01*
X198500000Y-149000000D02*
X198500000Y-39500000D01*
X199500000Y-150000000D02*
X198500000Y-149000000D01*
X199500000Y-150000000D02*
X199500000Y-156000000D01*
X199500000Y-150000000D02*
X205500000Y-150000000D01*
X203500000Y-39500000D02*
G75*
G02*
X193500000Y-39500000I-5000000J0D01*
G01*
X193500000Y-39500000D02*
G75*
G02*
X203500000Y-39500000I5000000J0D01*
G01*
X198500000Y-39500000D02*
X106000000Y-39500000D01*
X199500000Y-38500000D02*
X198500000Y-39500000D01*
X199500000Y-38500000D02*
X199500000Y-32500000D01*
X199500000Y-38500000D02*
X205500000Y-38500000D01*
X111000000Y-39500000D02*
G75*
G02*
X101000000Y-39500000I-5000000J0D01*
G01*
X101000000Y-39500000D02*
G75*
G02*
X111000000Y-39500000I5000000J0D01*
G01*
X105000000Y-38500000D02*
X106000000Y-39500000D01*
X105000000Y-38500000D02*
X105000000Y-32500000D01*
X105000000Y-38500000D02*
X99000000Y-38500000D01*
M02*
