M48
; DRILL file {KiCad 9.0.0-rc3} date 2025-04-15T17:50:26-0500
; FORMAT={-:-/ absolute / metric / decimal}
; #@! TF.CreationDate,2025-04-15T17:50:26-05:00
; #@! TF.GenerationSoftware,Kicad,Pcbnew,9.0.0-rc3
; #@! TF.FileFunction,MixedPlating,1,2
FMAT,2
METRIC
; #@! TA.AperFunction,Plated,PTH,ComponentDrill
T1C0.200
; #@! TA.AperFunction,Plated,PTH,ViaDrill
T2C0.300
; #@! TA.AperFunction,Plated,PTH,ComponentDrill
T3C0.650
; #@! TA.AperFunction,Plated,PTH,ComponentDrill
T4C0.750
; #@! TA.AperFunction,Plated,PTH,ComponentDrill
T5C0.800
; #@! TA.AperFunction,Plated,PTH,ComponentDrill
T6C0.900
; #@! TA.AperFunction,Plated,PTH,ComponentDrill
T7C1.000
; #@! TA.AperFunction,Plated,PTH,ComponentDrill
T8C1.100
; #@! TA.AperFunction,Plated,PTH,ComponentDrill
T9C1.200
; #@! TA.AperFunction,NonPlated,NPTH,ComponentDrill
T10C1.600
; #@! TA.AperFunction,NonPlated,NPTH,ComponentDrill
T11C3.200
%
G90
G05
T1
X149.964Y-54.23
X149.964Y-55.33
X150.514Y-53.68
X150.514Y-54.78
X150.514Y-55.88
X151.064Y-54.23
X151.064Y-55.33
X151.614Y-53.68
X151.614Y-54.78
X151.614Y-55.88
X152.165Y-54.23
X152.165Y-55.33
T2
X105.94Y-67.715
X108.192Y-87.257
X108.858Y-62.87
X114.283Y-110.448
X118.43Y-74.318
X118.742Y-97.747
X121.129Y-151.915
X132.115Y-49.457
X133.703Y-99.519
X136.178Y-72.581
X137.028Y-93.778
X140.08Y-49.42
X141.877Y-75.104
X141.877Y-125.174
X142.702Y-74.284
X142.731Y-50.178
X143.801Y-55.527
X144.84Y-56.874
X147.804Y-98.667
X150.768Y-81.118
X156.359Y-59.294
X156.458Y-49.698
X157.161Y-58.892
X157.45Y-51.215
X158.629Y-116.072
X159.625Y-72.159
X159.66Y-86.885
X159.746Y-92.776
X160.11Y-57.433
X160.257Y-51.651
X160.65Y-50.387
X160.839Y-124.722
X162.624Y-48.305
X163.183Y-109.528
X166.724Y-107.105
X167.761Y-51.407
X168.552Y-52.26
X169.326Y-46.341
X169.492Y-92.358
X169.492Y-133.405
X169.73Y-62.803
X169.73Y-66.914
X170.491Y-56.334
X171.516Y-48.875
X171.516Y-65.988
X172.188Y-122.698
X172.549Y-112.749
X197.964Y-127.246
T3
X137.5Y-50.73
X137.5Y-52.0
X137.5Y-53.27
X137.5Y-54.54
X137.5Y-55.81
X137.5Y-57.08
X137.5Y-58.35
X137.5Y-59.62
X137.5Y-60.89
T4
X103.86Y-114.19
X103.86Y-115.46
X103.86Y-116.73
X103.86Y-123.23
X103.86Y-124.5
X103.86Y-125.77
X116.46Y-141.023
X116.46Y-149.523
X117.73Y-141.023
X117.73Y-149.523
X119.0Y-141.023
X119.0Y-149.523
X133.23Y-140.883
X133.23Y-149.383
X134.5Y-140.883
X134.5Y-149.383
X135.77Y-140.883
X135.77Y-149.383
T5
X105.19Y-149.5
X109.5Y-107.5
X109.5Y-115.12
X109.5Y-124.69
X109.5Y-132.31
X112.0Y-77.23
X112.5Y-63.23
X112.5Y-70.73
X112.5Y-83.11
X112.5Y-90.73
X112.5Y-93.61
X112.5Y-101.23
X112.81Y-149.5
X114.0Y-77.23
X119.5Y-37.88
X119.5Y-45.5
X119.5Y-69.5
X119.5Y-77.0
X122.38Y-140.523
X122.38Y-149.023
X124.38Y-99.23
X130.0Y-140.523
X130.0Y-149.023
X132.0Y-99.23
X134.19Y-90.73
X139.19Y-149.5
X141.81Y-90.73
X146.5Y-66.73
X146.81Y-149.5
X149.5Y-75.23
X151.5Y-75.23
X154.0Y-66.73
X164.0Y-59.73
X164.0Y-67.23
X165.5Y-49.23
X165.5Y-56.85
X166.0Y-130.23
X166.0Y-136.73
X173.5Y-136.73
X173.62Y-130.23
X175.75Y-113.98
X177.5Y-129.61
X177.5Y-137.23
X181.0Y-135.23
X181.5Y-39.61
X181.5Y-47.23
X181.5Y-50.0
X181.5Y-57.62
X181.5Y-92.92
X181.5Y-100.54
X188.62Y-135.23
X189.25Y-113.98
X192.5Y-76.5
X192.5Y-83.5
X194.0Y-90.5
X194.035Y-98.0
X199.0Y-90.5
X199.0Y-107.25
X199.0Y-114.75
X199.0Y-134.25
X199.0Y-141.75
X199.035Y-98.0
X200.12Y-76.5
X200.12Y-83.5
T6
X104.5Y-88.68
X104.5Y-97.23
X107.04Y-88.68
X107.04Y-97.23
X149.225Y-91.73
X151.765Y-91.73
X181.464Y-84.915
X181.464Y-87.455
X185.0Y-126.19
X185.0Y-128.73
X195.46Y-67.0
X198.0Y-67.0
T7
X105.0Y-77.5
X105.0Y-82.0
X107.54Y-77.5
X107.54Y-82.0
X113.471Y-43.053
X113.471Y-45.593
X113.471Y-48.133
X113.471Y-50.673
X113.471Y-53.213
X113.471Y-55.753
X116.5Y-108.5
X116.5Y-111.04
X116.5Y-113.58
X116.5Y-116.12
X116.5Y-122.88
X116.5Y-125.42
X116.5Y-127.96
X116.5Y-130.5
X129.302Y-131.167
X131.842Y-131.167
X134.382Y-131.167
X136.922Y-131.167
X139.462Y-131.167
X142.002Y-131.167
X157.5Y-90.73
X157.5Y-93.27
X157.96Y-126.73
X157.96Y-129.27
X157.96Y-131.81
X160.5Y-126.73
X160.5Y-129.27
X160.5Y-131.81
X161.12Y-143.751
X161.162Y-152.749
X163.5Y-91.0
X163.66Y-143.751
X163.702Y-152.749
X166.04Y-91.0
X166.2Y-143.751
X166.242Y-152.749
X168.58Y-91.0
X171.12Y-91.0
X177.0Y-123.5
X177.0Y-126.04
X180.46Y-36.5
X180.46Y-61.5
X180.5Y-79.0
X183.0Y-36.5
X183.0Y-61.5
X183.04Y-79.0
X188.739Y-146.217
X191.279Y-146.217
X195.46Y-60.0
X198.0Y-60.0
T8
X106.0Y-141.523
X108.54Y-141.523
X111.08Y-141.523
X140.5Y-141.523
X143.04Y-141.523
X145.58Y-141.523
X199.5Y-124.5
X199.5Y-127.04
X199.5Y-129.58
T9
X119.392Y-81.5
X119.392Y-99.5
X180.0Y-107.73
X180.0Y-120.23
X185.0Y-107.73
X185.0Y-120.23
T10
X178.0Y-113.98
X187.0Y-113.98
T11
X125.304Y-109.252
X145.624Y-109.252
M30
