%TF.GenerationSoftware,KiCad,Pcbnew,9.0.0-rc3*%
%TF.CreationDate,2025-04-15T17:50:24-05:00*%
%TF.ProjectId,Brine,4272696e-652e-46b6-9963-61645f706362,Dev Board 01*%
%TF.SameCoordinates,Original*%
%TF.FileFunction,Soldermask,Bot*%
%TF.FilePolarity,Negative*%
%FSLAX46Y46*%
G04 Gerber Fmt 4.6, Leading zero omitted, Abs format (unit mm)*
G04 Created by KiCad (PCBNEW 9.0.0-rc3) date 2025-04-15 17:50:24*
%MOMM*%
%LPD*%
G01*
G04 APERTURE LIST*
G04 Aperture macros list*
%AMRoundRect*
0 Rectangle with rounded corners*
0 $1 Rounding radius*
0 $2 $3 $4 $5 $6 $7 $8 $9 X,Y pos of 4 corners*
0 Add a 4 corners polygon primitive as box body*
4,1,4,$2,$3,$4,$5,$6,$7,$8,$9,$2,$3,0*
0 Add four circle primitives for the rounded corners*
1,1,$1+$1,$2,$3*
1,1,$1+$1,$4,$5*
1,1,$1+$1,$6,$7*
1,1,$1+$1,$8,$9*
0 Add four rect primitives between the rounded corners*
20,1,$1+$1,$2,$3,$4,$5,0*
20,1,$1+$1,$4,$5,$6,$7,0*
20,1,$1+$1,$6,$7,$8,$9,0*
20,1,$1+$1,$8,$9,$2,$3,0*%
G04 Aperture macros list end*
%ADD10O,1.700000X1.700000*%
%ADD11R,1.700000X1.700000*%
%ADD12C,1.600000*%
%ADD13O,1.600000X1.600000*%
%ADD14C,1.800000*%
%ADD15R,1.800000X1.800000*%
%ADD16O,1.050000X1.500000*%
%ADD17R,1.050000X1.500000*%
%ADD18C,1.676400*%
%ADD19C,2.159000*%
%ADD20C,3.200000*%
%ADD21O,1.905000X2.000000*%
%ADD22R,1.905000X2.000000*%
%ADD23O,2.000000X1.905000*%
%ADD24R,2.000000X1.905000*%
%ADD25O,1.500000X1.050000*%
%ADD26R,1.500000X1.050000*%
%ADD27O,1.000000X1.000000*%
%ADD28R,1.000000X1.000000*%
%ADD29C,1.700000*%
%ADD30RoundRect,0.250000X0.600000X0.600000X-0.600000X0.600000X-0.600000X-0.600000X0.600000X-0.600000X0*%
%ADD31O,2.400000X2.400000*%
%ADD32R,2.400000X2.400000*%
G04 APERTURE END LIST*
D10*
%TO.C,J7*%
X183040000Y-79000000D03*
D11*
X180500000Y-79000000D03*
%TD*%
D12*
%TO.C,R15*%
X119500000Y-37880000D03*
D13*
X119500000Y-45500000D03*
%TD*%
D11*
%TO.C,USB-C1*%
X113471400Y-43053200D03*
D10*
X113471400Y-45593200D03*
X113471400Y-48133200D03*
X113471400Y-50673200D03*
X113471400Y-53213200D03*
X113471400Y-55753200D03*
%TD*%
D11*
%TO.C,J10*%
X105000000Y-82000000D03*
D10*
X107540000Y-82000000D03*
%TD*%
D11*
%TO.C,J11*%
X105000000Y-77500000D03*
D10*
X107540000Y-77500000D03*
%TD*%
%TO.C,J16*%
X177000000Y-126040000D03*
D11*
X177000000Y-123500000D03*
%TD*%
D10*
%TO.C,J4*%
X195460000Y-60000000D03*
D11*
X198000000Y-60000000D03*
%TD*%
D10*
%TO.C,J9*%
X180460000Y-61500000D03*
D11*
X183000000Y-61500000D03*
%TD*%
D10*
%TO.C,J8*%
X180460000Y-36500000D03*
D11*
X183000000Y-36500000D03*
%TD*%
D10*
%TO.C,J3*%
X157500000Y-93270000D03*
D11*
X157500000Y-90730000D03*
%TD*%
D10*
%TO.C,J17*%
X191279200Y-146217100D03*
D11*
X188739200Y-146217100D03*
%TD*%
D10*
%TO.C,J14*%
X166241700Y-152749000D03*
X163701700Y-152749000D03*
D11*
X161161700Y-152749000D03*
%TD*%
D10*
%TO.C,J13*%
X161119700Y-143751500D03*
X163659700Y-143751500D03*
D11*
X166199700Y-143751500D03*
%TD*%
D10*
%TO.C,J19*%
X116500000Y-116120000D03*
X116500000Y-113580000D03*
X116500000Y-111040000D03*
D11*
X116500000Y-108500000D03*
%TD*%
D10*
%TO.C,J18*%
X116500000Y-122880000D03*
X116500000Y-125420000D03*
X116500000Y-127960000D03*
D11*
X116500000Y-130500000D03*
%TD*%
D10*
%TO.C,J2*%
X142001800Y-131166800D03*
X139461800Y-131166800D03*
X136921800Y-131166800D03*
X134381800Y-131166800D03*
X131841800Y-131166800D03*
D11*
X129301800Y-131166800D03*
%TD*%
D10*
%TO.C,J1*%
X171120000Y-91000000D03*
X168580000Y-91000000D03*
X166040000Y-91000000D03*
D11*
X163500000Y-91000000D03*
%TD*%
D13*
%TO.C,R14*%
X132000000Y-99230000D03*
D12*
X124380000Y-99230000D03*
%TD*%
D13*
%TO.C,R3*%
X109500000Y-124690000D03*
D12*
X109500000Y-132310000D03*
%TD*%
D14*
%TO.C,D3*%
X181464500Y-84915000D03*
D15*
X181464500Y-87455000D03*
%TD*%
D13*
%TO.C,R20*%
X177500000Y-129610000D03*
D12*
X177500000Y-137230000D03*
%TD*%
D16*
%TO.C,Q5*%
X119000000Y-141022800D03*
X117730000Y-141022800D03*
D17*
X116460000Y-141022800D03*
%TD*%
D13*
%TO.C,C1*%
X164000000Y-59730000D03*
D12*
X164000000Y-67230000D03*
%TD*%
D13*
%TO.C,R8*%
X181500000Y-39610000D03*
D12*
X181500000Y-47230000D03*
%TD*%
D18*
%TO.C,SW1*%
X189250000Y-113980000D03*
X175750000Y-113980000D03*
D19*
X180000000Y-120230000D03*
X180000000Y-107730000D03*
X185000000Y-120230000D03*
X185000000Y-107730000D03*
D12*
X187000000Y-113980000D03*
X178000000Y-113980000D03*
%TD*%
D13*
%TO.C,C7*%
X199000000Y-107250000D03*
D12*
X199000000Y-114750000D03*
%TD*%
D13*
%TO.C,R1*%
X165500000Y-56850000D03*
D12*
X165500000Y-49230000D03*
%TD*%
D20*
%TO.C,H1*%
X125304500Y-109252200D03*
%TD*%
D13*
%TO.C,R11*%
X130000000Y-149022800D03*
D12*
X122380000Y-149022800D03*
%TD*%
D13*
%TO.C,R10*%
X130000000Y-140522800D03*
D12*
X122380000Y-140522800D03*
%TD*%
D13*
%TO.C,R12*%
X112810000Y-149500000D03*
D12*
X105190000Y-149500000D03*
%TD*%
D21*
%TO.C,Q3*%
X111080000Y-141522800D03*
X108540000Y-141522800D03*
D22*
X106000000Y-141522800D03*
%TD*%
D13*
%TO.C,R13*%
X146810000Y-149500000D03*
D12*
X139190000Y-149500000D03*
%TD*%
D13*
%TO.C,R18*%
X181000000Y-135230000D03*
D12*
X188620000Y-135230000D03*
%TD*%
D14*
%TO.C,D4*%
X107040000Y-88680000D03*
D15*
X104500000Y-88680000D03*
%TD*%
D23*
%TO.C,U3*%
X199500000Y-124500000D03*
X199500000Y-127040000D03*
D24*
X199500000Y-129580000D03*
%TD*%
D12*
%TO.C,C3*%
X199035500Y-98000000D03*
X194035500Y-98000000D03*
%TD*%
D25*
%TO.C,Q1*%
X103860000Y-114190000D03*
X103860000Y-115460000D03*
D26*
X103860000Y-116730000D03*
%TD*%
D14*
%TO.C,D6*%
X185000000Y-126190000D03*
D15*
X185000000Y-128730000D03*
%TD*%
D13*
%TO.C,R9*%
X181500000Y-50000000D03*
D12*
X181500000Y-57620000D03*
%TD*%
D14*
%TO.C,D2*%
X198000000Y-67000000D03*
D15*
X195460000Y-67000000D03*
%TD*%
D13*
%TO.C,C4*%
X154000000Y-66730000D03*
D12*
X146500000Y-66730000D03*
%TD*%
D13*
%TO.C,R17*%
X112500000Y-93610000D03*
D12*
X112500000Y-101230000D03*
%TD*%
D16*
%TO.C,Q7*%
X119000000Y-149522800D03*
X117730000Y-149522800D03*
D17*
X116460000Y-149522800D03*
%TD*%
D27*
%TO.C,J12*%
X137500000Y-60890000D03*
X137500000Y-59620000D03*
X137500000Y-58350000D03*
X137500000Y-57080000D03*
X137500000Y-55810000D03*
X137500000Y-54540000D03*
X137500000Y-53270000D03*
X137500000Y-52000000D03*
D28*
X137500000Y-50730000D03*
%TD*%
D16*
%TO.C,Q8*%
X135770000Y-149382800D03*
X134500000Y-149382800D03*
D17*
X133230000Y-149382800D03*
%TD*%
D13*
%TO.C,C6*%
X199000000Y-134250000D03*
D12*
X199000000Y-141750000D03*
%TD*%
D13*
%TO.C,R19*%
X166000000Y-130230000D03*
D12*
X173620000Y-130230000D03*
%TD*%
D29*
%TO.C,J15*%
X157960000Y-126730000D03*
X160500000Y-126730000D03*
X157960000Y-129270000D03*
X160500000Y-129270000D03*
X157960000Y-131810000D03*
D30*
X160500000Y-131810000D03*
%TD*%
D21*
%TO.C,Q4*%
X145580000Y-141522800D03*
X143040000Y-141522800D03*
D22*
X140500000Y-141522800D03*
%TD*%
D25*
%TO.C,Q2*%
X103860000Y-123230000D03*
X103860000Y-124500000D03*
D26*
X103860000Y-125770000D03*
%TD*%
D13*
%TO.C,R2*%
X109500000Y-115120000D03*
D12*
X109500000Y-107500000D03*
%TD*%
D20*
%TO.C,H2*%
X145624500Y-109252200D03*
%TD*%
D13*
%TO.C,R16*%
X112500000Y-83110000D03*
D12*
X112500000Y-90730000D03*
%TD*%
D13*
%TO.C,C8*%
X119500000Y-77000000D03*
D12*
X119500000Y-69500000D03*
%TD*%
D14*
%TO.C,D1*%
X151765000Y-91730000D03*
D15*
X149225000Y-91730000D03*
%TD*%
D13*
%TO.C,R7*%
X181500000Y-92920000D03*
D12*
X181500000Y-100540000D03*
%TD*%
D16*
%TO.C,Q6*%
X135770000Y-140882800D03*
X134500000Y-140882800D03*
D17*
X133230000Y-140882800D03*
%TD*%
D12*
%TO.C,C11*%
X112000000Y-77230000D03*
X114000000Y-77230000D03*
%TD*%
%TO.C,C2*%
X199000000Y-90500000D03*
X194000000Y-90500000D03*
%TD*%
D13*
%TO.C,C12*%
X166000000Y-136730000D03*
D12*
X173500000Y-136730000D03*
%TD*%
D13*
%TO.C,R6*%
X200120000Y-83500000D03*
D12*
X192500000Y-83500000D03*
%TD*%
D13*
%TO.C,R4*%
X141810000Y-90730000D03*
D12*
X134190000Y-90730000D03*
%TD*%
D13*
%TO.C,R5*%
X200120000Y-76500000D03*
D12*
X192500000Y-76500000D03*
%TD*%
%TO.C,C5*%
X151500000Y-75230000D03*
X149500000Y-75230000D03*
%TD*%
D31*
%TO.C,C9*%
X119392500Y-81500000D03*
D32*
X119392500Y-99500000D03*
%TD*%
D13*
%TO.C,C10*%
X112500000Y-63230000D03*
D12*
X112500000Y-70730000D03*
%TD*%
D14*
%TO.C,D5*%
X107040000Y-97230000D03*
D15*
X104500000Y-97230000D03*
%TD*%
M02*
